<?xml version="1.0" encoding="utf-8"?>
<!-- Generator: Adobe Illustrator 24.2.1, SVG Export Plug-In . SVG Version: 6.00 Build 0)  -->
<svg version="1.1" id="Layer_1" xmlns="http://www.w3.org/2000/svg" xmlns:xlink="http://www.w3.org/1999/xlink" x="0px" y="0px"
	 viewBox="0 0 100 100" style="enable-background:new 0 0 100 100;" xml:space="preserve">
<style type="text/css">
	.st0{fill-rule:evenodd;clip-rule:evenodd;fill:#BFC6C8;}
	.st1{fill-rule:evenodd;clip-rule:evenodd;fill:#F9C13B;}
	.st2{fill-rule:evenodd;clip-rule:evenodd;fill:#F4BE3C;}
	.st3{fill-rule:evenodd;clip-rule:evenodd;fill:#FFDC6C;}
	.st4{fill-rule:evenodd;clip-rule:evenodd;fill:#E6B542;}
	.st5{fill-rule:evenodd;clip-rule:evenodd;fill:#CF992A;}
	.st6{fill-rule:evenodd;clip-rule:evenodd;fill:#7FA348;}
	.st7{fill-rule:evenodd;clip-rule:evenodd;fill:#9BC856;}
	.st8{fill-rule:evenodd;clip-rule:evenodd;fill:#80A646;}
	.st9{fill-rule:evenodd;clip-rule:evenodd;fill:#89B04D;}
	.st10{fill-rule:evenodd;clip-rule:evenodd;fill:#86AB4D;}
</style>
<g>
	<g>
		<path class="st0" d="M53.1,99c0.7,0,1.4-0.2,1.9-0.5c0.5-0.3,0.8-0.7,0.8-1.1c0-0.4-0.3-0.8-0.8-1.1c-0.5-0.3-1.2-0.5-1.9-0.5
			c-0.7,0-1.4,0.2-1.9,0.5c-0.5,0.3-0.8,0.7-0.8,1.1c0,0.4,0.3,0.8,0.8,1.1C51.7,98.8,52.4,99,53.1,99z"/>
		<polygon class="st1" points="55,98.5 55.1,98.5 55.1,98.4 55.2,98.4 55.2,98.4 55.2,98.3 55.3,98.3 55.3,98.3 55.4,98.3 
			55.4,98.2 55.4,98.2 55.5,98.2 55.5,98.1 55.5,98.1 55.6,98.1 55.6,98 55.6,98 55.6,97.9 55.7,97.9 55.7,97.9 55.7,97.8 
			55.7,97.8 55.7,97.8 55.7,97.7 55.8,97.7 55.8,97.7 55.8,97.6 55.8,97.6 55.8,97.5 55.8,97.5 55.8,97.5 55.8,97.4 55.8,83.5 
			55.8,83.6 55.8,83.6 55.8,83.6 55.8,83.7 55.8,83.7 55.8,83.8 55.8,83.8 55.7,83.8 55.7,83.9 55.7,83.9 55.7,83.9 55.7,84 
			55.7,84 55.6,84 55.6,84.1 55.6,84.1 55.6,84.2 55.5,84.2 55.5,84.2 55.5,84.3 55.4,84.3 55.4,84.3 55.4,84.4 55.3,84.4 
			55.3,84.4 55.2,84.4 55.2,84.5 55.2,84.5 55.1,84.5 55.1,84.6 55,84.6 55,84.6 54.9,84.7 54.9,84.7 54.8,84.7 54.8,84.7 
			54.7,84.7 54.7,84.8 54.6,84.8 54.5,84.8 54.5,84.8 54.4,84.9 54.4,84.9 54.3,84.9 54.2,84.9 54.2,84.9 54.1,84.9 54.1,84.9 
			54,85 53.9,85 53.9,85 53.8,85 53.8,85 53.7,85 53.6,85 53.6,85 53.5,85 53.4,85 53.4,85 53.3,85 53.2,85 53.2,85.1 53.1,85.1 
			53.1,85.1 53,85 52.9,85 52.9,85 52.8,85 52.7,85 52.7,85 52.6,85 52.5,85 52.5,85 52.4,85 52.4,85 52.3,85 52.2,85 52.2,84.9 
			52.1,84.9 52,84.9 52,84.9 51.9,84.9 51.9,84.9 51.8,84.9 51.8,84.8 51.7,84.8 51.6,84.8 51.6,84.8 51.5,84.7 51.5,84.7 
			51.4,84.7 51.4,84.7 51.3,84.7 51.3,84.6 51.2,84.6 51.2,84.6 51.1,84.5 51.1,84.5 51,84.5 51,84.4 51,84.4 50.9,84.4 50.9,84.4 
			50.8,84.3 50.8,84.3 50.8,84.3 50.7,84.2 50.7,84.2 50.7,84.2 50.7,84.1 50.6,84.1 50.6,84 50.6,84 50.6,84 50.5,83.9 50.5,83.9 
			50.5,83.9 50.5,83.8 50.5,83.8 50.5,83.8 50.5,83.7 50.4,83.7 50.4,83.6 50.4,83.6 50.4,83.6 50.4,83.5 50.4,97.4 50.4,97.5 
			50.4,97.5 50.4,97.5 50.4,97.6 50.5,97.6 50.5,97.7 50.5,97.7 50.5,97.7 50.5,97.8 50.5,97.8 50.5,97.8 50.6,97.9 50.6,97.9 
			50.6,97.9 50.6,98 50.7,98 50.7,98.1 50.7,98.1 50.7,98.1 50.8,98.2 50.8,98.2 50.8,98.2 50.9,98.3 50.9,98.3 51,98.3 51,98.3 
			51,98.4 51.1,98.4 51.1,98.4 51.2,98.5 51.2,98.5 51.3,98.5 51.3,98.5 51.4,98.6 51.4,98.6 51.5,98.6 51.5,98.6 51.6,98.7 
			51.6,98.7 51.7,98.7 51.8,98.7 51.8,98.8 51.9,98.8 51.9,98.8 52,98.8 52,98.8 52.1,98.8 52.2,98.8 52.2,98.9 52.3,98.9 
			52.4,98.9 52.4,98.9 52.5,98.9 52.5,98.9 52.6,98.9 52.7,98.9 52.7,98.9 52.8,98.9 52.9,98.9 52.9,98.9 53,98.9 53.1,98.9 
			53.1,98.9 53.2,98.9 53.2,98.9 53.3,98.9 53.4,98.9 53.4,98.9 53.5,98.9 53.6,98.9 53.6,98.9 53.7,98.9 53.8,98.9 53.8,98.9 
			53.9,98.9 53.9,98.9 54,98.9 54.1,98.8 54.1,98.8 54.2,98.8 54.2,98.8 54.3,98.8 54.4,98.8 54.4,98.8 54.5,98.7 54.5,98.7 
			54.6,98.7 54.7,98.7 54.7,98.6 54.8,98.6 54.8,98.6 54.9,98.6 54.9,98.5 55,98.5 		"/>
		<path class="st2" d="M53.1,85.1c0.7,0,1.4-0.2,1.9-0.5c0.5-0.3,0.8-0.7,0.8-1.1s-0.3-0.8-0.8-1.1c-0.5-0.3-1.2-0.5-1.9-0.5
			c-0.7,0-1.4,0.2-1.9,0.5c-0.5,0.3-0.8,0.7-0.8,1.1s0.3,0.8,0.8,1.1C51.7,84.9,52.4,85.1,53.1,85.1z"/>
		<polygon class="st3" points="55,98.5 55.1,98.5 55.1,98.4 55.2,98.4 55.2,98.4 55.2,98.4 55.2,84.5 55.2,84.5 55.2,84.5 
			55.1,84.5 55.1,84.6 55,84.6 55,84.6 54.9,84.7 54.9,84.7 54.8,84.7 54.8,84.7 54.7,84.7 54.7,84.8 54.6,84.8 54.5,84.8 
			54.5,84.8 54.4,84.9 54.4,84.9 54.3,84.9 54.2,84.9 54.2,84.9 54.1,84.9 54.1,84.9 54,85 54,85 54,98.9 54,98.9 54.1,98.8 
			54.1,98.8 54.2,98.8 54.2,98.8 54.3,98.8 54.4,98.8 54.4,98.8 54.5,98.7 54.5,98.7 54.6,98.7 54.7,98.7 54.7,98.6 54.8,98.6 
			54.8,98.6 54.9,98.6 54.9,98.5 55,98.5 		"/>
		<polygon class="st4" points="52.3,85 52.3,85 52.2,85 52.2,84.9 52.1,84.9 52,84.9 52,84.9 51.9,84.9 51.9,84.9 51.8,84.9 
			51.8,84.8 51.7,84.8 51.6,84.8 51.6,84.8 51.5,84.7 51.5,84.7 51.4,84.7 51.4,84.7 51.3,84.7 51.3,84.6 51.2,84.6 51.2,84.6 
			51.1,84.5 51.1,84.5 51,84.5 51,84.5 51,98.4 51,98.4 51.1,98.4 51.1,98.4 51.2,98.5 51.2,98.5 51.3,98.5 51.3,98.5 51.4,98.6 
			51.4,98.6 51.5,98.6 51.5,98.6 51.6,98.7 51.6,98.7 51.7,98.7 51.8,98.7 51.8,98.8 51.9,98.8 51.9,98.8 52,98.8 52,98.8 
			52.1,98.8 52.2,98.8 52.2,98.9 52.3,98.9 52.3,98.9 		"/>
		<path class="st5" d="M53.1,84.6c0.6,0,1.2-0.1,1.7-0.4c0.5-0.3,0.7-0.6,0.7-1c0-0.4-0.2-0.7-0.7-1c-0.5-0.3-1.1-0.4-1.7-0.4
			c-0.6,0-1.2,0.1-1.7,0.4c-0.5,0.3-0.7,0.6-0.7,1c0,0.4,0.2,0.7,0.7,1C51.9,84.5,52.5,84.6,53.1,84.6z"/>
	</g>
	<polygon class="st6" points="45.6,2.2 45.6,2 45.7,1.9 45.8,1.7 45.9,1.6 46,1.4 46.1,1.3 46.2,1.2 46.4,1.1 46.5,1.1 46.6,1 
		46.7,1 46.8,1 46.9,1.1 47,1.1 54.3,5.3 54.2,5.3 54.1,5.2 54,5.2 53.9,5.2 53.8,5.3 53.6,5.3 53.5,5.4 53.4,5.5 53.3,5.6 
		53.2,5.8 53.1,5.9 53,6 52.9,6.2 52.9,6.3 52.3,7.6 51.7,9.1 51,10.6 50.3,12.2 49.5,14 48.7,15.8 47.8,17.8 46.9,19.8 45.7,22.5 
		44.5,25.2 43.2,28.1 41.9,30.9 40.6,33.8 39.4,36.7 38.2,39.5 37,42.3 35.8,45 34.7,47.6 33.7,50.1 32.8,52.4 31.9,54.6 31.2,56.6 
		30.6,58.4 30.1,60 29.6,61.7 29.1,63.4 28.8,65.1 28.5,66.7 28.3,68.3 28.1,69.8 28,71.3 28,72.7 28.1,74.8 28.3,76.7 28.6,78.6 
		29.1,80.3 29.7,81.9 30.4,83.4 31.2,84.7 32.2,85.9 33.2,87 34.4,87.9 35.6,88.6 28.4,84.4 27.1,83.7 26,82.8 24.9,81.7 24,80.5 
		23.1,79.2 22.4,77.7 21.8,76.1 21.4,74.4 21,72.5 20.8,70.6 20.7,68.5 20.8,67.1 20.9,65.6 21,64.1 21.2,62.5 21.5,60.9 21.9,59.2 
		22.3,57.5 22.8,55.8 23.3,54.2 23.9,52.4 24.7,50.4 25.5,48.3 26.4,45.9 27.5,43.4 28.6,40.8 29.7,38.1 30.9,35.3 32.1,32.5 
		33.4,29.6 34.7,26.8 35.9,23.9 37.2,21.1 38.4,18.3 39.6,15.6 40.5,13.6 41.4,11.7 42.2,9.8 43,8.1 43.7,6.4 44.4,4.9 45,3.4 	"/>
	<path class="st7" d="M52.9,6.3c0.1-0.4,0.4-0.8,0.8-1c0.3-0.2,0.6-0.1,0.8,0.1c1.4,1.6,3.5,3.9,5.9,6.5
		c6.4,6.9,14.5,15.7,16.9,20.8c1.4,3.1,2,6.6,2,10.3c0,5.7-1.5,12-4.2,18.1C72.4,67.2,68.6,73,64,77.9c-6.5,6.9-14.3,11.4-20.8,12
		c-4.6,0.4-8.4-1-11.1-4c-2.7-3-4.2-7.5-4.2-13.2c0-3.7,0.6-8,2-12.7c2.3-7.7,10.5-26,16.9-40.2C49.3,14.4,51.5,9.6,52.9,6.3z"/>
	<path class="st8" d="M52.9,6.3c0.1-0.4,0.4-0.8,0.8-1c0.3-0.2,0.6-0.1,0.8,0.1l0.2,0.2V36l12.9-16.1l0,0l0.3,0.4l0.3,0.4l0.3,0.4
		l0.1,0.1v0l-14,17.4v16.3l20.5-25.5l0.1,0.1l0.8,1.3l0,0L54.6,57.3v16.3L79.3,43v0.1v0v0v0v0v0v0v0v0v0v0l0,0v0l0,0v0v0l0,0v0v0v0
		l0,0l0,0v0v0l0,0v0l0,0v0l0,0l0,0v0v0l0,0l0,0l0,0v0l0,0l0,0v0v0l0,0l0,0l0,0l0,0l0,0l0,0l0,0l0,0v0l0,0l0,0l0,0l0,0l0,0v0l0,0l0,0
		l0,0l0,0l0,0l0,0l0,0v0l0,0l0,0l0,0l0,0l0,0l0,0l0,0v0l0,0l0,0l0,0v0L54.6,76.2c0,6.9-0.1,4-0.1,9.5c-0.6,0.4-1.2,0.7-1.7,1
		c0-5.5-0.1-2.5-0.1-9.4l-24.6-2.2l0,0l0,0l0,0v0l0,0l0,0l0,0l0,0l0-0.2l0,0l0,0l0,0l0,0l0,0l0,0v0l0,0l0,0v0l0,0l0,0l0,0v0l0,0
		l0-0.2l0,0v0l0-0.1l0,0v0l0,0l0,0l0,0v0v0l0,0l0,0l0,0v0v0l0,0v0l0,0v0l0,0v0v0l0,0v0v0v0l0,0v0l0,0v0v0v0v0v0v0v0v0v0v0v-0.1
		l24.7,2.2V58.4l-21.5-1.9l0,0l0,0l0,0l0,0l0,0l0,0l0,0l0,0l0,0l0,0l0.5-1.3l0,0l0,0l0-0.1l0,0v0l0,0l0,0l0,0l0,0l0,0l0,0l0,0l0,0
		l0,0l0,0l0,0l0,0l0,0l0,0l0,0l20.5,1.8V39.6l-14-1.3l0.1-0.3l0.9-2.1l0,0l12.9,1.2V6.8L52.9,6.3z"/>
	<polygon class="st9" points="45.6,2.2 45.7,2 45.7,1.9 45.8,1.7 45.9,1.6 46,1.4 46.1,1.3 46.2,1.2 46.4,1.1 46.5,1.1 46.6,1 
		46.7,1 46.8,1 46.9,1.1 47,1.1 54.3,5.3 54.2,5.3 54.1,5.2 54,5.2 53.9,5.2 53.8,5.3 53.6,5.3 53.5,5.4 53.4,5.5 53.3,5.6 
		53.2,5.8 53.1,5.9 53,6 52.9,6.2 52.9,6.3 52.3,7.6 51.7,9.1 51,10.6 50.3,12.2 49.5,14 48.7,15.8 47.8,17.8 46.9,19.8 45.7,22.5 
		44.5,25.2 43.2,28.1 41.9,30.9 40.6,33.8 39.4,36.7 38.2,39.5 37,42.3 35.8,45 34.7,47.6 33.7,50.1 32.8,52.4 31.9,54.6 31.2,56.6 
		30.6,58.4 30.1,60 29.6,61.7 29.1,63.4 28.8,65.1 28.6,65.9 21.4,61.8 21.5,60.9 21.9,59.2 22.3,57.5 22.8,55.8 23.3,54.2 
		23.9,52.4 24.7,50.4 25.5,48.3 26.4,45.9 27.5,43.4 28.6,40.8 29.7,38.1 30.9,35.3 32.1,32.5 33.4,29.6 34.7,26.8 35.9,23.9 
		37.2,21.1 38.4,18.3 39.6,15.6 40.5,13.6 41.4,11.7 42.2,9.8 43,8.1 43.7,6.4 44.4,4.9 45,3.4 	"/>
	<polygon class="st10" points="38,39.9 37,42.3 35.8,45 34.7,47.6 33.7,50.1 32.8,52.4 31.9,54.6 31.2,56.6 30.6,58.4 30.1,60 
		29.6,61.7 29.1,63.4 28.8,65.1 28.6,65.9 21.4,61.8 21.5,60.9 21.9,59.2 22.3,57.5 22.8,55.8 23.3,54.2 23.9,52.4 24.7,50.4 
		25.5,48.3 26.4,45.9 27.5,43.4 28.6,40.8 29.7,38.1 30.7,35.7 	"/>
</g>
</svg>
