<?xml version="1.0" encoding="utf-8"?>
<!-- Generator: Adobe Illustrator 24.2.1, SVG Export Plug-In . SVG Version: 6.00 Build 0)  -->
<svg version="1.1" id="Layer_1" xmlns="http://www.w3.org/2000/svg" xmlns:xlink="http://www.w3.org/1999/xlink" x="0px" y="0px"
	 viewBox="0 0 100 100" style="enable-background:new 0 0 100 100;" xml:space="preserve">
<style type="text/css">
	.st0{fill-rule:evenodd;clip-rule:evenodd;fill:#9B9C9C;}
	.st1{fill-rule:evenodd;clip-rule:evenodd;fill:#ADBFC0;}
	.st2{fill-rule:evenodd;clip-rule:evenodd;fill:#2D3F50;}
	.st3{fill-rule:evenodd;clip-rule:evenodd;fill:#3E576F;}
	.st4{fill-rule:evenodd;clip-rule:evenodd;fill:#1D2834;}
	.st5{fill-rule:evenodd;clip-rule:evenodd;fill:#334659;}
	.st6{fill-rule:evenodd;clip-rule:evenodd;fill:#C9CFD4;}
	.st7{fill-rule:evenodd;clip-rule:evenodd;fill:#E6EAEA;}
	.st8{fill-rule:evenodd;clip-rule:evenodd;fill:#28AE60;}
	.st9{fill-rule:evenodd;clip-rule:evenodd;fill:#EFB11E;}
	.st10{fill-rule:evenodd;clip-rule:evenodd;fill:#9EA3A7;}
	.st11{fill-rule:evenodd;clip-rule:evenodd;fill:#36495C;}
	.st12{fill-rule:evenodd;clip-rule:evenodd;fill:#DD8F27;}
	.st13{fill-rule:evenodd;clip-rule:evenodd;fill:#FBCE4D;}
	.st14{fill-rule:evenodd;clip-rule:evenodd;fill:#CCCCCC;}
</style>
<g>
	<g>
		<polygon class="st0" points="73.4,62.6 69.2,60.1 69.2,62.1 69.3,62.3 69.3,62.6 69.4,62.7 69.6,62.8 73.8,65.3 73.6,65.2 
			73.5,65 73.5,64.8 73.4,64.5 		"/>
		<polygon class="st0" points="78.7,59.5 74.5,57.1 69.2,60.1 73.4,62.6 		"/>
		<polygon class="st0" points="45.5,78.7 41.3,76.2 41.3,78.2 41.3,78.5 41.4,78.7 41.5,78.8 41.7,79 45.9,81.4 45.7,81.3 
			45.6,81.1 45.5,80.9 45.5,80.6 		"/>
		<polygon class="st0" points="50.8,75.6 46.6,73.2 41.3,76.2 45.5,78.7 		"/>
	</g>
	<g>
		<path class="st1" d="M45.4,78.6v2c0,0.7,0.5,1,1.2,0.7l3-1.7c0.6-0.4,1.2-1.3,1.2-2v-2L45.4,78.6z"/>
		<path class="st1" d="M73.3,62.5v2c0,0.7,0.5,1,1.2,0.7l3-1.7c0.6-0.4,1.2-1.3,1.2-2v-2L73.3,62.5z"/>
	</g>
	<path class="st2" d="M13.6,64.6l0.2-34.8l0.1-0.7l0.2-0.8l0.3-0.8l0.4-0.7l0.4-0.7l0.5-0.6l0.6-0.5l0.6-0.4l0.8-0.5l0.9-0.5l1-0.6
		l1.1-0.6l1.1-0.7l1.2-0.7l1.3-0.7l1.3-0.8l1.4-0.8l1.4-0.8l1.4-0.8l1.5-0.8l1.5-0.9l1.5-0.9l1.5-0.9l1.5-0.9l1.5-0.9l1.5-0.9
		l1.5-0.9l1.5-0.9l1.5-0.8l1.4-0.8l1.4-0.8l1.4-0.8l1.3-0.8l1.3-0.7l1.2-0.7l1.1-0.7l1.1-0.6l1-0.6l0.9-0.5l0.8-0.5l0.6-0.3l0.6-0.1
		l0.5,0l0.4,0.2l25.8,14.9c0.5,0.3,0.9,1,0.9,1.9c0,21.6,0,11.1,0,34.7c0,1.9-1.3,4.2-3,5.2c-8.2,4.7-32.7,18.9-40.9,23.6
		c-0.8,0.5-1.6,0.5-2.1,0.2L14.5,66.6l-0.4-0.3l-0.3-0.4l-0.2-0.6L13.6,64.6z"/>
	<path class="st3" d="M86.4,17.8c0,21.6,0,11.1,0,34.7c0,1.9-1.3,4.2-3,5.2c-8.2,4.7-32.7,18.9-40.9,23.6c-1.7,1-3,0.2-3-1.8
		l0.2-34.8c0-1.9,1.3-4.3,3-5.2c8.1-4.7,32.6-18.8,40.7-23.5C85,15.1,86.4,15.9,86.4,17.8z"/>
	<path class="st4" d="M81.7,22.4L43.8,44.2c0,9.7,0,19.9,0,31l37.9-21.9C81.7,45.5,81.7,33.2,81.7,22.4z"/>
	<path class="st5" d="M42.8,44.2c0-0.3,0.2-0.7,0.5-0.9l38.9-22.5c0.3-0.2,0.5,0,0.5,0.3v32.2c0,0.3-0.2,0.7-0.5,0.9L43.3,76.8
		c-0.3,0.2-0.5,0-0.5-0.3C42.8,66.1,42.8,55.9,42.8,44.2z"/>
	<path class="st2" d="M53.9,37.2l28.3-16.3c0.3-0.2,0.5,0,0.5,0.3v32.2c0,0.1,0,0.3-0.1,0.4L53.9,37.2z"/>
	<g>
		<polygon class="st6" points="67.4,41.1 67.4,46.8 67.4,46.9 67.4,47 67.3,47.2 67.3,47.3 67.2,47.4 67.1,47.5 66.9,47.6 
			66.8,47.7 49.9,57.4 49.9,57.4 49.8,57.5 49.7,57.5 49.6,57.6 49.5,57.6 49.4,57.6 49.3,57.6 49.2,57.7 49.2,57.7 49.1,57.7 
			49,57.7 48.9,57.7 48.8,57.7 48.7,57.7 48.6,57.7 48.4,57.8 48.3,57.7 48.2,57.7 48.1,57.7 48,57.7 47.9,57.7 47.8,57.7 
			47.7,57.7 47.6,57.7 47.6,57.6 47.5,57.6 47.4,57.6 47.3,57.5 47.2,57.5 47.1,57.5 47,57.4 46.9,57.4 38.9,52.7 38.7,52.6 
			38.6,52.5 38.5,52.4 38.4,52.3 38.3,52.2 38.3,52.1 38.2,52 38.2,51.9 38.2,46.1 38.2,46.3 38.3,46.4 38.3,46.5 38.4,46.6 
			38.5,46.7 38.6,46.8 38.7,46.9 38.9,47 46.9,51.7 47,51.7 47.1,51.8 47.2,51.8 47.3,51.8 47.4,51.9 47.5,51.9 47.6,51.9 47.6,52 
			47.7,52 47.8,52 47.9,52 48,52 48.1,52 48.2,52 48.3,52 48.4,52 48.5,52 48.7,52 48.8,52 48.9,52 49,52 49.1,52 49.2,52 49.2,52 
			49.3,51.9 49.4,51.9 49.5,51.9 49.6,51.8 49.7,51.8 49.8,51.8 49.9,51.7 49.9,51.7 66.8,42 66.9,41.9 67.1,41.8 67.2,41.7 
			67.2,41.6 67.3,41.4 67.4,41.3 67.4,41.2 		"/>
		<g>
			<path class="st7" d="M38.9,45.3l16.8-9.7c0.8-0.5,2.2-0.5,3,0l8.1,4.7c0.8,0.5,0.8,1.3,0,1.7l-16.8,9.7c-0.8,0.5-2.2,0.5-3,0
				L38.9,47C38,46.5,38,45.8,38.9,45.3z"/>
			<path class="st8" d="M48.6,43c-0.1,0.7,0.4,1.5,1.5,2.2c1.1,0.6,2.5,0.9,3.7,0.9l0,0L48.6,43L48.6,43z"/>
			<path class="st8" d="M58.6,45.1c0.4-1.1-0.4-2.5-2.2-3.5c-1.8-1.1-4.2-1.5-6.1-1.3L50,40.1c2.3-1.3,4.6-2.6,6.9-4
				c0.3-0.2,0.7-0.1,1.1,0c2.6,1.5,5.2,3,7.8,4.5c0.3,0.2,0.3,0.4,0,0.6c-2.3,1.3-4.6,2.6-6.9,4L58.6,45.1z"/>
			<path class="st8" d="M51.8,41.2c1.3,0,2.7,0.3,3.7,0.9c1.1,0.6,1.6,1.4,1.5,2.2l0,0L51.8,41.2L51.8,41.2z"/>
			<path class="st8" d="M55.4,47c-1.9,0.2-4.3-0.2-6.1-1.3c-1.8-1.1-2.6-2.4-2.2-3.5L46.8,42c-2.3,1.3-4.6,2.7-6.9,4
				c-0.3,0.2-0.3,0.4,0,0.6c2.6,1.5,5.2,3,7.8,4.5c0.3,0.2,0.8,0.2,1.1,0c2.3-1.3,4.6-2.7,6.9-4L55.4,47z"/>
			<path class="st7" d="M62.7,42.3l2.1-1.2c0.1-0.1,0.1-0.2,0-0.2l-0.3-0.2c-0.1-0.1-0.3-0.1-0.4,0L62,41.9c-0.1,0.1-0.1,0.2,0,0.2
				l0.3,0.2C62.4,42.4,62.5,42.4,62.7,42.3z"/>
			<path class="st7" d="M55.8,38.3l2.1-1.2c0.1-0.1,0.1-0.2,0-0.2l-0.3-0.2c-0.1-0.1-0.3-0.1-0.4,0l-2.1,1.2c-0.1,0.1-0.1,0.2,0,0.2
				l0.3,0.2C55.5,38.4,55.7,38.4,55.8,38.3z"/>
			<path class="st7" d="M60.9,39.9c0.5-0.3,0.5-0.7,0-1c-0.5-0.3-1.2-0.3-1.7,0c-0.5,0.3-0.5,0.7,0,1C59.7,40.2,60.4,40.2,60.9,39.9
				z"/>
			<path class="st7" d="M50.5,49.3l-2.1,1.2c-0.1,0.1-0.3,0.1-0.4,0l-0.3-0.2c-0.1-0.1-0.1-0.2,0-0.2l2.1-1.2c0.1-0.1,0.3-0.1,0.4,0
				l0.3,0.2C50.6,49.1,50.6,49.2,50.5,49.3z"/>
			<path class="st7" d="M43.6,45.3l-2.1,1.2c-0.1,0.1-0.3,0.1-0.4,0l-0.3-0.2c-0.1-0.1-0.1-0.2,0-0.2l2.1-1.2c0.1-0.1,0.3-0.1,0.4,0
				l0.3,0.2C43.8,45.2,43.8,45.3,43.6,45.3z"/>
			<path class="st7" d="M46.4,48.3c-0.5,0.3-1.2,0.3-1.7,0c-0.5-0.3-0.4-0.7,0-1c0.5-0.3,1.2-0.3,1.7,0C46.9,47.6,46.8,48,46.4,48.3
				z"/>
			<polygon class="st7" points="60.3,45.7 56.4,48 45.3,41.6 49.2,39.3 			"/>
			<polygon class="st9" points="57.6,47.3 56.8,47.8 45.7,41.3 46.5,40.9 			"/>
			<polygon class="st9" points="58,47.1 58.4,46.8 58.8,46.6 47.7,40.2 47.3,40.4 46.9,40.6 			"/>
			<polygon class="st9" points="59.6,46.1 59.2,46.4 48.1,40 48.5,39.7 48.9,39.5 60,45.9 			"/>
		</g>
		<polygon class="st10" points="67.4,41.5 67.4,41.8 67.4,41.9 67.4,42 67.3,42.1 67.2,42.3 67.2,42.4 67.1,42.5 66.9,42.6 
			66.8,42.7 49.9,52.4 49.9,52.4 49.8,52.5 49.7,52.5 49.6,52.5 49.5,52.6 49.4,52.6 49.3,52.6 49.2,52.6 49.2,52.7 49.1,52.7 
			49,52.7 48.9,52.7 48.8,52.7 48.7,52.7 48.5,52.7 48.4,52.7 48.3,52.7 48.2,52.7 48.1,52.7 48,52.7 47.9,52.7 47.8,52.7 
			47.7,52.7 47.6,52.6 47.6,52.6 47.5,52.6 47.4,52.6 47.3,52.5 47.2,52.5 47.1,52.5 47,52.4 46.9,52.4 38.9,47.7 38.7,47.6 
			38.6,47.5 38.5,47.4 38.4,47.3 38.3,47.2 38.3,47.1 38.2,47 38.2,46.8 38.2,46.6 38.2,46.7 38.3,46.8 38.3,46.9 38.4,47 
			38.5,47.1 38.6,47.2 38.7,47.3 38.9,47.4 46.9,52.1 47,52.1 47.1,52.2 47.2,52.2 47.3,52.3 47.4,52.3 47.5,52.3 47.6,52.3 
			47.6,52.4 47.7,52.4 47.8,52.4 47.9,52.4 48,52.4 48.1,52.4 48.2,52.4 48.3,52.5 48.4,52.5 48.5,52.5 48.7,52.4 48.8,52.4 
			48.9,52.4 49,52.4 49.1,52.4 49.2,52.4 49.2,52.4 49.3,52.3 49.4,52.3 49.5,52.3 49.6,52.3 49.7,52.2 49.8,52.2 49.9,52.1 
			49.9,52.1 66.8,42.4 66.9,42.3 67.1,42.2 67.2,42.1 67.2,42 67.3,41.9 67.4,41.7 67.4,41.6 		"/>
		<polygon class="st10" points="67.4,42.2 67.4,42.5 67.4,42.6 67.4,42.7 67.3,42.8 67.2,42.9 67.2,43 67.1,43.1 66.9,43.2 
			66.8,43.3 49.9,53 49.9,53.1 49.8,53.1 49.7,53.2 49.6,53.2 49.5,53.2 49.4,53.3 49.3,53.3 49.2,53.3 49.2,53.3 49.1,53.3 
			49,53.4 48.9,53.4 48.8,53.4 48.7,53.4 48.5,53.4 48.4,53.4 48.3,53.4 48.2,53.4 48.1,53.4 48,53.4 47.9,53.4 47.8,53.3 
			47.7,53.3 47.6,53.3 47.6,53.3 47.5,53.3 47.4,53.2 47.3,53.2 47.2,53.2 47.1,53.1 47,53.1 46.9,53 38.9,48.4 38.7,48.3 
			38.6,48.2 38.5,48.1 38.4,48 38.3,47.8 38.3,47.7 38.2,47.6 38.2,47.5 38.2,47.2 38.2,47.3 38.3,47.4 38.3,47.6 38.4,47.7 
			38.5,47.8 38.6,47.9 38.7,48 38.9,48.1 46.9,52.8 47,52.8 47.1,52.8 47.2,52.9 47.3,52.9 47.4,52.9 47.5,53 47.6,53 47.6,53 
			47.7,53 47.8,53.1 47.9,53.1 48,53.1 48.1,53.1 48.2,53.1 48.3,53.1 48.4,53.1 48.5,53.1 48.7,53.1 48.8,53.1 48.9,53.1 49,53.1 
			49.1,53.1 49.2,53 49.2,53 49.3,53 49.4,53 49.5,52.9 49.6,52.9 49.7,52.9 49.8,52.8 49.9,52.8 49.9,52.8 66.8,43 66.9,42.9 
			67.1,42.8 67.2,42.7 67.2,42.6 67.3,42.5 67.4,42.4 67.4,42.3 		"/>
		<polygon class="st10" points="67.4,42.8 67.4,43.1 67.4,43.2 67.4,43.3 67.3,43.5 67.2,43.6 67.2,43.7 67.1,43.8 66.9,43.9 
			66.8,44 49.9,53.7 49.9,53.7 49.8,53.8 49.7,53.8 49.6,53.9 49.5,53.9 49.4,53.9 49.3,53.9 49.2,54 49.2,54 49.1,54 49,54 
			48.9,54 48.8,54 48.7,54.1 48.5,54.1 48.4,54.1 48.3,54.1 48.2,54.1 48.1,54 48,54 47.9,54 47.8,54 47.7,54 47.6,54 47.6,53.9 
			47.5,53.9 47.4,53.9 47.3,53.9 47.2,53.8 47.1,53.8 47,53.7 46.9,53.7 38.9,49 38.7,48.9 38.6,48.8 38.5,48.7 38.4,48.6 
			38.3,48.5 38.3,48.4 38.2,48.3 38.2,48.2 38.2,47.9 38.2,48 38.3,48.1 38.3,48.2 38.4,48.3 38.5,48.4 38.6,48.5 38.7,48.6 
			38.9,48.7 46.9,53.4 47,53.5 47.1,53.5 47.2,53.5 47.3,53.6 47.4,53.6 47.5,53.6 47.6,53.7 47.6,53.7 47.7,53.7 47.8,53.7 
			47.9,53.7 48,53.8 48.1,53.8 48.2,53.8 48.3,53.8 48.4,53.8 48.5,53.8 48.7,53.8 48.8,53.8 48.9,53.8 49,53.7 49.1,53.7 
			49.2,53.7 49.2,53.7 49.3,53.7 49.4,53.6 49.5,53.6 49.6,53.6 49.7,53.5 49.8,53.5 49.9,53.5 49.9,53.4 66.8,43.7 66.9,43.6 
			67.1,43.5 67.2,43.4 67.2,43.3 67.3,43.2 67.4,43.1 67.4,42.9 		"/>
		<polygon class="st10" points="67.4,43.5 67.4,43.8 67.4,43.9 67.4,44 67.3,44.1 67.2,44.2 67.2,44.3 67.1,44.4 66.9,44.5 
			66.8,44.6 49.9,54.4 49.9,54.4 49.8,54.4 49.7,54.5 49.6,54.5 49.5,54.5 49.4,54.6 49.3,54.6 49.2,54.6 49.2,54.6 49.1,54.7 
			49,54.7 48.9,54.7 48.8,54.7 48.7,54.7 48.5,54.7 48.4,54.7 48.3,54.7 48.2,54.7 48.1,54.7 48,54.7 47.9,54.7 47.8,54.7 
			47.7,54.6 47.6,54.6 47.6,54.6 47.5,54.6 47.4,54.5 47.3,54.5 47.2,54.5 47.1,54.4 47,54.4 46.9,54.4 38.9,49.7 38.7,49.6 
			38.6,49.5 38.5,49.4 38.4,49.3 38.3,49.2 38.3,49.1 38.2,48.9 38.2,48.8 38.2,48.5 38.2,48.7 38.3,48.8 38.3,48.9 38.4,49 
			38.5,49.1 38.6,49.2 38.7,49.3 38.9,49.4 46.9,54.1 47,54.1 47.1,54.2 47.2,54.2 47.3,54.2 47.4,54.3 47.5,54.3 47.6,54.3 
			47.6,54.3 47.7,54.4 47.8,54.4 47.9,54.4 48,54.4 48.1,54.4 48.2,54.4 48.3,54.4 48.4,54.4 48.5,54.4 48.7,54.4 48.8,54.4 
			48.9,54.4 49,54.4 49.1,54.4 49.2,54.4 49.2,54.3 49.3,54.3 49.4,54.3 49.5,54.3 49.6,54.2 49.7,54.2 49.8,54.2 49.9,54.1 
			49.9,54.1 66.8,44.4 66.9,44.3 67.1,44.2 67.2,44.1 67.2,44 67.3,43.8 67.4,43.7 67.4,43.6 		"/>
		<polygon class="st10" points="67.4,44.2 67.4,44.4 67.4,44.6 67.4,44.7 67.3,44.8 67.2,44.9 67.2,45 67.1,45.1 66.9,45.2 
			66.8,45.3 49.9,55 49.9,55.1 49.8,55.1 49.7,55.1 49.6,55.2 49.5,55.2 49.4,55.2 49.3,55.3 49.2,55.3 49.2,55.3 49.1,55.3 
			49,55.3 48.9,55.4 48.8,55.4 48.7,55.4 48.5,55.4 48.4,55.4 48.3,55.4 48.2,55.4 48.1,55.4 48,55.4 47.9,55.3 47.8,55.3 
			47.7,55.3 47.6,55.3 47.6,55.3 47.5,55.2 47.4,55.2 47.3,55.2 47.2,55.1 47.1,55.1 47,55.1 46.9,55 38.9,50.3 38.7,50.3 
			38.6,50.2 38.5,50 38.4,49.9 38.3,49.8 38.3,49.7 38.2,49.6 38.2,49.5 38.2,49.2 38.2,49.3 38.3,49.4 38.3,49.5 38.4,49.7 
			38.5,49.8 38.6,49.9 38.7,50 38.9,50.1 46.9,54.7 47,54.8 47.1,54.8 47.2,54.9 47.3,54.9 47.4,54.9 47.5,55 47.6,55 47.6,55 
			47.7,55 47.8,55 47.9,55.1 48,55.1 48.1,55.1 48.2,55.1 48.3,55.1 48.4,55.1 48.5,55.1 48.7,55.1 48.8,55.1 48.9,55.1 49,55.1 
			49.1,55 49.2,55 49.2,55 49.3,55 49.4,55 49.5,54.9 49.6,54.9 49.7,54.9 49.8,54.8 49.9,54.8 49.9,54.7 66.8,45 66.9,44.9 
			67.1,44.8 67.2,44.7 67.2,44.6 67.3,44.5 67.4,44.4 67.4,44.3 		"/>
		<polygon class="st10" points="67.4,44.8 67.4,45.1 67.4,45.2 67.4,45.3 67.3,45.4 67.2,45.6 67.2,45.7 67.1,45.8 66.9,45.9 
			66.8,46 49.9,55.7 49.9,55.7 49.8,55.8 49.7,55.8 49.6,55.8 49.5,55.9 49.4,55.9 49.3,55.9 49.2,55.9 49.2,56 49.1,56 49,56 
			48.9,56 48.8,56 48.7,56 48.5,56 48.4,56 48.3,56 48.2,56 48.1,56 48,56 47.9,56 47.8,56 47.7,56 47.6,55.9 47.6,55.9 47.5,55.9 
			47.4,55.9 47.3,55.8 47.2,55.8 47.1,55.8 47,55.7 46.9,55.7 38.9,51 38.7,50.9 38.6,50.8 38.5,50.7 38.4,50.6 38.3,50.5 
			38.3,50.4 38.2,50.3 38.2,50.1 38.2,49.9 38.2,50 38.3,50.1 38.3,50.2 38.4,50.3 38.5,50.4 38.6,50.5 38.7,50.6 38.9,50.7 
			46.9,55.4 47,55.4 47.1,55.5 47.2,55.5 47.3,55.6 47.4,55.6 47.5,55.6 47.6,55.6 47.6,55.7 47.7,55.7 47.8,55.7 47.9,55.7 
			48,55.7 48.1,55.7 48.2,55.7 48.3,55.8 48.4,55.8 48.5,55.8 48.7,55.7 48.8,55.7 48.9,55.7 49,55.7 49.1,55.7 49.2,55.7 
			49.2,55.7 49.3,55.6 49.4,55.6 49.5,55.6 49.6,55.6 49.7,55.5 49.8,55.5 49.9,55.4 49.9,55.4 66.8,45.7 66.9,45.6 67.1,45.5 
			67.2,45.4 67.2,45.3 67.3,45.2 67.4,45 67.4,44.9 		"/>
		<polygon class="st10" points="67.4,45.5 67.4,45.8 67.4,45.9 67.4,46 67.3,46.1 67.2,46.2 67.2,46.3 67.1,46.4 66.9,46.5 
			66.8,46.6 49.9,56.3 49.9,56.4 49.8,56.4 49.7,56.5 49.6,56.5 49.5,56.5 49.4,56.6 49.3,56.6 49.2,56.6 49.2,56.6 49.1,56.6 
			49,56.7 48.9,56.7 48.8,56.7 48.7,56.7 48.5,56.7 48.4,56.7 48.3,56.7 48.2,56.7 48.1,56.7 48,56.7 47.9,56.7 47.8,56.6 
			47.7,56.6 47.6,56.6 47.6,56.6 47.5,56.6 47.4,56.5 47.3,56.5 47.2,56.5 47.1,56.4 47,56.4 46.9,56.3 38.9,51.7 38.7,51.6 
			38.6,51.5 38.5,51.4 38.4,51.3 38.3,51.1 38.3,51 38.2,50.9 38.2,50.8 38.2,50.5 38.2,50.6 38.3,50.7 38.3,50.9 38.4,51 
			38.5,51.1 38.6,51.2 38.7,51.3 38.9,51.4 46.9,56.1 47,56.1 47.1,56.1 47.2,56.2 47.3,56.2 47.4,56.2 47.5,56.3 47.6,56.3 
			47.6,56.3 47.7,56.3 47.8,56.4 47.9,56.4 48,56.4 48.1,56.4 48.2,56.4 48.3,56.4 48.4,56.4 48.5,56.4 48.7,56.4 48.8,56.4 
			48.9,56.4 49,56.4 49.1,56.4 49.2,56.3 49.2,56.3 49.3,56.3 49.4,56.3 49.5,56.2 49.6,56.2 49.7,56.2 49.8,56.1 49.9,56.1 
			49.9,56.1 66.8,46.3 66.9,46.2 67.1,46.1 67.2,46 67.2,45.9 67.3,45.8 67.4,45.7 67.4,45.6 		"/>
		<polygon class="st10" points="67.4,46.1 67.4,46.4 67.4,46.5 67.4,46.6 67.3,46.8 67.2,46.9 67.2,47 67.1,47.1 66.9,47.2 
			66.8,47.3 49.9,57 49.9,57 49.8,57.1 49.7,57.1 49.6,57.2 49.5,57.2 49.4,57.2 49.3,57.2 49.2,57.3 49.2,57.3 49.1,57.3 49,57.3 
			48.9,57.3 48.8,57.3 48.7,57.4 48.5,57.4 48.4,57.4 48.3,57.4 48.2,57.4 48.1,57.3 48,57.3 47.9,57.3 47.8,57.3 47.7,57.3 
			47.6,57.3 47.6,57.2 47.5,57.2 47.4,57.2 47.3,57.2 47.2,57.1 47.1,57.1 47,57 46.9,57 38.9,52.3 38.7,52.2 38.6,52.1 38.5,52 
			38.4,51.9 38.3,51.8 38.3,51.7 38.2,51.6 38.2,51.5 38.2,51.2 38.2,51.3 38.3,51.4 38.3,51.5 38.4,51.6 38.5,51.7 38.6,51.9 
			38.7,51.9 38.9,52 46.9,56.7 47,56.8 47.1,56.8 47.2,56.8 47.3,56.9 47.4,56.9 47.5,56.9 47.6,57 47.6,57 47.7,57 47.8,57 
			47.9,57 48,57.1 48.1,57.1 48.2,57.1 48.3,57.1 48.4,57.1 48.5,57.1 48.7,57.1 48.8,57.1 48.9,57.1 49,57 49.1,57 49.2,57 
			49.2,57 49.3,57 49.4,56.9 49.5,56.9 49.6,56.9 49.7,56.8 49.8,56.8 49.9,56.8 49.9,56.7 66.8,47 66.9,46.9 67.1,46.8 67.2,46.7 
			67.2,46.6 67.3,46.5 67.4,46.4 67.4,46.2 		"/>
		<path class="st7" d="M60.3,45.7v5.7c-2.3,1.3-1.9,1.1-4.2,2.4v-5.7C58.5,46.8,58,47,60.3,45.7z"/>
		<path class="st9" d="M59.6,51.8l-0.4,0.2v-5.7l0.4-0.2l0.4-0.2v5.7L59.6,51.8L59.6,51.8z M58.4,52.5l0.4-0.2v-5.7l-0.4,0.2
			L58,47.1v5.7L58.4,52.5L58.4,52.5z M57.6,47.3V53l-0.8,0.5v-5.7L57.6,47.3z"/>
		<polygon class="st10" points="67.4,42.2 67.4,42.5 67.4,42.6 67.4,42.7 67.3,42.8 67.2,42.9 67.2,43 67.1,43.1 66.9,43.2 
			66.8,43.3 49.9,53 49.9,53.1 49.8,53.1 49.7,53.2 49.6,53.2 49.5,53.2 49.4,53.3 49.3,53.3 49.2,53.3 49.2,53.3 49.1,53.3 
			49,53.4 48.9,53.4 48.8,53.4 48.7,53.4 48.5,53.4 48.4,53.4 48.3,53.4 48.2,53.4 48.1,53.4 48,53.4 47.9,53.4 47.8,53.3 
			47.7,53.3 47.6,53.3 47.6,53.3 47.5,53.3 47.4,53.2 47.3,53.2 47.2,53.2 47.1,53.1 47,53.1 46.9,53 38.9,48.4 38.7,48.3 
			38.6,48.2 38.5,48.1 38.4,48 38.3,47.8 38.3,47.7 38.2,47.6 38.2,47.5 38.2,47.2 38.2,47.3 38.3,47.4 38.3,47.6 38.4,47.7 
			38.5,47.8 38.6,47.9 38.7,48 38.9,48.1 46.9,52.8 47,52.8 47.1,52.8 47.2,52.9 47.3,52.9 47.4,52.9 47.5,53 47.6,53 47.6,53 
			47.7,53 47.8,53.1 47.9,53.1 48,53.1 48.1,53.1 48.2,53.1 48.3,53.1 48.4,53.1 48.5,53.1 48.7,53.1 48.8,53.1 48.9,53.1 49,53.1 
			49.1,53.1 49.2,53 49.2,53 49.3,53 49.4,53 49.5,52.9 49.6,52.9 49.7,52.9 49.8,52.8 49.9,52.8 49.9,52.8 66.8,43 66.9,42.9 
			67.1,42.8 67.2,42.7 67.2,42.6 67.3,42.5 67.4,42.4 67.4,42.3 		"/>
		<polygon class="st10" points="67.4,42.8 67.4,43.1 67.4,43.2 67.4,43.3 67.3,43.5 67.2,43.6 67.2,43.7 67.1,43.8 66.9,43.9 
			66.8,44 49.9,53.7 49.9,53.7 49.8,53.8 49.7,53.8 49.6,53.9 49.5,53.9 49.4,53.9 49.3,53.9 49.2,54 49.2,54 49.1,54 49,54 
			48.9,54 48.8,54 48.7,54.1 48.5,54.1 48.4,54.1 48.3,54.1 48.2,54.1 48.1,54 48,54 47.9,54 47.8,54 47.7,54 47.6,54 47.6,53.9 
			47.5,53.9 47.4,53.9 47.3,53.9 47.2,53.8 47.1,53.8 47,53.7 46.9,53.7 38.9,49 38.7,48.9 38.6,48.8 38.5,48.7 38.4,48.6 
			38.3,48.5 38.3,48.4 38.2,48.3 38.2,48.2 38.2,47.9 38.2,48 38.3,48.1 38.3,48.2 38.4,48.3 38.5,48.4 38.6,48.5 38.7,48.6 
			38.9,48.7 46.9,53.4 47,53.5 47.1,53.5 47.2,53.5 47.3,53.6 47.4,53.6 47.5,53.6 47.6,53.7 47.6,53.7 47.7,53.7 47.8,53.7 
			47.9,53.7 48,53.8 48.1,53.8 48.2,53.8 48.3,53.8 48.4,53.8 48.5,53.8 48.7,53.8 48.8,53.8 48.9,53.8 49,53.7 49.1,53.7 
			49.2,53.7 49.2,53.7 49.3,53.7 49.4,53.6 49.5,53.6 49.6,53.6 49.7,53.5 49.8,53.5 49.9,53.5 49.9,53.4 66.8,43.7 66.9,43.6 
			67.1,43.5 67.2,43.4 67.2,43.3 67.3,43.2 67.4,43.1 67.4,42.9 		"/>
		<polygon class="st10" points="67.4,43.5 67.4,43.8 67.4,43.9 67.4,44 67.3,44.1 67.2,44.2 67.2,44.3 67.1,44.4 66.9,44.5 
			66.8,44.6 49.9,54.4 49.9,54.4 49.8,54.4 49.7,54.5 49.6,54.5 49.5,54.5 49.4,54.6 49.3,54.6 49.2,54.6 49.2,54.6 49.1,54.7 
			49,54.7 48.9,54.7 48.8,54.7 48.7,54.7 48.5,54.7 48.4,54.7 48.3,54.7 48.2,54.7 48.1,54.7 48,54.7 47.9,54.7 47.8,54.7 
			47.7,54.6 47.6,54.6 47.6,54.6 47.5,54.6 47.4,54.5 47.3,54.5 47.2,54.5 47.1,54.4 47,54.4 46.9,54.4 38.9,49.7 38.7,49.6 
			38.6,49.5 38.5,49.4 38.4,49.3 38.3,49.2 38.3,49.1 38.2,48.9 38.2,48.8 38.2,48.5 38.2,48.7 38.3,48.8 38.3,48.9 38.4,49 
			38.5,49.1 38.6,49.2 38.7,49.3 38.9,49.4 46.9,54.1 47,54.1 47.1,54.2 47.2,54.2 47.3,54.2 47.4,54.3 47.5,54.3 47.6,54.3 
			47.6,54.3 47.7,54.4 47.8,54.4 47.9,54.4 48,54.4 48.1,54.4 48.2,54.4 48.3,54.4 48.4,54.4 48.5,54.4 48.7,54.4 48.8,54.4 
			48.9,54.4 49,54.4 49.1,54.4 49.2,54.4 49.2,54.3 49.3,54.3 49.4,54.3 49.5,54.3 49.6,54.2 49.7,54.2 49.8,54.2 49.9,54.1 
			49.9,54.1 66.8,44.4 66.9,44.3 67.1,44.2 67.2,44.1 67.2,44 67.3,43.8 67.4,43.7 67.4,43.6 		"/>
		<polygon class="st10" points="67.4,44.2 67.4,44.4 67.4,44.6 67.4,44.7 67.3,44.8 67.2,44.9 67.2,45 67.1,45.1 66.9,45.2 
			66.8,45.3 49.9,55 49.9,55.1 49.8,55.1 49.7,55.1 49.6,55.2 49.5,55.2 49.4,55.2 49.3,55.3 49.2,55.3 49.2,55.3 49.1,55.3 
			49,55.3 48.9,55.4 48.8,55.4 48.7,55.4 48.5,55.4 48.4,55.4 48.3,55.4 48.2,55.4 48.1,55.4 48,55.4 47.9,55.3 47.8,55.3 
			47.7,55.3 47.6,55.3 47.6,55.3 47.5,55.2 47.4,55.2 47.3,55.2 47.2,55.1 47.1,55.1 47,55.1 46.9,55 38.9,50.3 38.7,50.3 
			38.6,50.2 38.5,50 38.4,49.9 38.3,49.8 38.3,49.7 38.2,49.6 38.2,49.5 38.2,49.2 38.2,49.3 38.3,49.4 38.3,49.5 38.4,49.7 
			38.5,49.8 38.6,49.9 38.7,50 38.9,50.1 46.9,54.7 47,54.8 47.1,54.8 47.2,54.9 47.3,54.9 47.4,54.9 47.5,55 47.6,55 47.6,55 
			47.7,55 47.8,55 47.9,55.1 48,55.1 48.1,55.1 48.2,55.1 48.3,55.1 48.4,55.1 48.5,55.1 48.7,55.1 48.8,55.1 48.9,55.1 49,55.1 
			49.1,55 49.2,55 49.2,55 49.3,55 49.4,55 49.5,54.9 49.6,54.9 49.7,54.9 49.8,54.8 49.9,54.8 49.9,54.7 66.8,45 66.9,44.9 
			67.1,44.8 67.2,44.7 67.2,44.6 67.3,44.5 67.4,44.4 67.4,44.3 		"/>
		<polygon class="st10" points="67.4,44.8 67.4,45.1 67.4,45.2 67.4,45.3 67.3,45.4 67.2,45.6 67.2,45.7 67.1,45.8 66.9,45.9 
			66.8,46 49.9,55.7 49.9,55.7 49.8,55.8 49.7,55.8 49.6,55.8 49.5,55.9 49.4,55.9 49.3,55.9 49.2,55.9 49.2,56 49.1,56 49,56 
			48.9,56 48.8,56 48.7,56 48.5,56 48.4,56 48.3,56 48.2,56 48.1,56 48,56 47.9,56 47.8,56 47.7,56 47.6,55.9 47.6,55.9 47.5,55.9 
			47.4,55.9 47.3,55.8 47.2,55.8 47.1,55.8 47,55.7 46.9,55.7 38.9,51 38.7,50.9 38.6,50.8 38.5,50.7 38.4,50.6 38.3,50.5 
			38.3,50.4 38.2,50.3 38.2,50.1 38.2,49.9 38.2,50 38.3,50.1 38.3,50.2 38.4,50.3 38.5,50.4 38.6,50.5 38.7,50.6 38.9,50.7 
			46.9,55.4 47,55.4 47.1,55.5 47.2,55.5 47.3,55.6 47.4,55.6 47.5,55.6 47.6,55.6 47.6,55.7 47.7,55.7 47.8,55.7 47.9,55.7 
			48,55.7 48.1,55.7 48.2,55.7 48.3,55.8 48.4,55.8 48.5,55.8 48.7,55.7 48.8,55.7 48.9,55.7 49,55.7 49.1,55.7 49.2,55.7 
			49.2,55.7 49.3,55.6 49.4,55.6 49.5,55.6 49.6,55.6 49.7,55.5 49.8,55.5 49.9,55.4 49.9,55.4 66.8,45.7 66.9,45.6 67.1,45.5 
			67.2,45.4 67.2,45.3 67.3,45.2 67.4,45 67.4,44.9 		"/>
		<polygon class="st10" points="67.4,45.5 67.4,45.8 67.4,45.9 67.4,46 67.3,46.1 67.2,46.2 67.2,46.3 67.1,46.4 66.9,46.5 
			66.8,46.6 49.9,56.3 49.9,56.4 49.8,56.4 49.7,56.5 49.6,56.5 49.5,56.5 49.4,56.6 49.3,56.6 49.2,56.6 49.2,56.6 49.1,56.6 
			49,56.7 48.9,56.7 48.8,56.7 48.7,56.7 48.5,56.7 48.4,56.7 48.3,56.7 48.2,56.7 48.1,56.7 48,56.7 47.9,56.7 47.8,56.6 
			47.7,56.6 47.6,56.6 47.6,56.6 47.5,56.6 47.4,56.5 47.3,56.5 47.2,56.5 47.1,56.4 47,56.4 46.9,56.3 38.9,51.7 38.7,51.6 
			38.6,51.5 38.5,51.4 38.4,51.3 38.3,51.1 38.3,51 38.2,50.9 38.2,50.8 38.2,50.5 38.2,50.6 38.3,50.7 38.3,50.9 38.4,51 
			38.5,51.1 38.6,51.2 38.7,51.3 38.9,51.4 46.9,56.1 47,56.1 47.1,56.1 47.2,56.2 47.3,56.2 47.4,56.2 47.5,56.3 47.6,56.3 
			47.6,56.3 47.7,56.3 47.8,56.4 47.9,56.4 48,56.4 48.1,56.4 48.2,56.4 48.3,56.4 48.4,56.4 48.5,56.4 48.7,56.4 48.8,56.4 
			48.9,56.4 49,56.4 49.1,56.4 49.2,56.3 49.2,56.3 49.3,56.3 49.4,56.3 49.5,56.2 49.6,56.2 49.7,56.2 49.8,56.1 49.9,56.1 
			49.9,56.1 66.8,46.3 66.9,46.2 67.1,46.1 67.2,46 67.2,45.9 67.3,45.8 67.4,45.7 67.4,45.6 		"/>
		<polygon class="st10" points="67.4,46.1 67.4,46.4 67.4,46.5 67.4,46.6 67.3,46.8 67.2,46.9 67.2,47 67.1,47.1 66.9,47.2 
			66.8,47.3 49.9,57 49.9,57 49.8,57.1 49.7,57.1 49.6,57.2 49.5,57.2 49.4,57.2 49.3,57.2 49.2,57.3 49.2,57.3 49.1,57.3 49,57.3 
			48.9,57.3 48.8,57.3 48.7,57.4 48.5,57.4 48.4,57.4 48.3,57.4 48.2,57.4 48.1,57.3 48,57.3 47.9,57.3 47.8,57.3 47.7,57.3 
			47.6,57.3 47.6,57.2 47.5,57.2 47.4,57.2 47.3,57.2 47.2,57.1 47.1,57.1 47,57 46.9,57 38.9,52.3 38.7,52.2 38.6,52.1 38.5,52 
			38.4,51.9 38.3,51.8 38.3,51.7 38.2,51.6 38.2,51.5 38.2,51.2 38.2,51.3 38.3,51.4 38.3,51.5 38.4,51.6 38.5,51.7 38.6,51.9 
			38.7,51.9 38.9,52 46.9,56.7 47,56.8 47.1,56.8 47.2,56.8 47.3,56.9 47.4,56.9 47.5,56.9 47.6,57 47.6,57 47.7,57 47.8,57 
			47.9,57 48,57.1 48.1,57.1 48.2,57.1 48.3,57.1 48.4,57.1 48.5,57.1 48.7,57.1 48.8,57.1 48.9,57.1 49,57 49.1,57 49.2,57 
			49.2,57 49.3,57 49.4,56.9 49.5,56.9 49.6,56.9 49.7,56.8 49.8,56.8 49.9,56.8 49.9,56.7 66.8,47 66.9,46.9 67.1,46.8 67.2,46.7 
			67.2,46.6 67.3,46.5 67.4,46.4 67.4,46.2 		"/>
		<path class="st7" d="M60.3,45.7v5.7c-2.3,1.3-1.9,1.1-4.2,2.4v-5.7C58.5,46.8,58,47,60.3,45.7z"/>
		<path class="st9" d="M59.6,51.8l-0.4,0.2v-5.7l0.4-0.2l0.4-0.2v5.7L59.6,51.8L59.6,51.8z M58.4,52.5l0.4-0.2v-5.7l-0.4,0.2
			L58,47.1v5.7L58.4,52.5L58.4,52.5z M57.6,47.3V53l-0.8,0.5v-5.7L57.6,47.3z"/>
	</g>
	<g>
		<polygon class="st6" points="79.9,48.3 79.9,54 79.9,54.1 79.8,54.2 79.8,54.4 79.7,54.5 79.6,54.6 79.5,54.7 79.4,54.8 
			79.3,54.9 62.4,64.6 62.3,64.6 62.3,64.7 62.2,64.7 62.1,64.8 62,64.8 61.9,64.8 61.8,64.8 61.7,64.9 61.6,64.9 61.5,64.9 
			61.4,64.9 61.3,64.9 61.2,64.9 61.1,64.9 61,65 60.9,65 60.8,65 60.7,64.9 60.6,64.9 60.5,64.9 60.4,64.9 60.3,64.9 60.2,64.9 
			60.1,64.9 60,64.8 59.9,64.8 59.8,64.8 59.8,64.8 59.7,64.7 59.6,64.7 59.5,64.6 59.4,64.6 51.3,59.9 51.2,59.8 51.1,59.7 
			51,59.6 50.9,59.5 50.8,59.4 50.7,59.3 50.7,59.2 50.7,59.1 50.7,53.3 50.7,53.5 50.7,53.6 50.8,53.7 50.9,53.8 50.9,53.9 
			51.1,54 51.2,54.1 51.3,54.2 59.4,58.9 59.5,58.9 59.6,59 59.7,59 59.8,59 59.8,59.1 59.9,59.1 60,59.1 60.1,59.2 60.2,59.2 
			60.3,59.2 60.4,59.2 60.5,59.2 60.6,59.2 60.7,59.2 60.8,59.2 60.9,59.2 61,59.2 61.1,59.2 61.2,59.2 61.3,59.2 61.4,59.2 
			61.5,59.2 61.6,59.2 61.7,59.2 61.8,59.1 61.9,59.1 62,59.1 62.1,59 62.2,59 62.3,59 62.3,58.9 62.4,58.9 79.3,49.2 79.4,49.1 
			79.5,49 79.6,48.9 79.7,48.8 79.8,48.6 79.8,48.5 79.9,48.4 		"/>
		<g>
			<path class="st7" d="M51.3,52.5l16.8-9.7c0.8-0.5,2.2-0.5,3,0l8.1,4.7c0.8,0.5,0.8,1.3,0,1.7l-16.8,9.7c-0.8,0.5-2.2,0.5-3,0
				l-8.1-4.7C50.5,53.7,50.5,53,51.3,52.5z"/>
			<path class="st8" d="M61.1,50.2c-0.1,0.7,0.4,1.5,1.5,2.2c1.1,0.6,2.5,0.9,3.7,0.9l0,0L61.1,50.2L61.1,50.2z"/>
			<path class="st8" d="M71.1,52.3c0.4-1.1-0.4-2.5-2.2-3.5c-1.8-1.1-4.2-1.5-6.1-1.3l-0.3-0.2c2.3-1.3,4.6-2.7,6.9-4
				c0.3-0.2,0.7-0.1,1.1,0c2.6,1.5,5.2,3,7.8,4.5c0.3,0.2,0.3,0.4,0,0.6c-2.3,1.3-4.6,2.7-6.9,4L71.1,52.3z"/>
			<path class="st8" d="M64.3,48.4c1.3,0,2.7,0.3,3.7,0.9c1.1,0.6,1.6,1.4,1.5,2.2l0,0L64.3,48.4L64.3,48.4z"/>
			<path class="st8" d="M67.9,54.2c-1.9,0.2-4.3-0.2-6.1-1.3c-1.8-1.1-2.6-2.4-2.2-3.5l-0.3-0.2c-2.3,1.3-4.6,2.6-6.9,4
				c-0.3,0.2-0.3,0.4,0,0.6c2.6,1.5,5.2,3,7.8,4.5c0.3,0.2,0.8,0.2,1.1,0c2.3-1.3,4.6-2.7,6.9-4L67.9,54.2z"/>
			<path class="st7" d="M75.1,49.5l2.1-1.2c0.1-0.1,0.1-0.2,0-0.2L77,47.9c-0.1-0.1-0.3-0.1-0.4,0l-2.1,1.2c-0.1,0.1-0.1,0.2,0,0.2
				l0.3,0.2C74.8,49.6,75,49.6,75.1,49.5z"/>
			<path class="st7" d="M68.2,45.5l2.1-1.2c0.1-0.1,0.1-0.2,0-0.2l-0.3-0.2c-0.1-0.1-0.3-0.1-0.4,0l-2.1,1.2c-0.1,0.1-0.1,0.2,0,0.2
				l0.3,0.2C68,45.6,68.1,45.6,68.2,45.5z"/>
			<path class="st7" d="M73.4,47.1c0.5-0.3,0.5-0.7,0-1c-0.5-0.3-1.2-0.3-1.7,0c-0.5,0.3-0.5,0.7,0,1C72.2,47.4,72.9,47.4,73.4,47.1
				z"/>
			<path class="st7" d="M63,56.5l-2.1,1.2c-0.1,0.1-0.3,0.1-0.4,0l-0.3-0.2c-0.1-0.1-0.1-0.2,0-0.2l2.1-1.2c0.1-0.1,0.3-0.1,0.4,0
				l0.3,0.2C63.1,56.3,63.1,56.4,63,56.5z"/>
			<path class="st7" d="M56.1,52.5L54,53.8c-0.1,0.1-0.3,0.1-0.4,0l-0.3-0.2c-0.1-0.1-0.1-0.2,0-0.2l2.1-1.2c0.1-0.1,0.3-0.1,0.4,0
				l0.3,0.2C56.2,52.4,56.2,52.5,56.1,52.5z"/>
			<path class="st7" d="M58.9,55.5c-0.5,0.3-1.2,0.3-1.7,0c-0.5-0.3-0.4-0.7,0-1c0.5-0.3,1.2-0.3,1.7,0
				C59.3,54.8,59.3,55.2,58.9,55.5z"/>
			<polygon class="st7" points="72.8,52.9 68.9,55.2 57.8,48.8 61.7,46.5 			"/>
			<polygon class="st9" points="70,54.5 69.2,55 58.1,48.5 58.9,48.1 			"/>
			<polygon class="st9" points="70.4,54.3 70.8,54 71.2,53.8 60.1,47.4 59.7,47.6 59.3,47.9 			"/>
			<polygon class="st9" points="72,53.3 71.6,53.6 60.5,47.2 61,46.9 61.4,46.7 72.5,53.1 			"/>
		</g>
		<polygon class="st10" points="79.9,48.7 79.9,49 79.9,49.1 79.8,49.2 79.8,49.3 79.7,49.5 79.6,49.6 79.5,49.7 79.4,49.8 
			79.3,49.9 62.4,59.6 62.3,59.6 62.3,59.7 62.2,59.7 62.1,59.7 62,59.8 61.9,59.8 61.8,59.8 61.7,59.9 61.6,59.9 61.5,59.9 
			61.4,59.9 61.3,59.9 61.2,59.9 61.1,59.9 61,59.9 60.9,59.9 60.8,59.9 60.7,59.9 60.6,59.9 60.5,59.9 60.4,59.9 60.3,59.9 
			60.2,59.9 60.1,59.9 60,59.8 59.9,59.8 59.8,59.8 59.8,59.7 59.7,59.7 59.6,59.7 59.5,59.6 59.4,59.6 51.3,54.9 51.2,54.8 
			51.1,54.7 50.9,54.6 50.9,54.5 50.8,54.4 50.7,54.3 50.7,54.2 50.7,54 50.7,53.8 50.7,53.9 50.7,54 50.8,54.1 50.9,54.2 
			50.9,54.3 51.1,54.4 51.2,54.5 51.3,54.6 59.4,59.3 59.5,59.3 59.6,59.4 59.7,59.4 59.8,59.5 59.8,59.5 59.9,59.5 60,59.5 
			60.1,59.6 60.2,59.6 60.3,59.6 60.4,59.6 60.5,59.6 60.6,59.6 60.7,59.7 60.8,59.7 60.9,59.7 61,59.7 61.1,59.7 61.2,59.6 
			61.3,59.6 61.4,59.6 61.5,59.6 61.6,59.6 61.7,59.6 61.8,59.5 61.9,59.5 62,59.5 62.1,59.5 62.2,59.4 62.3,59.4 62.3,59.3 
			62.4,59.3 79.3,49.6 79.4,49.5 79.5,49.4 79.6,49.3 79.7,49.2 79.8,49.1 79.8,48.9 79.9,48.8 		"/>
		<polygon class="st10" points="79.9,49.4 79.9,49.7 79.9,49.8 79.8,49.9 79.8,50 79.7,50.1 79.6,50.2 79.5,50.3 79.4,50.4 
			79.3,50.5 62.4,60.2 62.3,60.3 62.3,60.3 62.2,60.4 62.1,60.4 62,60.4 61.9,60.5 61.8,60.5 61.7,60.5 61.6,60.5 61.5,60.5 
			61.4,60.6 61.3,60.6 61.2,60.6 61.1,60.6 61,60.6 60.9,60.6 60.8,60.6 60.7,60.6 60.6,60.6 60.5,60.6 60.4,60.6 60.3,60.5 
			60.2,60.5 60.1,60.5 60,60.5 59.9,60.5 59.8,60.4 59.8,60.4 59.7,60.4 59.6,60.3 59.5,60.3 59.4,60.2 51.3,55.6 51.2,55.5 
			51.1,55.4 50.9,55.3 50.9,55.2 50.8,55.1 50.7,54.9 50.7,54.8 50.7,54.7 50.7,54.4 50.7,54.5 50.7,54.7 50.8,54.8 50.9,54.9 
			50.9,55 51.1,55.1 51.2,55.2 51.3,55.3 59.4,60 59.5,60 59.6,60 59.7,60.1 59.8,60.1 59.8,60.1 59.9,60.2 60,60.2 60.1,60.2 
			60.2,60.2 60.3,60.3 60.4,60.3 60.5,60.3 60.6,60.3 60.7,60.3 60.8,60.3 60.9,60.3 61,60.3 61.1,60.3 61.2,60.3 61.3,60.3 
			61.4,60.3 61.5,60.3 61.6,60.2 61.7,60.2 61.8,60.2 61.9,60.2 62,60.1 62.1,60.1 62.2,60.1 62.3,60 62.3,60 62.4,60 79.3,50.2 
			79.4,50.1 79.5,50 79.6,49.9 79.7,49.8 79.8,49.7 79.8,49.6 79.9,49.5 		"/>
		<polygon class="st10" points="79.9,50 79.9,50.3 79.9,50.4 79.8,50.5 79.8,50.7 79.7,50.8 79.6,50.9 79.5,51 79.4,51.1 79.3,51.2 
			62.4,60.9 62.3,60.9 62.3,61 62.2,61 62.1,61.1 62,61.1 61.9,61.1 61.8,61.1 61.7,61.2 61.6,61.2 61.5,61.2 61.4,61.2 61.3,61.2 
			61.2,61.2 61.1,61.3 61,61.3 60.9,61.3 60.8,61.3 60.7,61.3 60.6,61.2 60.5,61.2 60.4,61.2 60.3,61.2 60.2,61.2 60.1,61.2 
			60,61.1 59.9,61.1 59.8,61.1 59.8,61.1 59.7,61 59.6,61 59.5,60.9 59.4,60.9 51.3,56.2 51.2,56.1 51.1,56 50.9,55.9 50.9,55.8 
			50.8,55.7 50.7,55.6 50.7,55.5 50.7,55.4 50.7,55.1 50.7,55.2 50.7,55.3 50.8,55.4 50.9,55.5 50.9,55.6 51.1,55.8 51.2,55.9 
			51.3,55.9 59.4,60.6 59.5,60.7 59.6,60.7 59.7,60.7 59.8,60.8 59.8,60.8 59.9,60.8 60,60.9 60.1,60.9 60.2,60.9 60.3,60.9 
			60.4,60.9 60.5,61 60.6,61 60.7,61 60.8,61 60.9,61 61,61 61.1,61 61.2,61 61.3,61 61.4,60.9 61.5,60.9 61.6,60.9 61.7,60.9 
			61.8,60.9 61.9,60.8 62,60.8 62.1,60.8 62.2,60.7 62.3,60.7 62.3,60.7 62.4,60.6 79.3,50.9 79.4,50.8 79.5,50.7 79.6,50.6 
			79.7,50.5 79.8,50.4 79.8,50.3 79.9,50.1 		"/>
		<polygon class="st10" points="79.9,50.7 79.9,51 79.9,51.1 79.8,51.2 79.8,51.3 79.7,51.4 79.6,51.5 79.5,51.6 79.4,51.7 
			79.3,51.8 62.4,61.6 62.3,61.6 62.3,61.6 62.2,61.7 62.1,61.7 62,61.8 61.9,61.8 61.8,61.8 61.7,61.8 61.6,61.9 61.5,61.9 
			61.4,61.9 61.3,61.9 61.2,61.9 61.1,61.9 61,61.9 60.9,61.9 60.8,61.9 60.7,61.9 60.6,61.9 60.5,61.9 60.4,61.9 60.3,61.9 
			60.2,61.9 60.1,61.8 60,61.8 59.9,61.8 59.8,61.8 59.8,61.7 59.7,61.7 59.6,61.6 59.5,61.6 59.4,61.6 51.3,56.9 51.2,56.8 
			51.1,56.7 50.9,56.6 50.9,56.5 50.8,56.4 50.7,56.3 50.7,56.1 50.7,56 50.7,55.7 50.7,55.9 50.7,56 50.8,56.1 50.9,56.2 
			50.9,56.3 51.1,56.4 51.2,56.5 51.3,56.6 59.4,61.3 59.5,61.3 59.6,61.4 59.7,61.4 59.8,61.4 59.8,61.5 59.9,61.5 60,61.5 
			60.1,61.5 60.2,61.6 60.3,61.6 60.4,61.6 60.5,61.6 60.6,61.6 60.7,61.6 60.8,61.6 60.9,61.6 61,61.6 61.1,61.6 61.2,61.6 
			61.3,61.6 61.4,61.6 61.5,61.6 61.6,61.6 61.7,61.5 61.8,61.5 61.9,61.5 62,61.5 62.1,61.4 62.2,61.4 62.3,61.4 62.3,61.3 
			62.4,61.3 79.3,51.6 79.4,51.5 79.5,51.4 79.6,51.3 79.7,51.2 79.8,51 79.8,50.9 79.9,50.8 		"/>
		<polygon class="st10" points="79.9,51.4 79.9,51.6 79.9,51.8 79.8,51.9 79.8,52 79.7,52.1 79.6,52.2 79.5,52.3 79.4,52.4 
			79.3,52.5 62.4,62.2 62.3,62.3 62.3,62.3 62.2,62.3 62.1,62.4 62,62.4 61.9,62.4 61.8,62.5 61.7,62.5 61.6,62.5 61.5,62.5 
			61.4,62.5 61.3,62.6 61.2,62.6 61.1,62.6 61,62.6 60.9,62.6 60.8,62.6 60.7,62.6 60.6,62.6 60.5,62.6 60.4,62.5 60.3,62.5 
			60.2,62.5 60.1,62.5 60,62.5 59.9,62.4 59.8,62.4 59.8,62.4 59.7,62.3 59.6,62.3 59.5,62.3 59.4,62.2 51.3,57.5 51.2,57.5 
			51.1,57.4 50.9,57.3 50.9,57.1 50.8,57 50.7,56.9 50.7,56.8 50.7,56.7 50.7,56.4 50.7,56.5 50.7,56.6 50.8,56.7 50.9,56.9 
			50.9,57 51.1,57.1 51.2,57.2 51.3,57.3 59.4,61.9 59.5,62 59.6,62 59.7,62.1 59.8,62.1 59.8,62.1 59.9,62.2 60,62.2 60.1,62.2 
			60.2,62.2 60.3,62.2 60.4,62.3 60.5,62.3 60.6,62.3 60.7,62.3 60.8,62.3 60.9,62.3 61,62.3 61.1,62.3 61.2,62.3 61.3,62.3 
			61.4,62.3 61.5,62.2 61.6,62.2 61.7,62.2 61.8,62.2 61.9,62.2 62,62.1 62.1,62.1 62.2,62.1 62.3,62 62.3,62 62.4,61.9 79.3,52.2 
			79.4,52.1 79.5,52 79.6,51.9 79.7,51.8 79.8,51.7 79.8,51.6 79.9,51.5 		"/>
		<polygon class="st10" points="79.9,52 79.9,52.3 79.9,52.4 79.8,52.5 79.8,52.6 79.7,52.8 79.6,52.9 79.5,53 79.4,53.1 79.3,53.2 
			62.4,62.9 62.3,62.9 62.3,63 62.2,63 62.1,63 62,63.1 61.9,63.1 61.8,63.1 61.7,63.1 61.6,63.2 61.5,63.2 61.4,63.2 61.3,63.2 
			61.2,63.2 61.1,63.2 61,63.2 60.9,63.2 60.8,63.2 60.7,63.2 60.6,63.2 60.5,63.2 60.4,63.2 60.3,63.2 60.2,63.2 60.1,63.1 
			60,63.1 59.9,63.1 59.8,63.1 59.8,63 59.7,63 59.6,63 59.5,62.9 59.4,62.9 51.3,58.2 51.2,58.1 51.1,58 50.9,57.9 50.9,57.8 
			50.8,57.7 50.7,57.6 50.7,57.5 50.7,57.3 50.7,57.1 50.7,57.2 50.7,57.3 50.8,57.4 50.9,57.5 50.9,57.6 51.1,57.7 51.2,57.8 
			51.3,57.9 59.4,62.6 59.5,62.6 59.6,62.7 59.7,62.7 59.8,62.8 59.8,62.8 59.9,62.8 60,62.8 60.1,62.9 60.2,62.9 60.3,62.9 
			60.4,62.9 60.5,62.9 60.6,62.9 60.7,63 60.8,63 60.9,63 61,63 61.1,63 61.2,62.9 61.3,62.9 61.4,62.9 61.5,62.9 61.6,62.9 
			61.7,62.9 61.8,62.8 61.9,62.8 62,62.8 62.1,62.8 62.2,62.7 62.3,62.7 62.3,62.6 62.4,62.6 79.3,52.9 79.4,52.8 79.5,52.7 
			79.6,52.6 79.7,52.5 79.8,52.4 79.8,52.2 79.9,52.1 		"/>
		<polygon class="st10" points="79.9,52.7 79.9,53 79.9,53.1 79.8,53.2 79.8,53.3 79.7,53.4 79.6,53.5 79.5,53.6 79.4,53.7 
			79.3,53.8 62.4,63.5 62.3,63.6 62.3,63.6 62.2,63.7 62.1,63.7 62,63.7 61.9,63.8 61.8,63.8 61.7,63.8 61.6,63.8 61.5,63.8 
			61.4,63.9 61.3,63.9 61.2,63.9 61.1,63.9 61,63.9 60.9,63.9 60.8,63.9 60.7,63.9 60.6,63.9 60.5,63.9 60.4,63.9 60.3,63.8 
			60.2,63.8 60.1,63.8 60,63.8 59.9,63.8 59.8,63.7 59.8,63.7 59.7,63.7 59.6,63.6 59.5,63.6 59.4,63.5 51.3,58.9 51.2,58.8 
			51.1,58.7 50.9,58.6 50.9,58.5 50.8,58.4 50.7,58.2 50.7,58.1 50.7,58 50.7,57.7 50.7,57.8 50.7,58 50.8,58.1 50.9,58.2 
			50.9,58.3 51.1,58.4 51.2,58.5 51.3,58.6 59.4,63.3 59.5,63.3 59.6,63.3 59.7,63.4 59.8,63.4 59.8,63.4 59.9,63.5 60,63.5 
			60.1,63.5 60.2,63.5 60.3,63.6 60.4,63.6 60.5,63.6 60.6,63.6 60.7,63.6 60.8,63.6 60.9,63.6 61,63.6 61.1,63.6 61.2,63.6 
			61.3,63.6 61.4,63.6 61.5,63.6 61.6,63.5 61.7,63.5 61.8,63.5 61.9,63.5 62,63.4 62.1,63.4 62.2,63.4 62.3,63.3 62.3,63.3 
			62.4,63.3 79.3,53.5 79.4,53.4 79.5,53.3 79.6,53.2 79.7,53.1 79.8,53 79.8,52.9 79.9,52.8 		"/>
		<polygon class="st10" points="79.9,53.3 79.9,53.6 79.9,53.7 79.8,53.8 79.8,54 79.7,54.1 79.6,54.2 79.5,54.3 79.4,54.4 
			79.3,54.5 62.4,64.2 62.3,64.2 62.3,64.3 62.2,64.3 62.1,64.4 62,64.4 61.9,64.4 61.8,64.4 61.7,64.5 61.6,64.5 61.5,64.5 
			61.4,64.5 61.3,64.5 61.2,64.5 61.1,64.6 61,64.6 60.9,64.6 60.8,64.6 60.7,64.6 60.6,64.5 60.5,64.5 60.4,64.5 60.3,64.5 
			60.2,64.5 60.1,64.5 60,64.4 59.9,64.4 59.8,64.4 59.8,64.4 59.7,64.3 59.6,64.3 59.5,64.2 59.4,64.2 51.3,59.5 51.2,59.4 
			51.1,59.3 50.9,59.2 50.9,59.1 50.8,59 50.7,58.9 50.7,58.8 50.7,58.7 50.7,58.4 50.7,58.5 50.7,58.6 50.8,58.7 50.9,58.8 
			50.9,58.9 51.1,59.1 51.2,59.2 51.3,59.2 59.4,63.9 59.5,64 59.6,64 59.7,64 59.8,64.1 59.8,64.1 59.9,64.1 60,64.2 60.1,64.2 
			60.2,64.2 60.3,64.2 60.4,64.2 60.5,64.3 60.6,64.3 60.7,64.3 60.8,64.3 60.9,64.3 61,64.3 61.1,64.3 61.2,64.3 61.3,64.3 
			61.4,64.2 61.5,64.2 61.6,64.2 61.7,64.2 61.8,64.2 61.9,64.1 62,64.1 62.1,64.1 62.2,64 62.3,64 62.3,64 62.4,63.9 79.3,54.2 
			79.4,54.1 79.5,54 79.6,53.9 79.7,53.8 79.8,53.7 79.8,53.6 79.9,53.4 		"/>
		<path class="st7" d="M72.8,52.9v5.7c-2.3,1.3-1.9,1.1-4.2,2.4v-5.7C70.9,54,70.5,54.2,72.8,52.9z"/>
		<path class="st9" d="M72,59l-0.4,0.2v-5.7l0.4-0.2l0.4-0.2v5.7L72,59L72,59z M70.8,59.7l0.4-0.2v-5.7L70.8,54l-0.4,0.2V60
			L70.8,59.7L70.8,59.7z M70,54.5v5.7l-0.8,0.5V55L70,54.5z"/>
		<polygon class="st10" points="79.9,49.4 79.9,49.7 79.9,49.8 79.8,49.9 79.8,50 79.7,50.1 79.6,50.2 79.5,50.3 79.4,50.4 
			79.3,50.5 62.4,60.2 62.3,60.3 62.3,60.3 62.2,60.4 62.1,60.4 62,60.4 61.9,60.5 61.8,60.5 61.7,60.5 61.6,60.5 61.5,60.5 
			61.4,60.6 61.3,60.6 61.2,60.6 61.1,60.6 61,60.6 60.9,60.6 60.8,60.6 60.7,60.6 60.6,60.6 60.5,60.6 60.4,60.6 60.3,60.5 
			60.2,60.5 60.1,60.5 60,60.5 59.9,60.5 59.8,60.4 59.8,60.4 59.7,60.4 59.6,60.3 59.5,60.3 59.4,60.2 51.3,55.6 51.2,55.5 
			51.1,55.4 50.9,55.3 50.9,55.2 50.8,55.1 50.7,54.9 50.7,54.8 50.7,54.7 50.7,54.4 50.7,54.5 50.7,54.7 50.8,54.8 50.9,54.9 
			50.9,55 51.1,55.1 51.2,55.2 51.3,55.3 59.4,60 59.5,60 59.6,60 59.7,60.1 59.8,60.1 59.8,60.1 59.9,60.2 60,60.2 60.1,60.2 
			60.2,60.2 60.3,60.3 60.4,60.3 60.5,60.3 60.6,60.3 60.7,60.3 60.8,60.3 60.9,60.3 61,60.3 61.1,60.3 61.2,60.3 61.3,60.3 
			61.4,60.3 61.5,60.3 61.6,60.2 61.7,60.2 61.8,60.2 61.9,60.2 62,60.1 62.1,60.1 62.2,60.1 62.3,60 62.3,60 62.4,60 79.3,50.2 
			79.4,50.1 79.5,50 79.6,49.9 79.7,49.8 79.8,49.7 79.8,49.6 79.9,49.5 		"/>
		<polygon class="st10" points="79.9,50 79.9,50.3 79.9,50.4 79.8,50.5 79.8,50.7 79.7,50.8 79.6,50.9 79.5,51 79.4,51.1 79.3,51.2 
			62.4,60.9 62.3,60.9 62.3,61 62.2,61 62.1,61.1 62,61.1 61.9,61.1 61.8,61.1 61.7,61.2 61.6,61.2 61.5,61.2 61.4,61.2 61.3,61.2 
			61.2,61.2 61.1,61.3 61,61.3 60.9,61.3 60.8,61.3 60.7,61.3 60.6,61.2 60.5,61.2 60.4,61.2 60.3,61.2 60.2,61.2 60.1,61.2 
			60,61.1 59.9,61.1 59.8,61.1 59.8,61.1 59.7,61 59.6,61 59.5,60.9 59.4,60.9 51.3,56.2 51.2,56.1 51.1,56 50.9,55.9 50.9,55.8 
			50.8,55.7 50.7,55.6 50.7,55.5 50.7,55.4 50.7,55.1 50.7,55.2 50.7,55.3 50.8,55.4 50.9,55.5 50.9,55.6 51.1,55.8 51.2,55.9 
			51.3,55.9 59.4,60.6 59.5,60.7 59.6,60.7 59.7,60.7 59.8,60.8 59.8,60.8 59.9,60.8 60,60.9 60.1,60.9 60.2,60.9 60.3,60.9 
			60.4,60.9 60.5,61 60.6,61 60.7,61 60.8,61 60.9,61 61,61 61.1,61 61.2,61 61.3,61 61.4,60.9 61.5,60.9 61.6,60.9 61.7,60.9 
			61.8,60.9 61.9,60.8 62,60.8 62.1,60.8 62.2,60.7 62.3,60.7 62.3,60.7 62.4,60.6 79.3,50.9 79.4,50.8 79.5,50.7 79.6,50.6 
			79.7,50.5 79.8,50.4 79.8,50.3 79.9,50.1 		"/>
		<polygon class="st10" points="79.9,50.7 79.9,51 79.9,51.1 79.8,51.2 79.8,51.3 79.7,51.4 79.6,51.5 79.5,51.6 79.4,51.7 
			79.3,51.8 62.4,61.6 62.3,61.6 62.3,61.6 62.2,61.7 62.1,61.7 62,61.8 61.9,61.8 61.8,61.8 61.7,61.8 61.6,61.9 61.5,61.9 
			61.4,61.9 61.3,61.9 61.2,61.9 61.1,61.9 61,61.9 60.9,61.9 60.8,61.9 60.7,61.9 60.6,61.9 60.5,61.9 60.4,61.9 60.3,61.9 
			60.2,61.9 60.1,61.8 60,61.8 59.9,61.8 59.8,61.8 59.8,61.7 59.7,61.7 59.6,61.6 59.5,61.6 59.4,61.6 51.3,56.9 51.2,56.8 
			51.1,56.7 50.9,56.6 50.9,56.5 50.8,56.4 50.7,56.3 50.7,56.1 50.7,56 50.7,55.7 50.7,55.9 50.7,56 50.8,56.1 50.9,56.2 
			50.9,56.3 51.1,56.4 51.2,56.5 51.3,56.6 59.4,61.3 59.5,61.3 59.6,61.4 59.7,61.4 59.8,61.4 59.8,61.5 59.9,61.5 60,61.5 
			60.1,61.5 60.2,61.6 60.3,61.6 60.4,61.6 60.5,61.6 60.6,61.6 60.7,61.6 60.8,61.6 60.9,61.6 61,61.6 61.1,61.6 61.2,61.6 
			61.3,61.6 61.4,61.6 61.5,61.6 61.6,61.6 61.7,61.5 61.8,61.5 61.9,61.5 62,61.5 62.1,61.4 62.2,61.4 62.3,61.4 62.3,61.3 
			62.4,61.3 79.3,51.6 79.4,51.5 79.5,51.4 79.6,51.3 79.7,51.2 79.8,51 79.8,50.9 79.9,50.8 		"/>
		<polygon class="st10" points="79.9,51.4 79.9,51.6 79.9,51.8 79.8,51.9 79.8,52 79.7,52.1 79.6,52.2 79.5,52.3 79.4,52.4 
			79.3,52.5 62.4,62.2 62.3,62.3 62.3,62.3 62.2,62.3 62.1,62.4 62,62.4 61.9,62.4 61.8,62.5 61.7,62.5 61.6,62.5 61.5,62.5 
			61.4,62.5 61.3,62.6 61.2,62.6 61.1,62.6 61,62.6 60.9,62.6 60.8,62.6 60.7,62.6 60.6,62.6 60.5,62.6 60.4,62.5 60.3,62.5 
			60.2,62.5 60.1,62.5 60,62.5 59.9,62.4 59.8,62.4 59.8,62.4 59.7,62.3 59.6,62.3 59.5,62.3 59.4,62.2 51.3,57.5 51.2,57.5 
			51.1,57.4 50.9,57.3 50.9,57.1 50.8,57 50.7,56.9 50.7,56.8 50.7,56.7 50.7,56.4 50.7,56.5 50.7,56.6 50.8,56.7 50.9,56.9 
			50.9,57 51.1,57.1 51.2,57.2 51.3,57.3 59.4,61.9 59.5,62 59.6,62 59.7,62.1 59.8,62.1 59.8,62.1 59.9,62.2 60,62.2 60.1,62.2 
			60.2,62.2 60.3,62.2 60.4,62.3 60.5,62.3 60.6,62.3 60.7,62.3 60.8,62.3 60.9,62.3 61,62.3 61.1,62.3 61.2,62.3 61.3,62.3 
			61.4,62.3 61.5,62.2 61.6,62.2 61.7,62.2 61.8,62.2 61.9,62.2 62,62.1 62.1,62.1 62.2,62.1 62.3,62 62.3,62 62.4,61.9 79.3,52.2 
			79.4,52.1 79.5,52 79.6,51.9 79.7,51.8 79.8,51.7 79.8,51.6 79.9,51.5 		"/>
		<polygon class="st10" points="79.9,52 79.9,52.3 79.9,52.4 79.8,52.5 79.8,52.6 79.7,52.8 79.6,52.9 79.5,53 79.4,53.1 79.3,53.2 
			62.4,62.9 62.3,62.9 62.3,63 62.2,63 62.1,63 62,63.1 61.9,63.1 61.8,63.1 61.7,63.1 61.6,63.2 61.5,63.2 61.4,63.2 61.3,63.2 
			61.2,63.2 61.1,63.2 61,63.2 60.9,63.2 60.8,63.2 60.7,63.2 60.6,63.2 60.5,63.2 60.4,63.2 60.3,63.2 60.2,63.2 60.1,63.1 
			60,63.1 59.9,63.1 59.8,63.1 59.8,63 59.7,63 59.6,63 59.5,62.9 59.4,62.9 51.3,58.2 51.2,58.1 51.1,58 50.9,57.9 50.9,57.8 
			50.8,57.7 50.7,57.6 50.7,57.5 50.7,57.3 50.7,57.1 50.7,57.2 50.7,57.3 50.8,57.4 50.9,57.5 50.9,57.6 51.1,57.7 51.2,57.8 
			51.3,57.9 59.4,62.6 59.5,62.6 59.6,62.7 59.7,62.7 59.8,62.8 59.8,62.8 59.9,62.8 60,62.8 60.1,62.9 60.2,62.9 60.3,62.9 
			60.4,62.9 60.5,62.9 60.6,62.9 60.7,63 60.8,63 60.9,63 61,63 61.1,63 61.2,62.9 61.3,62.9 61.4,62.9 61.5,62.9 61.6,62.9 
			61.7,62.9 61.8,62.8 61.9,62.8 62,62.8 62.1,62.8 62.2,62.7 62.3,62.7 62.3,62.6 62.4,62.6 79.3,52.9 79.4,52.8 79.5,52.7 
			79.6,52.6 79.7,52.5 79.8,52.4 79.8,52.2 79.9,52.1 		"/>
		<polygon class="st10" points="79.9,52.7 79.9,53 79.9,53.1 79.8,53.2 79.8,53.3 79.7,53.4 79.6,53.5 79.5,53.6 79.4,53.7 
			79.3,53.8 62.4,63.5 62.3,63.6 62.3,63.6 62.2,63.7 62.1,63.7 62,63.7 61.9,63.8 61.8,63.8 61.7,63.8 61.6,63.8 61.5,63.8 
			61.4,63.9 61.3,63.9 61.2,63.9 61.1,63.9 61,63.9 60.9,63.9 60.8,63.9 60.7,63.9 60.6,63.9 60.5,63.9 60.4,63.9 60.3,63.8 
			60.2,63.8 60.1,63.8 60,63.8 59.9,63.8 59.8,63.7 59.8,63.7 59.7,63.7 59.6,63.6 59.5,63.6 59.4,63.5 51.3,58.9 51.2,58.8 
			51.1,58.7 50.9,58.6 50.9,58.5 50.8,58.4 50.7,58.2 50.7,58.1 50.7,58 50.7,57.7 50.7,57.8 50.7,58 50.8,58.1 50.9,58.2 
			50.9,58.3 51.1,58.4 51.2,58.5 51.3,58.6 59.4,63.3 59.5,63.3 59.6,63.3 59.7,63.4 59.8,63.4 59.8,63.4 59.9,63.5 60,63.5 
			60.1,63.5 60.2,63.5 60.3,63.6 60.4,63.6 60.5,63.6 60.6,63.6 60.7,63.6 60.8,63.6 60.9,63.6 61,63.6 61.1,63.6 61.2,63.6 
			61.3,63.6 61.4,63.6 61.5,63.6 61.6,63.5 61.7,63.5 61.8,63.5 61.9,63.5 62,63.4 62.1,63.4 62.2,63.4 62.3,63.3 62.3,63.3 
			62.4,63.3 79.3,53.5 79.4,53.4 79.5,53.3 79.6,53.2 79.7,53.1 79.8,53 79.8,52.9 79.9,52.8 		"/>
		<polygon class="st10" points="79.9,53.3 79.9,53.6 79.9,53.7 79.8,53.8 79.8,54 79.7,54.1 79.6,54.2 79.5,54.3 79.4,54.4 
			79.3,54.5 62.4,64.2 62.3,64.2 62.3,64.3 62.2,64.3 62.1,64.4 62,64.4 61.9,64.4 61.8,64.4 61.7,64.5 61.6,64.5 61.5,64.5 
			61.4,64.5 61.3,64.5 61.2,64.5 61.1,64.6 61,64.6 60.9,64.6 60.8,64.6 60.7,64.6 60.6,64.5 60.5,64.5 60.4,64.5 60.3,64.5 
			60.2,64.5 60.1,64.5 60,64.4 59.9,64.4 59.8,64.4 59.8,64.4 59.7,64.3 59.6,64.3 59.5,64.2 59.4,64.2 51.3,59.5 51.2,59.4 
			51.1,59.3 50.9,59.2 50.9,59.1 50.8,59 50.7,58.9 50.7,58.8 50.7,58.7 50.7,58.4 50.7,58.5 50.7,58.6 50.8,58.7 50.9,58.8 
			50.9,58.9 51.1,59.1 51.2,59.2 51.3,59.2 59.4,63.9 59.5,64 59.6,64 59.7,64 59.8,64.1 59.8,64.1 59.9,64.1 60,64.2 60.1,64.2 
			60.2,64.2 60.3,64.2 60.4,64.2 60.5,64.3 60.6,64.3 60.7,64.3 60.8,64.3 60.9,64.3 61,64.3 61.1,64.3 61.2,64.3 61.3,64.3 
			61.4,64.2 61.5,64.2 61.6,64.2 61.7,64.2 61.8,64.2 61.9,64.1 62,64.1 62.1,64.1 62.2,64 62.3,64 62.3,64 62.4,63.9 79.3,54.2 
			79.4,54.1 79.5,54 79.6,53.9 79.7,53.8 79.8,53.7 79.8,53.6 79.9,53.4 		"/>
		<path class="st7" d="M72.8,52.9v5.7c-2.3,1.3-1.9,1.1-4.2,2.4v-5.7C70.9,54,70.5,54.2,72.8,52.9z"/>
		<path class="st9" d="M72,59l-0.4,0.2v-5.7l0.4-0.2l0.4-0.2v5.7L72,59L72,59z M70.8,59.7l0.4-0.2v-5.7L70.8,54l-0.4,0.2V60
			L70.8,59.7L70.8,59.7z M70,54.5v5.7l-0.8,0.5V55L70,54.5z"/>
	</g>
	<path class="st4" d="M43.8,44.8l37.9,21.9c0,9.7,0,19.9,0,31L43.8,75.9C43.8,67.9,43.8,55.6,43.8,44.8z"/>
	<g>
		<polygon class="st3" points="82.7,66.7 86.4,64.6 86.4,64.4 86.3,64.3 86.3,64.2 86.2,64.1 86.2,63.9 86.1,63.8 86,63.7 
			85.9,63.7 82.2,65.8 82.3,65.9 82.4,66 82.5,66.1 82.6,66.2 82.6,66.3 82.7,66.4 82.7,66.6 		"/>
		<polygon class="st11" points="82.2,65.8 85.9,63.7 47,41.2 43.3,43.3 		"/>
		<polygon class="st11" points="43.3,43.3 47,41.2 46.8,41.2 46.8,41.1 46.7,41.1 46.6,41.2 42.9,43.3 43,43.3 43.1,43.3 43.2,43.3 
					"/>
		<polygon class="st2" points="82.6,99.3 86.2,97.1 86.3,97.1 86.3,97 86.4,96.9 86.4,96.8 82.7,98.9 82.7,99 82.7,99.1 82.6,99.2 
					"/>
		<polygon class="st3" points="82.7,98.9 86.4,96.8 86.4,95.8 86.4,94.9 86.4,93.9 86.4,92.9 86.4,92 86.4,91 86.4,90 86.4,89 
			86.4,88.1 86.4,87.1 86.4,86.1 86.4,85.1 86.4,84.2 86.4,83.2 86.4,82.2 86.4,81.2 86.4,80.2 86.4,79.2 86.4,78.2 86.4,77.2 
			86.4,76.2 86.4,75.1 86.4,74.1 86.4,73.1 86.4,72 86.4,71 86.4,69.9 86.4,68.9 86.4,67.8 86.4,66.7 86.4,65.7 86.4,64.6 
			82.7,66.7 82.7,67.8 82.7,68.9 82.7,69.9 82.7,71 82.7,72.1 82.7,73.1 82.7,74.2 82.7,75.2 82.7,76.2 82.7,77.3 82.7,78.3 
			82.7,79.3 82.7,80.3 82.7,81.3 82.7,82.3 82.7,83.3 82.7,84.3 82.7,85.3 82.7,86.3 82.7,87.3 82.7,88.2 82.7,89.2 82.7,90.2 
			82.7,91.2 82.7,92.1 82.7,93.1 82.7,94.1 82.7,95 82.7,96 82.7,97 82.7,98 		"/>
	</g>
	<path class="st2" d="M82.7,66.7c0-0.3-0.2-0.7-0.5-0.9L43.3,43.3c-0.3-0.2-0.5,0-0.5,0.3v32.2c0,0.3,0.2,0.7,0.5,0.9l38.9,22.5
		c0.3,0.2,0.5,0,0.5-0.3C82.7,88.6,82.7,78.4,82.7,66.7z"/>
	<path class="st12" d="M59.7,62L59.7,62L59.7,62z M57.9,63"/>
	<polygon class="st12" points="57.7,66.1 59.5,65.1 59.9,64.9 58.1,66 	"/>
	<polygon class="st12" points="59.8,66 61.6,65 61.8,65 62,65.1 62.1,65.1 62.3,65.2 62.4,65.3 62.6,65.3 62.8,65.4 62.9,65.5 
		63.4,65.8 63.9,66.2 64.4,66.6 64.9,67.1 65.3,67.6 65.7,68.1 66.1,68.7 66.5,69.3 66.8,69.9 67.1,70.5 67.3,71.1 67.5,71.7 
		67.7,72.3 67.8,73 67.9,73.6 67.9,74.2 67.8,75.3 67.5,76.2 67.1,76.9 66.5,77.4 64.7,78.5 65.3,78 65.7,77.3 66,76.3 66.1,75.2 
		66.1,74.6 66,74 65.9,73.4 65.7,72.8 65.5,72.1 65.3,71.5 65,70.9 64.7,70.3 64.3,69.7 63.9,69.2 63.5,68.6 63.1,68.1 62.6,67.7 
		62.1,67.3 61.6,66.9 61.1,66.6 61,66.5 60.8,66.4 60.6,66.3 60.5,66.2 60.3,66.2 60.2,66.1 60,66.1 	"/>
	<polygon class="st0" points="59.7,62 59.9,62 60.1,62.1 60.3,62.2 60.5,62.3 60.6,62.5 60.8,62.7 60.9,62.9 61,63.2 61.6,65 
		59.8,66 59.2,64.2 59.1,64 59,63.8 58.8,63.5 58.7,63.4 58.5,63.2 58.3,63.1 58.1,63 57.9,63 57.8,63 57.6,63.1 59.4,62.1 59.6,62 
			"/>
	<path class="st9" d="M58.1,66l-0.6-1.7c-0.2-0.7-0.1-1.2,0.4-1.2l0,0c0.5,0,1,0.5,1.3,1.2l0.6,1.8c0.4,0.1,0.8,0.3,1.3,0.5
		c2.8,1.6,5,5.5,5,8.7s-2.2,4.5-5,2.9c-2.8-1.6-5-5.5-5-8.7C56.1,67.5,56.9,66.3,58.1,66z"/>
	<path class="st1" d="M58.1,66l-0.6-1.7c-0.2-0.7-0.1-1.2,0.4-1.2l0,0c0.5,0,1,0.5,1.3,1.2l0.6,1.8C59.2,65.9,58.7,65.9,58.1,66z"/>
	<path class="st13" d="M61.1,77.3c-1.2-0.7-2.3-1.9-3-3.2c-0.8-1.3-1.3-2.9-1.3-4.2c0-1.4,0.5-2.3,1.3-2.8c0.8-0.4,1.8-0.4,3,0.3
		c1.2,0.7,2.3,1.9,3,3.2c0.8,1.3,1.3,2.9,1.3,4.2c0,1.4-0.5,2.3-1.3,2.8C63.4,78,62.3,78,61.1,77.3z"/>
	<path class="st14" d="M62.2,62c0,0.3,0.2,0.7,0.5,0.9c0.3,0.2,0.5,0,0.5-0.3v-1.1c0-0.3-0.2-0.7-0.5-0.9c-0.3-0.2-0.5,0-0.5,0.3V62
		L62.2,62z M70.6,75.2c-0.3-0.2-0.5,0-0.5,0.3c0,0.3,0.2,0.7,0.5,0.9l1,0.6c0.3,0.2,0.5,0,0.5-0.3c0-0.3-0.2-0.7-0.5-0.9L70.6,75.2
		L70.6,75.2z M63.3,80.6c0-0.3-0.2-0.7-0.5-0.9c-0.3-0.2-0.5,0-0.5,0.3v1.1c0,0.3,0.2,0.7,0.5,0.9c0.3,0.2,0.5,0,0.5-0.3V80.6
		L63.3,80.6z M54.9,67.4c0.3,0.2,0.5,0,0.5-0.3c0-0.3-0.2-0.7-0.5-0.9l-1-0.6c-0.3-0.2-0.5,0-0.5,0.3c0,0.3,0.2,0.7,0.5,0.9
		L54.9,67.4z"/>
	<polygon class="st0" points="76.9,73.8 78.7,72.7 78.9,72.6 79.1,72.6 79.3,72.7 79.5,72.8 79.6,72.8 79.7,72.9 79.9,73 80.1,73.1 
		80.3,73.3 80.5,73.4 80.6,73.4 80.7,73.5 80.9,73.6 81.2,73.8 81.3,74.1 81.5,74.3 81.7,74.6 81.8,74.9 81.8,75.2 81.9,75.5 
		81.9,89.4 81.8,89.6 81.8,89.8 81.7,90 81.5,90.1 79.7,91.2 79.8,91 79.9,90.9 80,90.7 80,90.4 80,76.5 80,76.2 79.9,76 79.8,75.7 
		79.7,75.4 79.5,75.1 79.3,74.9 79.1,74.7 78.9,74.5 78.8,74.5 78.7,74.4 78.5,74.3 78.3,74.2 78.1,74.1 77.9,74 77.8,73.9 
		77.7,73.8 77.5,73.7 77.3,73.7 77.1,73.7 	"/>
	<path class="st1" d="M76.5,88.4V74.5c0-0.7,0.5-1,1.2-0.7c0.1,0,1.1,0.6,1.2,0.7c0.6,0.4,1.2,1.3,1.2,2v13.9c0,0.7-0.5,1-1.2,0.7
		c-0.1,0-1.1-0.6-1.2-0.7C77.1,90,76.5,89.1,76.5,88.4z"/>
	<path class="st3" d="M68.2,28.9L43.3,43.3c-0.3,0.2-0.5,0.6-0.5,0.9c0,11.7,0,21.9,0,32.2v0v4.6l-0.3,0.2c-1.7,1-3,0.2-3-1.8
		l0.2-34.8c0-1.9,1.3-4.3,3-5.2l25.6-14.8V28.9z"/>
	<polygon class="st2" points="13.6,64.6 13.8,29.8 13.9,29.1 14,28.3 14.3,27.6 14.7,26.9 15.1,26.2 15.6,25.6 16.2,25 16.8,24.6 
		17.6,24.2 18.5,23.6 19.5,23.1 20.5,22.5 21.7,21.8 22.9,21.1 24.1,20.4 25.4,19.6 26.8,18.8 28.2,18 29.6,17.2 31.1,16.4 
		32.6,15.5 34.1,14.6 35.6,13.7 37.2,12.9 38.7,12 40.2,11.1 41.7,10.2 43.2,9.4 44.7,8.5 46.1,7.7 47.5,6.9 48.9,6.1 50.2,5.3 
		51.4,4.6 52.6,3.9 53.8,3.3 54.8,2.7 55.8,2.1 56.7,1.6 57.5,1.1 58.1,0.8 58.7,0.7 59.2,0.7 59.6,0.9 85.5,15.8 85,15.7 
		84.5,15.6 84,15.7 83.4,16 82.6,16.5 81.7,17 80.7,17.6 79.6,18.2 78.5,18.8 77.3,19.5 76,20.3 74.7,21 73.4,21.8 72,22.6 
		70.5,23.4 69,24.3 67.6,25.2 66,26 64.5,26.9 63,27.8 61.5,28.7 60,29.5 58.4,30.4 57,31.3 55.5,32.1 54,33 52.6,33.8 51.3,34.5 
		50,35.3 48.7,36 47.5,36.7 46.4,37.4 45.3,38 44.3,38.6 43.4,39.1 42.6,39.5 42,40 41.5,40.5 41,41.1 40.5,41.8 40.1,42.5 
		39.9,43.3 39.7,44 39.6,44.8 39.5,79.5 39.5,80.2 39.7,80.8 40,81.2 40.3,81.5 14.5,66.6 14.1,66.3 13.9,65.8 13.7,65.3 	"/>
	<polygon class="st11" points="14.7,26.9 15.1,26.2 15.6,25.6 16.2,25 16.8,24.6 17.6,24.2 18.5,23.6 19.5,23.1 20.5,22.5 
		21.7,21.8 22.9,21.1 24.1,20.4 25.4,19.6 26.8,18.8 28.2,18 29.6,17.2 31.1,16.4 32.6,15.5 34.1,14.6 35.6,13.7 37.2,12.9 38.7,12 
		40.2,11.1 41.7,10.2 43.2,9.4 44.7,8.5 46.1,7.7 47.5,6.9 48.9,6.1 50.2,5.3 51.4,4.6 52.6,3.9 53.8,3.3 54.8,2.7 55.8,2.1 
		56.7,1.6 57.5,1.1 58.1,0.8 58.7,0.7 59.2,0.7 59.6,0.9 85.5,15.8 85,15.7 84.5,15.6 84,15.7 83.4,16 82.6,16.5 81.7,17 80.7,17.6 
		79.6,18.2 78.5,18.8 77.3,19.5 76,20.3 74.7,21 73.4,21.8 72,22.6 70.5,23.4 69,24.3 67.6,25.2 66,26 64.5,26.9 63,27.8 61.5,28.7 
		60,29.5 58.4,30.4 57,31.3 55.5,32.1 54,33 52.6,33.8 51.3,34.5 50,35.3 48.7,36 47.5,36.7 46.4,37.4 45.3,38 44.3,38.6 43.4,39.1 
		42.6,39.5 42,40 41.5,40.5 41,41.1 40.5,41.8 	"/>
</g>
</svg>
