<?xml version="1.0" encoding="utf-8"?>
<!-- Generator: Adobe Illustrator 24.2.1, SVG Export Plug-In . SVG Version: 6.00 Build 0)  -->
<svg version="1.1" id="Layer_1" xmlns="http://www.w3.org/2000/svg" xmlns:xlink="http://www.w3.org/1999/xlink" x="0px" y="0px"
	 viewBox="0 0 100 100" style="enable-background:new 0 0 100 100;" xml:space="preserve">
<style type="text/css">
	.st0{fill-rule:evenodd;clip-rule:evenodd;fill:#2A8D52;}
	.st1{fill-rule:evenodd;clip-rule:evenodd;fill:#28AE60;}
	.st2{fill-rule:evenodd;clip-rule:evenodd;fill:#E64D3C;}
	.st3{fill-rule:evenodd;clip-rule:evenodd;fill:#2B658D;}
	.st4{fill-rule:evenodd;clip-rule:evenodd;fill:#C2AC79;}
	.st5{fill-rule:evenodd;clip-rule:evenodd;fill:#4C89C8;}
	.st6{fill-rule:evenodd;clip-rule:evenodd;fill:#FFE0A6;}
	.st7{fill-rule:evenodd;clip-rule:evenodd;fill:#943C3C;}
</style>
<g>
	<g>
		<path class="st0" d="M58,17.1l7.2-4.3c0.3-0.2,0.7-0.4,1-0.5s0.7-0.3,1-0.4c0.3-0.1,0.6-0.2,0.9-0.3c0.3-0.1,0.6-0.1,0.9-0.1
			c0.3,0,0.6,0,0.9,0c0.3,0,0.5,0,0.8,0.1c0.3,0.1,0.5,0.1,0.8,0.2c0.2,0.1,0.5,0.2,0.7,0.3l-3.6-2.1l-0.7-0.3l-0.8-0.2l-0.8-0.1
			l-0.9,0l-0.9,0.1l-0.9,0.3l-1,0.4l-1,0.5L58,12.9V17.1L58,17.1z M56.5,11.8L56.5,11.8L56.5,11.8L56.5,11.8L56.5,11.8L56.5,11.8
			L56.5,11.8L56.5,11.8l0.1-0.1l0,0l0,0l0,0l0,0l0.1-0.1l0.1-0.1l0,0l0,0l0,0l0,0l0,0l0,0l0,0l0,0l0,0l0,0l0,0l0,0l0,0l0,0l0,0l0,0
			l0,0l0,0l0,0l0,0l0,0l0,0l0,0l0,0l0,0c0.1,0,0.1-0.1,0.2-0.1c0.1,0,0.1,0,0.2,0c0.1,0,0.1,0,0.2,0c0.1,0,0.1,0,0.1,0.1l-3.6-2.1
			L54,9l-0.2,0l-0.2,0l-0.2,0.1l-0.1,0.1l-0.1,0.1l-0.1,0.1l-0.1,0.1l-0.1,0.1l-0.1,0.1L53,9.6l-0.1,0.1L37.8,30.2l-0.1,0.2
			l-0.1,0.2l-0.1,0.2l-0.1,0.2l0,0.2l0,0.2l0.1,0.2l0.1,0.1l0,0l0,0l0,0l0,0l3.5,2l0,0l0,0l0,0l0,0l0,0l0,0l0,0l0,0l0,0l0,0l0,0l0,0
			l0,0c0,0-0.1-0.1-0.1-0.1c0-0.1,0-0.1-0.1-0.2c0-0.1,0-0.1,0-0.2c0-0.1,0-0.1,0-0.2c0-0.1,0-0.1,0.1-0.2c0-0.1,0.1-0.2,0.1-0.2
			c0-0.1,0.1-0.2,0.1-0.2c0-0.1,0.1-0.2,0.1-0.2l0.6-0.8l0.5-0.7l0.5-0.7l0.4-0.6l0.4-0.6l0.4-0.5l0.6-0.9l0.3-0.4l0.1-0.1l0,0l0,0
			l0,0l0,0l0.1-0.1l0.1-0.1l0.1-0.1v0l0.1-0.1l0-0.1l0.1-0.2l0.2-0.2l0.2-0.3l0,0L56.5,11.8L56.5,11.8z M41.2,34L41.2,34L41.2,34
			L41.2,34z M41.2,34L41.2,34L41.2,34L41.2,34z M41.2,34L41.2,34L41.2,34L41.2,34z M46.1,25.9l0.2-0.3l0.3-0.3l0.3-0.4l0.3-0.4
			l0.4-0.5l0.4-0.5l0.4-0.6l0.5-0.6l0.5-0.7l0.6-0.8l0.6-0.8l0.6-0.9l0.7-0.9l0.7-1l3.9-5.3L46.1,25.9L46.1,25.9z M73,25.5l0.4,0.2
			l0.3,0.3c0,0,0.1,0.1,0.1,0.1l-1.7-1C72.4,25.3,72.7,25.4,73,25.5z"/>
	</g>
	<path class="st1" d="M72.2,12.1c1.8,1,2.9,3.3,3,6.4l0.2,6l0,0c0,0.4-0.2,0.9-0.5,1.2c-0.4,0.6-1,0.7-1.3,0.3
		c-0.6-0.9-2.2-1.1-4.1-0.9c-2.4,0.2-5.1,1.2-7,2.2L58,30v5.4h0c0,0.2-0.1,0.4-0.2,0.7c-0.3,0.7-0.9,1.1-1.3,1l-15.2-3
		c-0.1,0-0.2-0.1-0.3-0.1c-0.3-0.3-0.2-1.1,0.3-1.6l15.1-20.5c0.2-0.2,0.4-0.4,0.6-0.6c0.5-0.3,0.9-0.1,0.9,0.5v5.4l7.2-4.3
		C68,11.2,70.4,11.1,72.2,12.1z"/>
	<path class="st2" d="M26.8,89.9c-1.8-1-2.9-3.3-3-6.4l-0.2-6h0c0-0.4,0.2-0.9,0.5-1.2c0.4-0.6,1-0.7,1.3-0.3
		c0.6,0.9,2.2,1.1,4.1,0.9c2.4-0.2,5.1-1.2,7-2.2l4.5-2.6v-5.4l0,0c0-0.2,0.1-0.4,0.2-0.7c0.3-0.7,0.9-1.1,1.3-1l15.2,3
		c0.1,0,0.2,0.1,0.3,0.1c0.3,0.3,0.2,1.1-0.3,1.6L42.5,90.3c-0.2,0.2-0.4,0.4-0.6,0.6c-0.5,0.3-0.9,0.1-0.9-0.5v-5.4l-7.2,4.3
		C31,90.8,28.6,91,26.8,89.9z"/>
	<rect x="38.5" y="78.7" transform="matrix(0.5938 -0.8046 0.8046 0.5938 -43.3438 71.4742)" class="st2" width="21.2" height="0"/>
	<rect x="42.8" y="82.8" transform="matrix(0.8321 -0.5547 0.5547 0.8321 -38.7235 37.651)" class="st2" width="0" height="0"/>
	<path class="st2" d="M30,88.2c1.1,0.1,2.4-0.3,3.7-1.1l8.2-4.8c0.2-0.1,0.3-0.1,0.4-0.1c-0.1,0-0.3,0-0.4,0.1l-8.2,4.8
		C32.3,87.9,31.1,88.2,30,88.2z"/>
	<path class="st2" d="M29.3,88.1c0.1,0,0.3,0,0.4,0.1C29.6,88.1,29.4,88.1,29.3,88.1z"/>
	<path class="st3" d="M81.1,58.3l-7.3-4.2l-0.9,0.5l-0.9,0.6l-0.9,0.6l-0.8,0.7l-0.8,0.7l-0.8,0.7l-0.8,0.8l-0.8,0.8l-0.8,0.8
		l-0.7,0.9L64.9,62l-0.7,0.9l-0.7,0.9l-0.6,1l-0.6,1l-0.6,1l-0.5,0.9l-0.5,0.9l-0.5,0.9l-0.4,1l-0.4,1l-0.4,1l-0.4,1l-0.3,1l-0.3,1
		l-0.3,1l-0.2,1l-0.2,1l-0.2,1l-0.1,1l-0.1,1l-0.1,1l7.3,4.2l0.1-1l0.1-1l0.1-1l0.2-1l0.2-1l0.2-1l0.3-1l0.3-1l0.3-1l0.4-1l0.4-1
		l0.4-1l0.4-1l0.5-0.9l0.5-0.9L69,71l0.6-1l0.6-1l0.6-1l0.7-0.9l0.7-0.9l0.7-0.9l0.7-0.9l0.8-0.8l0.8-0.8l0.8-0.8l0.8-0.7l0.8-0.7
		l0.8-0.7l0.9-0.6l0.9-0.6L81.1,58.3L81.1,58.3z M93.2,57.1l-0.6-0.3L92,56.5l-0.6-0.2l-0.7-0.2L89.9,56L89.2,56l-0.7,0l-0.8,0
		L87,56.1l-0.8,0.1l-0.8,0.2l-0.8,0.3L83.7,57l-0.9,0.4L82,57.8l-0.9,0.5l-7.3-4.2l0.9-0.5l0.9-0.4l0.9-0.4l0.8-0.3l0.8-0.3l0.8-0.2
		l0.8-0.1l0.8-0.1l0.8,0l0.7,0l0.7,0.1l0.7,0.1l0.7,0.2l0.6,0.2l0.6,0.3l0.6,0.3L93.2,57.1z"/>
	<path class="st4" d="M88.2,33l-7.3-4.2l-0.3-0.2l-0.4-0.2l-0.4-0.1l-0.4-0.1L79,28.2l-0.4,0l-0.4,0l-0.4,0l-0.5,0.1l-0.5,0.1
		l-0.5,0.1l-0.5,0.2l-0.5,0.2L74.8,29l-0.5,0.3l-0.5,0.3l-0.5,0.3l-0.5,0.3l-0.5,0.4l-0.5,0.4l-0.5,0.4l-0.5,0.4l-0.5,0.5l-0.5,0.5
		l-0.4,0.5L69,33.6l-0.4,0.5l-0.4,0.5l-0.4,0.6l-0.4,0.6L67,36.4L66.7,37l-0.3,0.6L66,38.2l-0.3,0.6l-0.3,0.6L65.2,40L65,40.7
		l-0.2,0.6l-0.2,0.6l-0.2,0.6l-0.2,0.6l-0.1,0.6L64,44.4L63.9,45l-0.1,0.6l0,0.6l0,0.6l0,0.6l0,0.6l0.1,0.5l0.1,0.5l0.1,0.5l0.1,0.5
		l0.2,0.4l0.2,0.4l0.2,0.4l0.2,0.4l0.2,0.3l0.3,0.3l0.3,0.3l0.3,0.3l0.3,0.2l0.3,0.2l7.3,4.2l-0.3-0.2l-0.3-0.2L73,56.9l-0.3-0.3
		l-0.3-0.3l-0.2-0.3L72,55.5l-0.2-0.4l-0.2-0.4l-0.2-0.4l-0.1-0.5l-0.1-0.5l-0.1-0.5l-0.1-0.5l0-0.6l0-0.6l0-0.6l0-0.6l0.1-0.6
		l0.1-0.6l0.1-0.6l0.1-0.6l0.2-0.6l0.2-0.6l0.2-0.6l0.2-0.6l0.2-0.6l0.3-0.6L73,43l0.3-0.6l0.3-0.6l0.3-0.6l0.3-0.6l0.4-0.6l0.4-0.6
		l0.4-0.6l0.4-0.5l0.4-0.5l0.4-0.5l0.4-0.5l0.5-0.5l0.5-0.5l0.5-0.4l0.5-0.4l0.5-0.4l0.5-0.4l0.5-0.3l0.5-0.3l0.5-0.3l0.5-0.2
		l0.5-0.2l0.5-0.2l0.5-0.2l0.5-0.1l0.5-0.1l0.5-0.1l0.4,0l0.4,0l0.4,0l0.4,0.1l0.4,0.1l0.4,0.1l0.4,0.2L88.2,33L88.2,33z M81.1,58.3
		L81.1,58.3l-7.3-4.2l0,0L81.1,58.3z"/>
	<path class="st5" d="M93.2,57.1c-3.1-1.8-7.4-1.5-12.1,1.2l0,0C76.4,61,72.1,65.7,69,71c-2.8,4.9-4.7,10.4-5,15.5l34.1-19.7
		C97.8,62.1,96,58.7,93.2,57.1z"/>
	<path class="st6" d="M81.1,56.9L81.1,56.9c2.8-1.6,5.3-4.4,7.1-7.5h0c1.8-3.1,2.9-6.7,2.9-9.9c0-3.2-1.1-5.5-2.9-6.5
		c-1.8-1-4.3-0.9-7.1,0.7c-2.8,1.6-5.3,4.3-7.1,7.5c-1.8,3.1-2.9,6.7-2.9,9.9c0,3.2,1.1,5.5,2.9,6.5C75.8,58.6,78.3,58.5,81.1,56.9z
		"/>
	<path class="st3" d="M26.2,48.4l-7.3-4.2L18,44.7l-0.9,0.6l-0.9,0.6l-0.8,0.7l-0.8,0.7L13.8,48L13,48.8l-0.8,0.8l-0.8,0.8l-0.7,0.9
		l-0.7,0.9l-0.7,0.9L8.7,54L8,55l-0.6,1l-0.6,1l-0.5,0.9l-0.5,0.9l-0.5,0.9l-0.4,1l-0.4,1l-0.4,1l-0.4,1l-0.3,1l-0.3,1l-0.3,1
		l-0.2,1l-0.2,1l-0.2,1l-0.1,1l-0.1,1l-0.1,1l7.3,4.2l0.1-1l0.1-1l0.1-1l0.2-1l0.2-1l0.2-1l0.3-1l0.3-1l0.3-1l0.4-1l0.4-1l0.4-1
		l0.4-1l0.5-0.9l0.5-0.9l0.5-0.9l0.6-1l0.6-1l0.6-1l0.7-0.9l0.7-0.9l0.7-0.9l0.7-0.9l0.8-0.8l0.8-0.8l0.8-0.8l0.8-0.7l0.8-0.7
		l0.8-0.7l0.9-0.6l0.9-0.6L26.2,48.4L26.2,48.4z M38.3,47.2l-0.6-0.3l-0.6-0.3l-0.6-0.2l-0.7-0.2L35,46.1l-0.7-0.1l-0.7,0l-0.8,0
		l-0.8,0.1l-0.8,0.1l-0.8,0.2l-0.8,0.3l-0.8,0.3l-0.9,0.4l-0.9,0.4l-0.9,0.5l-7.3-4.2l0.9-0.5l0.9-0.4l0.9-0.4l0.8-0.3l0.8-0.3
		l0.8-0.2l0.8-0.1l0.8-0.1l0.8,0l0.7,0l0.7,0.1l0.7,0.1l0.7,0.2l0.6,0.2l0.6,0.3L31,43L38.3,47.2z"/>
	<path class="st4" d="M33.3,23.1L26,18.9l-0.3-0.2l-0.4-0.2l-0.4-0.1l-0.4-0.1l-0.4-0.1l-0.4,0l-0.4,0l-0.4,0l-0.5,0.1l-0.5,0.1
		l-0.5,0.1l-0.5,0.2l-0.5,0.2l-0.5,0.2l-0.5,0.3l-0.5,0.3l-0.5,0.3l-0.5,0.3l-0.5,0.4L16.9,21l-0.5,0.4l-0.5,0.4l-0.5,0.5L15,22.8
		l-0.4,0.5l-0.4,0.5l-0.4,0.5l-0.4,0.5l-0.4,0.6l-0.4,0.6l-0.4,0.6l-0.3,0.6l-0.3,0.6l-0.3,0.6l-0.3,0.6l-0.3,0.6l-0.3,0.6l-0.2,0.6
		l-0.2,0.6L9.6,32l-0.2,0.6l-0.2,0.6l-0.1,0.6l-0.1,0.6L9,35.2l-0.1,0.6l0,0.6l0,0.6l0,0.6l0,0.6L9,38.7l0.1,0.5l0.1,0.5l0.1,0.5
		l0.2,0.4l0.2,0.4l0.2,0.4l0.2,0.4l0.2,0.3l0.3,0.3l0.3,0.3l0.3,0.3l0.3,0.2l0.3,0.2l7.3,4.2l-0.3-0.2l-0.3-0.2L18.1,47l-0.3-0.3
		l-0.3-0.3L17.4,46l-0.2-0.4l-0.2-0.4l-0.2-0.4l-0.2-0.4l-0.1-0.5l-0.1-0.5l-0.1-0.5l-0.1-0.5l0-0.6l0-0.6l0-0.6l0-0.6l0.1-0.6
		l0.1-0.6l0.1-0.6l0.1-0.6l0.2-0.6l0.2-0.6l0.2-0.6l0.2-0.6l0.2-0.6l0.3-0.6l0.3-0.6l0.3-0.6l0.3-0.6l0.3-0.6l0.3-0.6l0.4-0.6
		l0.4-0.6l0.4-0.6l0.4-0.5l0.4-0.5l0.4-0.5l0.4-0.5l0.5-0.5l0.5-0.5l0.5-0.4l0.5-0.4l0.5-0.4l0.5-0.4l0.5-0.3l0.5-0.3l0.5-0.3
		l0.5-0.2l0.5-0.2l0.5-0.2l0.5-0.2l0.5-0.1l0.5-0.1l0.5-0.1l0.4,0l0.4,0l0.4,0l0.4,0.1l0.4,0.1l0.4,0.1l0.4,0.2L33.3,23.1L33.3,23.1
		z M26.2,48.4L26.2,48.4l-7.3-4.2l0,0"/>
	<path class="st5" d="M38.3,47.2c-3.1-1.8-7.4-1.5-12.1,1.2l0,0c-4.7,2.7-9,7.4-12.1,12.7c-2.8,4.9-4.7,10.4-5,15.5l34.1-19.7
		C42.9,52.2,41.1,48.8,38.3,47.2z"/>
	<path class="st6" d="M26.2,47L26.2,47c2.8-1.6,5.3-4.4,7.1-7.5h0c1.8-3.1,2.9-6.7,2.9-9.9c0-3.2-1.1-5.5-2.9-6.5
		c-1.8-1-4.3-0.9-7.1,0.7c-2.8,1.6-5.3,4.3-7.1,7.5c-1.8,3.1-2.9,6.7-2.9,9.9c0,3.2,1.1,5.5,2.9,6.5C20.9,48.8,23.4,48.6,26.2,47z"
		/>
	<path class="st7" d="M37.4,84.9L37.4,84.9l1.3-0.7h0L37.4,84.9L37.4,84.9z M37.4,87.1v1.2l0,0.2l0.1,0.2l0.1,0.1l0.1,0.1l3.6,2.1
		c0,0-0.1-0.1-0.1-0.1c0,0-0.1-0.1-0.1-0.1c0-0.1,0-0.1-0.1-0.2s0-0.1,0-0.2v-5.4L37.4,87.1L37.4,87.1z M54,65.9L54,65.9L54,65.9
		l0.1,0l0,0l3.6,2.1l0,0l0,0l0,0l0,0l0,0l0,0l0,0l0,0l0,0l0,0l-15.2-3c-0.1,0-0.1,0-0.2,0c-0.1,0-0.1,0-0.2,0c-0.1,0-0.1,0-0.2,0.1
		c-0.1,0-0.1,0.1-0.2,0.1c-0.1,0-0.1,0.1-0.2,0.2c-0.1,0.1-0.1,0.1-0.2,0.2c-0.1,0.1-0.1,0.1-0.1,0.2c0,0.1-0.1,0.2-0.1,0.2l0,0l0,0
		l0,0l0,0l0,0l0,0l0,0l0,0l0,0l0,0l0,0l0,0l0,0l0,0l0,0l0,0l0,0l0,0l0,0l0,0l0,0l0,0l0,0l0,0l0,0l0,0l0,0l0,0l0,0l0,0l0,0l0,0l0,0
		l0,0l0,0l0,0l0,0l0,0v0l0,0v0l0,0v0l0,0v0l0,0v0v0l0,0v0v0v0v0h0v5.4l-4.5,2.6l-0.7,0.4l-0.8,0.4L34,75.8l-0.9,0.3l-0.9,0.3
		l-0.9,0.2l-0.9,0.2l-0.9,0.1L28.8,77l-0.7,0l-0.6,0l-0.6-0.1l-0.5-0.1L26,76.5l-0.1-0.1c-0.2-0.1-0.4-0.3-0.5-0.5
		c-0.2-0.2-0.4-0.3-0.7-0.1c-0.1,0-0.1,0.1-0.2,0.1c-0.1,0-0.1,0.1-0.2,0.2c-0.1,0.1-0.1,0.1-0.2,0.2c0,0-0.1,0.1-0.1,0.1l-0.1,0.1
		l0,0l0,0c0,0.1-0.1,0.1-0.1,0.2c0,0.1,0,0.1-0.1,0.2c0,0.1,0,0.1-0.1,0.2l0,0.2l0,0.2c0,0.1,0,0.1,0,0.1l0,0l0.2,6
		c0,0.4,0,0.8,0.1,1.1c0,0.4,0.1,0.7,0.2,1c0.1,0.3,0.2,0.7,0.3,1c0.1,0.3,0.2,0.6,0.4,0.9c0.1,0.3,0.3,0.5,0.4,0.8
		c0.2,0.2,0.3,0.5,0.5,0.7c0.2,0.2,0.4,0.4,0.6,0.6c0.2,0.2,0.4,0.3,0.6,0.4l-3.6-2.1l-0.6-0.4L22,86.9l-0.5-0.7l-0.4-0.8l-0.4-0.9
		l-0.3-1l-0.2-1l-0.1-1.1l-0.2-6h0l0-0.1l0-0.2l0-0.2l0.1-0.2l0.1-0.2l0.1-0.2l0.1-0.2l0.1-0.1l0.2-0.2l0.2-0.1l0.2-0.1l0.2-0.1
		l0.2,0l0.2,0l0.1,0.1l1.7,1l0.6,0.1l0.6,0l0.7,0l0.7-0.1l0.9-0.1l0.9-0.2l0.9-0.2l0.9-0.3l0.9-0.3l0.9-0.3l0.8-0.4l0.7-0.4l4.5-2.6
		v-5.4l0,0l0-0.1l0-0.1l0-0.1l0-0.1l0-0.1l0-0.1l0-0.1l0-0.1l0.1-0.2l0.1-0.2l0.2-0.2l0.2-0.2l0.2-0.1l0.2-0.1l0.2,0l0.2,0L54,65.9z
		"/>
</g>
</svg>
