<?xml version="1.0" encoding="utf-8"?>
<!-- Generator: Adobe Illustrator 24.2.1, SVG Export Plug-In . SVG Version: 6.00 Build 0)  -->
<svg version="1.1" id="Layer_1" xmlns="http://www.w3.org/2000/svg" xmlns:xlink="http://www.w3.org/1999/xlink" x="0px" y="0px"
	 viewBox="0 0 100 100" style="enable-background:new 0 0 100 100;" xml:space="preserve">
<style type="text/css">
	.st0{fill-rule:evenodd;clip-rule:evenodd;fill:#75BCE3;}
	.st1{fill-rule:evenodd;clip-rule:evenodd;fill:#A5DAF6;}
	.st2{fill-rule:evenodd;clip-rule:evenodd;fill:#F15A48;}
	.st3{fill-rule:evenodd;clip-rule:evenodd;fill:#EB4B39;}
	.st4{fill-rule:evenodd;clip-rule:evenodd;fill:#ED7163;}
	.st5{fill-rule:evenodd;clip-rule:evenodd;fill:#EF4833;}
	.st6{fill-rule:evenodd;clip-rule:evenodd;fill:#C03B2B;}
	.st7{fill-rule:evenodd;clip-rule:evenodd;fill:#F58C80;}
	.st8{fill-rule:evenodd;clip-rule:evenodd;fill:#74CEE6;}
	.st9{fill-rule:evenodd;clip-rule:evenodd;fill:#7FD2EB;}
	.st10{fill-rule:evenodd;clip-rule:evenodd;fill:#6AA8D0;}
	.st11{fill-rule:evenodd;clip-rule:evenodd;fill:#B3E2F9;}
</style>
<g>
	<path class="st0" d="M29.7,13.4h40.6V81c-1.8,26.9-40.6,22.4-40.6,0.7V13.4z"/>
	<path class="st1" d="M63.8,95c-7.3,6.2-19,5.9-26.6,0.6c2.8,1.6,6.1,2.4,9.6,2.4C56,98,63.9,91.5,66,82.8c0.6,1.3,0.8,2.7,0.5,4.1
		C66.2,89.9,65.2,92.6,63.8,95z"/>
	<path class="st1" d="M66.4,20.3v64h-7.9V24.1c2.1-0.6,4.1-1.3,5.9-2.4C65.1,21.3,65.8,20.8,66.4,20.3z"/>
	<polygon class="st2" points="32.1,80.1 67.8,80.1 67.8,50.9 32.2,50.7 	"/>
	<path class="st3" d="M37.4,42.7c7-4,18.3-4,25.3,0c7,4,7,10.6,0,14.6c-7,4-18.3,4-25.3,0C30.4,53.3,30.4,46.8,37.4,42.7z"/>
	<path class="st4" d="M58.5,41c1.5,0.5,2.9,1.1,4.1,1.8c1.7,1,2.9,2.1,3.8,3.2v8.1c-0.9,1.2-2.1,2.3-3.8,3.2
		c-1.3,0.7-2.7,1.3-4.1,1.8V41z"/>
	<path class="st5" d="M37.4,72.8c7-4,18.3-4,25.3,0c4,2.3,5.7,5.5,5.1,8.5c-0.9,9-8.5,16.1-17.7,16.1c-9.3,0-16.9-7.1-17.7-16.1
		C31.6,78.3,33.3,75.1,37.4,72.8z"/>
	<path class="st6" d="M54.8,74.7c1,0,1.8-0.8,1.8-1.8c0-1-0.8-1.8-1.8-1.8c-1,0-1.8,0.8-1.8,1.8C53.1,73.9,53.8,74.7,54.8,74.7z"/>
	<path class="st5" d="M55,74.4c0.8,0,1.5-0.7,1.5-1.5c0-0.8-0.7-1.5-1.5-1.5c-0.8,0-1.5,0.7-1.5,1.5C53.5,73.7,54.2,74.4,55,74.4z"
		/>
	<path class="st7" d="M56.2,72.1c-0.4-0.5-1-0.4-1,0.3c0,0.4,0.3,0.7,0.7,0.7C56.5,73,56.4,72.4,56.2,72.1z"/>
	<path class="st6" d="M53.2,65.9c1.3,0,2.4-1.1,2.4-2.4c0-1.3-1.1-2.4-2.4-2.4c-1.3,0-2.4,1.1-2.4,2.4
		C50.8,64.8,51.9,65.9,53.2,65.9z"/>
	<path class="st5" d="M53.4,65.4c1.1,0,2-0.9,2-2c0-1.1-0.9-2-2-2c-1.1,0-2,0.9-2,2C51.4,64.5,52.3,65.4,53.4,65.4z"/>
	<path class="st7" d="M55,62.3c-0.5-0.7-1.4-0.5-1.4,0.4c0,0.5,0.4,0.9,0.9,0.9C55.4,63.6,55.4,62.8,55,62.3z"/>
	<path class="st6" d="M40.1,67.6c0.6,0,1.1-0.5,1.1-1.1c0-0.6-0.5-1.1-1.1-1.1c-0.6,0-1.1,0.5-1.1,1.1
		C39.1,67.1,39.6,67.6,40.1,67.6z"/>
	<path class="st5" d="M40.3,67.4c0.5,0,0.9-0.4,0.9-0.9c0-0.5-0.4-0.9-0.9-0.9c-0.5,0-0.9,0.4-0.9,0.9C39.3,67,39.8,67.4,40.3,67.4z
		"/>
	<path class="st7" d="M41,66c-0.2-0.3-0.6-0.2-0.6,0.2c0,0.2,0.2,0.4,0.4,0.4C41.1,66.6,41.1,66.2,41,66z"/>
	<g>
		<path class="st6" d="M44.4,79.9c1.7,0,3.1-1.4,3.1-3.1c0-1.7-1.4-3.1-3.1-3.1c-1.7,0-3.1,1.4-3.1,3.1
			C41.3,78.5,42.7,79.9,44.4,79.9z"/>
		<path class="st5" d="M44.8,79.3c1.5,0,2.7-1.2,2.7-2.7c0-1.5-1.2-2.7-2.7-2.7c-1.5,0-2.7,1.2-2.7,2.7
			C42.1,78.1,43.3,79.3,44.8,79.3z"/>
		<path class="st7" d="M46.8,75.2c-0.7-0.9-1.8-0.6-1.8,0.5c0,0.7,0.5,1.2,1.2,1.2C47.3,76.9,47.3,75.8,46.8,75.2z"/>
	</g>
	<path class="st7" d="M66.4,54.1v23.5h-7.9V59.1c1.5-0.5,2.9-1.1,4.1-1.8C64.3,56.4,65.6,55.3,66.4,54.1z"/>
	<path class="st6" d="M38.9,84.5c1,0,1.8-0.8,1.8-1.8c0-1-0.8-1.8-1.8-1.8c-1,0-1.8,0.8-1.8,1.8C37.1,83.6,37.9,84.5,38.9,84.5z"/>
	<path class="st5" d="M39.1,84.1c0.9,0,1.6-0.7,1.6-1.6c0-0.9-0.7-1.6-1.6-1.6c-0.9,0-1.6,0.7-1.6,1.6
		C37.6,83.4,38.3,84.1,39.1,84.1z"/>
	<path class="st7" d="M40.3,81.7c-0.4-0.5-1.1-0.4-1.1,0.3c0,0.4,0.3,0.7,0.7,0.7C40.6,82.7,40.6,82.1,40.3,81.7z"/>
	<path class="st6" d="M50,85.2c0.9,0,1.7-0.7,1.7-1.7c0-0.9-0.7-1.7-1.7-1.7c-0.9,0-1.7,0.7-1.7,1.7C48.3,84.5,49.1,85.2,50,85.2z"
		/>
	<path class="st5" d="M50.2,84.9c0.8,0,1.4-0.6,1.4-1.4S51,82,50.2,82c-0.8,0-1.4,0.6-1.4,1.4S49.4,84.9,50.2,84.9z"/>
	<path class="st7" d="M51.3,82.7c-0.4-0.5-1-0.3-1,0.3c0,0.4,0.3,0.7,0.7,0.7C51.6,83.6,51.6,83.1,51.3,82.7z"/>
	<path class="st4" d="M58.5,71c1.5,0.5,2.9,1.1,4.1,1.8c1.7,1,2.9,2.1,3.8,3.2v10.5c-1.6,3.7-4.4,6.8-7.9,8.8V71z"/>
	<path class="st6" d="M61.3,86.5c1.2,0,2.1-0.9,2.1-2.1c0-1.2-0.9-2.1-2.1-2.1c-1.2,0-2.1,0.9-2.1,2.1
		C59.2,85.6,60.1,86.5,61.3,86.5z"/>
	<path class="st5" d="M61.5,86.1c1,0,1.8-0.8,1.8-1.8c0-1-0.8-1.8-1.8-1.8c-1,0-1.8,0.8-1.8,1.8C59.7,85.3,60.5,86.1,61.5,86.1z"/>
	<path class="st7" d="M62.9,83.3c-0.5-0.6-1.2-0.4-1.2,0.3c0,0.5,0.4,0.8,0.8,0.8C63.3,84.5,63.3,83.8,62.9,83.3z"/>
	<path class="st0" d="M27.6,13.2h2.7c0,1.4,0.4,2.8,1.3,4.1h-4V13.2L27.6,13.2z M69.8,13.2h2.6v4.1h-3.9
		C69.4,16,69.8,14.6,69.8,13.2z"/>
	<path class="st0" d="M69.3,10.8c5.1,5,4,11.5-3.4,15.8c-8.8,5.1-23,5.1-31.8,0c-7.4-4.3-8.6-10.8-3.4-15.8
		c-1.4,3.7,0.4,7.6,5.3,10.5c7.7,4.5,20.2,4.5,28,0C68.9,18.4,70.7,14.5,69.3,10.8z"/>
	<path class="st1" d="M68.2,17.7V25c-0.7,0.5-0.9,0.8-2.3,1.6c-1.4,0.8-4.1,2-6.5,2.6v-5.9c1.6-0.5,3.2-1.2,4.6-2
		C65.8,20.2,67.2,19,68.2,17.7z"/>
	<path class="st8" d="M69.3,10.8c5.1,5,4,11.5-3.4,15.8c-8.8,5.1-23,5.1-31.8,0c-7.4-4.3-8.6-10.8-3.4-15.8c-0.6,1.5-0.6,3-0.1,4.5
		c-1.1,3.6,0.7,7.4,5.5,10.2c7.7,4.5,20.2,4.5,28,0c4.8-2.8,6.6-6.6,5.5-10.2C69.9,13.8,69.9,12.3,69.3,10.8z"/>
	<path class="st9" d="M68.2,25c-0.7,0.5-0.9,0.8-2.3,1.6c-1.4,0.8-4.1,2-6.5,2.6v-1.7c1.6-0.5,3-1,4.6-2c1.6-0.9,3.2-2.3,4.2-3.6V25
		z"/>
	<path class="st10" d="M34.1,4.2c8.8-5.1,23-5.1,31.8,0c8.8,5.1,8.8,13.3,0,18.4c-8.8,5.1-23.1,5.1-31.9,0
		C25.3,17.5,25.3,9.3,34.1,4.2z"/>
	<path class="st0" d="M32.1,13.4h35.8c0-2.6-1.7-5.3-5.2-7.3c-7-4-18.3-4-25.3,0C33.9,8.1,32.1,10.8,32.1,13.4z"/>
	<path class="st1" d="M37.4,6.1c7-4,18.3-4,25.3,0c7,4,7,10.6,0,14.6c-7,4-18.3,4-25.3,0C30.4,16.7,30.4,10.1,37.4,6.1z"/>
	<path class="st11" d="M37.4,6.1c2.2-1.3,4.8-2.1,7.6-2.6v19.8c-2.8-0.5-5.4-1.3-7.6-2.6c-0.7-0.4-1.3-0.8-1.9-1.3v-12
		C36,7,36.7,6.5,37.4,6.1z"/>
	<path class="st6" d="M39.8,55.5c1,0,1.8-0.8,1.8-1.8c0-1-0.8-1.8-1.8-1.8c-1,0-1.8,0.8-1.8,1.8C38,54.6,38.8,55.5,39.8,55.5z"/>
	<path class="st5" d="M40,55.1c0.9,0,1.6-0.7,1.6-1.6c0-0.9-0.7-1.6-1.6-1.6c-0.9,0-1.6,0.7-1.6,1.6C38.4,54.4,39.2,55.1,40,55.1z"
		/>
	<path class="st7" d="M41.2,52.7c-0.4-0.5-1.1-0.4-1.1,0.3c0,0.4,0.3,0.7,0.7,0.7C41.5,53.7,41.5,53.1,41.2,52.7z"/>
	<path class="st6" d="M56.5,50c0.8,0,1.5-0.7,1.5-1.5c0-0.8-0.7-1.5-1.5-1.5c-0.8,0-1.5,0.7-1.5,1.5C55,49.3,55.6,50,56.5,50z"/>
	<path class="st5" d="M56.6,49.7c0.7,0,1.3-0.6,1.3-1.3c0-0.7-0.6-1.3-1.3-1.3c-0.7,0-1.3,0.6-1.3,1.3
		C55.4,49.2,55.9,49.7,56.6,49.7z"/>
	<path class="st7" d="M57.6,47.8c-0.3-0.4-0.9-0.3-0.9,0.2c0,0.3,0.3,0.6,0.6,0.6C57.8,48.6,57.8,48.1,57.6,47.8z"/>
	<g>
		<path class="st6" d="M44.4,49.1c0.6,0,1.1-0.5,1.1-1.1c0-0.6-0.5-1.1-1.1-1.1s-1.1,0.5-1.1,1.1C43.3,48.6,43.8,49.1,44.4,49.1z"/>
		<path class="st5" d="M44.5,48.9c0.5,0,0.9-0.4,0.9-0.9c0-0.5-0.4-0.9-0.9-0.9c-0.5,0-0.9,0.4-0.9,0.9C43.6,48.5,44,48.9,44.5,48.9
			z"/>
		<path class="st7" d="M45.2,47.5c-0.2-0.3-0.6-0.2-0.6,0.2c0,0.2,0.2,0.4,0.4,0.4C45.4,48.1,45.3,47.7,45.2,47.5z"/>
	</g>
	<g>
		<path class="st6" d="M64.2,54.6c0.6,0,1.1-0.5,1.1-1.1c0-0.6-0.5-1.1-1.1-1.1c-0.6,0-1.1,0.5-1.1,1.1
			C63.1,54.1,63.6,54.6,64.2,54.6z"/>
		<path class="st5" d="M64.3,54.4c0.5,0,0.9-0.4,0.9-0.9c0-0.5-0.4-0.9-0.9-0.9c-0.5,0-0.9,0.4-0.9,0.9C63.4,54,63.8,54.4,64.3,54.4
			z"/>
		<path class="st7" d="M65,53c-0.2-0.3-0.6-0.2-0.6,0.2c0,0.2,0.2,0.4,0.4,0.4C65.2,53.6,65.2,53.2,65,53z"/>
	</g>
	<g>
		<circle class="st6" cx="64.1" cy="68.7" r="1.1"/>
		<path class="st5" d="M64.2,69.6c0.5,0,0.9-0.4,0.9-0.9c0-0.5-0.4-0.9-0.9-0.9c-0.5,0-0.9,0.4-0.9,0.9
			C63.3,69.2,63.7,69.6,64.2,69.6z"/>
		<path class="st7" d="M64.9,68.2c-0.2-0.3-0.6-0.2-0.6,0.2c0,0.2,0.2,0.4,0.4,0.4C65.1,68.7,65.1,68.4,64.9,68.2z"/>
	</g>
</g>
</svg>
