<?xml version="1.0" encoding="utf-8"?>
<!-- Generator: Adobe Illustrator 24.2.1, SVG Export Plug-In . SVG Version: 6.00 Build 0)  -->
<svg version="1.1" id="Layer_1" xmlns="http://www.w3.org/2000/svg" xmlns:xlink="http://www.w3.org/1999/xlink" x="0px" y="0px"
	 viewBox="0 0 100 100" style="enable-background:new 0 0 100 100;" xml:space="preserve">
<style type="text/css">
	.st0{fill-rule:evenodd;clip-rule:evenodd;fill:#A73A2D;}
	.st1{fill-rule:evenodd;clip-rule:evenodd;fill:#E64D3C;}
	.st2{fill-rule:evenodd;clip-rule:evenodd;fill:#E6EAEA;}
	.st3{fill-rule:evenodd;clip-rule:evenodd;fill:#BF3B2A;}
	.st4{fill-rule:evenodd;clip-rule:evenodd;fill:#C04B3D;}
	.st5{fill-rule:evenodd;clip-rule:evenodd;fill:#2D3F50;}
</style>
<g>
	<g>
		<polygon class="st0" points="70.1,9.5 59.3,3.3 58,2.9 56.6,2.6 55.2,2.3 53.8,2.2 52.3,2.2 50.7,2.3 49.2,2.5 47.6,2.8 45.9,3.2 
			44.2,3.7 42.5,4.3 40.8,5.1 39,5.9 37.3,6.9 35.5,8 33.7,9.2 32,10.4 30.3,11.7 28.6,13.2 27,14.6 25.4,16.2 23.8,17.8 22.3,19.5 
			20.8,21.3 19.3,23.1 17.9,24.9 16.5,26.8 15.2,28.7 14,30.7 12.8,32.7 11.6,34.8 10.5,36.9 9.5,39 8.5,41.1 7.6,43.3 6.8,45.4 
			6,47.6 5.4,49.7 4.7,51.9 4.2,54.1 3.7,56.3 3.3,58.4 3,60.6 2.8,62.7 2.7,64.8 2.6,66.9 2.7,68.9 2.8,70.9 3,72.7 3.3,74.5 
			3.7,76.3 4.2,77.9 4.7,79.4 5.4,80.9 6,82.2 6.8,83.5 7.6,84.7 8.5,85.8 9.5,86.8 10.5,87.8 21.3,94 20.3,93.1 19.3,92 18.4,90.9 
			17.6,89.8 16.8,88.5 16.1,87.1 15.5,85.6 15,84.1 14.5,82.5 14.1,80.8 13.8,79 13.6,77.1 13.5,75.1 13.4,73.1 13.5,71 13.6,68.9 
			13.8,66.8 14.1,64.6 14.5,62.5 15,60.3 15.5,58.1 16.1,56 16.8,53.8 17.6,51.6 18.4,49.5 19.3,47.3 20.3,45.2 21.3,43.1 22.4,41 
			23.6,39 24.8,37 26,35 27.3,33 28.7,31.1 30.1,29.3 31.5,27.5 33,25.7 34.6,24 36.1,22.4 37.7,20.9 39.4,19.4 41.1,18 42.8,16.6 
			44.5,15.4 46.3,14.2 48,13.1 49.8,12.1 51.6,11.3 53.3,10.5 55,9.9 56.7,9.4 58.3,9 59.9,8.7 61.5,8.5 63.1,8.4 64.5,8.4 66,8.5 
			67.4,8.8 68.8,9.1 		"/>
		<path class="st1" d="M48,93.1c19.1-11,34.6-37.9,34.6-60c0-22.1-15.5-31-34.6-20S13.4,51,13.4,73.1C13.4,95.2,28.9,104.1,48,93.1z
			"/>
		<path class="st2" d="M48,84.4c15.3-8.8,27.7-30.3,27.7-48c0-17.7-12.4-24.8-27.7-16c-15.3,8.8-27.7,30.3-27.7,48
			C20.3,86.1,32.7,93.2,48,84.4z"/>
		<path class="st1" d="M48,76.4c11.5-6.6,20.8-22.8,20.8-36s-9.3-18.6-20.8-12c-11.5,6.6-20.8,22.8-20.8,36
			C27.2,77.7,36.5,83,48,76.4z"/>
		<path class="st2" d="M48,37.1c7.7-4.4,13.9-0.8,13.9,8s-6.2,19.6-13.9,24c-7.7,4.4-13.9,0.8-13.9-8S40.4,41.5,48,37.1z"/>
		<path class="st1" d="M48,60.4c-3.8,2.2-7,0.4-7-4c0-4.4,3.1-9.8,7-12.1c3.8-2.2,7-0.4,7,4C55,52.8,51.9,58.2,48,60.4z"/>
		<polygon class="st3" points="70.1,9.5 59.3,3.3 58,2.9 56.6,2.6 55.2,2.3 53.8,2.2 52.3,2.2 50.7,2.3 49.2,2.5 47.6,2.8 45.9,3.2 
			44.2,3.7 42.5,4.3 40.8,5.1 39,5.9 37.3,6.9 35.5,8 33.7,9.2 32,10.4 30.3,11.7 28.6,13.2 27,14.6 25.4,16.2 23.8,17.8 22.3,19.5 
			20.8,21.3 19.3,23.1 17.9,24.9 16.5,26.8 15.2,28.7 14,30.7 12.8,32.7 11.6,34.8 10.5,36.9 9.5,39 8.5,41.1 7.6,43.3 6.8,45.4 
			6,47.6 5.4,49.7 5.1,50.5 15.9,56.7 16.1,56 16.8,53.8 17.6,51.6 18.4,49.5 19.3,47.3 20.3,45.2 21.3,43.1 22.4,41 23.6,39 
			24.8,37 26,35 27.3,33 28.7,31.1 30.1,29.3 31.5,27.5 33,25.7 34.6,24 36.1,22.4 37.7,20.9 39.4,19.4 41.1,18 42.8,16.6 
			44.5,15.4 46.3,14.2 48,13.1 49.8,12.1 51.6,11.3 53.3,10.5 55,9.9 56.7,9.4 58.3,9 59.9,8.7 61.5,8.5 63.1,8.4 64.5,8.4 66,8.5 
			67.4,8.8 68.8,9.1 		"/>
		<polygon class="st4" points="12.6,33 23.4,39.3 23.6,39 24.8,37 26,35 27.3,33 28.7,31.1 30.1,29.3 31.5,27.5 33,25.7 34.6,24 
			36.1,22.4 37.7,20.9 39.4,19.4 41.1,18 42.8,16.6 44.5,15.4 46.3,14.2 48,13.1 49.8,12.1 51.6,11.3 53.3,10.5 55,9.9 56.7,9.4 
			58.3,9 59.3,8.8 48.5,2.6 47.6,2.8 45.9,3.2 44.2,3.7 42.5,4.3 40.8,5.1 39,5.9 37.3,6.9 35.5,8 33.7,9.2 32,10.4 30.3,11.7 
			28.6,13.2 27,14.6 25.4,16.2 23.8,17.8 22.3,19.5 20.8,21.3 19.3,23.1 17.9,24.9 16.5,26.8 15.2,28.7 14,30.7 12.8,32.7 		"/>
		<path class="st4" d="M48,93.1c19.1-11,34.6-37.9,34.6-60c0-22.1-15.5-31-34.6-20S13.4,51,13.4,73.1C13.4,95.2,28.9,104.1,48,93.1
			L48,93.1z M48,92.2c-18.7,10.8-33.8,2-33.8-19.5c0-21.6,15.1-47.8,33.8-58.6c18.7-10.8,33.8-2,33.8,19.5
			C81.9,55.2,66.7,81.4,48,92.2z"/>
		<path class="st1" d="M74.3,66.3l5.9-2.5c0.3-0.1,0.5,0.1,0.7,0.2l15.8,9.1c0.5,0.3,0.8,0.8,0.6,1.3c-0.1,0.5-1.9,1.3-2.6,1.7
			l-1.9,1L74.3,66.3z"/>
		<path class="st1" d="M73.9,67.2l0.7,6.2c0,0.3,0.3,0.4,0.5,0.5l15.8,9.2c0.5,0.3,1.1,0.2,1.5-0.1c0.4-0.4,0.2-2.1,0.2-2.9L92.5,78
			L73.9,67.2z"/>
		<path class="st5" d="M93,79.2L47.7,53c-0.5-0.3-0.6-0.9-0.4-1.3l0.3-0.6c0.3-0.5,0.9-0.6,1.3-0.4l45.3,26.2
			c0.5,0.3,0.6,0.9,0.4,1.3l-0.3,0.5C94.1,79.3,93.5,79.4,93,79.2z"/>
	</g>
</g>
</svg>
