<?xml version="1.0" encoding="utf-8"?>
<!-- Generator: Adobe Illustrator 24.2.1, SVG Export Plug-In . SVG Version: 6.00 Build 0)  -->
<svg version="1.1" id="Layer_1" xmlns="http://www.w3.org/2000/svg" xmlns:xlink="http://www.w3.org/1999/xlink" x="0px" y="0px"
	 viewBox="0 0 100 100" style="enable-background:new 0 0 100 100;" xml:space="preserve">
<style type="text/css">
	.st0{fill-rule:evenodd;clip-rule:evenodd;fill:#75BCE3;}
	.st1{fill-rule:evenodd;clip-rule:evenodd;fill:#CF992A;}
	.st2{fill-rule:evenodd;clip-rule:evenodd;fill:#EFB11E;}
	.st3{fill-rule:evenodd;clip-rule:evenodd;fill:#F9C13B;}
</style>
<g>
	<path class="st0" d="M62.1,65.3L62.1,65.3L62.1,65.3z M76.1,73.4"/>
	<polygon class="st0" points="83.4,60.9 69.3,52.8 69.3,52.8 83.4,60.9 	"/>
	<polygon class="st0" points="83.4,60.9 69.3,52.8 66.3,51.1 80.4,59.2 	"/>
	<polygon class="st1" points="84.5,51.1 70.4,43 50.1,50.1 64.2,58.2 	"/>
	<polygon class="st2" points="64.2,58.2 50.1,50.1 54.1,71.2 68.2,79.3 	"/>
	<polygon class="st1" points="49.9,66.5 35.8,58.4 15.5,74.7 29.6,82.8 	"/>
	<polygon class="st2" points="33.7,85.1 19.6,77 19.7,77.1 19.7,77.2 19.8,77.3 19.8,77.4 19.8,77.6 19.7,77.7 19.7,77.9 19.6,78.1 
		16.6,83.2 16.6,83.2 16.4,83.6 16.3,83.9 16.1,84.2 16,84.5 16,84.9 15.9,85.2 15.9,85.5 15.9,85.8 15.9,85.8 15.9,86.1 15.9,86.3 
		16,86.6 16.1,86.8 16.2,87 16.3,87.2 16.4,87.3 16.6,87.5 30.7,95.6 30.5,95.5 30.4,95.3 30.2,95.1 30.1,94.9 30.1,94.7 30,94.4 
		30,94.2 29.9,93.9 29.9,93.9 30,93.6 30,93.3 30,93 30.1,92.7 30.2,92.3 30.4,92 30.5,91.7 30.7,91.4 30.7,91.3 30.7,91.3 
		37.9,95.5 37.9,95.5 30.7,91.3 33.7,86.2 33.7,86 33.8,85.9 33.8,85.7 33.9,85.6 33.8,85.4 33.8,85.3 33.7,85.2 	"/>
	<polygon class="st1" points="76.1,12.6 76.1,12.6 76.3,12.3 76.5,12 76.8,11.7 77,11.5 77.2,11.2 77.5,11 77.7,10.8 78,10.7 
		78.2,10.6 78.5,10.4 78.7,10.4 79,10.3 79.2,10.3 79.4,10.3 79.6,10.4 79.8,10.5 65.8,2.4 65.6,2.3 65.3,2.2 65.1,2.2 64.9,2.2 
		64.7,2.2 64.4,2.3 64.2,2.4 63.9,2.6 63.7,2.7 63.4,2.9 63.2,3.1 62.9,3.3 62.7,3.6 62.5,3.9 62.2,4.2 62.1,4.5 62.1,4.5 59.1,9.6 
		59,9.8 58.9,9.9 58.8,10 58.6,10.1 58.5,10.2 58.4,10.2 58.3,10.2 58.2,10.2 54.1,7.8 50.1,33.5 64.2,41.6 68.2,15.9 72.3,18.3 
		72.4,18.3 72.5,18.3 72.6,18.3 72.7,18.2 72.8,18.2 73,18 73.1,17.9 73.2,17.8 	"/>
	<path class="st0" d="M69.3,8.7L69.3,8.7L69.3,8.7z M83.4,16.8"/>
	<polygon class="st0" points="83.4,12.5 69.3,4.4 65.8,2.4 79.8,10.5 	"/>
	<polygon class="st1" points="27.7,27.7 27.6,27.9 27.5,28 27.4,28.1 27.3,28.2 27.2,28.3 27,28.3 26.9,28.3 26.8,28.3 23.9,26.6 
		23.7,26.5 23.5,26.4 23.2,26.4 23,26.4 22.8,26.4 22.5,26.5 22.3,26.6 22,26.7 21.8,26.9 21.5,27.1 21.3,27.3 21,27.5 20.8,27.8 
		20.6,28.1 20.4,28.4 20.2,28.7 16.6,34.8 16.6,34.8 16.4,35.1 16.3,35.5 16.2,35.8 16.1,36.1 16,36.5 15.9,36.8 15.9,37.1 
		15.9,37.4 15.9,37.7 15.9,37.9 16,38.2 16.1,38.4 16.2,38.6 16.3,38.8 16.4,39 16.6,39.1 19.6,40.8 19.6,40.8 19.7,40.9 19.7,41 
		19.8,41.1 19.8,41.2 19.8,41.4 19.7,41.5 19.7,41.7 19.6,41.9 15.5,48.9 29.6,57 33.7,50 33.7,49.8 33.8,49.7 33.8,49.5 33.9,49.3 
		33.8,49.2 33.8,49.1 33.7,49 33.7,48.9 30.7,47.2 30.7,47.2 30.5,47.1 30.4,46.9 30.2,46.8 30.1,46.6 30.1,46.3 30,46.1 30,45.8 
		29.9,45.5 30,45.2 30,44.9 30.1,44.6 30.1,44.3 30.2,43.9 30.4,43.6 30.5,43.3 30.7,42.9 30.7,42.9 34.2,36.8 34.4,36.5 34.7,36.2 
		34.9,35.9 35.1,35.7 35.3,35.4 35.6,35.2 35.8,35 36.1,34.9 36.3,34.7 36.6,34.6 36.8,34.6 37.1,34.5 37.3,34.5 37.5,34.5 
		37.7,34.6 37.9,34.7 40.9,36.4 41,36.4 41.1,36.4 41.2,36.4 41.4,36.3 41.5,36.3 41.6,36.1 41.7,36 41.8,35.9 45.9,28.8 31.8,20.7 
			"/>
	<path class="st3" d="M40.9,36.4l-3-1.7v0c-0.5-0.3-1.2-0.2-1.9,0.2c-0.7,0.4-1.3,1.1-1.9,2l-3.5,6.1h0c-0.5,0.9-0.8,1.8-0.8,2.6
		c0,0.8,0.3,1.4,0.8,1.7l3,1.7c0.3,0.1,0.3,0.6,0,1.1l-4.1,7l20.2-7.1l-4-21.1l-4.1,7C41.6,36.3,41.2,36.5,40.9,36.4z"/>
	<path class="st3" d="M76.1,12.6l-3,5.1c-0.3,0.4-0.7,0.7-0.9,0.5l-4.1-2.3l-4,25.7l20.2-16.3L80.4,23c-0.3-0.1-0.3-0.6,0-1.1l3-5.1
		l0,0c0.5-0.9,0.8-1.8,0.8-2.6c0-0.8-0.3-1.4-0.8-1.7v0l-3.5-2c-0.5-0.3-1.2-0.2-1.9,0.2C77.3,11.1,76.6,11.8,76.1,12.6L76.1,12.6z"
		/>
	<path class="st3" d="M37.9,95.5l3-5.1c0.3-0.4,0.7-0.7,0.9-0.5l4.1,2.4l4-25.7L29.6,82.8l4.1,2.3c0.3,0.1,0.3,0.6,0,1.1l-3,5.1
		l0,0.1c-0.5,0.9-0.7,1.8-0.7,2.5h0c0,0.8,0.3,1.4,0.8,1.7l3.5,2c0.5,0.3,1.2,0.2,1.9-0.2C36.8,97.1,37.4,96.4,37.9,95.5L37.9,95.5
		L37.9,95.5z"/>
	<path class="st3" d="M73.2,71.7l3,1.7l0,0c0.5,0.3,1.2,0.2,1.9-0.2c0.7-0.4,1.3-1,1.8-1.9l0-0.1l0,0l3.5-6.1
		c0.5-0.9,0.8-1.8,0.8-2.6c0-0.8-0.2-1.4-0.7-1.7l0,0l-3-1.7c-0.3-0.1-0.3-0.6,0-1.1l4.1-7l-20.2,7.1l4,21.1l4.1-7.1
		C72.5,71.8,72.9,71.6,73.2,71.7z"/>
</g>
</svg>
