<?xml version="1.0" encoding="utf-8"?>
<!-- Generator: Adobe Illustrator 24.2.1, SVG Export Plug-In . SVG Version: 6.00 Build 0)  -->
<svg version="1.1" id="Layer_1" xmlns="http://www.w3.org/2000/svg" xmlns:xlink="http://www.w3.org/1999/xlink" x="0px" y="0px"
	 viewBox="0 0 100 100" style="enable-background:new 0 0 100 100;" xml:space="preserve">
<style type="text/css">
	.st0{fill-rule:evenodd;clip-rule:evenodd;fill:#2D3F50;}
	.st1{fill-rule:evenodd;clip-rule:evenodd;fill:#36495C;}
	.st2{fill-rule:evenodd;clip-rule:evenodd;fill:#C4403F;}
	.st3{fill-rule:evenodd;clip-rule:evenodd;fill:#E64D3C;}
	.st4{fill-rule:evenodd;clip-rule:evenodd;fill:#943C3C;}
	.st5{fill-rule:evenodd;clip-rule:evenodd;fill:#C04B3D;}
	.st6{fill-rule:evenodd;clip-rule:evenodd;fill:#E6EAEA;}
	.st7{fill-rule:evenodd;clip-rule:evenodd;fill:#3E576F;}
	.st8{fill-rule:evenodd;clip-rule:evenodd;fill:#BDBDBD;}
</style>
<g>
	<g>
		<polygon class="st0" points="91.5,67.2 91.5,75.1 91.4,76.3 91.2,77.4 90.9,78.6 90.5,79.7 90,80.9 89.4,82 88.7,83.1 87.9,84.3 
			87,85.4 86,86.4 84.8,87.5 83.6,88.5 82.4,89.5 81,90.4 79.6,91.3 78.2,92.1 76.6,92.9 75,93.6 73.4,94.3 71.7,94.9 70,95.5 
			68.2,96 66.4,96.5 64.5,96.9 62.7,97.3 60.7,97.6 58.8,97.9 56.9,98.1 54.9,98.3 52.9,98.4 50.9,98.4 48.9,98.4 46.9,98.4 
			44.9,98.3 42.9,98.1 40.9,97.9 38.9,97.6 36.9,97.2 35,96.8 33,96.3 31.1,95.8 29.2,95.2 27.4,94.6 25.7,93.9 24,93.2 22.4,92.4 
			20.9,91.6 19.5,90.7 18.1,89.8 16.9,88.9 15.7,88 14.6,87 13.6,86 12.7,85 11.9,83.9 11.1,82.9 10.5,81.8 9.9,80.7 9.4,79.5 
			9,78.4 8.8,77.3 8.6,76.1 8.5,75 8.5,67.1 8.6,68.2 8.8,69.4 9,70.5 9.4,71.7 9.9,72.8 10.5,73.9 11.1,75 11.9,76 12.7,77.1 
			13.6,78.1 14.6,79.1 15.7,80.1 16.9,81 18.1,82 19.5,82.8 20.9,83.7 22.4,84.5 24,85.3 25.7,86 27.4,86.7 29.2,87.3 31.1,87.9 
			33,88.5 35,88.9 36.9,89.3 38.9,89.7 40.9,90 42.9,90.2 44.9,90.4 46.9,90.5 48.9,90.5 50.9,90.5 52.9,90.5 54.9,90.4 56.9,90.2 
			58.8,90 60.7,89.7 62.7,89.4 64.5,89 66.4,88.6 68.2,88.1 70,87.6 71.7,87 73.4,86.4 75,85.7 76.6,85 78.2,84.2 79.6,83.4 
			81,82.5 82.4,81.6 83.6,80.6 84.8,79.6 86,78.6 87,77.5 87.9,76.4 88.7,75.3 89.4,74.1 90,73 90.5,71.8 90.9,70.7 91.2,69.5 
			91.4,68.4 		"/>
		<path class="st1" d="M29.2,87.3C9.4,80.7,2.6,66.1,14,54.6c11.5-11.5,36.9-15.4,56.7-8.8C90.6,52.4,97.4,67.1,86,78.6
			C74.5,90,49.1,94,29.2,87.3z"/>
		<path class="st2" d="M51.4,66.2l27.5,9.2c0.2,0.1,0.5,0.1,0.8,0.1c0.3,0,0.5-0.1,0.6-0.3c1.7-1.9,2.7-4,3.2-6
			c0.6-2.5,0.3-5.1-0.9-7.6c-1.1-2.5-3.1-4.8-5.8-6.8c-2.6-2-5.9-3.7-9.9-5c-4-1.3-8.2-2.1-12.4-2.4c-3.7-0.3-7.3-0.2-10.9,0.2
			c-0.3,0-0.5,0.1-0.6,0.3c-0.1,0.1-0.2,0.3-0.1,0.4L51,65.9C51,66,51.2,66.1,51.4,66.2z"/>
		<polygon class="st3" points="42.7,2.5 42.7,48 42.7,48.1 42.7,48.1 42.7,48.2 51,65.9 51,65.9 51,66 51.1,66 51.1,66.1 51.2,66.1 
			51.2,66.2 51.3,66.2 51.4,66.2 78.9,75.4 79,75.4 79,75.4 79.1,75.4 79.2,75.4 79.3,75.5 79.4,75.4 79.5,75.4 79.6,75.4 
			79.7,75.4 79.8,75.4 79.9,75.4 80,75.3 80,75.3 80.1,75.2 80.2,75.2 80.2,75.1 80.4,75 80.5,74.8 80.7,74.6 80.8,74.4 80.9,74.2 
			81.1,74 81.2,73.9 81.3,73.7 81.5,73.5 81.6,73.3 81.7,73.1 81.8,72.9 81.9,72.7 82,72.5 82.1,72.4 82.2,72.2 82.3,72 82.4,71.8 
			82.5,71.6 82.6,71.4 82.7,71.2 82.8,71 82.9,70.8 82.9,70.6 83,70.5 83.1,70.3 83.1,70.1 83.2,69.9 83.2,69.7 83.3,69.5 
			83.3,69.3 83.4,69.1 83.4,23.6 83.3,23.7 83.3,23.9 83.2,24.1 83.2,24.3 83.1,24.5 83.1,24.7 83,24.9 82.9,25.1 82.9,25.3 
			82.8,25.5 82.7,25.7 82.6,25.8 82.5,26 82.4,26.2 82.3,26.4 82.2,26.6 82.1,26.8 82,27 81.9,27.2 81.8,27.4 81.7,27.5 81.6,27.7 
			81.5,27.9 81.3,28.1 81.2,28.3 81.1,28.5 80.9,28.7 80.8,28.8 80.7,29 80.5,29.2 80.4,29.4 80.2,29.6 80.2,29.6 80.1,29.7 
			80,29.7 80,29.8 79.9,29.8 79.8,29.8 79.7,29.8 79.6,29.9 79.5,29.9 79.4,29.9 79.3,29.9 79.2,29.9 79.1,29.9 79,29.9 79,29.8 
			78.9,29.8 51.4,20.7 51.3,20.6 51.2,20.6 51.2,20.6 51.1,20.5 51.1,20.5 51,20.4 51,20.4 51,20.3 42.7,2.6 42.7,2.6 42.7,2.5 		
			"/>
		<polygon class="st4" points="42.7,2.5 42.7,48 42.7,48.1 42.7,48.1 42.7,48.2 51,65.9 51,20.3 42.7,2.6 42.7,2.6 42.7,2.5 		"/>
		<polygon class="st2" points="83.4,23.6 83.4,69.1 83.4,68.9 83.5,68.6 83.5,68.4 83.6,68.2 83.6,67.9 83.6,67.7 83.6,67.4 
			83.7,67.2 83.7,67 83.7,66.7 83.7,66.5 83.7,20.9 83.7,21.2 83.7,21.4 83.7,21.6 83.6,21.9 83.6,22.1 83.6,22.4 83.6,22.6 
			83.5,22.8 83.5,23.1 83.4,23.3 		"/>
		<polygon class="st5" points="51.4,20.7 78.9,29.8 79,29.8 79,29.9 79.1,29.9 79.2,29.9 79.3,29.9 79.4,29.9 79.5,29.9 79.6,29.9 
			79.7,29.8 79.8,29.8 79.9,29.8 80,29.8 80,29.7 80.1,29.7 80.2,29.6 80.2,29.6 80.4,29.4 80.5,29.2 80.7,29 80.8,28.8 80.9,28.7 
			81.1,28.5 81.2,28.3 81.3,28.1 81.5,27.9 81.6,27.7 81.7,27.5 81.8,27.4 81.9,27.2 82,27 82.1,26.8 82.2,26.6 82.3,26.4 
			82.4,26.2 82.5,26 82.6,25.8 82.7,25.7 82.8,25.5 82.9,25.3 82.9,25.1 83,24.9 83.1,24.7 83.1,24.5 83.2,24.3 83.2,24.1 
			83.3,23.9 83.3,23.7 83.4,23.6 83.4,23.3 83.5,23.1 83.5,22.8 83.6,22.6 83.6,22.4 83.6,22.1 83.6,21.9 83.7,21.6 83.7,21.4 
			83.7,21.2 83.7,20.9 83.7,20.7 83.7,20.4 83.6,20.2 83.6,20 83.6,19.7 83.6,19.5 83.5,19.3 83.5,19 83.4,18.8 83.4,18.5 
			83.3,18.3 83.3,18.1 83.2,17.8 83.1,17.6 83.1,17.4 83,17.1 82.9,16.9 82.8,16.7 82.7,16.4 82.6,16.2 82.5,16 82.4,15.7 
			82.3,15.5 82.2,15.3 82,15.1 81.9,14.8 81.8,14.6 81.6,14.4 81.5,14.2 81.4,13.9 81.2,13.7 81.1,13.5 80.9,13.3 80.7,13.1 
			80.6,12.8 80.4,12.6 80.2,12.4 80,12.2 79.8,12 79.6,11.8 79.4,11.6 79.2,11.4 79,11.2 78.8,11 78.6,10.7 78.4,10.5 78.2,10.3 
			77.9,10.1 77.7,9.9 77.4,9.7 77.2,9.6 77,9.4 76.7,9.2 76.5,9 76.2,8.8 76,8.6 75.7,8.4 75.4,8.3 75.2,8.1 74.9,7.9 74.6,7.7 
			74.3,7.6 74.1,7.4 73.8,7.2 73.5,7.1 73.2,6.9 72.9,6.7 72.6,6.6 72.3,6.4 72,6.3 71.6,6.1 71.3,6 71,5.8 70.7,5.7 70.3,5.5 
			70,5.4 69.7,5.2 69.3,5.1 69,5 68.6,4.8 68.3,4.7 67.9,4.6 67.6,4.4 67.2,4.3 66.8,4.2 66.5,4.1 66.1,3.9 65.7,3.8 65.3,3.7 
			65,3.6 64.6,3.5 64.2,3.4 63.8,3.3 63.4,3.2 63.1,3.1 62.7,3 62.3,2.9 61.9,2.8 61.5,2.7 61.1,2.7 60.7,2.6 60.3,2.5 59.9,2.4 
			59.6,2.4 59.2,2.3 58.8,2.2 58.4,2.2 58,2.1 57.6,2.1 57.2,2 56.8,2 56.4,1.9 56,1.9 55.6,1.8 55.2,1.8 54.8,1.8 54.4,1.7 
			54.1,1.7 53.7,1.7 53.4,1.7 53,1.6 52.7,1.6 52.3,1.6 52,1.6 51.7,1.6 51.3,1.6 51,1.6 50.6,1.6 50.3,1.6 49.9,1.6 49.6,1.6 
			49.3,1.6 48.9,1.6 48.6,1.6 48.2,1.6 47.9,1.6 47.6,1.6 47.2,1.6 46.9,1.7 46.5,1.7 46.2,1.7 45.8,1.7 45.5,1.7 45.2,1.8 
			44.8,1.8 44.5,1.8 44.2,1.9 43.8,1.9 43.5,1.9 43.4,2 43.3,2 43.2,2 43.1,2 43.1,2.1 43,2.1 42.9,2.1 42.9,2.2 42.8,2.2 42.8,2.3 
			42.7,2.4 42.7,2.4 42.7,2.5 42.7,2.5 42.7,2.6 42.7,2.6 51,20.3 51,20.4 51,20.4 51.1,20.5 51.1,20.5 51.2,20.6 51.2,20.6 
			51.3,20.6 		"/>
		<path class="st6" d="M31.3,82.7c-6.5-2.5-11.6-6.4-13.8-11.1c-1.2-2.5-1.4-5.1-0.9-7.6c1.2-5.1,5.8-9.8,12.9-12.9
			c2.8-1.3,6.1-2.3,9.6-3c0.3-0.1,0.5,0,0.8,0c0.2,0.1,0.4,0.2,0.5,0.3l8.2,17.7c0.1,0.1,0,0.3-0.1,0.4L32.6,82.5
			c-0.1,0.1-0.3,0.2-0.6,0.3C31.7,82.8,31.5,82.8,31.3,82.7z"/>
		<polygon class="st0" points="32,49.2 32,82.8 31.9,82.8 31.8,82.8 31.7,82.8 31.6,82.8 31.5,82.8 31.4,82.8 31.3,82.7 31.3,82.7 
			30.6,82.5 30,82.2 29.5,82 28.9,81.7 28.3,81.4 27.7,81.2 27.2,80.9 26.7,80.6 26.1,80.3 25.6,80 25.1,79.7 24.6,79.3 24.1,79 
			23.7,78.7 23.2,78.3 22.7,78 22.3,77.6 21.9,77.3 21.5,76.9 21.1,76.5 20.7,76.2 20.3,75.8 20,75.4 19.6,75 19.3,74.6 19,74.2 
			18.7,73.8 18.4,73.3 18.2,72.9 17.9,72.5 17.7,72 17.5,71.6 17.4,71.4 17.3,71.1 17.2,70.9 17.1,70.6 17,70.4 16.9,70.2 
			16.8,69.9 16.8,69.7 16.7,69.5 16.7,69.2 16.6,69 16.5,68.7 16.5,68.5 16.5,68.3 16.4,68 16.4,67.8 16.4,67.6 16.4,67.3 
			16.3,67.1 16.3,66.8 16.3,66.6 16.3,66.4 16.3,32.8 16.3,33 16.3,33.3 16.3,33.5 16.4,33.8 16.4,34 16.4,34.2 16.4,34.5 
			16.5,34.7 16.5,34.9 16.5,35.2 16.6,35.4 16.7,35.7 16.7,35.9 16.8,36.1 16.8,36.4 16.9,36.6 17,36.8 17.1,37.1 17.2,37.3 
			17.3,37.6 17.4,37.8 17.5,38 17.7,38.5 17.9,38.9 18.2,39.3 18.4,39.8 18.7,40.2 19,40.6 19.3,41 19.6,41.4 20,41.8 20.3,42.2 
			20.7,42.6 21.1,43 21.5,43.3 21.9,43.7 22.3,44.1 22.7,44.4 23.2,44.8 23.7,45.1 24.1,45.4 24.6,45.8 25.1,46.1 25.6,46.4 
			26.1,46.7 26.7,47 27.2,47.3 27.7,47.6 28.3,47.9 28.9,48.1 29.5,48.4 30,48.7 30.6,48.9 31.3,49.1 31.3,49.2 31.4,49.2 
			31.5,49.2 31.6,49.2 31.7,49.2 31.8,49.2 31.9,49.2 		"/>
		<polygon class="st7" points="48.6,32.9 48.6,66.4 48.6,66.5 48.6,66.5 48.6,66.6 48.5,66.6 48.5,66.7 32.6,82.5 32.6,82.6 
			32.5,82.6 32.4,82.7 32.4,82.7 32.3,82.7 32.2,82.8 32.1,82.8 32,82.8 32,49.2 32.1,49.2 32.2,49.2 32.3,49.2 32.4,49.1 
			32.4,49.1 32.5,49.1 32.6,49 32.6,49 48.5,33.1 48.5,33.1 48.6,33 48.6,33 48.6,32.9 		"/>
		<polygon class="st1" points="31.3,49.1 30.6,48.9 30,48.7 29.5,48.4 28.9,48.1 28.3,47.9 27.7,47.6 27.2,47.3 26.7,47 26.1,46.7 
			25.6,46.4 25.1,46.1 24.6,45.8 24.1,45.4 23.7,45.1 23.2,44.8 22.7,44.4 22.3,44.1 21.9,43.7 21.5,43.3 21.1,43 20.7,42.6 
			20.3,42.2 20,41.8 19.6,41.4 19.3,41 19,40.6 18.7,40.2 18.4,39.8 18.2,39.3 17.9,38.9 17.7,38.5 17.5,38 17.4,37.8 17.3,37.6 
			17.2,37.3 17.1,37.1 17,36.8 16.9,36.6 16.8,36.4 16.8,36.1 16.7,35.9 16.7,35.7 16.6,35.4 16.5,35.2 16.5,34.9 16.5,34.7 
			16.4,34.5 16.4,34.2 16.4,34 16.4,33.8 16.3,33.5 16.3,33.3 16.3,33 16.3,32.8 16.3,32.6 16.3,32.3 16.4,32.1 16.4,31.9 
			16.4,31.6 16.4,31.4 16.5,31.2 16.5,30.9 16.6,30.7 16.6,30.5 16.7,30 16.9,29.5 17,29.1 17.2,28.6 17.4,28.1 17.6,27.7 
			17.9,27.2 18.1,26.8 18.4,26.3 18.7,25.9 19,25.4 19.3,25 19.7,24.6 20.1,24.1 20.4,23.7 20.8,23.3 21.3,22.9 21.7,22.5 
			22.2,22.1 22.6,21.7 23.1,21.3 23.6,20.9 24.1,20.6 24.7,20.2 25.2,19.8 25.8,19.5 26.4,19.2 27,18.8 27.6,18.5 28.2,18.2 
			28.9,17.9 29.5,17.6 29.8,17.5 30.1,17.3 30.3,17.2 30.6,17.1 30.9,17 31.1,16.9 31.4,16.8 31.7,16.7 32,16.6 32.3,16.5 
			32.6,16.4 32.9,16.3 33.2,16.2 33.5,16.1 33.8,16 34.1,15.9 34.4,15.8 34.7,15.7 35,15.6 35.3,15.5 35.6,15.4 35.9,15.4 
			36.2,15.3 36.5,15.2 36.8,15.1 37.2,15 37.5,15 37.8,14.9 38.1,14.8 38.5,14.8 38.8,14.7 39.1,14.6 39.2,14.6 39.3,14.6 
			39.4,14.6 39.5,14.6 39.6,14.6 39.7,14.6 39.8,14.6 39.9,14.7 40,14.7 40.1,14.7 40.1,14.8 40.2,14.8 40.3,14.8 40.3,14.9 
			40.3,14.9 40.4,15 48.6,32.7 48.6,32.7 48.6,32.8 48.6,32.9 48.6,32.9 48.6,33 48.6,33 48.5,33.1 48.5,33.1 32.6,49 32.6,49 
			32.5,49.1 32.4,49.1 32.4,49.1 32.3,49.2 32.2,49.2 32.1,49.2 32,49.2 31.9,49.2 31.8,49.2 31.7,49.2 31.6,49.2 31.5,49.2 
			31.4,49.2 31.3,49.2 		"/>
		<polygon class="st6" points="70.5,82 70.8,81.9 71,81.8 71.3,81.6 71.6,81.5 71.8,81.4 72.1,81.3 72.3,81.1 72.6,81 72.8,80.9 
			73.1,80.7 73.3,80.6 73.6,80.5 73.8,80.3 74.1,80.2 74.3,80 74.5,79.9 74.8,79.7 75,79.6 75.2,79.4 75.4,79.3 75.7,79.1 75.9,79 
			76.1,78.8 76.3,78.7 76.5,78.5 76.8,78.4 77,78.2 77.2,78 77.4,77.9 77.6,77.7 77.8,77.5 78,77.4 78,77.3 78.1,77.3 78.1,77.2 
			78.1,77.2 78.1,77.1 78.1,77.1 78.1,55.6 78.1,55.7 78.1,55.7 78.1,55.8 78.1,55.8 78,55.9 78,55.9 77.8,56.1 77.6,56.2 
			77.4,56.4 77.2,56.6 77,56.7 76.8,56.9 76.5,57.1 76.3,57.2 76.1,57.4 75.9,57.5 75.7,57.7 75.4,57.8 75.2,58 75,58.1 74.8,58.3 
			74.5,58.4 74.3,58.6 74.1,58.7 73.8,58.9 73.6,59 73.3,59.1 73.1,59.3 72.8,59.4 72.6,59.5 72.3,59.7 72.1,59.8 71.8,59.9 
			71.6,60 71.3,60.2 71,60.3 70.8,60.4 70.5,60.5 70.2,60.7 69.8,60.8 69.5,61 69.2,61.1 68.8,61.2 68.5,61.4 68.1,61.5 67.8,61.6 
			67.4,61.7 67.1,61.9 66.7,62 66.3,62.1 66,62.2 65.6,62.3 65.2,62.4 64.9,62.5 64.5,62.6 64.1,62.7 63.8,62.8 63.4,62.9 63,63 
			62.6,63.1 62.2,63.2 61.8,63.3 61.5,63.4 61.1,63.5 60.7,63.5 60.3,63.6 59.9,63.7 59.5,63.8 59.1,63.8 58.7,63.9 58.3,63.9 
			57.9,64 57.5,64.1 57.1,64.1 56.7,64.2 56.3,64.2 55.9,64.2 55.5,64.3 55.1,64.3 54.7,64.4 54.3,64.4 53.9,64.4 53.4,64.4 
			53,64.5 52.6,64.5 52.2,64.5 51.8,64.5 51.4,64.5 51,64.5 50.6,64.5 50.2,64.5 49.7,64.5 49.3,64.5 48.9,64.5 48.5,64.5 
			48.1,64.5 47.7,64.5 47.3,64.5 46.8,64.5 46.4,64.4 46,64.4 45.6,64.4 45.3,64.4 44.9,64.3 44.6,64.3 44.3,64.3 43.9,64.2 
			43.6,64.2 43.3,64.2 42.9,64.1 42.6,64.1 42.3,64 42,64 41.6,63.9 41.3,63.9 41,63.8 40.6,63.8 40.3,63.7 40,63.7 39.7,63.6 
			39.3,63.5 39,63.5 38.7,63.4 38.4,63.3 38,63.3 37.7,63.2 37.4,63.1 37.1,63.1 36.8,63 36.4,62.9 36.1,62.8 35.8,62.7 35.5,62.6 
			35.2,62.6 35.1,62.5 35,62.5 34.9,62.5 34.9,62.4 34.8,62.4 34.7,62.3 34.7,62.3 34.7,62.2 34.6,62.2 34.6,62.1 34.6,62 
			34.6,83.5 34.6,83.6 34.6,83.6 34.7,83.7 34.7,83.7 34.7,83.8 34.8,83.8 34.9,83.9 34.9,83.9 35,84 35.1,84 35.2,84 35.5,84.1 
			35.8,84.2 36.1,84.3 36.4,84.4 36.8,84.4 37.1,84.5 37.4,84.6 37.7,84.7 38,84.7 38.4,84.8 38.7,84.9 39,84.9 39.3,85 39.7,85.1 
			40,85.1 40.3,85.2 40.6,85.2 41,85.3 41.3,85.4 41.6,85.4 42,85.4 42.3,85.5 42.6,85.5 42.9,85.6 43.3,85.6 43.6,85.7 43.9,85.7 
			44.3,85.7 44.6,85.8 44.9,85.8 45.3,85.8 45.6,85.8 46,85.9 46.4,85.9 46.8,85.9 47.3,85.9 47.7,86 48.1,86 48.5,86 48.9,86 
			49.3,86 49.7,86 50.2,86 50.6,86 51,86 51.4,86 51.8,86 52.2,86 52.6,86 53,85.9 53.4,85.9 53.9,85.9 54.3,85.9 54.7,85.8 
			55.1,85.8 55.5,85.7 55.9,85.7 56.3,85.7 56.7,85.6 57.1,85.6 57.5,85.5 57.9,85.5 58.3,85.4 58.7,85.3 59.1,85.3 59.5,85.2 
			59.9,85.1 60.3,85.1 60.7,85 61.1,84.9 61.5,84.8 61.8,84.8 62.2,84.7 62.6,84.6 63,84.5 63.4,84.4 63.8,84.3 64.1,84.2 
			64.5,84.1 64.9,84 65.2,83.9 65.6,83.8 66,83.7 66.3,83.6 66.7,83.5 67.1,83.3 67.4,83.2 67.8,83.1 68.1,83 68.5,82.8 68.8,82.7 
			69.2,82.6 69.5,82.4 69.8,82.3 70.2,82.1 		"/>
		<polygon class="st8" points="50,46.5 34.8,61.8 34.7,61.8 34.7,61.9 34.6,61.9 34.6,62 34.6,62 34.6,62.1 34.6,62.2 34.7,62.2 
			34.7,62.3 34.7,62.3 34.8,62.4 34.9,62.4 34.9,62.5 35,62.5 35.1,62.5 35.2,62.6 35.5,62.6 35.8,62.7 36.1,62.8 36.4,62.9 
			36.8,63 37.1,63.1 37.4,63.1 37.7,63.2 38,63.3 38.4,63.3 38.7,63.4 39,63.5 39.3,63.5 39.7,63.6 40,63.7 40.3,63.7 40.6,63.8 
			41,63.8 41.3,63.9 41.6,63.9 42,64 42.3,64 42.6,64.1 42.9,64.1 43.3,64.2 43.6,64.2 43.9,64.2 44.3,64.3 44.6,64.3 44.9,64.3 
			45.3,64.4 45.6,64.4 46,64.4 46.4,64.4 46.8,64.5 47.3,64.5 47.7,64.5 48.1,64.5 48.5,64.5 48.9,64.5 49.3,64.5 49.7,64.5 
			50.2,64.5 50.6,64.5 51,64.5 51.4,64.5 51.8,64.5 52.2,64.5 52.6,64.5 53,64.5 53.4,64.4 53.9,64.4 54.3,64.4 54.7,64.4 
			55.1,64.3 55.5,64.3 55.9,64.2 56.3,64.2 56.7,64.2 57.1,64.1 57.5,64.1 57.9,64 58.3,63.9 58.7,63.9 59.1,63.8 59.5,63.8 
			59.9,63.7 60.3,63.6 60.7,63.5 61.1,63.5 61.5,63.4 61.8,63.3 62.2,63.2 62.6,63.1 63,63 63.4,62.9 63.8,62.8 64.1,62.7 
			64.5,62.6 64.9,62.5 65.2,62.4 65.6,62.3 66,62.2 66.3,62.1 66.7,62 67.1,61.9 67.4,61.7 67.8,61.6 68.1,61.5 68.5,61.4 
			68.8,61.2 69.2,61.1 69.5,61 69.8,60.8 70.2,60.7 70.5,60.5 70.8,60.4 71,60.3 71.3,60.2 71.6,60 71.8,59.9 72.1,59.8 72.3,59.7 
			72.6,59.5 72.8,59.4 73.1,59.3 73.3,59.1 73.6,59 73.8,58.9 74.1,58.7 74.3,58.6 74.5,58.4 74.8,58.3 75,58.1 75.2,58 75.4,57.8 
			75.7,57.7 75.9,57.5 76.1,57.4 76.3,57.2 76.5,57.1 76.8,56.9 77,56.7 77.2,56.6 77.4,56.4 77.6,56.2 77.8,56.1 78,55.9 78,55.9 
			78.1,55.8 78.1,55.8 78.1,55.7 78.1,55.7 78.1,55.6 78.1,55.5 78.1,55.5 78.1,55.4 78.1,55.4 78,55.3 78,55.3 77.9,55.3 
			77.8,55.2 77.8,55.2 77.7,55.2 51.2,46.3 51.1,46.3 50.9,46.3 50.7,46.3 50.5,46.3 50.4,46.3 50.2,46.4 50.1,46.5 		"/>
		<polygon class="st4" points="80.1,75.2 80.1,75.2 80.2,75.2 80.2,75.1 80.4,75 80.5,74.8 80.7,74.6 80.8,74.4 80.9,74.2 81.1,74 
			81.2,73.9 81.3,73.7 81.5,73.5 81.6,73.3 81.7,73.1 81.8,72.9 81.9,72.7 82,72.5 82.1,72.4 82.2,72.2 82.3,72 82.4,71.8 
			82.5,71.6 82.6,71.4 82.7,71.2 82.8,71 82.9,70.8 82.9,70.6 83,70.5 83.1,70.3 83.1,70.1 83.2,69.9 83.2,69.7 83.3,69.5 
			83.3,69.3 83.4,69.1 83.4,23.6 83.3,23.7 83.3,23.9 83.2,24.1 83.2,24.3 83.1,24.5 83.1,24.7 83,24.9 82.9,25.1 82.9,25.3 
			82.8,25.5 82.7,25.7 82.6,25.8 82.5,26 82.4,26.2 82.3,26.4 82.2,26.6 82.1,26.8 82,27 81.9,27.2 81.8,27.4 81.7,27.5 81.6,27.7 
			81.5,27.9 81.3,28.1 81.2,28.3 81.1,28.5 80.9,28.7 80.8,28.8 80.7,29 80.5,29.2 80.4,29.4 80.2,29.6 80.2,29.6 80.1,29.7 
			80.1,29.7 		"/>
	</g>
</g>
</svg>
