<?xml version="1.0" encoding="utf-8"?>
<!-- Generator: Adobe Illustrator 24.2.1, SVG Export Plug-In . SVG Version: 6.00 Build 0)  -->
<svg version="1.1" id="Layer_1" xmlns="http://www.w3.org/2000/svg" xmlns:xlink="http://www.w3.org/1999/xlink" x="0px" y="0px"
	 viewBox="0 0 100 100" style="enable-background:new 0 0 100 100;" xml:space="preserve">
<style type="text/css">
	.st0{fill-rule:evenodd;clip-rule:evenodd;fill:#9B9C9C;}
	.st1{fill-rule:evenodd;clip-rule:evenodd;fill:#E6EAEA;}
	.st2{fill-rule:evenodd;clip-rule:evenodd;fill:#2D3F50;}
	.st3{fill-rule:evenodd;clip-rule:evenodd;fill:#3E576F;}
	.st4{fill-rule:evenodd;clip-rule:evenodd;fill:#FFCC04;}
	.st5{fill-rule:evenodd;clip-rule:evenodd;fill:#CA403F;}
</style>
<g>
	<g>
		<polygon class="st0" points="25.4,98.7 18.6,94.8 18,94.3 17.5,93.6 17.3,92.7 17.2,91.7 17.2,51.3 24,55.3 24,95.6 24.1,96.7 
			24.4,97.6 24.8,98.2 		"/>
		<polygon class="st1" points="24,55.3 17.2,51.3 76,17.4 82.8,21.4 		"/>
		<polygon class="st2" points="24,55.3 17.2,51.3 17.2,38.3 17.2,37.7 17.3,37.1 17.4,36.5 17.6,35.9 17.8,35.3 18,34.7 18.3,34.1 
			18.6,33.6 18.9,33 19.3,32.5 19.7,32 20.1,31.5 20.5,31.1 21,30.7 21.5,30.3 22,30 71.2,1.6 72.2,1.2 73.1,1 73.9,1 74.6,1.3 
			81.4,5.2 80.7,5 79.9,4.9 79,5.1 78.1,5.6 28.8,34 28.3,34.3 27.9,34.6 27.4,35 27,35.5 26.5,35.9 26.2,36.4 25.8,37 25.4,37.5 
			25.1,38.1 24.9,38.7 24.6,39.3 24.4,39.9 24.3,40.5 24.1,41.1 24.1,41.7 24,42.2 		"/>
	</g>
	<g>
		<path class="st3" d="M28.8,34L78.1,5.6c2.6-1.5,4.8-0.3,4.8,2.8l0,13.1L24,55.3l0-13.1C24,39.2,26.2,35.5,28.8,34z"/>
		<path class="st1" d="M82.8,21.4l0,40.3c0,3-2.1,6.7-4.8,8.3C60,80.4,46.9,88,28.8,98.4c-2.6,1.5-4.8,0.3-4.8-2.8l0-40.3L82.8,21.4
			z"/>
	</g>
	<path class="st1" d="M60.2,22.6c1.3-0.7,2.3-0.1,2.3,1.3s-1,3.3-2.3,4c-1.3,0.7-2.3,0.1-2.3-1.3C57.9,25.1,58.9,23.3,60.2,22.6z"/>
	<path class="st4" d="M68.1,18c1.3-0.7,2.3-0.1,2.3,1.3c0,1.5-1,3.3-2.3,4c-1.3,0.7-2.3,0.1-2.3-1.3C65.8,20.5,66.8,18.8,68.1,18z"
		/>
	<path class="st5" d="M76,13.4c1.3-0.7,2.3-0.1,2.3,1.3c0,1.5-1,3.3-2.3,4c-1.3,0.7-2.3,0.1-2.3-1.3C73.7,16,74.7,14.2,76,13.4z"/>
	<polygon class="st3" points="42.5,65.5 42.5,63.4 52.3,57.7 52.3,59.9 	"/>
	<polygon class="st3" points="31.5,69.4 31.5,66.1 38.6,58.8 31.5,59.7 31.5,56.4 41.7,55.6 41.7,58.4 	"/>
</g>
</svg>
