<?xml version="1.0" encoding="utf-8"?>
<!-- Generator: Adobe Illustrator 24.2.1, SVG Export Plug-In . SVG Version: 6.00 Build 0)  -->
<svg version="1.1" id="Layer_1" xmlns="http://www.w3.org/2000/svg" xmlns:xlink="http://www.w3.org/1999/xlink" x="0px" y="0px"
	 viewBox="0 0 100 100" style="enable-background:new 0 0 100 100;" xml:space="preserve">
<style type="text/css">
	.st0{fill-rule:evenodd;clip-rule:evenodd;fill:#E6EAEA;}
	.st1{fill-rule:evenodd;clip-rule:evenodd;fill:#FFFFFF;}
	.st2{fill-rule:evenodd;clip-rule:evenodd;fill:#2A81BA;}
	.st3{fill-rule:evenodd;clip-rule:evenodd;fill:#4C89C8;}
	.st4{fill-rule:evenodd;clip-rule:evenodd;fill:#2D3F50;}
	.st5{fill-rule:evenodd;clip-rule:evenodd;fill:#5398C7;}
	.st6{fill-rule:evenodd;clip-rule:evenodd;fill:#65B1E2;}
	.st7{fill-rule:evenodd;clip-rule:evenodd;fill:#42576E;}
	.st8{fill-rule:evenodd;clip-rule:evenodd;fill:#EFB11E;}
	.st9{fill-rule:evenodd;clip-rule:evenodd;fill:#F9C13B;}
	.st10{fill-rule:evenodd;clip-rule:evenodd;fill:#FBDE97;}
	.st11{fill-rule:evenodd;clip-rule:evenodd;fill:#3E576F;}
	.st12{fill-rule:evenodd;clip-rule:evenodd;fill:#4A6783;}
</style>
<g>
	<g>
		<path class="st0" d="M88.7,76.5c2.5,0,4.6-2,4.6-4.6c0-2.5-2-4.6-4.6-4.6c-2.5,0-4.6,2-4.6,4.6C84.1,74.5,86.2,76.5,88.7,76.5z"/>
		<path class="st1" d="M92.2,69.6c-0.9-1.2-2.2-1-2.5,0.1c0.8-0.5,2.1-0.1,2.6,0.3c0.4,0.5,0.3,0.4,0.4,0.6
			C92.6,70.3,92.4,69.9,92.2,69.6L92.2,69.6z M89.7,69.7C89.7,69.7,89.7,69.7,89.7,69.7C89.7,69.7,89.7,69.7,89.7,69.7L89.7,69.7z
			 M92.5,71.7L92.5,71.7L92.5,71.7L92.5,71.7L92.5,71.7z M92.7,70.8C92.7,70.7,92.7,70.7,92.7,70.8C92.7,70.7,92.7,70.7,92.7,70.8z"
			/>
		<path class="st2" d="M92.3,73.8c0.9-1.1,0.8-2.8-0.1-3.8c-0.9-1-2.4-0.8-3.2,0.3c-0.9,1.1-0.8,2.8,0.1,3.8
			C90,75,91.4,74.9,92.3,73.8z"/>
		<path class="st3" d="M92,73.4c0.7-0.9,0.7-2.2-0.1-3c-0.7-0.8-1.9-0.7-2.6,0.2c-0.7,0.9-0.7,2.2,0.1,3
			C90.1,74.4,91.3,74.3,92,73.4z"/>
		<path class="st4" d="M91.5,72.9c0.4-0.6,0.4-1.4,0-1.9c-0.5-0.5-1.2-0.4-1.6,0.1c-0.4,0.6-0.4,1.4,0,1.9
			C90.3,73.5,91,73.5,91.5,72.9z"/>
		<path class="st0" d="M90.4,73.7c0.1-0.1,0.1-0.3,0-0.4c-0.1-0.1-0.3-0.1-0.4,0c-0.1,0.1-0.1,0.3,0,0.4
			C90.1,73.8,90.3,73.8,90.4,73.7z"/>
		<g>
			<path class="st5" d="M89.7,69.7c-0.1,0.2-0.1,0.4-0.1,0.7v0.1c0.7-0.6,1.8-0.5,2.3,0c0.5,0.5,0.5,0.8,0.5,1.3
				c0.2-0.3,0.3-0.7,0.2-1.1c-0.1-0.2,0-0.2-0.4-0.6C91.8,69.6,90.5,69.2,89.7,69.7L89.7,69.7z M89.8,71.2L89.8,71.2L89.8,71.2z
				 M89.8,71.2L89.8,71.2L89.8,71.2L89.8,71.2L89.8,71.2z"/>
		</g>
		<path class="st6" d="M89.6,70.4c0,0.3,0.1,0.6,0.2,0.8c0,0-0.2,0.2,0,0c0.2-0.3,1.3-0.5,1.6-0.1c0.4,0.4,0.4,0.7,0.3,1.1l0,0
			c0.3-0.1,0.5-0.2,0.7-0.4c0-0.5-0.1-0.8-0.5-1.3C91.4,69.9,90.3,69.8,89.6,70.4z"/>
		<path class="st7" d="M89.8,71.2c0.3,0.6,0.9,0.9,1.6,0.9c0.2,0,0.3,0,0.4,0c0-0.4,0-0.7-0.3-1.1C91.1,70.6,90.1,70.9,89.8,71.2
			C89.6,71.5,89.8,71.2,89.8,71.2z"/>
		<path class="st0" d="M92.2,71.1c0-0.3-0.1-0.5-0.4-0.6c-0.2-0.1-0.5,0.1-0.5,0.3c0,0.3,0.1,0.5,0.4,0.6
			C91.9,71.6,92.1,71.4,92.2,71.1z"/>
		<path class="st8" d="M93.4,79.7c-0.1-2.5-2.1-4.6-4.7-4.6s-4.6,2-4.7,4.6h0l0,11.7c0.1,0.6,0,1,1.4,1.8c1.3,0.8,5.3,0.8,6.7,0
			c1.3-0.8,1.3-1.1,1.4-1.8L93.4,79.7L93.4,79.7z"/>
		<path class="st9" d="M84,79.7L84,79.7l0,8.3L84,79.7L84,79.7z M93.4,79.7c0-1.3-1.4-4.2-4.2-4.2c-2.8,0-4,1.8-4,4
			c0,3.3,0,10.2,0,13.5c0.1,0-0.8-0.4,0.2,0.1c1,0.5,5.3,0.8,6.7,0c1.3-0.8,1.3-1.1,1.4-1.8L93.4,79.7z"/>
		<path class="st10" d="M92.5,92.8C92.4,93,92.3,93,92,93.2c-0.3,0.2-0.9,0.4-1.4,0.5c0-3.2,0-9.8,0-13c-0.2-1.4-0.1-1.3-1.1-2.9
			c-0.3-0.5-0.2-0.8,0.1-1c0.5-0.3,1.4-0.1,1.9,0.3c0.7,0.7,1,2,1,2.6C92.5,83,92.5,89.7,92.5,92.8z"/>
		<path class="st8" d="M88.7,76.5c2.5,0,4.6-2,4.6-4.6c0-2.5-2-4.6-4.6-4.6c-2.5,0-4.6,2-4.6,4.6C84.1,74.5,86.2,76.5,88.7,76.5z"/>
		<path class="st9" d="M89.2,75.7c2.2,0,3.9-1.8,3.9-3.9c0-2.2-1.8-3.9-3.9-3.9c-2.2,0-3.9,1.8-3.9,3.9
			C85.3,73.9,87.1,75.7,89.2,75.7z"/>
		<path class="st10" d="M89.7,69.7c0.4-1.1,1.6-1.2,2.5-0.1c0.2,0.3,0.4,0.7,0.5,1c0.1,0.4,0,0.8-0.2,1.1c-0.1,0.2-0.4,0.3-0.7,0.4
			c0,0,0,0,0,0c-0.1,0-0.3,0-0.4,0c-0.7,0-1.3-0.4-1.6-0.9c-0.1-0.2-0.2-0.5-0.2-0.8L89.7,69.7z"/>
		<polygon class="st11" points="22.5,35.6 22.5,59.3 22.6,60 22.9,60.8 23.2,61.5 23.5,62.3 23.9,63 24.4,63.8 24.9,64.5 25.5,65.2 
			26.2,65.9 26.9,66.5 27.7,67.2 28.6,67.8 29.5,68.4 30.5,69 31.5,69.6 32.6,70.1 33.7,70.6 34.8,71.1 36,71.5 37.1,71.9 
			38.4,72.2 39.6,72.5 40.9,72.8 42.1,73 43.4,73.2 44.7,73.4 46,73.5 47.3,73.6 48.7,73.7 50,73.7 51.3,73.7 52.6,73.6 54,73.5 
			55.3,73.4 56.6,73.2 57.9,73 59.1,72.8 60.4,72.5 61.6,72.2 62.9,71.9 64,71.5 65.2,71.1 66.3,70.6 67.4,70.1 68.5,69.6 69.5,69 
			70.5,68.4 71.4,67.8 72.3,67.2 73.1,66.5 73.8,65.9 74.5,65.2 75.1,64.5 75.6,63.8 76.1,63 76.5,62.3 76.8,61.5 77.1,60.8 
			77.3,60 77.5,59.3 77.5,35.6 77.3,36.4 77.1,37.1 76.8,37.9 76.5,38.6 76.1,39.3 75.6,40.1 75.1,40.8 74.5,41.5 73.8,42.2 
			73.1,42.8 72.3,43.5 71.4,44.1 70.5,44.7 69.5,45.3 68.5,45.9 67.4,46.4 66.3,46.9 65.2,47.4 64,47.8 62.9,48.2 61.6,48.5 
			60.4,48.9 59.1,49.1 57.9,49.4 56.6,49.6 55.3,49.7 54,49.9 52.6,49.9 51.3,50 50,50 48.7,50 47.3,49.9 46,49.9 44.7,49.7 
			43.4,49.6 42.1,49.4 40.9,49.1 39.6,48.8 38.4,48.5 37.1,48.2 36,47.8 34.8,47.4 33.7,46.9 32.6,46.4 31.5,45.9 30.5,45.3 
			29.5,44.7 28.6,44.1 27.7,43.5 26.9,42.8 26.2,42.2 25.5,41.5 24.9,40.8 24.4,40.1 23.9,39.3 23.5,38.6 23.2,37.9 22.9,37.1 
			22.6,36.4 		"/>
		<polygon class="st4" points="25.8,65.4 26.2,65.9 26.9,66.5 27.7,67.2 28.6,67.8 29.5,68.4 30.5,69 31.5,69.6 32.6,70.1 
			33.7,70.6 34.8,71.1 36,71.5 37.1,71.9 37.3,71.9 37.3,48.2 37.1,48.2 36,47.8 34.8,47.4 33.7,46.9 32.6,46.4 31.5,45.9 
			30.5,45.3 29.5,44.7 28.6,44.1 27.7,43.5 26.9,42.8 26.2,42.2 25.8,41.8 		"/>
		<polygon class="st12" points="62.8,71.9 62.9,71.9 64,71.5 65.2,71.1 66.3,70.6 67.4,70.1 68.5,69.6 69.5,69 70.5,68.4 71.4,67.8 
			72.3,67.2 73.1,66.5 73.8,65.9 74.3,65.4 74.3,41.7 73.8,42.2 73.1,42.8 72.3,43.5 71.4,44.1 70.5,44.7 69.5,45.3 68.5,45.9 
			67.4,46.4 66.3,46.9 65.2,47.4 64,47.8 62.9,48.2 62.8,48.2 		"/>
		<g>
			<polygon class="st12" points="98.5,34.2 98.5,36.3 50,64.3 50,62.2 			"/>
			<polygon class="st11" points="50,62.2 50,64.3 1.5,36.3 1.5,34.2 			"/>
		</g>
		<polygon class="st4" points="50,6.2 98.5,34.2 50,62.2 1.5,34.2 		"/>
		<path class="st8" d="M49.9,33.2l27.4,4.1c7,1.1,12.1,7,12.1,14.1v16.7c0,0.5-1.3,0.3-1.3,0.1V52.6c0-7.1-5.1-13-12.1-14.1l-27-4.1
			L49.9,33.2z"/>
		<polygon class="st11" points="44.1,33.2 44.1,34.1 44.2,34.7 44.5,35.3 45,35.9 45.8,36.5 46.3,36.7 46.7,36.9 47.2,37.1 
			47.8,37.2 48.3,37.3 48.9,37.4 49.4,37.5 50,37.5 50.6,37.5 51.1,37.4 51.7,37.3 52.2,37.2 52.8,37.1 53.3,36.9 53.7,36.7 
			54.2,36.5 55,35.9 55.5,35.3 55.8,34.7 55.9,34.1 55.9,33.2 55.8,33.8 55.5,34.4 55,35 54.2,35.6 53.7,35.8 53.3,36 52.8,36.2 
			52.2,36.3 51.7,36.4 51.1,36.5 50.6,36.6 50,36.6 49.4,36.6 48.9,36.5 48.3,36.4 47.8,36.3 47.2,36.2 46.7,36 46.3,35.8 
			45.8,35.6 45,35 44.5,34.4 44.2,33.8 		"/>
		<path class="st12" d="M54.2,30.7c-2.3-1.3-6.1-1.3-8.4,0c-2.3,1.3-2.3,3.5,0,4.8c2.3,1.3,6.1,1.3,8.4,0
			C56.5,34.2,56.5,32.1,54.2,30.7z"/>
	</g>
</g>
</svg>
