<?xml version="1.0" encoding="utf-8"?>
<!-- Generator: Adobe Illustrator 24.2.1, SVG Export Plug-In . SVG Version: 6.00 Build 0)  -->
<svg version="1.1" id="Layer_1" xmlns="http://www.w3.org/2000/svg" xmlns:xlink="http://www.w3.org/1999/xlink" x="0px" y="0px"
	 viewBox="0 0 100 100" style="enable-background:new 0 0 100 100;" xml:space="preserve">
<style type="text/css">
	.st0{fill:#355EAB;}
	.st1{fill:#40B0E4;}
	.st2{fill:#1582C5;}
	.st3{fill:#1383C6;}
	.st4{fill:#4D240E;}
	.st5{fill:#F58022;}
	.st6{fill:#1683C6;}
	.st7{fill:#273990;}
	.st8{fill:#7F5435;}
	.st9{fill:#273A92;}
	.st10{fill:#C75127;}
	.st11{fill:#C85227;}
	.st12{fill:#345CAA;}
	.st13{fill:#DBDBDF;}
	.st14{fill:#9EDBEE;}
	.st15{fill:#9CADD9;}
	.st16{fill:#BB9983;}
	.st17{fill:#F5F8FD;}
	.st18{fill:#FBFEFF;}
	.st19{fill:#345DAB;}
	.st20{fill:#3FAEE3;}
	.st21{fill:#41AFE4;}
	.st22{fill:#FCBF87;}
	.st23{fill:#FDFBF9;}
	.st24{fill:#9BABD8;}
</style>
<g>
	<path class="st0" d="M51.8,86.2c1.9-1.1,3.9-2.1,5.8-3.2c0.9-0.5,1.3-1.4,1.3-2.4c0-1.8,0-3.5,0-5.3c0-0.2,0.1-0.6,0.3-0.7
		c4.7-2.6,9.3-5.2,14-7.7c0.4-0.2,0.7-0.5,1.1-0.7c1.6-0.9,3.2-1.7,4.8-2.6c0.4-0.3,0.7-0.6,1.2-0.8c0.5-0.2,1-0.3,1.5-0.4
		c0-0.1,0-0.3,0.1-0.3c0.9-0.5,1.8-0.9,2.6-1.4c0,0,0,0,0,0c0.2-0.2,0.4-0.4,0.7-0.6c0.4-0.2,0.9-0.4,1.2-0.7
		c0.3-0.4,0.5-0.3,0.9-0.2c0.1-0.2,0.2-0.5,0.4-0.7c1.5-1.7,2.4-3.7,2.4-6c0-1.9,0-3.9-0.1-5.8c0-1.1-0.6-2-1.8-2.4
		c-0.8,0.2-1.5,0.3-2.2,0.5c-0.6,0.2-1.2,0.7-1.8,1c-2.5,1.4-5.1,2.8-7.6,4.2c-0.9,0.5-1.8,1-2.7,1.5c-4,2.2-8.1,4.5-12.1,6.7
		c-0.9,0.5-1.8,1-2.7,1.5c-0.1,0-0.2,0-0.2,0c-0.2,0.2-0.4,0.3-0.6,0.5c-1.4,0.8-2.7,1.5-4.1,2.3c-1.3,0.7-2.7,1.5-4,2.2
		c0,0.1-0.1,0.1-0.1,0.2l0,0c-1.4,1.3-2.4,2.8-2.9,4.5c0,2.8-0.2,5.5-0.1,8.2c0.1,1.6,1.5,2.3,3.1,1.8c0.3-0.1,0.5-0.2,0.9-0.3
		c0,1.5,0,3,0,4.4c0,0.4,0,0.9,0,1.3C50.7,85.9,51,86.1,51.8,86.2z M87.2,53.2c0,0.6,0,1.1,0,1.5c-0.1,1-0.5,1.7-1.4,2.2
		c-3.2,1.8-6.5,3.6-9.7,5.4c-7.2,4-14.3,7.9-21.5,11.9c-1.3,0.7-2.5,1.4-3.8,2.1c-0.9,0.5-1.4,0.2-1.4-0.8c0-0.3-0.1-0.6,0-1
		c0-0.2,0.2-0.5,0.4-0.6c1.2-0.7,2.4-1.3,3.6-2c0.8-0.5,1.3-1.2,1.4-2.1c0-0.3-0.1-0.8-0.3-0.9c-0.3-0.2-0.8-0.1-1.1,0
		c-1.1,0.6-2.2,1.2-3.3,1.8c-0.2,0.1-0.4,0.2-0.7,0.3c0-0.4,0-0.7,0-1c0-1.3,0.5-2.2,1.7-2.9c5.2-2.9,10.4-5.7,15.6-8.6
		c6.3-3.5,12.6-7,18.9-10.4c1.2-0.6,1.7-0.4,1.7,1c0,0.2,0,0.3,0,0.5c0.1,0.5-0.1,0.7-0.6,0.9c-8.8,4.8-17.5,9.7-26.3,14.5
		c-0.8,0.5-1.4,1.1-1.5,2c-0.1,0.4,0.1,0.9,0.3,1.1c0.3,0.4,0.8,0.1,1.1-0.1c7.9-4.3,15.7-8.7,23.6-13C84.9,54.4,86,53.8,87.2,53.2z
		 M56.1,76.3c0,1.5,0,2.9,0,4.2c0,0.1,0,0.2-0.1,0.3c-0.8,0.5-1.7,0.9-2.6,1.4c0-1.5,0-2.8,0-4.2c0-0.1,0.1-0.3,0.3-0.4
		C54.4,77.2,55.2,76.8,56.1,76.3z"/>
	<path class="st1" d="M46.8,69.6c0.5-1.8,1.5-3.3,2.9-4.5c-0.1,0-0.2,0-0.3,0.1c-0.6,0.5-0.9,0.2-1.3-0.2c-1.3-1.5-2.7-3-4.1-4.5
		c-0.4-0.4-0.7-0.9-1.1-1.3c-0.1-0.1-0.2-0.1-0.3-0.2c-1.2-1.3-2.4-2.6-3.5-3.9c-0.1-0.1-0.2-0.4-0.1-0.6c1.7-5.2,3.3-10.5,5-15.7
		c0.6-2,1.3-4,1.9-6c-0.2,0.1-0.4,0.3-0.6,0.4c-0.8,0.5-1.7,1-2.5,1.5c-0.1,0.3-0.1,0.6-0.2,0.9c-1.7,5.3-3.4,10.7-5.1,16
		c0.8,1.3,1.2,2.6,1,4.1c-0.1,1.1-0.5,2.2-0.7,3.4c2.6,2.8,5.1,5.6,7.7,8.5c-4.2,2.3-8.5,4.7-12.7,7c-1-2.6-1.9-5.1-2.8-7.6
		c-0.3,0-0.7,0.1-1,0.1c-1,0.1-1.7-0.3-2.5-0.7c0,0.2,0,0.4,0.1,0.5c0.7,1.8,1.3,3.6,2,5.4c0.5,1.3,0.9,2.5,1.4,3.8
		c-0.2,0.1-0.3,0.2-0.5,0.3c-1.1,0.7-1.6,1.5-1.6,2.9c0.1,5.7,0,11.4,0,17.1c0,0.8,0.1,1.6,0.1,2.5c0.5,0.4,1,0.3,1.5,0
		c6.9-3.8,13.8-7.6,20.8-11.5c0.6-0.3,1.1-0.6,1.7-1c-0.8-0.1-1.1-0.3-1.1-1.1c0-0.4,0-0.9,0-1.3c-0.5,0.3-1,0.5-1.5,0.8
		c-5,2.8-10,5.5-15.1,8.3c-1.2,0.7-2.4,1.3-3.6,2c0-0.2,0-0.3,0-0.4c0-5.1-0.1-10.3-0.1-15.4c0-0.4,0.2-0.6,0.5-0.8
		c3.9-2.1,7.8-4.3,11.7-6.5C44,71.1,45.4,70.4,46.8,69.6z"/>
	<path class="st2" d="M27.8,98.6c0-0.8-0.1-1.6-0.1-2.5c0-5.7,0-11.4,0-17.1c0-1.3,0.5-2.2,1.6-2.9c0.2-0.1,0.3-0.2,0.5-0.3
		c-0.5-1.3-0.9-2.5-1.4-3.8c-0.7-1.8-1.3-3.6-2-5.4c-0.1-0.2-0.1-0.3-0.1-0.5c0,0,0,0,0,0c0,0-0.1-0.1-0.1-0.1c0,0-0.1,0-0.1,0
		c0-0.1-0.1-0.2-0.1-0.2l0,0c-0.3-0.1-0.6-0.2-0.9-0.3c-0.7-0.4-1.3-0.7-2-1.1c-1.9-1.1-3.8-2.1-5.7-3.2c0.8,2.1,1.5,4.3,2.3,6.4
		c0.4,1,0.7,2.1,1.1,3.1c0.1,0.4,0.1,0.5-0.3,0.7c-1.2,0.6-1.8,1.6-1.7,2.9c0,6.2,0.1,12.4,0.1,18.6c0,0.6,0.2,1,0.8,1.3
		C22.4,95.6,25.1,97.1,27.8,98.6z"/>
	<path class="st3" d="M28.2,24.9c-1,2.6-2,5.1-2.9,7.7c-2.2,5.9-4.4,11.7-6.7,17.6c2.9,1.6,5.8,3.2,8.7,4.8c0.1-0.1,0.2-0.2,0.3-0.2
		c0.1-0.2,0.1-0.5,0.2-0.7c0.9-2.3,1.8-4.6,2.7-6.9c2-5.2,3.9-10.5,5.9-15.7c0.2-0.5,0.5-1,0.7-1.4c0-0.1,0-0.2,0-0.4
		c-0.1,0-0.3,0-0.4-0.1c-1.8-1-3.6-2-5.5-3C30.2,25.9,29.2,25.5,28.2,24.9z"/>
	<path class="st4" d="M58.5,59.9c0.1,0,0.2,0,0.2,0c0-2.8,0-5.7,0-8.5c0-1.4,0.6-2.2,1.8-2.9c3.6-2,7.3-4,10.9-6
		c1.3-0.7,2.7-1.4,4.1-2.1c-0.9-0.5-1.8-1-2.7-1.5c-1.6-0.8-3.1-1.7-4.7-2.6c0,0.4,0,0.7,0,1c0,0,0.1,0,0.1,0c0,0,0,0,0-0.1
		c0,0.8-0.1,1.7-0.1,2.5l0,0c0.1,0.9-0.4,2-1.3,2.4c-0.4,0.2-0.9,0.3-1.3-0.1c0,0-0.1-0.1-0.1-0.1c0,0,0,0,0,0
		c-1.1-0.6-2.2-1.2-3.4-1.8c-0.1,0.1-0.2,0.1-0.2,0.2c-0.7,0.6-1,0.7-1.8,0.2c-0.4-0.2-0.9-0.4-1.4-0.7c-0.5,0.3-0.9,0.5-1.4,0.8
		c0.1,0.1,0.3,0.2,0.4,0.3c1,0.6,1.9,1.1,2.9,1.7c0.6,0.1,0.8,0.5,0.8,1c0,0.9-0.5,1.7-1.3,2.2c-0.9,0.6-1.8,1-2.7,1.5
		c-0.5,0.3-0.9,0.3-1.3-0.1c-0.5-0.3-1-0.5-1.5-0.8c-1.3-0.7-2.6-1.4-3.8-2c-0.6,0.6-0.8,1.3-0.8,2.1c0,2.9,0,5.7,0,8.6
		c1.2,0.6,2.3,1.3,3.5,1.9C55.2,58,56.9,59,58.5,59.9z"/>
	<path class="st5" d="M65.6,42c0.4,0.3,0.8,0.3,1.3,0.1c0.8-0.5,1.4-1.5,1.3-2.4c0,0,0,0,0,0c0-0.8,0.1-1.7,0.1-2.5
		c0-0.4-0.1-0.7-0.1-1.1c0-2.1,0-4.2,0-6.3c0-0.2,0.2-0.5,0.4-0.6c1.1-0.8,1.8-1.9,2.1-3.2c0.1-0.5,0.2-1.1,0.2-1.6
		c0-2.8,0-5.7,0-8.5c0-0.2,0.1-0.5,0.2-0.7c0.8-1.6,1.3-3.2,1.1-5c-0.2-1.4-0.8-2.5-2.3-3c0,0-0.1,0-0.1,0c0,0,0,0,0,0
		c-1.2,0-2.4,0.1-3.3,0.9c-1,0.8-1.9,1.7-2.9,2.6c-0.7,1.3-1.3,2.6-2,3.9c-0.1,1-0.2,2-0.3,3c0.2,0.8,0.4,1.6,1.1,2.3
		c0.1,0.2,0.2,0.4,0.2,0.6c0,1.8,0,3.7,0,5.5c0,1.1,0,2.1,0,3.2c0,0.2,0,0.4,0,0.7c0.1,1.1,0.8,1.7,1.9,1.5c0.3,0,0.5-0.1,0.9-0.2
		c0,3.7,0,7.3,0,10.9c0,0,0,0,0,0C65.6,42,65.6,42,65.6,42z M67.8,10.5c0.9,0,1.4,0.4,1.6,1.1c0.6,2-1.4,5-3.5,5.5
		c-0.2,0-0.4,0-0.5,0c-1-0.2-1.5-1.1-1.3-2.2c0.2-1,0.6-2,1.2-2.8C66,11.3,66.7,10.6,67.8,10.5z M68.1,19c0,2.4,0,4.7,0,7.1
		c0,0.2,0,0.4-0.2,0.5c-0.8,0.5-1.6,0.9-2.5,1.4c-0.1-0.1-0.1-0.1-0.1-0.2c0-2.4,0-4.8,0-7.2c0-0.1,0.1-0.3,0.2-0.4
		C66.4,19.9,67.2,19.5,68.1,19z"/>
	<path class="st6" d="M54.9,5.9c-6.1,2.6-12.1,5.1-18.2,7.7c-0.1,0-0.1,0.1-0.1,0.1c1.8,1,3.5,2,5.3,3c1.1,0.6,2.2,1.3,3.2,1.9
		c0.2-0.1,0.5-0.1,0.7-0.2c0.3-0.2,0.6-0.3,0.9-0.5c5.2-2.2,10.4-4.4,15.6-6.6c0.4-0.2,0.7-0.4,1.1-0.6c-0.2-0.1-0.3-0.2-0.5-0.3
		C60.2,8.8,57.6,7.3,54.9,5.9z"/>
	<path class="st7" d="M45.1,18.5c-1.1-0.6-2.1-1.3-3.2-1.9c-1.8-1-3.5-2-5.3-3c-0.7,0.3-1.4,0.5-2.1,0.9c-3.7,2.6-5.8,6-6.3,10.4
		c1,0.5,2,1,2.9,1.5c1.8,1,3.6,2,5.5,3c0.1,0.1,0.3,0.1,0.4,0.1c0-0.3,0-0.6,0.1-0.9c0.5-2.4,1.5-4.6,3.1-6.5
		C41.5,20.6,43,19.2,45.1,18.5z"/>
	<path class="st7" d="M27.3,55.1c-2.9-1.6-5.8-3.2-8.7-4.8c-1.5,2.2-2.5,4.5-2.5,7.1c0,1.4,0.3,2.7,1.3,3.7c1.9,1.1,3.8,2.1,5.7,3.2
		c0.7,0.4,1.3,0.8,2,1.1c0.3,0.1,0.6,0.2,0.9,0.3c-0.3-0.6-0.7-1.3-0.8-2c-0.5-2.2-0.1-4.3,0.9-6.2C26.4,56.7,26.9,55.9,27.3,55.1z"
		/>
	<path class="st8" d="M75.6,40.4c-1.4,0.7-2.7,1.4-4.1,2.1c-3.6,2-7.3,4-10.9,6c-1.2,0.6-1.8,1.5-1.8,2.9c0.1,2.8,0,5.7,0,8.5
		c0.9-0.5,1.8-1,2.7-1.5c0-2.2,0-4.5-0.1-6.7c0-0.5,0.2-0.8,0.7-1c3.2-1.7,6.3-3.5,9.5-5.2c0.7-0.4,1.3-0.7,2.1-1.1c0,2.6,0,5,0,7.4
		c0.9-0.5,1.8-1,2.7-1.5c0-2.8,0-5.6,0-8.5c0-0.4-0.1-0.7-0.2-1.1C76,40.6,75.8,40.5,75.6,40.4z"/>
	<path class="st9" d="M76.2,40.6c0.1,0.4,0.2,0.7,0.2,1.1c0,2.8,0,5.6,0,8.5c2.5-1.4,5.1-2.8,7.6-4.2c0.6-0.3,1.2-0.8,1.8-1
		c0.7-0.3,1.5-0.4,2.2-0.5c-2.7-1.5-5.4-3-8.2-4.6c-0.8-0.4-1.6-0.3-2.4,0C77.1,40.1,76.6,40.4,76.2,40.6z"/>
	<path class="st10" d="M54.9,5.9c2.7,1.5,5.3,3,8,4.5c0.2,0.1,0.3,0.2,0.5,0.3c0.1,0,0.1,0,0.2,0c0.9-0.9,1.9-1.8,2.9-2.6
		c0.9-0.7,2.1-0.9,3.3-0.9c-1.7-0.9-3.3-1.9-5-2.8c-0.9-0.5-1.8-1-2.6-1.5c-1-0.6-2.1-0.7-3.2-0.3C57.2,3.3,55.9,4.4,54.9,5.9z"/>
	<path class="st11" d="M70.9,24.4c-0.1,0.5-0.1,1.1-0.2,1.6c-0.3,1.3-1,2.4-2.1,3.2c-0.2,0.1-0.4,0.4-0.4,0.6c0,2.1,0,4.2,0,6.3
		c0.2,0.1,0.4,0.1,0.5,0.2c1.2,0.7,2.4,1.3,3.6,2c-0.3-1.1,0-2.1,1-2.7c1.1-0.7,2.4-1.3,3.6-1.9c-0.9-0.5-1.8-1-2.7-1.5
		c-0.2,0.3-0.4,0.6-0.6,0.9c-0.4,0.5-0.7,1.1-1.2,1.5c-0.2,0.2-0.8,0.3-1.1,0.2c-0.2-0.1-0.4-0.6-0.4-0.9c0-0.4,0.1-0.8,0.3-1.1
		c0.9-1.5,1.8-3.1,2.8-4.6c0.3-0.6,0.8-1,1.5-1.1C74,26.1,72.4,25.2,70.9,24.4z"/>
	<path class="st12" d="M87.2,59.3c-0.3-0.2-0.6-0.2-0.9,0.2c-0.3,0.3-0.8,0.4-1.2,0.7c-0.3,0.2-0.5,0.4-0.7,0.6c0,1.2,0,2.5,0,3.7
		c0,0.2,0,0.4,0,0.6c-0.8,0.5-1.7,1-2.5,1.4c0,0.2,0,0.4,0.1,0.8c-0.4-0.4-0.4-0.8-0.3-1.1c0-1.2,0-2.5,0-3.7
		c-0.5,0.1-1.1,0.2-1.5,0.4c-0.4,0.2-0.8,0.5-1.2,0.8c0,1.5,0,2.9,0,4.4c0,0.7,0.1,1.5,0.1,2.2c0.4,0.4,0.8,0.3,1.3,0.1
		c1.8-1,3.6-2,5.3-2.9c0.8-0.5,1.3-1.2,1.4-2.1C87.3,63.3,87.2,61.3,87.2,59.3z M81.6,67.1C81.6,67.1,81.5,67.1,81.6,67.1
		C81.6,67.1,81.6,67.1,81.6,67.1C81.6,67.1,81.6,67.1,81.6,67.1z"/>
	<path class="st7" d="M79.2,70.3c0-0.7-0.1-1.5-0.1-2.2c0-1.5,0-2.9,0-4.4c-1.6,0.9-3.2,1.7-4.8,2.6c-0.4,0.2-0.7,0.5-1.1,0.7
		C75.2,68.1,77.2,69.2,79.2,70.3z"/>
	<path class="st5" d="M75.6,27c-0.7,0.1-1.2,0.5-1.5,1.1c-0.9,1.5-1.9,3-2.8,4.6c-0.2,0.3-0.3,0.7-0.3,1.1c0,0.3,0.2,0.8,0.4,0.9
		c0.3,0.1,0.8,0,1.1-0.2c0.5-0.4,0.8-1,1.2-1.5c0.2-0.3,0.4-0.6,0.6-0.9c0.5-0.9,1.1-1.8,1.6-2.7c0.2-0.4,0.4-0.8,0.5-1.2
		C76.5,27.6,76.2,27.2,75.6,27z"/>
	<path class="st5" d="M76.9,33.7c-1.2,0.6-2.4,1.2-3.6,1.9c-1,0.6-1.3,1.6-1,2.7c0.2,0.1,0.3,0.2,0.5,0.3c0.3-0.1,0.6-0.1,0.9-0.3
		c0.9-0.4,1.7-0.9,2.5-1.4c0.8-0.5,1.3-1.2,1.4-2.1C77.8,34.3,77.6,33.8,76.9,33.7z"/>
	<path class="st13" d="M72.9,38.6c-0.2-0.1-0.3-0.2-0.5-0.3c-1.2-0.7-2.4-1.3-3.6-2c-0.2-0.1-0.4-0.1-0.5-0.2c0,0.4,0.1,0.7,0.1,1.1
		c0,0,0,0,0,0.1c0,0-0.1,0-0.1,0c0-0.3,0-0.6,0-1c1.6,0.9,3.2,1.7,4.7,2.6C72.9,38.7,72.9,38.7,72.9,38.6z"/>
	<path class="st10" d="M69.8,7.2c0,0,0.1,0,0.1,0C69.8,7.2,69.8,7.2,69.8,7.2z"/>
	<path class="st14" d="M46.8,69.6c-1.4,0.8-2.8,1.5-4.2,2.3c-3.9,2.2-7.8,4.3-11.7,6.5c-0.3,0.2-0.5,0.4-0.5,0.8
		c0,5.1,0.1,10.3,0.1,15.4c0,0.1,0,0.2,0,0.4c1.2-0.7,2.4-1.3,3.6-2c5-2.8,10-5.5,15.1-8.3c0.5-0.3,1-0.5,1.5-0.8c0-1.5,0-2.9,0-4.4
		c-0.3,0.1-0.6,0.2-0.9,0.3c-1.6,0.5-3-0.3-3.1-1.8C46.6,75.1,46.7,72.4,46.8,69.6z M41.7,75.4c0.6,0,0.8,0.3,0.8,0.8
		c0,0.9-0.3,1.7-1.1,2.2c-2.3,1.3-4.6,2.6-7,3.9c-0.3,0.1-0.8,0.2-1,0c-0.2-0.2-0.4-0.6-0.3-0.9c0.1-0.9,0.5-1.6,1.4-2
		c2.2-1.2,4.5-2.5,6.7-3.7C41.3,75.5,41.6,75.5,41.7,75.4z"/>
	<path class="st15" d="M87.2,53.2c-1.2,0.7-2.3,1.2-3.3,1.8c-7.9,4.3-15.7,8.7-23.6,13c-0.4,0.2-0.8,0.5-1.1,0.1
		c-0.2-0.3-0.3-0.8-0.3-1.1c0.1-0.9,0.7-1.5,1.5-2c8.8-4.8,17.5-9.7,26.3-14.5c0.4-0.2,0.6-0.5,0.6-0.9c0-0.2,0-0.3,0-0.5
		c0-1.3-0.5-1.6-1.7-1c-6.3,3.5-12.6,7-18.9,10.4c-5.2,2.9-10.4,5.8-15.6,8.6c-1.2,0.7-1.8,1.6-1.7,2.9c0,0.3,0,0.6,0,1
		c0.3-0.1,0.5-0.2,0.7-0.3c1.1-0.6,2.2-1.2,3.3-1.8c0.3-0.2,0.8-0.2,1.1,0c0.2,0.1,0.3,0.6,0.3,0.9c-0.1,0.9-0.6,1.6-1.4,2.1
		c-1.2,0.7-2.4,1.3-3.6,2c-0.2,0.1-0.3,0.4-0.4,0.6c-0.1,0.3,0,0.6,0,1c0,0.9,0.6,1.3,1.4,0.8c1.3-0.7,2.5-1.4,3.8-2.1
		c7.2-4,14.3-7.9,21.5-11.9c3.2-1.8,6.5-3.6,9.7-5.4c0.9-0.5,1.3-1.3,1.4-2.2C87.3,54.3,87.2,53.8,87.2,53.2z"/>
	<path class="st16" d="M73.7,51.7c0-2.4,0-4.8,0-7.4c-0.8,0.4-1.4,0.8-2.1,1.1c-3.2,1.7-6.3,3.5-9.5,5.2c-0.4,0.2-0.7,0.5-0.7,1
		c0.1,2.2,0.1,4.5,0.1,6.7C65.6,56.2,69.6,53.9,73.7,51.7z"/>
	<path class="st9" d="M58.5,59.9c-1.7-1-3.4-1.9-5.1-2.9c-1.2-0.7-2.3-1.3-3.5-1.9c-2.4,1.3-4.7,2.6-7.1,3.9
		c0.4,0.4,0.7,0.9,1.1,1.3c1.4,1.5,2.7,3,4.1,4.5c0.4,0.4,0.7,0.7,1.3,0.2c0.1-0.1,0.2,0,0.3-0.1c0,0,0,0,0,0c0-0.1,0.1-0.1,0.1-0.2
		c1.3-0.7,2.7-1.5,4-2.2c1.4-0.8,2.7-1.5,4.1-2.3C58.1,60.3,58.3,60.1,58.5,59.9z"/>
	<path class="st17" d="M56.1,76.3c-0.9,0.5-1.7,0.9-2.4,1.4c-0.1,0.1-0.3,0.3-0.3,0.4c0,1.3,0,2.7,0,4.2c0.9-0.5,1.8-1,2.6-1.4
		c0.1,0,0.1-0.2,0.1-0.3C56.1,79.2,56.1,77.8,56.1,76.3z"/>
	<path class="st18" d="M84.5,64.5c0-1.2,0-2.5,0-3.7c0,0,0,0,0,0c-0.9,0.5-1.8,0.9-2.6,1.4c-0.1,0,0,0.2-0.1,0.3c0,1.2,0,2.5,0,3.7
		c0.1,0.1,0.1,0.2,0.2,0.3c0.8-0.5,1.7-1,2.5-1.4C84.5,64.9,84.5,64.7,84.5,64.5z"/>
	<path class="st1" d="M49.8,64.9c0,0.1-0.1,0.1-0.1,0.2C49.7,65,49.7,65,49.8,64.9z"/>
	<path class="st19" d="M29.9,66.7c3.7-1.3,5.8-4,7.4-7.2c0.1-0.2,0.2-0.5,0.4-0.7c0.2-1.1,0.6-2.2,0.7-3.4c0.2-1.4-0.1-2.8-1-4.1
		c-0.9-0.9-2.1-1.4-3.4-1.1c-0.9,0.2-1.8,0.6-2.8,1c-1.5,1-2.7,2.2-3.7,3.6c-0.1,0.1-0.2,0.2-0.3,0.2c-0.4,0.8-0.9,1.7-1.3,2.5
		c-1,2-1.3,4.1-0.9,6.2c0.1,0.7,0.6,1.3,0.8,2c0,0,0,0,0,0c0,0.1,0.1,0.2,0.1,0.2c0,0,0.1,0,0.1,0c0,0,0.1,0.1,0.1,0.1c0,0,0,0,0,0
		c0.8,0.4,1.6,0.8,2.5,0.7C29.2,66.8,29.6,66.8,29.9,66.7z M35.7,56.3c0,1.9-0.8,3.6-2.1,5c-0.7,0.8-1.5,1.5-2.6,1.9
		c-1.5,0.6-2.8,0-3.2-1.4c-0.2-0.5-0.2-1.1-0.2-1.6c0.1-1.4,0.7-2.7,1.5-3.8c0.8-1.2,1.9-2.3,3.3-2.8c1.7-0.6,3.1,0.3,3.3,2
		C35.7,55.9,35.7,56.1,35.7,56.3z"/>
	<path class="st19" d="M45.8,32.6c0.9-1,1.7-2.1,2.6-3.1c0-0.1,0.1-0.3,0.1-0.4c0.6-1.4,1.1-2.7,1.7-4.1c0.4-1.9,0.4-3.7-0.6-5.4
		c-1-1.2-2.3-1.6-3.9-1.3c-0.2,0.1-0.5,0.1-0.7,0.2c-2,0.7-3.6,2-4.9,3.6c-1.6,1.9-2.6,4.1-3.1,6.5c-0.1,0.3,0,0.6-0.1,0.9
		c0,0.1,0,0.2,0,0.4c-0.1,1.3,0.2,2.5,0.9,3.6c1.4,1.4,3,1.5,4.7,0.9c0.8-0.5,1.7-1,2.5-1.5C45.4,32.9,45.6,32.7,45.8,32.6z
		 M47.8,24.3c-0.1,2.1-1,3.9-2.4,5.4c-0.8,0.8-1.6,1.4-2.7,1.7c-1.1,0.3-2.1-0.1-2.6-1.2c-0.2-0.4-0.3-0.9-0.3-1.4
		c0-2.4,1.1-4.4,3-6.1c0.5-0.5,1.2-0.9,1.9-1.1c1.7-0.6,3,0.3,3.2,2C47.8,23.9,47.8,24.1,47.8,24.3z"/>
	<path class="st7" d="M26.1,66c0-0.1-0.1-0.2-0.1-0.2C26,65.9,26,65.9,26.1,66z"/>
	<path class="st1" d="M26.3,66.1c0,0-0.1-0.1-0.1-0.1C26.2,66.1,26.3,66.1,26.3,66.1z"/>
	<path class="st20" d="M31.3,51.3c1.4-3.7,2.8-7.4,4.2-11.2c0.8-2.2,1.6-4.3,2.4-6.5c-0.7-1.1-1-2.3-0.9-3.6
		c-0.2,0.5-0.5,0.9-0.7,1.4c-2,5.2-3.9,10.5-5.9,15.7c-0.9,2.3-1.8,4.6-2.7,6.9c-0.1,0.2-0.1,0.5-0.2,0.7
		C28.6,53.4,29.8,52.2,31.3,51.3z"/>
	<path class="st11" d="M56.7,28.8c0,1.8,0,3.7,0,5.6c-0.2-0.1-0.4-0.2-0.5-0.3c-1.7-0.9-3.4-1.8-5-2.8c-0.5-0.3-1-0.2-1.4,0.1
		c-0.7,0.5-1,1.2-1.1,2c-0.1,0.4,0.1,0.8,0.5,1.1c2.8,1.5,5.5,3.1,8.3,4.6c0-0.3,0-0.6,0-0.8c0.1-1,0.6-1.7,1.4-2.1
		c0.2-0.1,0.6-0.1,0.9,0c0.9,0.4,1.7,0.9,2.5,1.4c0.3,0.2,0.6,0.7,0.5,1c-0.1,0.6-0.4,1.1-0.6,1.6c1.1,0.6,2.2,1.2,3.4,1.8
		c0-3.6,0-7.2,0-10.9c-0.4,0.1-0.7,0.2-0.9,0.2c-1.1,0.2-1.8-0.4-1.9-1.5c0-0.2,0-0.4,0-0.7c-0.8,0.1-1.6,0.3-2.4,0.3
		C59,29.5,57.9,29.2,56.7,28.8z"/>
	<path class="st10" d="M57.3,40.6c-0.5-0.3-1.1-0.5-1.6-0.8c-1.1-0.6-2.2-1.2-3.2-1.8c-0.4-0.3-0.8-0.3-1.3,0
		c-0.9,0.5-1.8,0.9-2.7,1.5c-0.5,0.3-0.9,0.8-1.1,1.4c-0.5,1.1-0.2,1.5,0.7,2c0.9,0.5,1.8,1,2.6,1.5c1.3,0.7,2.5,1.4,3.8,2
		c0.5,0.3,1,0.5,1.5,0.8c-0.3-1-0.1-1.9,0.8-2.5c1.2-0.8,2.5-1.4,3.8-2.1c-1-0.6-1.9-1.1-2.9-1.7C57.6,40.9,57.5,40.7,57.3,40.6z"/>
	<path class="st5" d="M62.1,40.1c0.2-0.5,0.5-1.1,0.6-1.6c0-0.3-0.2-0.8-0.5-1c-0.8-0.5-1.7-1-2.5-1.4c-0.2-0.1-0.6-0.1-0.9,0
		c-0.9,0.4-1.4,1.2-1.4,2.1c0,0.3,0,0.6,0,0.8c0.4,0.3,0.9,0.5,1.3,0.8c0.5,0.2,0.9,0.4,1.4,0.7c0.8,0.4,1.1,0.4,1.8-0.2
		C62,40.2,62.1,40.2,62.1,40.1z"/>
	<path class="st5" d="M60.7,42.6c-1.3,0.7-2.6,1.3-3.8,2.1c-0.8,0.6-1,1.5-0.8,2.5c0.4,0.4,0.8,0.4,1.3,0.1c0.9-0.5,1.9-1,2.7-1.5
		c0.8-0.5,1.3-1.2,1.3-2.2C61.4,43.1,61.2,42.7,60.7,42.6z"/>
	<path class="st11" d="M65.6,42c0,0-0.1-0.1-0.1-0.1C65.6,42,65.6,42,65.6,42z"/>
	<path class="st13" d="M68.2,39.7C68.2,39.7,68.2,39.7,68.2,39.7C68.2,39.7,68.2,39.7,68.2,39.7z"/>
	<path class="st14" d="M49.7,19.6c1,1.7,1,3.5,0.6,5.4c0.1,0,0.2,0.1,0.3,0c1.4-0.9,2.8-1.9,4.1-2.9c2.2-1.5,4.5-3.1,6.7-4.6
		c0.1-1,0.2-2,0.3-3c-0.1,0-0.2,0-0.2,0.1C57.5,16.3,53.6,18,49.7,19.6z"/>
	<path class="st21" d="M49.7,19.6c3.9-1.7,7.8-3.3,11.8-5c0.1,0,0.2,0,0.2-0.1c0.7-1.3,1.3-2.6,2-3.9c-0.1,0-0.1,0-0.2,0
		c-0.4,0.2-0.7,0.4-1.1,0.6c-5.2,2.2-10.4,4.4-15.6,6.6c-0.3,0.1-0.6,0.3-0.9,0.5C47.3,18.1,48.6,18.4,49.7,19.6z"/>
	<path class="st20" d="M61.4,17.6c-2.2,1.5-4.5,3.1-6.7,4.6c-1.4,0.9-2.8,1.9-4.1,2.9c-0.1,0-0.2,0-0.3,0c-0.6,1.4-1.1,2.7-1.7,4.1
		c-0.1,0.1-0.1,0.3-0.1,0.4c1.3-0.9,2.6-1.7,3.8-2.6c0.2-0.1,0.4-0.2,0.6-0.4c0.4-0.3,0.7-0.5,1.1-0.8c1-0.7,1.9-1.3,2.9-2
		c0.3-0.2,0.6-0.4,1-0.6c0.2-0.1,0.4-0.3,0.6-0.4c1.4-1,2.8-1.9,4.1-2.9C61.8,19.2,61.5,18.4,61.4,17.6z"/>
	<path class="st8" d="M56.8,23.8c-1,0.7-1.9,1.3-2.9,2c0.5,0.7,1.1,1.5,1.6,2.2c0,0,0,0,0,0c0,0,0.1,0.1,0.1,0.1
		c0.4,0.2,0.7,0.5,1.1,0.7c1.2,0.4,2.3,0.7,3.6,0.7c0.8,0,1.6-0.2,2.4-0.3c0-1.1,0-2.1,0-3.2c0,0-0.1,0-0.1,0
		C60.6,26.4,57.7,25.6,56.8,23.8z"/>
	<path class="st22" d="M67.8,10.5c-1,0.1-1.8,0.8-2.5,1.6c-0.7,0.8-1.1,1.7-1.2,2.8c-0.2,1.1,0.3,2.1,1.3,2.2c0.2,0,0.4,0,0.5,0
		c2.1-0.4,4-3.5,3.5-5.5C69.2,10.9,68.7,10.5,67.8,10.5z"/>
	<path class="st23" d="M68.1,19c-0.8,0.4-1.7,0.8-2.5,1.3c-0.1,0.1-0.2,0.2-0.2,0.4c0,2.4,0,4.8,0,7.2c0,0,0,0.1,0.1,0.2
		c0.8-0.5,1.7-0.9,2.5-1.4c0.1-0.1,0.2-0.3,0.2-0.5C68.1,23.8,68.1,21.4,68.1,19z"/>
	<path class="st10" d="M62.5,25.9c0,0,0.1,0,0.1,0c0-1.8,0-3.7,0-5.5c0-0.2-0.1-0.4-0.2-0.6c-1.4,1-2.8,1.9-4.1,2.9
		c-0.2,0.1-0.4,0.3-0.6,0.4c0.1,0.1,0.3,0.2,0.4,0.3C59.6,24.3,61.1,25.1,62.5,25.9z"/>
	<path class="st0" d="M82,66.5c-0.1-0.1-0.1-0.2-0.2-0.3c-0.1,0.4-0.1,0.7,0.3,1.1C82,66.9,82,66.7,82,66.5z"/>
	<path class="st0" d="M84.5,64.5c0,0.2,0,0.4,0,0.6C84.5,64.9,84.5,64.7,84.5,64.5z"/>
	<path class="st0" d="M81.6,67.1C81.6,67.1,81.6,67.1,81.6,67.1C81.6,67.1,81.6,67.1,81.6,67.1C81.5,67.1,81.6,67.1,81.6,67.1z"/>
	<path class="st1" d="M41.7,75.4c-0.1,0.1-0.4,0.1-0.6,0.2c-2.2,1.2-4.5,2.4-6.7,3.7c-0.8,0.4-1.3,1.2-1.4,2c0,0.3,0.1,0.8,0.3,0.9
		c0.2,0.2,0.7,0.1,1,0c2.3-1.3,4.7-2.6,7-3.9c0.8-0.5,1.2-1.3,1.1-2.2C42.5,75.8,42.3,75.5,41.7,75.4z"/>
	<path class="st4" d="M55.5,28c-0.5-0.7-1.1-1.5-1.6-2.2c-0.4,0.3-0.7,0.5-1.1,0.8C53.7,27,54.6,27.5,55.5,28z"/>
	<path class="st4" d="M55.7,28.1c0,0-0.1-0.1-0.1-0.1C55.6,28,55.6,28.1,55.7,28.1z"/>
	<path class="st24" d="M35.7,56.3c0-0.2,0-0.4,0-0.6c-0.2-1.7-1.5-2.6-3.3-2c-1.5,0.5-2.5,1.5-3.3,2.8c-0.8,1.2-1.4,2.4-1.5,3.8
		c0,0.5,0,1.1,0.2,1.6c0.4,1.4,1.7,1.9,3.2,1.4c1.1-0.4,1.9-1.1,2.6-1.9C34.9,59.9,35.7,58.3,35.7,56.3z M30.3,59.1
		c0.1-0.8,0.5-1.6,1.4-2.1c0.7-0.4,1.4-0.1,1.4,0.7c0,1-0.5,1.8-1.4,2.3C30.9,60.4,30.3,60.1,30.3,59.1z"/>
	<path class="st24" d="M47.8,24.3c0-0.2,0-0.4,0-0.7c-0.2-1.7-1.5-2.5-3.2-2c-0.7,0.2-1.4,0.6-1.9,1.1c-1.9,1.6-3,3.6-3,6.1
		c0,0.5,0.1,0.9,0.3,1.4c0.4,1,1.4,1.5,2.6,1.2c1.1-0.3,2-0.9,2.7-1.7C46.8,28.2,47.7,26.5,47.8,24.3z M42.4,27.4
		c0.2-1.1,0.6-1.9,1.4-2.3c0.7-0.4,1.4,0,1.3,0.8c-0.1,0.9-0.5,1.7-1.3,2.1c-0.3,0.2-0.7,0.2-1,0.1C42.6,28,42.5,27.6,42.4,27.4z"/>
	<path class="st4" d="M62.5,25.9c-1.4-0.8-2.9-1.6-4.3-2.4c-0.2-0.1-0.3-0.2-0.4-0.3c-0.3,0.2-0.6,0.4-1,0.6
		C57.7,25.6,60.6,26.4,62.5,25.9z"/>
	<path class="st0" d="M30.3,59.1c0,1,0.6,1.3,1.3,0.9c0.9-0.5,1.3-1.3,1.4-2.3c0-0.8-0.6-1.1-1.4-0.7C30.8,57.5,30.4,58.3,30.3,59.1
		z"/>
	<path class="st0" d="M42.4,27.4c0.1,0.2,0.2,0.6,0.5,0.7c0.3,0.1,0.7,0,1-0.1c0.8-0.5,1.2-1.2,1.3-2.1c0.1-0.8-0.6-1.2-1.3-0.8
		C42.9,25.5,42.5,26.3,42.4,27.4z"/>
</g>
</svg>
