<?xml version="1.0" encoding="utf-8"?>
<!-- Generator: Adobe Illustrator 24.2.1, SVG Export Plug-In . SVG Version: 6.00 Build 0)  -->
<svg version="1.1" id="Layer_1" xmlns="http://www.w3.org/2000/svg" xmlns:xlink="http://www.w3.org/1999/xlink" x="0px" y="0px"
	 viewBox="0 0 100 100" style="enable-background:new 0 0 100 100;" xml:space="preserve">
<style type="text/css">
	.st0{fill-rule:evenodd;clip-rule:evenodd;fill:#E6E6E5;}
	.st1{fill-rule:evenodd;clip-rule:evenodd;fill:#878E8F;}
	.st2{fill-rule:evenodd;clip-rule:evenodd;fill:#687071;}
	.st3{fill-rule:evenodd;clip-rule:evenodd;fill:#C5CCD1;}
	.st4{fill-rule:evenodd;clip-rule:evenodd;fill:#E6EAEA;}
	.st5{fill-rule:evenodd;clip-rule:evenodd;fill:#9B9C9C;}
	.st6{fill-rule:evenodd;clip-rule:evenodd;fill:#597896;}
	.st7{fill-rule:evenodd;clip-rule:evenodd;fill:#3E576F;}
	.st8{fill-rule:evenodd;clip-rule:evenodd;fill:#2D3F50;}
	.st9{fill-rule:evenodd;clip-rule:evenodd;fill:url(#SVGID_1_);}
	.st10{fill-rule:evenodd;clip-rule:evenodd;fill:#676767;}
	.st11{fill-rule:evenodd;clip-rule:evenodd;fill:#ED2224;}
	.st12{fill-rule:evenodd;clip-rule:evenodd;fill:#C33F2D;}
	.st13{fill-rule:evenodd;clip-rule:evenodd;fill:#F15F4C;}
	.st14{fill-rule:evenodd;clip-rule:evenodd;fill:#EF8172;}
	.st15{fill-rule:evenodd;clip-rule:evenodd;fill:#4C6781;}
	.st16{fill-rule:evenodd;clip-rule:evenodd;fill:#F3715F;}
	.st17{fill-rule:evenodd;clip-rule:evenodd;fill:#CD4E3D;}
	.st18{fill-rule:evenodd;clip-rule:evenodd;fill:#AC4132;}
	.st19{fill-rule:evenodd;clip-rule:evenodd;fill:#687576;}
</style>
<g>
	<g>
		<polygon class="st0" points="35.7,23.5 35.7,41.1 91.7,73.5 91.7,55.9 		"/>
		<polygon class="st1" points="35.7,27.3 91.7,59.7 94.3,74.9 62.1,73 9.3,42.5 		"/>
		<polygon class="st2" points="86.5,52.9 91.7,55.9 95,74.9 62.1,73 56.9,70 		"/>
		<polygon class="st3" points="35.7,20.7 1.2,40.6 54.1,71.2 56.6,69.8 6,40.6 35.7,23.5 86.2,52.7 88.6,51.3 		"/>
		<polygon class="st0" points="95,70.9 95,75.3 91.7,56.3 91.7,51.9 		"/>
		<polygon class="st0" points="91.7,51.9 91.7,56.3 86.2,53.1 86.2,48.7 		"/>
		<polygon class="st4" points="60.5,70.9 60.5,74.9 60.5,75.3 60.5,88.3 3.9,55.6 1.2,40.6 54.1,71.2 54.1,67.2 		"/>
		<polygon class="st3" points="54.1,67.2 56.6,65.8 62.1,69 95,70.9 91.7,51.9 86.2,48.7 88.6,47.3 95,51 98.8,73.1 60.5,70.9 		"/>
		<polygon class="st5" points="82,63.9 85.7,61.8 85.7,59 82,61.1 		"/>
		<polygon class="st3" points="82,61.1 85.7,59 82.2,56.9 78.4,59.1 		"/>
		<polygon class="st4" points="82,61.1 78.4,59.1 78.4,61.8 82,63.9 		"/>
		<polygon class="st5" points="74.5,68.2 78.3,66.1 78.3,63.3 74.5,65.5 		"/>
		<polygon class="st3" points="74.5,65.5 78.3,63.3 74.7,61.2 70.9,63.4 		"/>
		<polygon class="st4" points="74.5,65.5 70.9,63.4 70.9,66.2 74.5,68.2 		"/>
		<path class="st0" d="M60.5,88.3L91.1,86l7.7-12.9l-38.3-2.2C60.5,78.2,60.5,81,60.5,88.3z"/>
		<polygon class="st6" points="91.1,86 94.1,81 60.5,81.8 60.5,88.3 		"/>
		<polygon class="st7" points="2.5,48.1 3.9,55.6 60.5,88.3 60.5,81.8 		"/>
		<polygon class="st4" points="23.2,34.7 23.2,32.1 10.9,25 10.9,27.6 		"/>
		<polygon class="st5" points="33.8,12.2 11.7,25 12.8,25.6 33.8,13.5 		"/>
		<polygon class="st4" points="44.2,19.5 45.4,18.8 33.8,12.2 33.8,13.5 		"/>
		<polygon class="st2" points="23.2,31.6 44.2,19.5 33.8,13.5 12.8,25.6 		"/>
		<path class="st3" d="M23.2,32.1l23-13.3l-12.4-7.1L10.9,25L23.2,32.1L23.2,32.1z M23.2,31.6L11.7,25l22.1-12.8l11.5,6.6L23.2,31.6
			z"/>
		<polygon class="st5" points="33.7,18.9 35.9,17.6 35.9,15.9 33.7,17.2 		"/>
		<polygon class="st3" points="33.7,17.2 35.9,15.9 33.8,14.6 31.5,15.9 		"/>
		<polygon class="st4" points="33.7,17.2 31.5,15.9 31.5,17.6 33.7,18.9 		"/>
		<polygon class="st3" points="23.2,37.8 46.2,24.5 45.8,24.2 23.2,37.2 11.3,30.4 10.9,30.6 		"/>
		<polygon class="st8" points="23.2,37.2 45.8,24.2 45.8,21.7 23.2,34.7 		"/>
		<polygon class="st7" points="23.2,37.2 23.2,34.7 11.3,27.8 11.3,30.4 		"/>
		<polygon class="st4" points="23.2,38.7 23.2,37.8 10.9,30.6 10.9,31.6 		"/>
		<polygon class="st3" points="23.2,41.8 46.2,28.5 45.8,28.2 23.2,41.3 11.3,34.4 10.9,34.7 		"/>
		<polygon class="st8" points="23.2,41.3 45.8,28.2 45.8,25.7 23.2,38.7 		"/>
		<polygon class="st7" points="23.2,41.3 23.2,38.7 11.3,31.8 11.3,34.4 		"/>
		<polygon class="st8" points="23.2,47.7 45.8,34.7 45.8,29.7 23.2,42.7 		"/>
		<polygon class="st7" points="23.2,47.7 23.2,42.7 11.3,35.9 11.3,40.9 		"/>
		<polygon class="st3" points="23.2,49.6 46.2,36.3 45.8,36 23.2,49 11.3,42.2 10.9,42.4 		"/>
		<polygon class="st8" points="23.2,49 45.8,36 45.8,33.5 23.2,46.5 		"/>
		<polygon class="st7" points="23.2,49 23.2,46.5 11.3,39.6 11.3,42.2 		"/>
		<polygon class="st5" points="23.2,50.5 46.3,37.2 46.2,36.3 23.2,49.6 		"/>
		<polygon class="st4" points="23.2,50.5 23.2,49.6 10.9,42.4 10.9,43.4 		"/>
		<polygon class="st5" points="38,21.4 40.3,20.1 40.3,18.4 38,19.7 		"/>
		<polygon class="st3" points="38,19.7 40.3,18.4 38.1,17.1 35.8,18.4 		"/>
		<polygon class="st4" points="38,19.7 35.8,18.4 35.8,20.1 38,21.4 		"/>
		<linearGradient id="SVGID_1_" gradientUnits="userSpaceOnUse" x1="37.9382" y1="45.7628" x2="37.9382" y2="45.7628">
			<stop  offset="0" style="stop-color:#436B67"/>
			<stop  offset="2.340537e-02" style="stop-color:#46716B"/>
			<stop  offset="0.1225" style="stop-color:#53857E"/>
			<stop  offset="0.2372" style="stop-color:#5D958D"/>
			<stop  offset="0.3756" style="stop-color:#64A299"/>
			<stop  offset="0.5618" style="stop-color:#69AAA1"/>
			<stop  offset="1" style="stop-color:#6BADA4"/>
		</linearGradient>
		<path class="st9" d="M37.9,45.8"/>
		<polygon class="st4" points="23.2,33.7 21.1,32.4 21.1,49.2 23.2,50.5 		"/>
		<polygon class="st4" points="13,27.5 10.9,26.3 10.9,43.1 13,44.4 		"/>
		<polygon class="st4" points="44,25.8 43.6,25.5 43.6,22.9 44,22.7 		"/>
		<polygon class="st4" points="44,29.8 43.6,29.5 43.6,27 44,26.7 		"/>
		<polygon class="st4" points="44,37.6 43.6,37.3 43.6,31 44,30.7 		"/>
		<polygon class="st5" points="13,31.9 13.5,31.6 13.5,29.1 13,28.8 		"/>
		<polygon class="st5" points="13,35.9 13.5,35.7 13.5,33.1 13,32.8 		"/>
		<polygon class="st5" points="13,43.7 13.5,43.4 13.5,37.1 13,36.9 		"/>
		<polygon class="st4" points="33.6,31.8 33.2,31.5 33.2,28.9 33.6,28.7 		"/>
		<polygon class="st4" points="33.6,35.8 33.2,35.5 33.2,33 33.6,32.7 		"/>
		<polygon class="st4" points="33.6,43.6 33.2,43.3 33.2,37 33.6,36.7 		"/>
		<polygon class="st10" points="19,28.4 23.9,25.5 19.2,22.8 14.3,25.6 		"/>
		<polygon class="st5" points="19,28.4 23.9,25.5 23.9,22.2 19,25.1 		"/>
		<polygon class="st3" points="19,25.1 23.9,22.2 19.2,19.5 14.3,22.3 		"/>
		<polygon class="st4" points="19,25.1 14.3,22.3 14.3,25.6 19,28.4 		"/>
		<polygon class="st5" points="19.1,22.5 19.4,22.3 19.4,13.5 19.1,13.7 		"/>
		<polygon class="st8" points="19.1,13.7 19.4,13.5 19.1,13.3 18.7,13.5 		"/>
		<polygon class="st4" points="19.1,13.7 18.7,13.5 18.7,22.3 19.1,22.5 		"/>
		<polygon class="st11" points="19.1,13.7 19.4,13.5 19.1,13.3 18.7,13.5 		"/>
		<path class="st12" d="M19.1,14.1c-0.3,0-0.6-0.3-0.6-0.6c0-0.3,0.3-0.6,0.6-0.6c0.3,0,0.6,0.3,0.6,0.6
			C19.7,13.8,19.4,14.1,19.1,14.1z"/>
		<circle class="st13" cx="19" cy="13.5" r="0.5"/>
		<path class="st14" d="M18.6,13.2c0.1-0.2,0.3-0.1,0.3,0.1c0,0.1-0.1,0.2-0.2,0.2C18.5,13.5,18.5,13.3,18.6,13.2z"/>
		<polygon class="st4" points="23.2,50 23.2,41.8 10.9,34.7 10.9,42.9 		"/>
		<path class="st5" d="M23.2,38.7L23.2,38.7l0,3.1l0,0l0,8.2v0.5l2.3-1.3v-0.5l8.1-4.7v0.2l2.3-1.3v-0.2L44,38v0.2l2.3-1.3v-0.2l0,0
			l0-8.3l0,0v-3.1l0,0l0-0.5v-3.6l0,0l0-1.2v0l0-1.3l-23,13.3l0,2.6l0,0v3.1l0,0L23.2,38.7L23.2,38.7z M25.5,40.5v-3.1l8.1-4.7v3.1
			L25.5,40.5L25.5,40.5z M35.9,34.5v-3.1l8.1-4.7v3.1L35.9,34.5L35.9,34.5z M25.5,33.4l8.1-4.7v3.1l-8.1,4.7V33.4L25.5,33.4z
			 M35.9,27.4l8.1-4.7v3.1l-8.1,4.7V27.4z"/>
		<g>
			<polygon class="st15" points="58.6,38 49.1,32.6 48.5,32.9 48.5,33.3 46.9,34.3 46.6,34.1 46,34.4 46,34.8 44.3,35.8 44,35.6 
				43.4,35.9 43.4,36.3 41.8,37.3 41.4,37.1 40.8,37.4 40.8,37.8 39.2,38.7 38.9,38.5 38.3,38.9 38.3,39.3 36.6,40.2 36.3,40 
				35.7,40.4 35.7,40.8 34.1,41.7 33.7,41.5 33.1,41.9 33.1,52.4 42.6,57.8 42.6,57.8 43.2,57.5 43.2,57.1 44.8,56.2 45.1,56.4 
				45.8,56 45.8,55.6 47.4,54.7 47.7,54.9 48.3,54.5 48.3,54.2 50,53.2 50.3,53.4 50.9,53 50.9,52.7 52.5,51.7 52.9,51.9 53.5,51.6 
				53.5,51.2 55.1,50.2 55.4,50.4 56,50.1 56,49.7 57.7,48.7 58,48.9 58.6,48.6 			"/>
			<polygon class="st6" points="42.6,47.3 33.1,41.9 33.1,52.4 42.6,57.8 			"/>
			<g>
				<polygon class="st6" points="45.1,45.8 35.7,40.4 35.7,40.8 44.8,46 44.8,56.2 45.1,56.4 				"/>
				<polygon class="st7" points="44.8,46 35.7,40.8 34.1,41.7 43.2,47 				"/>
				<polygon class="st15" points="44.8,46 43.2,47 43.2,57.1 44.8,56.2 				"/>
				<polygon class="st8" points="45.7,45.5 36.3,40 35.7,40.4 45.1,45.8 				"/>
				<polygon class="st7" points="45.7,45.5 45.1,45.8 45.1,56.4 45.8,56 				"/>
			</g>
			<g>
				<polygon class="st6" points="47.7,44.3 38.3,38.9 38.3,39.3 47.4,44.5 47.4,54.7 47.7,54.9 				"/>
				<polygon class="st7" points="47.4,44.5 38.3,39.3 36.6,40.2 45.7,45.5 				"/>
				<polygon class="st15" points="47.4,44.5 45.7,45.5 45.8,55.6 47.4,54.7 				"/>
				<polygon class="st8" points="48.3,44 38.9,38.5 38.3,38.9 47.7,44.3 				"/>
				<polygon class="st7" points="48.3,44 47.7,44.3 47.7,54.9 48.3,54.5 				"/>
			</g>
			<g>
				<polygon class="st6" points="50.3,42.9 40.8,37.4 40.8,37.8 49.9,43 50,53.2 50.3,53.4 				"/>
				<polygon class="st7" points="49.9,43 40.8,37.8 39.2,38.7 48.3,44 				"/>
				<polygon class="st15" points="49.9,43 48.3,44 48.3,54.2 50,53.2 				"/>
				<polygon class="st8" points="50.9,42.5 41.4,37.1 40.8,37.4 50.3,42.9 				"/>
				<polygon class="st7" points="50.9,42.5 50.3,42.9 50.3,53.4 50.9,53 				"/>
			</g>
			<g>
				<polygon class="st6" points="52.8,41.4 43.4,35.9 43.4,36.3 52.5,41.6 52.5,51.7 52.9,51.9 				"/>
				<polygon class="st7" points="52.5,41.6 43.4,36.3 41.8,37.3 50.9,42.5 				"/>
				<polygon class="st15" points="52.5,41.6 50.9,42.5 50.9,52.7 52.5,51.7 				"/>
				<polygon class="st8" points="53.4,41 44,35.6 43.4,35.9 52.8,41.4 				"/>
				<polygon class="st7" points="53.4,41 52.8,41.4 52.9,51.9 53.5,51.6 				"/>
			</g>
			<g>
				<polygon class="st6" points="55.4,39.9 46,34.4 46,34.8 55.1,40.1 55.1,50.2 55.4,50.4 				"/>
				<polygon class="st7" points="55.1,40.1 46,34.8 44.3,35.8 53.4,41 				"/>
				<polygon class="st15" points="55.1,40.1 53.4,41 53.5,51.2 55.1,50.2 				"/>
				<polygon class="st8" points="56,39.5 46.6,34.1 46,34.4 55.4,39.9 				"/>
				<polygon class="st7" points="56,39.5 55.4,39.9 55.4,50.4 56,50.1 				"/>
			</g>
			<polygon class="st8" points="43.2,47 33.7,41.5 33.1,41.9 42.6,47.3 			"/>
			<polygon class="st7" points="43.2,47 42.6,47.3 42.6,57.8 43.2,57.5 			"/>
			<g>
				<polygon class="st6" points="58,38.4 48.5,32.9 48.5,33.3 57.6,38.6 57.7,48.7 58,48.9 				"/>
				<polygon class="st7" points="57.6,38.6 48.5,33.3 46.9,34.3 56,39.5 				"/>
				<polygon class="st15" points="57.6,38.6 56,39.5 56,49.7 57.7,48.7 				"/>
				<polygon class="st8" points="58.6,38 49.1,32.6 48.5,32.9 58,38.4 				"/>
				<polygon class="st7" points="58.6,38 58,38.4 58,48.9 58.6,48.6 				"/>
			</g>
			<polygon class="st8" points="42.3,47.5 33.4,42.4 33.4,52.2 42.3,57.3 			"/>
			<polygon class="st15" points="42.1,47.7 33.6,42.8 33.6,52.2 42.1,57 			"/>
			<path class="st8" d="M38,45l-0.3-0.2c0,0,0,0,0,0.1v9.8l0.3,0.2V45z"/>
			<polygon class="st8" points="33.9,45.2 33.9,45.5 37.3,47.5 37.3,47.2 			"/>
			<polygon class="st7" points="37.3,47.3 34,45.4 33.9,45.5 37.3,47.5 			"/>
			<polygon class="st8" points="33.9,43.7 33.9,43.9 37.3,45.9 37.3,45.7 			"/>
			<polygon class="st7" points="37.3,45.8 34,43.9 33.9,43.9 37.3,45.9 			"/>
			<polygon class="st8" points="33.9,48.3 33.9,48.6 37.3,50.6 37.3,50.3 			"/>
			<polygon class="st7" points="37.3,50.4 34,48.5 33.9,48.6 37.3,50.6 			"/>
			<polygon class="st8" points="33.9,46.8 33.9,47.1 37.3,49 37.3,48.8 			"/>
			<polygon class="st7" points="37.3,48.9 34,47 33.9,47.1 37.3,49 			"/>
			<polygon class="st8" points="33.9,51.4 33.9,51.7 37.3,53.7 37.3,53.4 			"/>
			<polygon class="st7" points="37.3,53.6 34,51.6 33.9,51.7 37.3,53.7 			"/>
			<polygon class="st8" points="33.9,49.9 33.9,50.2 37.3,52.2 37.3,51.9 			"/>
			<polygon class="st7" points="37.3,52 34,50.1 33.9,50.2 37.3,52.2 			"/>
			<polygon class="st8" points="38.2,47.7 38.2,48 41.7,50 41.7,49.7 			"/>
			<polygon class="st7" points="41.7,49.8 38.3,47.9 38.2,48 41.7,50 			"/>
			<polygon class="st8" points="38.2,46.2 38.2,46.4 41.7,48.4 41.7,48.1 			"/>
			<polygon class="st7" points="41.7,48.3 38.3,46.4 38.2,46.4 41.7,48.4 			"/>
			<polygon class="st8" points="38.2,50.8 38.2,51.1 41.7,53.1 41.7,52.8 			"/>
			<polygon class="st7" points="41.7,52.9 38.3,51 38.2,51.1 41.7,53.1 			"/>
			<polygon class="st8" points="38.2,49.3 38.2,49.6 41.7,51.5 41.7,51.3 			"/>
			<polygon class="st7" points="41.7,51.4 38.3,49.5 38.2,49.6 41.7,51.5 			"/>
			<polygon class="st8" points="38.2,53.9 38.2,54.2 41.7,56.2 41.7,55.9 			"/>
			<polygon class="st7" points="41.7,56 38.3,54.1 38.2,54.2 41.7,56.2 			"/>
			<polygon class="st8" points="38.2,52.4 38.2,52.7 41.7,54.7 41.7,54.4 			"/>
			<polygon class="st7" points="41.7,54.5 38.3,52.6 38.2,52.7 41.7,54.7 			"/>
			<polygon class="st7" points="37.8,45 37.7,45.1 37.7,54.5 37.8,54.4 			"/>
			<polygon class="st5" points="38.4,50.8 38.5,50.7 38.5,49.9 38.4,49.9 			"/>
			<polygon class="st3" points="38.4,49.9 38.5,49.9 37.4,49.3 37.3,49.3 			"/>
			<polygon class="st4" points="38.4,49.9 37.3,49.3 37.3,50.2 38.4,50.8 			"/>
		</g>
		<g>
			<polygon class="st15" points="70.3,44.8 60.8,39.3 60.2,39.7 60.2,40.1 58.6,41 58.2,40.8 57.6,41.2 57.6,41.6 56,42.5 
				55.7,42.3 55.1,42.7 55.1,43 53.4,44 53.1,43.8 52.5,44.2 52.5,44.5 50.9,45.5 50.5,45.3 49.9,45.6 49.9,46 48.3,47 48,46.8 
				47.4,47.1 47.4,47.5 45.7,48.4 45.4,48.2 44.8,48.6 44.8,59.1 54.2,64.6 54.2,64.6 54.9,64.2 54.9,63.9 56.5,62.9 56.8,63.1 
				57.4,62.7 57.4,62.4 59.1,61.4 59.4,61.6 60,61.3 60,60.9 61.6,59.9 62,60.1 62.6,59.8 62.6,59.4 64.2,58.5 64.5,58.6 65.1,58.3 
				65.1,57.9 66.8,57 67.1,57.2 67.7,56.8 67.7,56.4 69.3,55.5 69.7,55.7 70.3,55.3 			"/>
			<polygon class="st6" points="54.2,54.1 44.8,48.6 44.8,59.1 54.2,64.6 			"/>
			<g>
				<polygon class="st6" points="56.8,52.6 47.4,47.1 47.4,47.5 56.5,52.7 56.5,62.9 56.8,63.1 				"/>
				<polygon class="st7" points="56.5,52.7 47.4,47.5 45.7,48.4 54.8,53.7 				"/>
				<polygon class="st15" points="56.5,52.7 54.8,53.7 54.9,63.9 56.5,62.9 				"/>
				<polygon class="st8" points="57.4,52.2 48,46.8 47.4,47.1 56.8,52.6 				"/>
				<polygon class="st7" points="57.4,52.2 56.8,52.6 56.8,63.1 57.4,62.7 				"/>
			</g>
			<g>
				<polygon class="st6" points="59.4,51.1 49.9,45.6 49.9,46 59,51.3 59.1,61.4 59.4,61.6 				"/>
				<polygon class="st7" points="59,51.3 49.9,46 48.3,47 57.4,52.2 				"/>
				<polygon class="st15" points="59,51.3 57.4,52.2 57.4,62.4 59.1,61.4 				"/>
				<polygon class="st8" points="60,50.7 50.5,45.3 49.9,45.6 59.4,51.1 				"/>
				<polygon class="st7" points="60,50.7 59.4,51.1 59.4,61.6 60,61.3 				"/>
			</g>
			<g>
				<polygon class="st6" points="61.9,49.6 52.5,44.2 52.5,44.5 61.6,49.8 61.6,59.9 62,60.1 				"/>
				<polygon class="st7" points="61.6,49.8 52.5,44.5 50.9,45.5 60,50.7 				"/>
				<polygon class="st15" points="61.6,49.8 60,50.7 60,60.9 61.6,59.9 				"/>
				<polygon class="st8" points="62.6,49.2 53.1,43.8 52.5,44.2 61.9,49.6 				"/>
				<polygon class="st7" points="62.6,49.2 61.9,49.6 62,60.1 62.6,59.8 				"/>
			</g>
			<g>
				<polygon class="st6" points="64.5,48.1 55.1,42.7 55.1,43 64.2,48.3 64.2,58.5 64.5,58.6 				"/>
				<polygon class="st7" points="64.2,48.3 55.1,43 53.4,44 62.6,49.2 				"/>
				<polygon class="st15" points="64.2,48.3 62.6,49.2 62.6,59.4 64.2,58.5 				"/>
				<polygon class="st8" points="65.1,47.8 55.7,42.3 55.1,42.7 64.5,48.1 				"/>
				<polygon class="st7" points="65.1,47.8 64.5,48.1 64.5,58.6 65.1,58.3 				"/>
			</g>
			<g>
				<polygon class="st6" points="67.1,46.6 57.6,41.2 57.6,41.6 66.8,46.8 66.8,57 67.1,57.2 				"/>
				<polygon class="st7" points="66.8,46.8 57.6,41.6 56,42.5 65.1,47.8 				"/>
				<polygon class="st15" points="66.8,46.8 65.1,47.8 65.1,57.9 66.8,57 				"/>
				<polygon class="st8" points="67.7,46.3 58.2,40.8 57.6,41.2 67.1,46.6 				"/>
				<polygon class="st7" points="67.7,46.3 67.1,46.6 67.1,57.2 67.7,56.8 				"/>
			</g>
			<polygon class="st8" points="54.8,53.7 45.4,48.2 44.8,48.6 54.2,54.1 			"/>
			<polygon class="st7" points="54.8,53.7 54.2,54.1 54.2,64.6 54.9,64.2 			"/>
			<g>
				<polygon class="st6" points="69.6,45.1 60.2,39.7 60.2,40.1 69.3,45.3 69.3,55.5 69.7,55.7 				"/>
				<polygon class="st7" points="69.3,45.3 60.2,40.1 58.6,41 67.7,46.3 				"/>
				<polygon class="st15" points="69.3,45.3 67.7,46.3 67.7,56.4 69.3,55.5 				"/>
				<polygon class="st8" points="70.3,44.8 60.8,39.3 60.2,39.7 69.6,45.1 				"/>
				<polygon class="st7" points="70.3,44.8 69.6,45.1 69.7,55.7 70.3,55.3 				"/>
			</g>
			<polygon class="st8" points="53.9,54.2 45.1,49.1 45.1,59 53.9,64.1 			"/>
			<polygon class="st15" points="53.7,54.4 45.3,49.5 45.3,58.9 53.7,63.8 			"/>
			<path class="st8" d="M49.7,51.8l-0.3-0.2c0,0,0,0,0,0.1v9.8l0.3,0.2V51.8z"/>
			<polygon class="st8" points="45.6,52 45.6,52.2 49,54.2 49,54 			"/>
			<polygon class="st7" points="49,54.1 45.7,52.2 45.6,52.2 49,54.2 			"/>
			<polygon class="st8" points="45.6,50.4 45.6,50.7 49,52.7 49,52.4 			"/>
			<polygon class="st7" points="49,52.5 45.7,50.6 45.6,50.7 49,52.7 			"/>
			<polygon class="st8" points="45.6,55.1 45.6,55.4 49,57.3 49,57.1 			"/>
			<polygon class="st7" points="49,57.2 45.7,55.3 45.6,55.4 49,57.3 			"/>
			<polygon class="st8" points="45.6,53.5 45.6,53.8 49,55.8 49,55.5 			"/>
			<polygon class="st7" points="49,55.6 45.7,53.7 45.6,53.8 49,55.8 			"/>
			<polygon class="st8" points="45.6,58.2 45.6,58.5 49,60.5 49,60.2 			"/>
			<polygon class="st7" points="49,60.3 45.7,58.4 45.6,58.5 49,60.5 			"/>
			<polygon class="st8" points="45.6,56.6 45.6,56.9 49,58.9 49,58.6 			"/>
			<polygon class="st7" points="49,58.7 45.7,56.8 45.6,56.9 49,58.9 			"/>
			<polygon class="st8" points="49.9,54.5 49.9,54.7 53.3,56.7 53.3,56.4 			"/>
			<polygon class="st7" points="53.3,56.6 50,54.7 49.9,54.7 53.3,56.7 			"/>
			<polygon class="st8" points="49.9,52.9 49.9,53.2 53.3,55.2 53.3,54.9 			"/>
			<polygon class="st7" points="53.3,55 50,53.1 49.9,53.2 53.3,55.2 			"/>
			<polygon class="st8" points="49.9,57.6 49.9,57.8 53.3,59.8 53.3,59.6 			"/>
			<polygon class="st7" points="53.3,59.7 50,57.8 49.9,57.8 53.3,59.8 			"/>
			<polygon class="st8" points="49.9,56 49.9,56.3 53.3,58.3 53.3,58 			"/>
			<polygon class="st7" points="53.3,58.1 50,56.2 49.9,56.3 53.3,58.3 			"/>
			<polygon class="st8" points="49.9,60.7 49.9,61 53.3,62.9 53.3,62.7 			"/>
			<polygon class="st7" points="53.3,62.8 50,60.9 49.9,61 53.3,62.9 			"/>
			<polygon class="st8" points="49.9,59.1 49.9,59.4 53.3,61.4 53.3,61.1 			"/>
			<polygon class="st7" points="53.3,61.2 50,59.3 49.9,59.4 53.3,61.4 			"/>
			<polygon class="st7" points="49.5,51.7 49.4,51.9 49.4,61.3 49.5,61.1 			"/>
			<polygon class="st5" points="50,57.5 50.1,57.4 50.1,56.6 50,56.7 			"/>
			<polygon class="st3" points="50,56.7 50.1,56.6 49.1,56 49,56.1 			"/>
			<polygon class="st4" points="50,56.7 49,56.1 49,56.9 50,57.5 			"/>
		</g>
		<g>
			<polygon class="st13" points="64.8,31.1 55.3,25.6 54.7,26 54.7,26.4 53.1,27.3 52.7,27.1 52.1,27.5 52.1,27.8 50.5,28.8 
				50.2,28.6 49.6,29 49.6,29.3 47.9,30.3 47.6,30.1 47,30.4 47,30.8 45.4,31.8 45,31.6 44.4,31.9 44.4,32.3 42.8,33.3 42.5,33.1 
				41.9,33.4 41.9,33.8 40.2,34.7 39.9,34.5 39.3,34.9 39.3,45.4 48.7,50.9 48.7,50.9 49.4,50.5 49.4,50.2 51,49.2 51.3,49.4 
				51.9,49 51.9,48.7 53.6,47.7 53.9,47.9 54.5,47.6 54.5,47.2 56.1,46.2 56.5,46.4 57.1,46.1 57.1,45.7 58.7,44.8 59,44.9 
				59.6,44.6 59.6,44.2 61.3,43.3 61.6,43.5 62.2,43.1 62.2,42.7 63.8,41.8 64.2,42 64.8,41.6 			"/>
			<g>
				<polygon class="st16" points="64.1,31.4 54.7,26 54.7,26.4 63.8,31.6 63.8,41.8 64.2,42 				"/>
				<polygon class="st17" points="63.8,31.6 54.7,26.4 53.1,27.3 62.2,32.6 				"/>
				<polygon class="st13" points="63.8,31.6 62.2,32.6 62.2,42.7 63.8,41.8 				"/>
				<polygon class="st18" points="64.7,31.1 55.3,25.6 54.7,26 64.1,31.4 				"/>
				<polygon class="st17" points="64.8,31.1 64.1,31.4 64.2,42 64.8,41.6 				"/>
			</g>
			<polygon class="st16" points="48.7,40.4 39.3,34.9 39.3,45.4 48.7,50.9 			"/>
			<g>
				<polygon class="st16" points="51.3,38.9 41.9,33.4 41.9,33.8 51,39 51,49.2 51.3,49.4 				"/>
				<polygon class="st17" points="51,39 41.9,33.8 40.2,34.7 49.3,40 				"/>
				<polygon class="st13" points="51,39 49.3,40 49.4,50.2 51,49.2 				"/>
				<polygon class="st18" points="51.9,38.5 42.5,33.1 41.9,33.4 51.3,38.9 				"/>
				<polygon class="st17" points="51.9,38.5 51.3,38.9 51.3,49.4 51.9,49 				"/>
			</g>
			<g>
				<polygon class="st16" points="53.9,37.4 44.4,31.9 44.4,32.3 53.5,37.6 53.6,47.7 53.9,47.9 				"/>
				<polygon class="st17" points="53.5,37.6 44.4,32.3 42.8,33.3 51.9,38.5 				"/>
				<polygon class="st13" points="53.5,37.6 51.9,38.5 51.9,48.7 53.6,47.7 				"/>
				<polygon class="st18" points="54.5,37 45,31.6 44.4,31.9 53.9,37.4 				"/>
				<polygon class="st17" points="54.5,37 53.9,37.4 53.9,47.9 54.5,47.6 				"/>
			</g>
			<g>
				<polygon class="st16" points="56.4,35.9 47,30.4 47,30.8 56.1,36.1 56.1,46.2 56.5,46.4 				"/>
				<polygon class="st17" points="56.1,36.1 47,30.8 45.4,31.8 54.5,37 				"/>
				<polygon class="st13" points="56.1,36.1 54.5,37 54.5,47.2 56.1,46.2 				"/>
				<polygon class="st18" points="57,35.5 47.6,30.1 47,30.4 56.4,35.9 				"/>
				<polygon class="st17" points="57,35.5 56.4,35.9 56.5,46.4 57.1,46.1 				"/>
			</g>
			<g>
				<polygon class="st16" points="59,34.4 49.6,29 49.6,29.3 58.7,34.6 58.7,44.8 59,44.9 				"/>
				<polygon class="st17" points="58.7,34.6 49.6,29.3 47.9,30.3 57.1,35.5 				"/>
				<polygon class="st13" points="58.7,34.6 57.1,35.5 57.1,45.7 58.7,44.8 				"/>
				<polygon class="st18" points="59.6,34.1 50.2,28.6 49.6,29 59,34.4 				"/>
				<polygon class="st17" points="59.6,34.1 59,34.4 59,44.9 59.6,44.6 				"/>
			</g>
			<g>
				<polygon class="st16" points="61.6,32.9 52.1,27.5 52.1,27.8 61.2,33.1 61.3,43.3 61.6,43.5 				"/>
				<polygon class="st17" points="61.3,33.1 52.1,27.8 50.5,28.8 59.6,34.1 				"/>
				<polygon class="st13" points="61.3,33.1 59.6,34.1 59.6,44.2 61.3,43.3 				"/>
				<polygon class="st18" points="62.2,32.6 52.7,27.1 52.1,27.5 61.6,32.9 				"/>
				<polygon class="st17" points="62.2,32.6 61.6,32.9 61.6,43.5 62.2,43.1 				"/>
			</g>
			<polygon class="st18" points="49.3,40 39.9,34.5 39.3,34.9 48.7,40.4 			"/>
			<polygon class="st17" points="49.3,40 48.7,40.4 48.7,50.9 49.4,50.5 			"/>
			<polygon class="st18" points="48.4,40.5 39.6,35.4 39.6,45.3 48.4,50.4 			"/>
			<polygon class="st16" points="48.2,40.7 39.8,35.8 39.8,45.2 48.2,50.1 			"/>
			<path class="st18" d="M44.2,38.1l-0.3-0.2c0,0,0,0,0,0.1v9.8l0.3,0.2V38.1z"/>
			<polygon class="st18" points="40.1,38.3 40.1,38.5 43.5,40.5 43.5,40.3 			"/>
			<polygon class="st17" points="43.5,40.4 40.2,38.5 40.1,38.5 43.5,40.5 			"/>
			<polygon class="st18" points="40.1,36.7 40.1,37 43.5,39 43.5,38.7 			"/>
			<polygon class="st17" points="43.5,38.8 40.2,36.9 40.1,37 43.5,39 			"/>
			<polygon class="st18" points="40.1,41.4 40.1,41.7 43.5,43.6 43.5,43.4 			"/>
			<polygon class="st17" points="43.5,43.5 40.2,41.6 40.1,41.7 43.5,43.6 			"/>
			<polygon class="st18" points="40.1,39.8 40.1,40.1 43.5,42.1 43.5,41.8 			"/>
			<polygon class="st17" points="43.5,41.9 40.2,40 40.1,40.1 43.5,42.1 			"/>
			<polygon class="st18" points="40.1,44.5 40.1,44.8 43.5,46.8 43.5,46.5 			"/>
			<polygon class="st17" points="43.5,46.6 40.2,44.7 40.1,44.8 43.5,46.8 			"/>
			<polygon class="st18" points="40.1,42.9 40.1,43.2 43.5,45.2 43.5,44.9 			"/>
			<polygon class="st17" points="43.5,45 40.2,43.1 40.1,43.2 43.5,45.2 			"/>
			<polygon class="st18" points="44.4,40.8 44.4,41 47.8,43 47.8,42.7 			"/>
			<polygon class="st17" points="47.8,42.9 44.5,41 44.4,41 47.8,43 			"/>
			<polygon class="st18" points="44.4,39.2 44.4,39.5 47.8,41.5 47.8,41.2 			"/>
			<polygon class="st17" points="47.8,41.3 44.5,39.4 44.4,39.5 47.8,41.5 			"/>
			<polygon class="st18" points="44.4,43.9 44.4,44.1 47.8,46.1 47.8,45.9 			"/>
			<polygon class="st17" points="47.8,46 44.5,44.1 44.4,44.1 47.8,46.1 			"/>
			<polygon class="st18" points="44.4,42.3 44.4,42.6 47.8,44.6 47.8,44.3 			"/>
			<polygon class="st17" points="47.8,44.4 44.5,42.5 44.4,42.6 47.8,44.6 			"/>
			<polygon class="st18" points="44.4,47 44.4,47.3 47.8,49.3 47.8,49 			"/>
			<polygon class="st17" points="47.8,49.1 44.5,47.2 44.4,47.3 47.8,49.3 			"/>
			<polygon class="st18" points="44.4,45.4 44.4,45.7 47.8,47.7 47.8,47.4 			"/>
			<polygon class="st17" points="47.8,47.5 44.5,45.6 44.4,45.7 47.8,47.7 			"/>
			<polygon class="st17" points="44,38 43.9,38.2 43.9,47.6 44,47.4 			"/>
			<polygon class="st5" points="44.5,43.8 44.6,43.7 44.6,42.9 44.5,43 			"/>
			<polygon class="st3" points="44.5,43 44.6,42.9 43.6,42.3 43.5,42.4 			"/>
			<polygon class="st4" points="44.5,43 43.5,42.4 43.5,43.2 44.5,43.8 			"/>
		</g>
		<path class="st1" d="M59.3,76.4L59.3,76.4l0-0.2l0-0.1l0-0.1l-0.1-0.1L59,75.8L59,75.8l-0.1-0.1l-0.1,0l-0.1,0l-0.1,0l-0.1,0
			l-0.2,0.1l0.1,0l0.1,0l0.1,0l0.1,0l0.1,0.1l0.1,0.1l0.1,0.1l0.1,0.1l0,0.1l0,0.1l0,0.1l0,0.1l0,0.3l0,0.3L59,77.3l-0.1,0.2
			l-0.1,0.2l-0.1,0.2L58.5,78l-0.2,0.1l0.2-0.1l0.2-0.1l0.2-0.1l0.1-0.2l0.1-0.2l0.1-0.2l0.1-0.3l0-0.3L59.3,76.4L59.3,76.4z
			 M56.7,77.9L56.7,77.9L56.7,77.9z M56.5,78L56.5,78L56.5,78z M54.4,73.1L54.4,73.1l-0.1,0l-0.1,0l-0.1,0L54,73.2l0.1,0l0.1,0
			l0.1,0l0.1,0l0.1,0.1l0.1,0.1l0.1,0.1l0.1,0.1l0,0.1l0,0.1l0,0.1l0,0.1l0,0.2l0,0.2l0,0.2l0.1,0.2l0.1,0.2l0.1,0.2l0.1,0.2
			l0.1,0.2l0.1,0.2l0.1,0.2l0.1,0.1l0.1,0.1l0.1,0.1l0.1,0.1l0.1,0.1l0.1,0.1l0.2-0.1l-0.1-0.1L56,76.5l-0.1-0.1l-0.1-0.1l-0.1-0.1
			l-0.1-0.1l-0.1-0.2l-0.1-0.2l-0.1-0.2l-0.1-0.2L55,74.9L55,74.7l-0.1-0.2l0-0.2l0-0.2l0-0.2l0-0.1l0-0.1l0-0.1l0-0.1l-0.1-0.1
			l-0.1-0.1L54.4,73.1L54.4,73.1L54.4,73.1z M56.7,71.5L56.7,71.5l0.1,0.1l0.1,0.1l0.1,0.1l0,0.1l0,0.1l0,0.1l0,0.1v5l0.1,0l0.1,0
			l0.1,0h0.1l0.1,0l0.1,0l0.1,0l0.1,0l-0.2,0.1l-0.1,0.1l-0.1,0l-0.1,0l-0.1,0h-0.1l-0.1,0l-0.1,0l-0.1,0v-5l0-0.1l0-0.1l0-0.1
			l0-0.1l-0.1-0.1l-0.1-0.1l-0.1-0.1l-0.1-0.1l-0.1,0l-0.1,0l-0.1,0l-0.1,0l0.2-0.1l0.1,0l0.1,0L56.7,71.5L56.7,71.5z"/>
		<path class="st19" d="M59.1,76.5c0-0.2-0.2-0.5-0.4-0.7c-0.2-0.1-0.4,0-0.4,0.2c0,0.6-0.2,1-0.5,1.2c-0.2,0.1-0.6,0.2-0.9,0v-5
			c0-0.2-0.2-0.5-0.4-0.7c-0.2-0.1-0.4,0-0.4,0.2v5c-0.4-0.3-0.7-0.7-0.9-1.1c-0.3-0.6-0.5-1.2-0.5-1.8c0-0.2-0.2-0.5-0.4-0.7
			c-0.2-0.1-0.4,0-0.4,0.2c0,0.8,0.3,1.7,0.8,2.6c0.5,0.8,1.1,1.5,1.8,1.9l0,0l0,0l0,0c0.7,0.4,1.4,0.4,1.8,0.2
			C58.8,77.9,59.1,77.3,59.1,76.5z"/>
	</g>
</g>
</svg>
