<?xml version="1.0" encoding="utf-8"?>
<!-- Generator: Adobe Illustrator 24.2.1, SVG Export Plug-In . SVG Version: 6.00 Build 0)  -->
<svg version="1.1" id="Layer_1" xmlns="http://www.w3.org/2000/svg" xmlns:xlink="http://www.w3.org/1999/xlink" x="0px" y="0px"
	 viewBox="0 0 100 100" style="enable-background:new 0 0 100 100;" xml:space="preserve">
<style type="text/css">
	.st0{fill:#75ADDE;}
	.st1{fill:#4780C2;}
	.st2{fill:#9FD9DC;}
	.st3{fill:#34BFC2;}
	.st4{fill:#2B59A8;}
	.st5{fill:#223D7B;}
	.st6{fill:#E1F1FA;}
	.st7{fill:#C2E0F5;}
</style>
<g>
	<path class="st0" d="M92.4,65.7C80.8,90,63,95.3,50,95.3c-14.6,0-28.3-7.3-36.8-19.2c-8.5-12-10.5-27.2-5.6-41.8l0.9-1.9
		C15.3,16.1,32,4.7,50,4.7c14.6,0,28.3,7.3,36.8,19.2C95.3,35.9,97.3,51.1,92.4,65.7z"/>
	<path class="st1" d="M92.4,65.7C80.8,90,63,95.3,50,95.3V4.7c14.6,0,28.3,7.3,36.8,19.2C95.3,35.9,97.3,51.1,92.4,65.7z"/>
	<path class="st2" d="M89.1,22.3C80.1,9.7,65.5,1.9,50,1.9c-19.3,0-37,12.1-44.3,30l-1,2c-5.2,15.8-3.2,30.7,6.1,43.8
		c9,12.6,23.6,20.4,39.1,20.4c19.1,0,36.6-11.9,44.1-29.3l0.8-1.7C100.5,51,98.6,35.7,89.1,22.3z M15.5,74.5
		c-8-11.3-9.9-25.5-5.2-39.2l0.7-1.5c4.6-10.9,13.6-19.4,24.5-23.5C28.6,19.2,24.5,36.5,25,42.1c-0.1,0.2-0.1,0.3-0.1,0.6
		C23.5,61.6,27.7,79.8,35.8,90C27.7,87,20.6,81.6,15.5,74.5z M47.2,91.9c-2-0.7-3.9-2.2-5.8-4.1c-7.9-8.5-12.2-26.5-10.8-44.7v-0.5
		c0-0.2,0.1-0.4,0.1-0.6c1.6-17.5,8.5-31.3,16.6-34V91.9z M52.8,91.9V8.1c8.7,2.9,15.9,18.8,16.8,37.9C70.4,63.5,66,80,58.4,88
		C56.6,89.9,54.7,91.3,52.8,91.9z M89.7,64.8c-6.3,13.3-15.2,21.5-25.5,25.1c7.5-9.5,11.8-26.5,11-44.2c-0.7-15-4.9-27.9-11-35.7
		c8.1,2.9,15.2,8.4,20.3,15.5C92.5,36.8,94.3,51.1,89.7,64.8z"/>
	<path class="st3" d="M89.1,22.3C80.1,9.7,65.5,1.9,50,1.9v96.2c19.1,0,36.6-11.9,44.1-29.3l0.8-1.7C100.5,51,98.6,35.7,89.1,22.3z
		 M52.8,91.9V8.1c8.7,2.9,15.9,18.8,16.8,37.9C70.4,63.5,66,80,58.4,88C56.6,89.9,54.7,91.3,52.8,91.9z M89.7,64.8
		c-6.3,13.3-15.2,21.5-25.5,25.1c7.5-9.5,11.8-26.5,11-44.2c-0.7-15-4.9-27.9-11-35.7c8.1,2.9,15.2,8.4,20.3,15.5
		C92.5,36.8,94.3,51.1,89.7,64.8z"/>
	<path class="st4" d="M89.4,30.3H10.6c-4.7,0-8.6,3.8-8.6,8.5v22.5c0,4.7,4,8.5,8.6,8.5h78.9c4.7,0,8.6-3.8,8.6-8.5V38.7
		C98.1,34.1,94.1,30.3,89.4,30.3z"/>
	<path class="st5" d="M98.1,38.7v22.5c0,4.7-4,8.5-8.6,8.5H50V30.3h39.4C94.1,30.3,98.1,34.1,98.1,38.7z"/>
	<path class="st6" d="M63.8,45.6l-5.6,11.3c-0.5,1-1.5,1.6-2.5,1.6s-2-0.6-2.5-1.6L50,50.7l-3.1,6.2c-1,1.9-4.1,1.9-5.1,0l-5.6-11.3
		c-0.7-1.4-0.1-3,1.3-3.8c1.4-0.7,3-0.1,3.8,1.3l3.1,6.2l3.1-6.2c0.5-1,1.5-1.5,2.5-1.5c1,0,2,0.5,2.5,1.5l3.1,6.2l3.1-6.2
		c0.7-1.4,2.4-2,3.8-1.3C63.9,42.6,64.5,44.3,63.8,45.6z"/>
	<path class="st7" d="M83.8,58.5c-1.1,0-2-0.6-2.5-1.6l-3.1-6.2l-3.1,6.2c-1,1.9-4.1,1.9-5,0l-5.4-10.8c-0.3-0.4-0.6-1-0.6-1.5
		c-0.1-1.6,1-2.9,2.5-3c1.2,0,2.4,0.5,2.9,1.5l3.1,6.2l3.1-6.2c1-1.9,4.1-1.9,5,0l3.1,6.2l3.1-6.2c0.7-1.4,2.4-1.9,3.8-1.3
		c1.4,0.7,2,2.4,1.3,3.8l-5.6,11.3C85.8,57.8,84.9,58.5,83.8,58.5z"/>
	<path class="st6" d="M33.3,41.6c-1.1,0-2.2,0.5-2.7,1.6l-3.1,6.2l-3.1-6.2c-1-2-4-2-5,0l-3.1,6.2l-3.1-6.2
		c-0.7-1.4-2.4-1.9-3.8-1.3c-1.4,0.7-2,2.4-1.3,3.8l5.6,11.3c0.5,1,1.5,1.6,2.5,1.6c1.1,0,2-0.6,2.5-1.6l3.1-6.2l3.1,6.2
		c0.5,1,1.5,1.6,2.5,1.6c1.1,0,2-0.6,2.5-1.6l5.3-10.6c0.4-0.5,0.7-1.1,0.7-1.7C36.1,43,34.8,41.7,33.3,41.6z"/>
	<path class="st7" d="M63.8,45.6l-5.6,11.3c-0.5,1-1.5,1.6-2.5,1.6s-2-0.6-2.5-1.6L50,50.7v-9c1,0,2,0.5,2.5,1.5l3.1,6.2l3.1-6.2
		c0.7-1.4,2.4-2,3.8-1.3C63.9,42.6,64.5,44.3,63.8,45.6z"/>
</g>
</svg>
