<svg xmlns="http://www.w3.org/2000/svg" xmlns:xlink="http://www.w3.org/1999/xlink" viewBox="779 -689 2170 2170"><defs><clipPath id="A"><path d="M3715.36 6489.9c-35.22 195.56-319.4 194.33-403.18 71.66-83.8-122.66 44.94-291.48 207.68-278.12.25.03.45.06.7.07-73.23.4-110.75 52-123 90.13-18.73 74.48 8.44 113.08 19.66 131.12 28.16 51.8 109.1 39.03 125.7 31.3 18.2-8.5 43.7-8.5 31.6 1.23-8.54 23.06 20.64 15.77-4.87 35.2-20.66 17-61.95 35.2-15.8 35.2 81.35-2.42 133.58-80.15 143.28-104.44 9.73-24.3 21.9-35.22 18.23-13.37z"/></clipPath><linearGradient x1="3396.72" y1="6345.47" x2="3542.453" y2="6563.258" spreadMethod="pad" id="B" xlink:href="#M"><stop offset="0" stop-color="#f89c0e"/><stop offset=".11" stop-color="#f89c0e"/><stop offset=".429" stop-color="#fcd205"/><stop offset=".835" stop-color="#f79110"/><stop offset="1" stop-color="#f79110"/></linearGradient><clipPath id="C"><path d="M3096.6 6231.38l-4.27 11.98c-37.63-20.66-57.05-99.6-21.83-153.04-24.3-6.07 49.8-187.03 357.05-202.83 88.17-4.5 177.23 9.48 261.92 34.1-414.56-76.98-568.1 168.5-592.87 309.8z"/></clipPath><linearGradient x1="3276.79" y1="6221.6" x2="3406.689" y2="5933.224" spreadMethod="pad" id="D" xlink:href="#M"><stop offset="0" stop-color="#5ac1ef"/><stop offset=".11" stop-color="#5ac1ef"/><stop offset=".429" stop-color="#73d2f6"/><stop offset=".835" stop-color="#5ac1ef"/><stop offset="1" stop-color="#5ac1ef"/></linearGradient><clipPath id="E"><path d="M3349.8 6093.96c12.17 1.22 12.17 7.28 24.3 2.43 14.6-4.85 142.1-35.2 293.9-3.64 20.98 4.38 41.6 9.7 61.76 15.74-326.53-75.24-490.45 161.77-490.53 295.37-3.88 16.98-6.36 35.1-7.2 54.46-24.3-13.36-31.57-85-65.6-116.6-27.9-41.3-18.2-185.84 183.38-247.77z"/></clipPath><linearGradient x1="3474.79" y1="6139.91" x2="3139.598" y2="6368.229" spreadMethod="pad" id="F" xlink:href="#M"><stop offset="0" stop-color="#8cd024"/><stop offset=".11" stop-color="#8cd024"/><stop offset=".429" stop-color="#99d420"/><stop offset=".835" stop-color="#73c82c"/><stop offset="1" stop-color="#73c82c"/></linearGradient><clipPath id="G"><path d="M3574.52 6537.28c12.1-9.73-13.38-9.73-31.6-1.23-18.2 8.5-114.15 23.08-132.37-48.6-18.24-71.64 162.73-65.58 178.5 6.1 8.5 36.42 12.15 35.22 30.33 29.14 20.64-6.08 43.73-23.08 43.73-64.37 47.36-21.85 19.45-161.53-143.27-174.9-162.74-13.36-291.48 155.46-207.68 278.12 83.8 122.67 367.96 123.9 403.18-71.66 3.67-21.85-8.5-10.92-18.23 13.37-9.7 24.3-61.93 102.02-143.28 104.44-46.15 0-4.86-18.2 15.8-35.2 25.5-19.44-3.67-12.15 4.87-35.2z"/></clipPath><linearGradient x1="3352.69" y1="6405.17" x2="3648.303" y2="6526.23" spreadMethod="pad" id="H" xlink:href="#M"><stop offset="0" stop-color="#ed1c24"/><stop offset=".093" stop-color="#ed1c24"/><stop offset=".374" stop-color="#f36717"/><stop offset="1" stop-color="#ef3220"/></linearGradient><clipPath id="I"><path d="M3092.32 6243.36c-37.63-20.66-57.05-99.6-21.83-153.04-24.3-6.07 49.8-187.03 357.05-202.83 307.25-15.78 477.52 104.34 583.2 205.15 21.85 19.44 33.04 33.68-36.2-8.84-69.2-42.48-100.4-61.1-105.24-52.6-2.42 9.73 41.58 22 33.07 30.52-8.5 8.5-16.97-3.64-8.5 8.5 57.1 36.42 136.3 84.36 177.62 145.1 35.2 51-6.93.02-31.23-18.2-23.1-18.23-8.52 13.35-29.18-3.66-20.63-17-90.14-76.63-246.82-141-156.66-64.38-353.72-70.23-521.34 18.43-111.73 59.53-134.8 127.54-150.62 172.47z"/></clipPath><linearGradient x1="3360.04" y1="5881.23" x2="3509.269" y2="6106.169" spreadMethod="pad" id="J" xlink:href="#M"><stop offset="0" stop-color="#2aabe8"/><stop offset=".093" stop-color="#2aabe8"/><stop offset=".374" stop-color="#4dc6f4"/><stop offset="1" stop-color="#2aabe8"/></linearGradient><clipPath id="K"><path d="M3232.02 6458.32c-24.3-13.36-31.57-85-65.6-116.6-27.9-41.3-18.2-185.84 183.38-247.77 12.17 1.22 12.17 7.28 24.3 2.43 14.6-4.85 142.1-35.2 293.9-3.64 151.82 31.57 200.55 75.82 267.33 121.98 66.77 46.15 55.86 42.5 117.8 77.73 14.6 17 3.67 40.08 4.88 51 24.3 15.8 46.14 31.57 41.27 49.8 2.72 31.98 44.85 96.3 36.35 96.3-30.68-17.55-20.88-93-309.94-226.6-280.83-129.82-581.52-84-593.65 195.34z"/></clipPath><linearGradient x1="3383.46" y1="6113.14" x2="3670.714" y2="6404.618" spreadMethod="pad" id="L" xlink:href="#M"><stop offset="0" stop-color="#59c134"/><stop offset=".093" stop-color="#59c134"/><stop offset=".374" stop-color="#8cd024"/><stop offset="1" stop-color="#59c134"/></linearGradient><linearGradient id="M" gradientUnits="userSpaceOnUse"/></defs><linearGradient x1="779" x2="779.556" y1="1481" y2="1480.169" gradientUnits="userSpaceOnUse"><stop offset=".11" stop-color="#f9a51a"/><stop offset=".211" stop-color="#fcb90f"/><stop offset=".34" stop-color="#fecc04"/><stop offset=".429" stop-color="#ffd300"/><stop offset=".835" stop-color="#f89c1c"/></linearGradient><linearGradient x1="779" x2="779.925" y1="1481" y2="1480.621" gradientUnits="userSpaceOnUse"><stop offset=".093" stop-color="#ec1c24"/><stop offset=".171" stop-color="#ef4022"/><stop offset=".254" stop-color="#f15f21"/><stop offset=".325" stop-color="#f27220"/><stop offset=".374" stop-color="#f37920"/><stop offset="1" stop-color="#ee4023"/></linearGradient><linearGradient x1="779" x2="778.173" y1="1481" y2="1480.437" gradientUnits="userSpaceOnUse"><stop offset=".11" stop-color="#98c93c"/><stop offset=".221" stop-color="#9ecb3b"/><stop offset=".429" stop-color="#a5cd39"/><stop offset=".835" stop-color="#80c242"/></linearGradient><linearGradient x1="779" x2="779.702" y1="1481" y2="1480.288" gradientUnits="userSpaceOnUse"><stop offset=".093" stop-color="#62ba46"/><stop offset=".202" stop-color="#7ec241"/><stop offset=".303" stop-color="#91c73d"/><stop offset=".374" stop-color="#98c93c"/><stop offset="1" stop-color="#62ba46"/></linearGradient><linearGradient x1="779" x2="779.411" y1="1481" y2="1481.912" gradientUnits="userSpaceOnUse"><stop offset=".11" stop-color="#31baec"/><stop offset=".197" stop-color="#41c0ef"/><stop offset=".334" stop-color="#54c7f3"/><stop offset=".429" stop-color="#5bcaf4"/><stop offset=".835" stop-color="#31baec"/></linearGradient><linearGradient x1="779" x2="779.553" y1="1481" y2="1480.167" gradientUnits="userSpaceOnUse"><stop offset=".093" stop-color="#0fa8e0"/><stop offset=".1" stop-color="#10a9e1"/><stop offset=".262" stop-color="#1bbcee"/><stop offset=".374" stop-color="#1fc3f3"/><stop offset="1" stop-color="#00a6e0"/></linearGradient><linearGradient x1="-2463.616" x2="-2168.759" y1="869.307" y2="424.857" gradientUnits="userSpaceOnUse"><stop offset=".093" stop-color="#0fa8e0"/><stop offset=".1" stop-color="#10a9e1"/><stop offset=".262" stop-color="#1bbcee"/><stop offset=".374" stop-color="#1fc3f3"/><stop offset="1" stop-color="#00a6e0"/></linearGradient><linearGradient x1="-2358.145" x2="-1980.318" y1="-350.063" y2="488.716" gradientUnits="userSpaceOnUse"><stop offset=".11" stop-color="#31baec"/><stop offset=".197" stop-color="#41c0ef"/><stop offset=".334" stop-color="#54c7f3"/><stop offset=".429" stop-color="#5bcaf4"/><stop offset=".835" stop-color="#31baec"/></linearGradient><linearGradient x1="-2462.557" x2="-1863.181" y1="500.584" y2="-107.606" gradientUnits="userSpaceOnUse"><stop offset=".093" stop-color="#62ba46"/><stop offset=".202" stop-color="#7ec241"/><stop offset=".303" stop-color="#91c73d"/><stop offset=".374" stop-color="#98c93c"/><stop offset="1" stop-color="#62ba46"/></linearGradient><linearGradient x1="-2123.133" x2="-3007.899" y1="209.645" y2="-393.021" gradientUnits="userSpaceOnUse"><stop offset=".11" stop-color="#98c93c"/><stop offset=".221" stop-color="#9ecb3b"/><stop offset=".429" stop-color="#a5cd39"/><stop offset=".835" stop-color="#80c242"/></linearGradient><linearGradient x1="-2450.323" x2="-1866.319" y1="-65.168" y2="-304.331" gradientUnits="userSpaceOnUse"><stop offset=".093" stop-color="#ec1c24"/><stop offset=".171" stop-color="#ef4022"/><stop offset=".254" stop-color="#f15f21"/><stop offset=".325" stop-color="#f27220"/><stop offset=".374" stop-color="#f37920"/><stop offset="1" stop-color="#ee4023"/></linearGradient><linearGradient x1="-2409.623" x2="-2121.147" y1="-58.024" y2="-489.131" gradientUnits="userSpaceOnUse"><stop offset=".11" stop-color="#f9a51a"/><stop offset=".211" stop-color="#fcb90f"/><stop offset=".34" stop-color="#fecc04"/><stop offset=".429" stop-color="#ffd300"/><stop offset=".835" stop-color="#f89c1c"/></linearGradient><g transform="matrix(54.887253 0 0 54.887144 6965.743148 -2980.531877)"><path d="M-73.702 53.8c-1.083.62-.737 3.28-10.934 7.994-9.185 4.246-18.967 3.16-20.685-4.873-.001-.032-.004-.065-.004-.097-.137-.6-.224-1.24-.254-1.92-.857.47-1.113 3-2.314 4.113-.985 1.457-.642 6.555 6.47 8.74.43-.042.43-.257.857-.085.515.17 5.013 1.242 10.367.128s7.075-2.675 9.43-4.304 1.97-1.5 4.155-2.742c.515-.6.13-1.414.172-1.8.857-.557 1.628-1.114 1.457-1.757.095-1.128 1.582-3.397 1.282-3.397" fill="#26b144"/><path d="M-77.065 64.118c-.815.643-.3-.47-1.03.13s-3.18 2.704-8.707 4.975-12.478 2.478-18.392-.65c-3.634-1.936-4.608-4.124-5.175-5.697l-.138-.387c-1.328.728-2.013 3.513-.77 5.398-.857.215 1.757 6.6 12.596 7.155a22.66 22.66 0 0 0 1.179.03c10.092.2 15.807-3.843 19.395-7.267.772-.685 1.167-1.188-1.275.312s-3.542 2.155-3.713 1.856c-.085-.342 1.467-.776 1.167-1.076s-.6.128-.3-.3c2.014-1.286 4.81-2.976 6.266-5.12 1.242-1.8-.245-.001-1.102.642" fill="#0994dc"/><path d="M-95.425 61.073l.025-.003c5.717-.482 6.7-5.397 5.03-6.167 0-1.457-.814-2.057-1.543-2.27-.64-.214-.77-.256-1.07 1.028-.556 2.528-6.94 2.742-6.297.214.07-.276.178-.51.306-.717l.098-.15a2.22 2.22 0 0 1 .135-.164l.116-.127c.05-.048.104-.092.158-.136l.128-.102c.06-.04.12-.076.183-.113l.132-.078c.08-.04.164-.075.247-.108l.228-.08.203-.06.18-.038.18-.035.185-.024.174-.02.186-.01.168-.005.18.001.16.005.17.01.152.014.153.018.14.02.133.023.13.027.107.024.12.034.073.022a1.31 1.31 0 0 1 .144.055c.642.3 1.542.3 1.114-.043-.3-.814.727-.556-.172-1.243-.728-.6-2.185-1.242-.557-1.242 2.87.086 4.712 2.828 5.055 3.684s.772 1.243.643.472c-1.242-6.9-11.267-6.855-14.223-2.528s1.585 10.282 7.326 9.81" fill="#ed1c24"/><g transform="matrix(.035278 0 0 -.035278 -219.90384 282.43251)"><g clip-path="url(#K)"><path d="M3232.02 6458.32c-24.3-13.36-31.57-85-65.6-116.6-27.9-41.3-18.2-185.84 183.38-247.77 12.17 1.22 12.17 7.28 24.3 2.43 14.6-4.85 142.1-35.2 293.9-3.64 151.82 31.57 200.55 75.82 267.33 121.98 66.77 46.15 55.86 42.5 117.8 77.73 14.6 17 3.67 40.08 4.88 51 24.3 15.8 46.14 31.57 41.27 49.8 2.72 31.98 44.85 96.3 36.35 96.3-30.68-17.55-20.88-93-309.94-226.6-280.83-129.82-581.52-84-593.65 195.34" fill="url(#L)"/></g><g clip-path="url(#I)"><path d="M3092.32 6243.36c-37.63-20.66-57.05-99.6-21.83-153.04-24.3-6.07 49.8-187.03 357.05-202.83 307.25-15.78 477.52 104.34 583.2 205.15 21.85 19.44 33.04 33.68-36.2-8.84-69.2-42.48-100.4-61.1-105.24-52.6-2.42 9.73 41.58 22 33.07 30.52-8.5 8.5-16.97-3.64-8.5 8.5 57.1 36.42 136.3 84.36 177.62 145.1 35.2 51-6.93.02-31.23-18.2-23.1-18.23-8.52 13.35-29.18-3.66-20.63-17-90.14-76.63-246.82-141-156.66-64.38-353.72-70.23-521.34 18.43-111.73 59.53-134.8 127.54-150.62 172.47" fill="url(#J)"/></g><g clip-path="url(#G)"><path d="M3574.52 6537.28c12.1-9.73-13.38-9.73-31.6-1.23-18.2 8.5-114.15 23.08-132.37-48.6-18.24-71.64 162.73-65.58 178.5 6.1 8.5 36.42 12.15 35.22 30.33 29.14 20.64-6.08 43.73-23.08 43.73-64.37 47.36-21.85 19.45-161.53-143.27-174.9-162.74-13.36-291.48 155.46-207.68 278.12 83.8 122.67 367.96 123.9 403.18-71.66 3.67-21.85-8.5-10.92-18.23 13.37-9.7 24.3-61.93 102.02-143.28 104.44-46.15 0-4.86-18.2 15.8-35.2 25.5-19.44-3.67-12.15 4.87-35.2" fill="url(#H)"/></g><g clip-path="url(#E)"><path d="M3349.8 6093.96c12.17 1.22 12.17 7.28 24.3 2.43 14.6-4.85 142.1-35.2 293.9-3.64 20.98 4.38 41.6 9.7 61.76 15.74-326.53-75.24-490.45 161.77-490.53 295.37-3.88 16.98-6.36 35.1-7.2 54.46-24.3-13.36-31.57-85-65.6-116.6-27.9-41.3-18.2-185.84 183.38-247.77" fill="url(#F)"/></g><g clip-path="url(#C)"><path d="M3096.6 6231.38l-4.27 11.98c-37.63-20.66-57.05-99.6-21.83-153.04-24.3-6.07 49.8-187.03 357.05-202.83 88.17-4.5 177.23 9.48 261.92 34.1-414.56-76.98-568.1 168.5-592.87 309.8" fill="url(#D)"/></g><g clip-path="url(#A)"><path d="M3715.36 6489.9c-35.22 195.56-319.4 194.33-403.18 71.66-83.8-122.66 44.94-291.48 207.68-278.12.25.03.45.06.7.07-73.23.4-110.75 52-123 90.13-18.73 74.48 8.44 113.08 19.66 131.12 28.16 51.8 109.1 39.03 125.7 31.3 18.2-8.5 43.7-8.5 31.6 1.23-8.54 23.06 20.64 15.77-4.87 35.2-20.66 17-61.95 35.2-15.8 35.2 81.35-2.42 133.58-80.15 143.28-104.44 9.73-24.3 21.9-35.22 18.23-13.37" fill="url(#B)"/></g></g></g></svg>