<?xml version="1.0" encoding="utf-8"?>
<!-- Generator: Adobe Illustrator 24.2.1, SVG Export Plug-In . SVG Version: 6.00 Build 0)  -->
<svg version="1.1" id="Layer_1" xmlns="http://www.w3.org/2000/svg" xmlns:xlink="http://www.w3.org/1999/xlink" x="0px" y="0px"
	 viewBox="0 0 100 100" style="enable-background:new 0 0 100 100;" xml:space="preserve">
<style type="text/css">
	.st0{fill-rule:evenodd;clip-rule:evenodd;fill:#762B22;}
	.st1{fill-rule:evenodd;clip-rule:evenodd;fill:#C03B2B;}
	.st2{fill-rule:evenodd;clip-rule:evenodd;fill:#E64D3C;}
	.st3{fill-rule:evenodd;clip-rule:evenodd;fill:#2D3F50;}
	.st4{fill-rule:evenodd;clip-rule:evenodd;fill:#3E576F;}
	.st5{fill-rule:evenodd;clip-rule:evenodd;fill:#FFFFFF;}
	.st6{fill-rule:evenodd;clip-rule:evenodd;fill:#943C3C;}
</style>
<g>
	<g>
		<path class="st0" d="M90,10.1l-13.9-8l-0.3-0.2l-0.4-0.1l-0.4,0l-0.4,0l-0.4,0.1L73.7,2l-0.5,0.2l-0.5,0.2l-60.6,35l-0.2,0.1
			l-0.2,0.2l-0.2,0.2l-0.2,0.2L11,38.2l-0.2,0.2l-0.2,0.2l-0.2,0.2l-0.2,0.2L10,39.3l-0.2,0.2l-0.2,0.2l-0.2,0.3l-0.2,0.3l-0.2,0.3
			l-0.2,0.3l-0.2,0.3l-0.1,0.3l-0.1,0.3L8.3,42l-0.1,0.3l-0.1,0.3L8,42.8l-0.1,0.3l-0.1,0.3l-0.1,0.3L7.7,44l-0.1,0.3l0,0.3l0,0.3
			l0,0.3l0,0.3v26v3.8v12l0,0.5l0.1,0.5l0.1,0.4L7.9,89l0.2,0.4l0.2,0.3l0.3,0.3l0.3,0.2c6.3,3.6,10.5,6.1,13.9,8l-0.1-0.1L22.6,98
			l0-0.1l0-0.2V54.1l0-0.3l0-0.3l0-0.3l0-0.3l0.1-0.3l0.1-0.3l0.1-0.3l0.1-0.3l0.1-0.3l0.1-0.3l0.1-0.3l0.1-0.3l0.1-0.3l0.1-0.3
			l0.1-0.3l0.2-0.3l0.2-0.3l0.2-0.3l0.2-0.3l0.2-0.3l0.2-0.2L25,48l0.2-0.2l0.2-0.2l0.2-0.2l0.2-0.2l0.2-0.2l0.2-0.2l0.2-0.2
			l0.2-0.2l0.2-0.2l0.2-0.1l60.6-35l0.5-0.2l0.5-0.2l0.4-0.1l0.4-0.1l0.4,0l0.4,0l0.4,0.1l0.3,0.2L90,10.1z"/>
		<path class="st1" d="M84.1,6.7l-8-4.6l-0.3-0.2l-0.4-0.1l-0.4,0l-0.4,0l-0.4,0.1L73.7,2l-0.5,0.2l-0.5,0.2l-60.6,35l-0.2,0.1
			l-0.2,0.2l-0.2,0.2l-0.2,0.2L11,38.2l-0.2,0.2l-0.2,0.2l-0.2,0.2l-0.2,0.2L10,39.3l-0.2,0.2l-0.2,0.2l-0.2,0.3l-0.2,0.3l-0.2,0.3
			l-0.2,0.3l-0.2,0.3l-0.1,0.3l-0.1,0.3L8.3,42l-0.1,0.3l-0.1,0.3L8,42.8l-0.1,0.3l-0.1,0.3l-0.1,0.3L7.7,44l-0.1,0.3l0,0.3l0,0.3
			l0,0.3l0,0.3v26v3.8v12l0,0.5l0.1,0.5l0.1,0.4L7.9,89l0.2,0.4l0.2,0.3l0.3,0.3l0.3,0.2c6.3,3.6,4.6,2.7,8,4.6l-0.1-0.1l-0.1-0.1
			l0-0.1l0-0.2V50.7l0-0.3l0-0.3l0-0.3l0-0.3l0.1-0.3l0.1-0.3l0.1-0.3l0.1-0.3l0.1-0.3l0.1-0.3l0.1-0.3l0.1-0.3l0.1-0.3l0.1-0.3
			l0.1-0.3l0.2-0.3l0.2-0.3l0.2-0.3l0.2-0.3l0.2-0.3l0.2-0.2l0.2-0.2l0.2-0.2l0.2-0.2l0.2-0.2l0.2-0.2l0.2-0.2l0.2-0.2l0.2-0.2
			l0.2-0.2l0.2-0.2l0.2-0.1L82,7.7l0.5-0.2l0.5-0.2l0.4-0.1l0.4-0.1l0.4,0l0.4,0l0.4,0.1l0.3,0.2L84.1,6.7z"/>
		<path class="st2" d="M92.5,57.4V13.7c0-2.9-2.1-4.1-4.6-2.7l-60.6,35c-2.5,1.5-4.6,5.1-4.6,8v43.6c0,0.5,0.3,0.6,0.7,0.4
			c27.1-15.7,41.3-23.9,68.5-39.5C92.1,58.4,92.5,57.8,92.5,57.4z"/>
		<path class="st1" d="M90,10.1l-3.4-1.9L86.3,8l-0.4-0.1l-0.4,0l-0.4,0l-0.4,0.1l-0.4,0.1l-0.5,0.2l-0.5,0.2l-60.6,35l-0.2,0.1
			l-0.2,0.2L22,44l-0.2,0.2l-0.2,0.2l-0.2,0.2l-0.2,0.2L20.9,45l-0.2,0.2l-0.2,0.2l-0.2,0.2l-0.2,0.2L20,46.2l-0.2,0.3l-0.2,0.3
			L19.4,47l-0.2,0.3l-0.1,0.3L19,47.8l-0.1,0.3l-0.1,0.3l-0.1,0.3l-0.1,0.3l-0.1,0.3l-0.1,0.3l-0.1,0.3l-0.1,0.3l-0.1,0.3l0,0.3
			l0,0.3l0,0.3l0,0.3v26v3.8v12l0,0.5l0.1,0.5l0.1,0.4l0.2,0.4l0.2,0.4l0.2,0.3l0.3,0.3l0.3,0.2c6.3,3.6-0.1,0,3.3,1.9l-0.1-0.1
			L22.6,98l0-0.1l0-0.2V54.1l0-0.3l0-0.3l0-0.3l0-0.3l0.1-0.3l0.1-0.3l0.1-0.3l0.1-0.3l0.1-0.3l0.1-0.3l0.1-0.3l0.1-0.3l0.1-0.3
			l0.1-0.3l0.1-0.3l0.2-0.3l0.2-0.3l0.2-0.3l0.2-0.3l0.2-0.3l0.2-0.2L25,48l0.2-0.2l0.2-0.2l0.2-0.2l0.2-0.2l0.2-0.2l0.2-0.2
			l0.2-0.2l0.2-0.2l0.2-0.2l0.2-0.1l60.6-35l0.5-0.2l0.5-0.2l0.4-0.1l0.4-0.1l0.4,0l0.4,0l0.4,0.1l0.3,0.2L90,10.1z"/>
		<g>
			<polygon class="st3" points="36.4,33.3 33.9,31.8 33.9,26.4 33.9,26.1 33.9,25.8 33.9,25.6 34,25.3 34,25 34.1,24.7 34.2,24.4 
				34.3,24.1 34.4,23.8 34.5,23.5 34.6,23.3 34.7,23 34.8,22.7 35,22.4 35.1,22.1 35.2,21.8 35.4,21.6 35.6,21.3 35.8,21.1 
				35.9,20.8 36.1,20.6 36.3,20.3 36.5,20.1 36.7,19.9 36.9,19.6 37.1,19.4 37.4,19.2 37.6,19 37.8,18.9 38,18.7 38.3,18.5 
				38.5,18.4 55.8,8.4 56.2,8.2 56.7,8 57.1,7.9 57.5,7.8 58,7.8 58.3,7.9 58.7,8 59,8.1 61.5,9.6 61.2,9.4 60.8,9.3 60.5,9.3 
				60.1,9.3 59.6,9.3 59.2,9.5 58.7,9.6 58.3,9.9 41,19.8 40.8,20 40.6,20.1 40.3,20.3 40.1,20.5 39.9,20.7 39.7,20.9 39.4,21.1 
				39.2,21.3 39,21.5 38.8,21.8 38.6,22 38.4,22.2 38.3,22.5 38.1,22.8 37.9,23 37.8,23.3 37.6,23.6 37.5,23.8 37.3,24.1 37.2,24.4 
				37.1,24.7 37,25 36.9,25.3 36.8,25.6 36.7,25.9 36.6,26.1 36.5,26.4 36.5,26.7 36.5,27 36.4,27.3 36.4,27.6 36.4,27.8 			"/>
			<polygon class="st3" points="59.7,19.9 57.1,18.4 57.1,13.4 57.1,13.2 57.1,13.1 57.1,12.9 57,12.7 56.9,12.6 56.8,12.5 
				56.7,12.4 56.6,12.3 59.1,13.7 59.2,13.8 59.4,13.9 59.4,14 59.5,14.2 59.6,14.3 59.6,14.5 59.6,14.7 59.7,14.9 			"/>
		</g>
		<path class="st4" d="M39.7,26.4v5l-3.2,1.9v-5.4c0-2.9,2.1-6.5,4.6-8l17.2-10c2.5-1.5,4.6-0.3,4.6,2.7V18l-3.2,1.9v-5
			c0-1.1-0.8-1.6-1.8-1l-16.5,9.5C40.4,23.9,39.7,25.3,39.7,26.4z"/>
		<polygon class="st5" points="52.5,40 62.9,34 62.9,45.5 72.9,39.8 72.9,51.8 62.9,57.5 62.9,69.1 52.5,75.1 52.5,63.5 42.5,69.3 
			42.5,57.3 52.5,51.5 		"/>
		<path class="st6" d="M18,46.1l-9.1-5.3l-0.2,0.3l-0.1,0.3l-0.1,0.3L8.3,42l-0.1,0.3l-0.1,0.3L8,42.8l-0.1,0.3l-0.1,0.3l-0.1,0.3
			L7.7,44l-0.1,0.3l0,0.3l0,0.3l0,0.3l0,0.3v26v3.8v12l0,0.5l0.1,0.5l0.1,0.4L7.9,89l0.2,0.4l0.2,0.3l0.3,0.3l0.3,0.2
			c6.3,3.6,4.6,2.7,8,4.6l-0.1-0.1l-0.1-0.1l0-0.1l0-0.2V50.7l0-0.3l0-0.3l0-0.3l0-0.3l0.1-0.3l0.1-0.3l0.1-0.3l0.1-0.3l0.1-0.3
			l0.1-0.3l0.1-0.3l0.1-0.3l0.1-0.3l0.1-0.3l0.1-0.3L18,46.1z"/>
		<path class="st6" d="M23.9,49.5L19.4,47l-0.2,0.3l-0.1,0.3L19,47.8l-0.1,0.3l-0.1,0.3l-0.1,0.3l-0.1,0.3l-0.1,0.3l-0.1,0.3
			l-0.1,0.3l-0.1,0.3l-0.1,0.3l0,0.3l0,0.3l0,0.3l0,0.3v26v3.8v12l0,0.5l0.1,0.5l0.1,0.4l0.2,0.4l0.2,0.4l0.2,0.3l0.3,0.3l0.3,0.2
			c6.3,3.6-0.1,0,3.3,1.9l-0.1-0.1L22.6,98l0-0.1l0-0.2V54.1l0-0.3l0-0.3l0-0.3l0-0.3l0.1-0.3l0.1-0.3l0.1-0.3l0.1-0.3l0.1-0.3
			l0.1-0.3l0.1-0.3l0.1-0.3l0.1-0.3l0.1-0.3l0.1-0.3L23.9,49.5z"/>
	</g>
</g>
</svg>
