<?xml version="1.0" encoding="utf-8"?>
<!-- Generator: Adobe Illustrator 24.2.1, SVG Export Plug-In . SVG Version: 6.00 Build 0)  -->
<svg version="1.1" id="Layer_1" xmlns="http://www.w3.org/2000/svg" xmlns:xlink="http://www.w3.org/1999/xlink" x="0px" y="0px"
	 viewBox="0 0 100 100" style="enable-background:new 0 0 100 100;" xml:space="preserve">
<style type="text/css">
	.st0{fill-rule:evenodd;clip-rule:evenodd;fill:#2D3F50;}
	.st1{fill-rule:evenodd;clip-rule:evenodd;fill:#3E576F;}
	.st2{fill-rule:evenodd;clip-rule:evenodd;fill:#CFD2D1;}
	.st3{fill-rule:evenodd;clip-rule:evenodd;fill:#E6EAEA;}
	.st4{fill-rule:evenodd;clip-rule:evenodd;fill:#989898;}
	.st5{fill-rule:evenodd;clip-rule:evenodd;fill:#676666;}
	.st6{fill-rule:evenodd;clip-rule:evenodd;fill:#F9C13B;}
	.st7{fill-rule:evenodd;clip-rule:evenodd;fill:#CF992A;}
	.st8{fill-rule:evenodd;clip-rule:evenodd;fill:#4C89C8;}
	.st9{fill-rule:evenodd;clip-rule:evenodd;fill:#D24331;}
	.st10{fill-rule:evenodd;clip-rule:evenodd;fill:#E64D3C;}
	.st11{fill-rule:evenodd;clip-rule:evenodd;fill:#C03B2B;}
</style>
<g>
	<g>
		<polygon class="st0" points="95.8,66.7 54,42.5 3.3,71.8 45.2,95.9 		"/>
		<polygon class="st0" points="45.2,95.9 3.3,71.8 3.3,74.9 45.2,99 		"/>
		<polygon class="st1" points="45.2,99 95.8,69.8 95.8,66.7 45.2,95.9 		"/>
		<g>
			<polygon class="st2" points="45.1,63.8 15.8,46.9 15.8,72.8 45.1,89.7 			"/>
			<polygon class="st2" points="65,24.2 35.7,7.3 11.5,49.4 40.8,66.3 			"/>
		</g>
		<polygon class="st3" points="85,66.6 85,40.8 89.3,38.4 65,24.2 40.8,66.3 45.1,63.8 45.1,89.7 		"/>
		<polygon class="st4" points="58.2,82.1 71.3,74.6 71.3,49.8 58.2,57.3 		"/>
		<polygon class="st5" points="59.4,81.4 70.1,75.3 70.1,52.1 59.4,58.3 		"/>
		<polygon class="st6" points="59.4,79.8 68.7,74.5 68.7,52.9 59.4,58.3 		"/>
		<g>
			<path class="st7" d="M29.3,56.9l5.6,3.2l0.1,0l0.1,0.1l0.1,0.1l0.1,0.1l0.1,0.1l0.1,0.1l0.1,0.1l0,0.1v0l0,0.1l0,0.1l0,0.1l0,0.1
				l0,0.1l0,0.1l0,0.1l0,0.1v14.3l0,0.1l0,0.1l0,0.1l0,0.1l0,0.1l0,0l0,0l0,0l-0.9,0.5l0,0l0,0l0,0l0-0.1l0-0.1l0-0.1l0-0.1l0-0.1
				V61.8l0-0.1l0-0.1l0-0.1l0-0.1l0-0.1l0-0.1l0-0.1l0-0.1l0,0l0-0.1l-0.1-0.1l-0.1-0.1l-0.1-0.1l-0.1-0.1l-0.1-0.1L34,60.6l-0.1,0
				l-5.6-3.2l-1.2-0.7l-5.6-3.2l-0.1,0l-0.1,0l-0.1,0l-0.1,0h-0.1l-0.1,0l-0.1,0l0,0l0.9-0.5l0,0l0.1,0l0.1,0h0.1l0.1,0l0.1,0l0.1,0
				l0.1,0l5.6,3.2L29.3,56.9L29.3,56.9z M28.3,58.4L28.3,58.4L28.3,58.4L28.3,58.4l-0.1,0.1v13.4l0,0l0,0l0,0l0,0l0,0l0,0l0,0l0,0
				l5.2,3l0,0l0,0l0,0l0,0l0.9-0.5l0,0l0,0l0,0l0,0l-5.2-3l0,0l0,0l0,0l0,0l0,0l0,0l0,0l0,0V58l0,0l0,0l0,0l0,0L28.3,58.4L28.3,58.4
				z M28,71l-5.2-3l0,0l0,0l0,0l0,0l0,0l0,0l0,0l0,0v-8l0,0l0,0l0,0l0,0l-0.9,0.5l0,0l0,0l0,0l0,0v8l0,0l0,0l0,0l0,0l0,0l0,0l0,0
				l0,0l5.2,3l0,0l0,0l0,0l0,0l0.9-0.5L28,71L28,71L28,71L28,71L28,71z M28,61.6l-5.2-3l0,0l0,0l0,0l0,0l0,0l0,0l0,0l0,0v-4l0,0l0,0
				l0,0l0,0l-0.9,0.5l0,0l0,0l0,0l0,0v4l0,0l0,0l0,0l0,0l0,0l0,0l0,0l0,0l5.2,3l0,0l0,0l0,0l0,0l0.9-0.5L28,61.6L28,61.6L28,61.6
				L28,61.6z"/>
			<path class="st8" d="M28.8,58.1v13.4c0,0.1,0.1,0.2,0.2,0.3l5.2,3c0.1,0.1,0.2,0,0.2-0.1V61.3c0-0.1-0.1-0.2-0.2-0.3L29,58
				C28.9,58,28.8,58,28.8,58.1z"/>
			<path class="st8" d="M27.9,71v-8c0-0.1-0.1-0.2-0.2-0.3l-5.2-3c-0.1-0.1-0.2,0-0.2,0.1v8c0,0.1,0.1,0.2,0.2,0.3l5.2,3
				C27.8,71.2,27.9,71.2,27.9,71z"/>
			<path class="st8" d="M27.9,61.7v-4c0-0.1-0.1-0.2-0.2-0.3l-5.2-3c-0.1-0.1-0.2,0-0.2,0.1v4c0,0.1,0.1,0.2,0.2,0.3l5.2,3
				C27.8,61.8,27.9,61.8,27.9,61.7z"/>
			<path class="st6" d="M28.4,57.4l5.6,3.2c0.2,0.1,0.4,0.3,0.5,0.5l0,0c0.1,0.2,0.2,0.4,0.2,0.7V76c0,0.2-0.1,0.4-0.2,0.4
				c-0.1,0.1-0.3,0.1-0.5,0l-5.6-3.2l-1.2-0.7l-5.6-3.2c-0.2-0.1-0.4-0.3-0.5-0.5v0c-0.1-0.2-0.2-0.4-0.2-0.7V53.8
				c0-0.2,0.1-0.4,0.2-0.4c0.1-0.1,0.3-0.1,0.5,0l5.6,3.2L28.4,57.4L28.4,57.4z M27.3,62v-4c0-0.1-0.1-0.2-0.2-0.3l-5.2-3
				c-0.1-0.1-0.2,0-0.2,0.1v4c0,0.1,0.1,0.2,0.2,0.3l5.2,3C27.2,62.2,27.3,62.1,27.3,62L27.3,62z M27.3,71.4v-8
				c0-0.1-0.1-0.2-0.2-0.3l-5.2-3c-0.1-0.1-0.2,0-0.2,0.1v8c0,0.1,0.1,0.2,0.2,0.3l5.2,3C27.2,71.5,27.3,71.5,27.3,71.4L27.3,71.4z
				 M28.2,58.5v13.4c0,0.1,0.1,0.2,0.2,0.3l5.2,3c0.1,0.1,0.2,0,0.2-0.1V61.7c0-0.1-0.1-0.2-0.2-0.3l-5.2-3
				C28.3,58.3,28.2,58.4,28.2,58.5z"/>
		</g>
		<g>
			<polygon class="st9" points="67,25.8 33,6.2 58.2,20.9 92.2,40.5 			"/>
			<polygon class="st10" points="66.9,20.6 32.9,1 3.4,52.5 37.4,72.2 			"/>
		</g>
		<polygon class="st11" points="92.2,40.5 96.7,38 66.9,20.6 37.4,72.2 41.9,69.6 67,25.8 		"/>
	</g>
</g>
</svg>
