<?xml version="1.0" encoding="utf-8"?>
<!-- Generator: Adobe Illustrator 24.2.1, SVG Export Plug-In . SVG Version: 6.00 Build 0)  -->
<svg version="1.1" id="Layer_1" xmlns="http://www.w3.org/2000/svg" xmlns:xlink="http://www.w3.org/1999/xlink" x="0px" y="0px"
	 viewBox="0 0 100 100" style="enable-background:new 0 0 100 100;" xml:space="preserve">
<style type="text/css">
	.st0{fill:#F7BF38;}
	.st1{fill:#FBD47A;}
	.st2{fill:#2569B3;}
	.st3{fill:#56A8DD;}
	.st4{fill:#B52B2A;}
	.st5{fill:#E74D3D;}
</style>
<g>
	<g>
		<path class="st0" d="M64.6,25.2c-9.1,5.3-14.7,15-14.7,25.5v18.6c0,2.2,1.1,4.3,3.2,5.5c4.4,2.5,9.8,2.5,14.2,0l16.2-9.3
			c2.1-1.2,3.2-3.4,3.2-5.5V37.9C86.7,26.6,74.4,19.6,64.6,25.2z"/>
		<path class="st1" d="M83.5,16.4c0,8.4-6.8,15.2-15.2,15.2s-15.2-6.8-15.2-15.2S59.9,1.2,68.3,1.2S83.5,8,83.5,16.4z"/>
		<path class="st2" d="M28,46.1c-9.1,5.3-14.7,15-14.7,25.5v18.6c0,2.2,1.1,4.3,3.2,5.5c4.4,2.5,9.8,2.5,14.2,0l16.2-9.3
			c2.1-1.2,3.2-3.4,3.2-5.5V58.9C50.1,47.5,37.8,40.5,28,46.1z"/>
		<path class="st3" d="M46.9,37.4c0,8.4-6.8,15.2-15.2,15.2s-15.2-6.8-15.2-15.2c0-8.4,6.8-15.2,15.2-15.2S46.9,28.9,46.9,37.4z"/>
		<path class="st4" d="M60.7,47.2C51.6,52.5,46,62.2,46,72.7v18.6c0,2.2,1.1,4.3,3.2,5.5c4.4,2.5,9.8,2.5,14.2,0l16.2-9.3
			c2.1-1.2,3.2-3.4,3.2-5.5V60C82.7,48.7,70.5,41.6,60.7,47.2z"/>
		<path class="st5" d="M79.6,38.5c0,8.4-6.8,15.2-15.2,15.2s-15.2-6.8-15.2-15.2c0-8.4,6.8-15.2,15.2-15.2S79.6,30,79.6,38.5z"/>
	</g>
</g>
</svg>
