<?xml version="1.0" encoding="utf-8"?>
<!-- Generator: Adobe Illustrator 24.2.1, SVG Export Plug-In . SVG Version: 6.00 Build 0)  -->
<svg version="1.1" id="Layer_1" xmlns="http://www.w3.org/2000/svg" xmlns:xlink="http://www.w3.org/1999/xlink" x="0px" y="0px"
	 viewBox="0 0 100 100" style="enable-background:new 0 0 100 100;" xml:space="preserve">
<style type="text/css">
	.st0{fill-rule:evenodd;clip-rule:evenodd;fill:#70913E;}
	.st1{fill-rule:evenodd;clip-rule:evenodd;fill:#89B04D;}
	.st2{fill-rule:evenodd;clip-rule:evenodd;fill:#9BC856;}
</style>
<g>
	<path class="st0" d="M73.5,31l-14.4-8.3l0.1,0.1l0.1,0.1l0,0.1l0,0.2v7l14.4,8.3v-7l0-0.2l0-0.1L73.5,31L73.5,31L73.5,31z
		 M59.3,62.2v7.1l14.4,8.3v-7.1l0-0.2l0-0.1l-0.1-0.1l-0.1-0.1l-14.4-8.3l0.1,0.1l0.1,0.1l0,0.1L59.3,62.2L59.3,62.2z M59.3,48
		l0,0.2l0,0.2l-0.1,0.2l-0.1,0.2L59,48.9L58.9,49l-0.1,0.1l-0.1,0.1L73,57.5l0.1-0.1l0.1-0.1l0.1-0.1l0.1-0.2l0.1-0.2l0.1-0.2l0-0.2
		l0-0.2v-7.1L59.3,41V48L59.3,48z M58.6,10.2L58.6,10.2L58.6,10.2l14.3,8.3l0,0h0l0,0l0.1-0.1l0.1-0.1l0.1-0.1l0.1-0.2l0.1-0.2
		l0.1-0.2l0-0.2l0-0.2v-7.1L59.3,1.9V9l0,0.2l0,0.2l-0.1,0.2l-0.1,0.2L59,9.8L58.9,10l-0.1,0.1L58.6,10.2L58.6,10.2z"/>
	<polygon class="st1" points="91.9,52.9 77.5,44.6 59.3,41 73.7,49.3 	"/>
	<g>
		<path class="st1" d="M73,57.5l-14.4-8.3l-0.5,0.3l-0.5,0.3l-0.5,0.2l-0.5,0.2l-0.5,0.2l-0.5,0.1l-0.4,0.1l-0.4,0.1l-0.4,0.1
			l-0.4,0l-0.4,0l-0.4,0l-0.4-0.1l-0.4-0.1l-0.4-0.1l-0.4-0.2l-0.3-0.2l-2.5-1.4l0.1,0l0.1,0l0.1,0l0.1-0.1l0.1-0.1l0.1-0.1l0.1-0.1
			l0.1-0.2l7.8-13.5l0.4-0.7l0.4-0.7l0.4-0.7l0.4-0.6l0.4-0.6l0.4-0.6l0.4-0.6l0.4-0.6l0.4-0.6l0.4-0.6l0.5-0.6l0.5-0.6l0.5-0.5
			l0.5-0.5l0.5-0.5l0.5-0.5l0.5-0.5l0.5-0.5l0.5-0.5l0.5-0.5l0.5-0.5l0.5-0.4l0.5-0.4l0.5-0.4l0.5-0.4l0.5-0.4l0.5-0.4l0.5-0.4
			l0.5-0.4l0.5-0.4l0.5-0.3l0.6-0.3l-14.4-8.3L58,10.6l-0.5,0.3l-0.5,0.4l-0.5,0.4L55.9,12l-0.5,0.4l-0.5,0.4l-0.5,0.4l-0.5,0.4
			L53.3,14l-0.5,0.4l-0.5,0.5l-0.5,0.5l-0.5,0.5l-0.5,0.5l-0.5,0.5l-0.5,0.5l-0.5,0.5l-0.5,0.5L48.4,19L48,19.5l-0.4,0.6l-0.4,0.6
			l-0.4,0.6l-0.4,0.6l-0.4,0.6l-0.4,0.6l-0.4,0.6l-0.4,0.6L44.1,25l-0.4,0.7l-0.4,0.7l-7.8,13.5l-0.1,0.2l-0.1,0.1l-0.1,0.1L35,40.4
			l-0.1,0.1l-0.1,0l-0.1,0l-0.1,0L26.7,36l-0.4-0.2l-0.4-0.2l-0.4-0.2l-0.4-0.2L24.6,35l-0.4-0.1l-0.4-0.1l-0.4-0.1l-0.4-0.1
			l-0.4-0.1l-0.4,0l-0.5,0l-0.5,0l-0.5,0l-0.5,0l-0.5,0l-0.5,0.1l-0.5,0.1l-0.5,0.1l-0.5,0.1L17.2,35l-0.5,0.1l-0.5,0.2l-0.5,0.2
			l-0.5,0.2l-0.5,0.2l-0.5,0.2l-0.5,0.2L13,36.6l-0.5,0.3l-0.6,0.3l-0.6,0.3l-0.5,0.3L10.6,38l-0.3,0.2L10,38.4l-0.3,0.3l-0.2,0.3
			l-0.2,0.3l-0.2,0.3l-0.2,0.3l14.4,8.3l0.2-0.3l0.2-0.3l0.2-0.3l0.2-0.3l0.3-0.3l0.3-0.2l0.3-0.2l0.3-0.2l0.5-0.3l0.6-0.3l0.6-0.3
			l0.5-0.3l0.5-0.3l0.5-0.2l0.5-0.2l0.5-0.2l0.5-0.2l0.5-0.2l0.5-0.2l0.5-0.1l0.5-0.1l0.5-0.1l0.5-0.1l0.5-0.1l0.5-0.1l0.5,0l0.5,0
			l0.5,0l0.5,0l0.5,0l0.5,0l0.4,0.1l0.4,0.1l0.4,0.1l0.4,0.1l0.4,0.1l0.4,0.2l0.4,0.2l0.4,0.2l0.4,0.2l0.4,0.2l2.6,1.5l13.9,8
			l8.2,4.7l0.4,0.2l0.4,0.2l0.4,0.1l0.4,0.1l0.4,0.1l0.4,0l0.4,0l0.4,0l0.4-0.1l0.4-0.1l0.4-0.1l0.5-0.1l0.5-0.2l0.5-0.2l0.5-0.2
			l0.5-0.3L73,57.5L73,57.5z M10.9,76.8l1-0.6l0.5-0.3l0.5-0.3l0.5-0.3l0.5-0.4l0.5-0.4l0.4-0.4l0.4-0.4l0.4-0.4l0.4-0.4l0.4-0.5
			l0.4-0.5l0.4-0.5l0.4-0.5l0.4-0.5l0.4-0.6l0.3-0.6l0-0.1L26.8,55l0.1-0.2l0.1-0.2l0-0.2l0-0.2l0-0.1l0-0.1l-0.1-0.1l-0.1-0.1
			l14.4,8.3l0.1,0.1l0.1,0.1l0,0.1l0,0.1l0,0.2l0,0.2l-0.1,0.2l-0.1,0.2L33,77.4l0,0.1l-0.3,0.6l-0.4,0.6l-0.4,0.5l-0.4,0.5
			l-0.4,0.5l-0.4,0.5l-0.4,0.5l-0.4,0.4L29.5,82l-0.4,0.4l-0.4,0.4l-0.5,0.4l-0.5,0.4l-0.5,0.3l-0.5,0.3l-0.5,0.3l-1,0.6L25,85.3
			l-0.3,0.2l-0.3,0.2L24.2,86l-0.2,0.3l-0.2,0.3l-0.2,0.3l-0.2,0.3L8.9,78.9l0.2-0.3l0.2-0.3L9.5,78l0.2-0.3l0.3-0.3l0.3-0.2
			l0.3-0.2L10.9,76.8L10.9,76.8z M34.5,40.5l8.9,5.1l0.1,0.1L34.5,40.5L34.5,40.5z M43.4,45.6l0.3,0.2l-0.5-0.3L43.4,45.6z"/>
	</g>
	<polygon class="st1" points="91.9,13.9 77.5,5.6 59.3,1.9 73.7,10.2 	"/>
	<polygon class="st0" points="23.3,48.2 8.9,39.9 8.9,39.9 8.7,40.2 8.6,40.5 8.4,40.9 8.3,41.2 8.2,41.6 8.1,41.9 8.1,42.3 
		8.1,42.6 8.1,48.7 8.1,49.1 8.1,49.4 8.2,49.6 8.3,49.9 8.4,50.1 8.6,50.3 8.7,50.4 8.9,50.5 23.3,58.8 23.1,58.7 22.9,58.6 
		22.8,58.4 22.7,58.2 22.6,57.9 22.5,57.7 22.5,57.4 22.5,57 22.5,50.9 22.5,50.6 22.5,50.2 22.6,49.9 22.7,49.5 22.8,49.2 
		22.9,48.8 23.1,48.5 23.3,48.2 	"/>
	<polygon class="st0" points="23.3,87.2 8.9,78.9 8.9,78.9 8.7,79.2 8.6,79.6 8.4,79.9 8.3,80.3 8.2,80.6 8.1,81 8.1,81.3 8.1,81.6 
		8.1,87.8 8.1,88.1 8.1,88.4 8.2,88.7 8.3,88.9 8.4,89.1 8.6,89.3 8.7,89.5 8.9,89.6 23.3,97.9 23.1,97.8 22.9,97.6 22.8,97.4 
		22.7,97.2 22.6,97 22.5,96.7 22.5,96.4 22.5,96.1 22.5,89.9 22.5,89.6 22.5,89.3 22.6,88.9 22.7,88.6 22.8,88.2 22.9,87.9 
		23.1,87.5 23.3,87.2 	"/>
	<path class="st2" d="M41.1,81.2l7.8-13.5c0.3-0.5,0.7-0.7,1-0.6l7.8,4.5c2.1,1.2,4.4,1.7,7,1.5c2.6-0.3,5.3-1.2,8.3-3v0l0,0
		c0.4-0.2,0.7,0,0.7,0.4v7.1l18.2-24.7l-18.2-3.6v7.1c0,0.4-0.3,1-0.7,1.2l-0.5,0.3c-1.3,0.8-2.5,1.2-3.6,1.3
		c-1.1,0.1-2.2-0.1-3.1-0.6l-8.2-4.7c-0.3-0.2-0.3-0.7,0-1.1l8.2-14.2c0.9-1.6,1.9-3,3.1-4.2c1.1-1.2,2.3-2.2,3.6-2.9l0.5-0.3
		c0.4-0.2,0.7,0,0.7,0.4v7l18.2-24.7l-18.2-3.6v7.1c0,0.4-0.3,1-0.7,1.2l0,0v0l0,0c-3,1.7-5.7,3.9-8.3,6.6c-2.5,2.7-4.9,5.9-7,9.5
		l-7.8,13.5c-0.3,0.5-0.7,0.7-1,0.6l-7.8-4.5c-2.1-1.2-4.4-1.7-7-1.5c-2.5,0.3-5.3,1.2-8.3,3l-0.5,0.3c-0.8,0.4-1.5,1.2-2,2.1l0,0
		c-0.5,0.9-0.8,1.9-0.8,2.7V57c0,0.9,0.3,1.5,0.8,1.8c0.5,0.3,1.2,0.3,2-0.2l1-0.6c1.3-0.8,2.5-1.2,3.6-1.3l0,0
		c1.1-0.1,2.1,0.1,3,0.6l8.2,4.7c0.3,0.2,0.3,0.7,0,1.1L33,77.4l0,0.1c-0.9,1.6-1.9,2.9-3,4.1c-1.1,1.2-2.3,2.2-3.6,2.9l-1,0.6
		c-0.8,0.4-1.5,1.2-2,2.1l0,0c-0.5,0.9-0.8,1.9-0.8,2.7v6.1c0,0.9,0.3,1.5,0.8,1.8c0.5,0.3,1.2,0.3,2-0.2l0.5-0.3
		c3-1.7,5.8-3.9,8.3-6.6C36.6,88.1,39,84.9,41.1,81.2z"/>
</g>
</svg>
