<?xml version="1.0" encoding="utf-8"?>
<!-- Generator: Adobe Illustrator 24.2.1, SVG Export Plug-In . SVG Version: 6.00 Build 0)  -->
<svg version="1.1" id="Layer_1" xmlns="http://www.w3.org/2000/svg" xmlns:xlink="http://www.w3.org/1999/xlink" x="0px" y="0px"
	 viewBox="0 0 100 100" style="enable-background:new 0 0 100 100;" xml:space="preserve">
<style type="text/css">
	.st0{fill:url(#SVGID_1_);}
	.st1{fill:url(#SVGID_2_);}
	.st2{fill:#458FCD;}
	.st3{fill:#FFC53A;}
	.st4{fill:#51BFA3;}
	.st5{fill:#F6E042;}
	.st6{fill:#F04A5A;}
	.st7{fill:#80D0F5;}
	.st8{fill:#F37985;}
</style>
<g>
	<g>
		
			<linearGradient id="SVGID_1_" gradientUnits="userSpaceOnUse" x1="31.5859" y1="49.5888" x2="35.7266" y2="56.7606" gradientTransform="matrix(1 0 0 -1 0 102)">
			<stop  offset="0" style="stop-color:#C6BADC"/>
			<stop  offset="1" style="stop-color:#E9E4F2"/>
		</linearGradient>
		<path class="st0" d="M82.7,3.1l-2.3-1.3l0,0c-0.4-0.3-0.9-0.3-1.4,0L18.6,36.6c-1.1,0.6-2,2.4-2,3.9v54.8c0,0.9,0.3,1.5,0.8,1.7
			l0,0l2.4,1.4L82.7,3.1z"/>
	</g>
	<g>
		
			<linearGradient id="SVGID_2_" gradientUnits="userSpaceOnUse" x1="20.0396" y1="68.3911" x2="20.0396" y2="147.6254" gradientTransform="matrix(0.866 -0.5 0 -1.155 33.871 208.909)">
			<stop  offset="0" style="stop-color:#C6BADC"/>
			<stop  offset="0.4836" style="stop-color:#E9E4F2"/>
			<stop  offset="1" style="stop-color:#F2EFF7"/>
		</linearGradient>
		<path class="st1" d="M81.4,3.2L21.1,38c-1.1,0.6-2,2.4-2,3.9v54.8c0,1.5,0.9,2.2,2,1.5l60.3-34.8c1.1-0.6,2-2.4,2-3.9V4.7
			C83.4,3.2,82.5,2.5,81.4,3.2z"/>
		<g>
			<path class="st2" d="M52.5,27.6l4.2-2.4c0.5-0.3,1,0,1,0.7v4.8c0,0.7-0.4,1.6-1,1.9l-4.2,2.4c-0.5,0.3-1,0-1-0.7v-4.8
				C51.5,28.8,52,27.9,52.5,27.6z"/>
			<path class="st3" d="M59.4,23.7l4.2-2.4c0.5-0.3,1,0,1,0.7v4.8c0,0.7-0.4,1.6-1,1.9l-4.2,2.4c-0.5,0.3-1,0-1-0.7v-4.8
				C58.4,24.8,58.8,24,59.4,23.7z"/>
			<g>
				<path class="st4" d="M25.2,43.4l4.2-2.4c0.5-0.3,1,0,1,0.7v4.8c0,0.7-0.4,1.6-1,1.9l-4.2,2.4c-0.5,0.3-1,0-1-0.7v-4.8
					C24.2,44.6,24.7,43.7,25.2,43.4z"/>
				<path class="st4" d="M25.2,51.7l4.2-2.4c0.5-0.3,1,0,1,0.7v4.8c0,0.7-0.4,1.6-1,1.9l-4.2,2.4c-0.5,0.3-1,0-1-0.7v-4.8
					C24.2,52.9,24.7,52,25.2,51.7z"/>
				<path class="st4" d="M25.2,60l4.2-2.4c0.5-0.3,1,0,1,0.7v4.8c0,0.7-0.4,1.6-1,1.9l-4.2,2.4c-0.5,0.3-1,0-1-0.7v-4.8
					C24.2,61.2,24.7,60.3,25.2,60z"/>
				<path class="st4" d="M25.2,68.3l4.2-2.4c0.5-0.3,1,0,1,0.7v4.8c0,0.7-0.4,1.6-1,1.9l-4.2,2.4c-0.5,0.3-1,0-1-0.7v-4.8
					C24.2,69.5,24.7,68.6,25.2,68.3z"/>
			</g>
			<g>
				<path class="st2" d="M32,47.8l4.2-2.4c0.5-0.3,1,0,1,0.7v4.8c0,0.7-0.4,1.6-1,1.9L32,55.2c-0.5,0.3-1,0-1-0.7v-4.8
					C31.1,48.9,31.5,48.1,32,47.8L32,47.8z"/>
				<path class="st2" d="M32,56.1l4.2-2.4c0.5-0.3,1,0,1,0.7v4.8c0,0.7-0.4,1.6-1,1.9L32,63.5c-0.5,0.3-1,0-1-0.7v-4.8
					C31.1,57.2,31.5,56.4,32,56.1z"/>
				<path class="st2" d="M32,64.4l4.2-2.4c0.5-0.3,1,0,1,0.7v4.8c0,0.7-0.4,1.6-1,1.9L32,71.8c-0.5,0.3-1,0-1-0.7v-4.8
					C31.1,65.5,31.5,64.7,32,64.4z"/>
			</g>
			<path class="st4" d="M52.5,35.9l4.2-2.4c0.5-0.3,1,0,1,0.7v4.8c0,0.7-0.4,1.6-1,1.9l-4.2,2.4c-0.5,0.3-1,0-1-0.7v-4.8
				C51.5,37.1,52,36.3,52.5,35.9z"/>
			<path class="st2" d="M59.4,32l4.2-2.4c0.5-0.3,1,0,1,0.7v4.8c0,0.7-0.4,1.6-1,1.9l-4.2,2.4c-0.5,0.3-1,0-1-0.7v-4.8
				C58.4,33.1,58.8,32.3,59.4,32z"/>
			<path class="st5" d="M52.5,44.3l4.2-2.4c0.5-0.3,1,0,1,0.7v4.8c0,0.7-0.4,1.6-1,1.9l-4.2,2.4c-0.5,0.3-1,0-1-0.7v-4.8
				C51.5,45.4,52,44.6,52.5,44.3z"/>
			<path class="st5" d="M52.5,52.6l4.2-2.4c0.5-0.3,1,0,1,0.7v4.8c0,0.7-0.4,1.6-1,1.9L52.5,60c-0.5,0.3-1,0-1-0.7v-4.8
				C51.5,53.7,52,52.9,52.5,52.6z"/>
			<path class="st4" d="M59.4,40.3l4.2-2.4c0.5-0.3,1,0,1,0.7v4.8c0,0.7-0.4,1.6-1,1.9l-4.2,2.4c-0.5,0.3-1,0-1-0.7v-4.8
				C58.4,41.5,58.8,40.6,59.4,40.3z"/>
			<path class="st5" d="M59.4,48.6l4.2-2.4c0.5-0.3,1,0,1,0.7v4.8c0,0.7-0.4,1.6-1,1.9L59.4,56c-0.5,0.3-1,0-1-0.7v-4.8
				C58.4,49.8,58.8,48.9,59.4,48.6L59.4,48.6z"/>
			<path class="st3" d="M66.2,19.8l4.2-2.4c0.5-0.3,1,0,1,0.7v4.8c0,0.7-0.4,1.6-1,1.9l-4.2,2.4c-0.5,0.3-1,0-1-0.7v-4.8
				C65.2,20.9,65.6,20.1,66.2,19.8z"/>
			<path class="st6" d="M73,15.8l4.2-2.4c0.5-0.3,1,0,1,0.7v4.8c0,0.7-0.4,1.6-1,1.9L73,23.2c-0.5,0.3-1,0-1-0.7v-4.8
				C72,17,72.5,16.1,73,15.8z"/>
			<path class="st3" d="M66.2,28.1l4.2-2.4c0.5-0.3,1,0,1,0.7v4.8c0,0.7-0.4,1.6-1,1.9l-4.2,2.4c-0.5,0.3-1,0-1-0.7v-4.8
				C65.2,29.2,65.6,28.4,66.2,28.1z"/>
			<path class="st6" d="M73,24.1l4.2-2.4c0.5-0.3,1,0,1,0.7v4.8c0,0.7-0.4,1.6-1,1.9L73,31.5c-0.5,0.3-1,0-1-0.7V26
				C72,25.3,72.5,24.4,73,24.1z"/>
			<path class="st2" d="M66.2,36.4l4.2-2.4c0.5-0.3,1,0,1,0.7v4.8c0,0.7-0.4,1.6-1,1.9l-4.2,2.4c-0.5,0.3-1,0-1-0.7v-4.8
				C65.2,37.5,65.6,36.7,66.2,36.4z"/>
			<path class="st4" d="M66.2,44.7l4.2-2.4c0.5-0.3,1,0,1,0.7v4.8c0,0.7-0.4,1.6-1,1.9l-4.2,2.4c-0.5,0.3-1,0-1-0.7v-4.8
				C65.2,45.8,65.6,45,66.2,44.7z"/>
			<path class="st6" d="M73,32.4l4.2-2.4c0.5-0.3,1,0,1,0.7v4.8c0,0.7-0.4,1.6-1,1.9L73,39.8c-0.5,0.3-1,0-1-0.7v-4.8
				C72,33.6,72.5,32.7,73,32.4z"/>
			<path class="st6" d="M73,40.7l4.2-2.4c0.5-0.3,1,0,1,0.7v4.8c0,0.7-0.4,1.6-1,1.9L73,48.1c-0.5,0.3-1,0-1-0.7v-4.8
				C72,41.9,72.5,41,73,40.7z"/>
			<path class="st7" d="M38.9,52.1l4.2-2.4c0.5-0.3,1,0,1,0.7v4.8c0,0.7-0.4,1.6-1,1.9l-4.2,2.4c-0.5,0.3-1,0-1-0.7V54
				C37.9,53.3,38.3,52.5,38.9,52.1z"/>
			<path class="st7" d="M38.9,60.4l4.2-2.4c0.5-0.3,1,0,1,0.7v4.8c0,0.7-0.4,1.6-1,1.9l-4.2,2.4c-0.5,0.3-1,0-1-0.7v-4.8
				C37.9,61.6,38.3,60.8,38.9,60.4z"/>
			<g>
				<path class="st8" d="M45.7,48.2l4.2-2.4c0.5-0.3,1,0,1,0.7v4.8c0,0.7-0.4,1.6-1,1.9l-4.2,2.4c-0.5,0.3-1,0-1-0.7v-4.8
					C44.7,49.3,45.2,48.5,45.7,48.2z"/>
				<path class="st8" d="M45.7,56.5l4.2-2.4c0.5-0.3,1,0,1,0.7v4.8c0,0.7-0.4,1.6-1,1.9l-4.2,2.4c-0.5,0.3-1,0-1-0.7v-4.8
					C44.7,57.6,45.2,56.8,45.7,56.5z"/>
				<path class="st8" d="M25.2,80.6l4.2-2.4c0.5-0.3,1,0,1,0.7v4.8c0,0.7-0.4,1.6-1,1.9l-4.2,2.4c-0.5,0.3-1,0-1-0.7v-4.8
					C24.2,81.8,24.7,80.9,25.2,80.6z"/>
				<path class="st8" d="M32,76.7l4.2-2.4c0.5-0.3,1,0,1,0.7v4.8c0,0.7-0.4,1.6-1,1.9L32,84.1c-0.5,0.3-1,0-1-0.7v-4.8
					C31.1,77.8,31.5,77,32,76.7z"/>
				<path class="st8" d="M52.5,64.9l4.2-2.4c0.5-0.3,1,0,1,0.7V68c0,0.7-0.4,1.6-1,1.9l-4.2,2.4c-0.5,0.3-1,0-1-0.7v-4.8
					C51.5,66,52,65.2,52.5,64.9z"/>
				<path class="st8" d="M59.4,60.9l4.2-2.4c0.5-0.3,1,0,1,0.7V64c0,0.7-0.4,1.6-1,1.9l-4.2,2.4c-0.5,0.3-1,0-1-0.7v-4.8
					C58.4,62.1,58.8,61.2,59.4,60.9z"/>
				<path class="st8" d="M66.2,57l4.2-2.4c0.5-0.3,1,0,1,0.7v4.8c0,0.7-0.4,1.6-1,1.9l-4.2,2.4c-0.5,0.3-1,0-1-0.7v-4.8
					C65.2,58.1,65.6,57.3,66.2,57z"/>
				<path class="st8" d="M73,53l4.2-2.4c0.5-0.3,1,0,1,0.7v4.8c0,0.7-0.4,1.6-1,1.9L73,60.4c-0.5,0.3-1,0-1-0.7v-4.8
					C72,54.2,72.5,53.3,73,53z"/>
				<path class="st8" d="M38.9,72.8l4.2-2.4c0.5-0.3,1,0,1,0.7v4.8c0,0.7-0.4,1.6-1,1.9l-4.2,2.4c-0.5,0.3-1,0-1-0.7v-4.8
					C37.9,73.9,38.3,73.1,38.9,72.8z"/>
				<path class="st8" d="M45.7,68.8l4.2-2.4c0.5-0.3,1,0,1,0.7v4.8c0,0.7-0.4,1.6-1,1.9l-4.2,2.4c-0.5,0.3-1,0-1-0.7v-4.8
					C44.7,70,45.2,69.1,45.7,68.8z"/>
			</g>
		</g>
	</g>
</g>
</svg>
