<?xml version="1.0" encoding="utf-8"?>
<!-- Generator: Adobe Illustrator 24.2.1, SVG Export Plug-In . SVG Version: 6.00 Build 0)  -->
<svg version="1.1" id="Layer_1" xmlns="http://www.w3.org/2000/svg" xmlns:xlink="http://www.w3.org/1999/xlink" x="0px" y="0px"
	 viewBox="0 0 100 100" style="enable-background:new 0 0 100 100;" xml:space="preserve">
<style type="text/css">
	.st0{fill-rule:evenodd;clip-rule:evenodd;fill:#17A186;}
	.st1{fill-rule:evenodd;clip-rule:evenodd;fill:#DCB14B;}
	.st2{fill-rule:evenodd;clip-rule:evenodd;fill:#FBCE4D;}
	.st3{fill-rule:evenodd;clip-rule:evenodd;fill:#9B9C9C;}
	.st4{fill-rule:evenodd;clip-rule:evenodd;fill:#E6EAEA;}
	.st5{fill-rule:evenodd;clip-rule:evenodd;fill:#28AE60;}
	.st6{fill-rule:evenodd;clip-rule:evenodd;fill:#DFE7ED;}
	.st7{fill-rule:evenodd;clip-rule:evenodd;fill:#CCCCD3;}
	.st8{fill-rule:evenodd;clip-rule:evenodd;fill:#3E576F;}
	.st9{fill-rule:evenodd;clip-rule:evenodd;fill:#2D3F50;}
	.st10{fill-rule:evenodd;clip-rule:evenodd;fill:#4A6783;}
</style>
<g>
	<path class="st0" d="M21.9,80.4"/>
	<path class="st0" d="M21.9,80.4"/>
	<path class="st0" d="M21.9,80.4"/>
	<path class="st0" d="M21.9,80.4"/>
	<path class="st0" d="M26.3,77.9"/>
	<path class="st0" d="M26.3,77.9"/>
	<path class="st0" d="M26.3,77.9"/>
	<path class="st0" d="M26.3,77.9"/>
	<path class="st0" d="M21.9,80.4"/>
	<path class="st0" d="M21.9,80.4"/>
	<path class="st0" d="M21.9,80.4"/>
	<path class="st0" d="M21.9,80.4"/>
	<path class="st1" d="M19.2,99.1l-7.4-4.3l-0.1-0.1l-0.1-0.2l0-0.3v-1.5l0-0.2l0-0.2l0.1-0.2l0.1-0.2l0.1-0.2l0.1-0.2l0.1-0.1
		l0.2-0.1l2.1-1.2C35.7,78,56.9,65.8,78.1,53.5l2.1-1.2l0.2-0.1l0.1,0l0.1,0l0.1,0l7.4,4.3l-0.1,0l-0.1,0l-0.1,0l-0.2,0.1l-2.1,1.2
		L83.4,59l-2.1,1.2l-2.1,1.2C60.8,72.1,42.4,82.7,24,93.3l-2.1,1.2l-2.1,1.2l-0.2,0.1L19.5,96l-0.1,0.2l-0.1,0.2l-0.1,0.2l-0.1,0.2
		l0,0.2l0,0.2v1.5l0,0.3l0.1,0.2L19.2,99.1z"/>
	<path class="st2" d="M20.3,98.7L20.3,98.7L20.3,98.7L20.3,98.7l-0.1,0.1l0,0c-0.5,0.3-1.1,0.6-1.1-0.2v-1.5c0-0.5,0.3-1.1,0.8-1.3
		C42.4,82.7,65,69.7,87.7,56.6c0.4-0.2,0.8,0,0.8,0.4v1.5c0,0.8-0.6,1.2-1.1,1.5l0,0l0,0l0,0l0,0l0,0L20.3,98.7z"/>
	<polygon class="st3" points="13,91.1 13,91.1 13,39.3 14.7,40.3 14.7,92.1 	"/>
	<polygon class="st3" points="14.7,40.3 13,39.3 79.6,0.9 81.3,1.8 	"/>
	<path class="st4" d="M81.3,1.8c0,21.7,0,30,0,51.8L14.7,92.1V40.3L81.3,1.8z"/>
	<path class="st5" d="M78.5,6.7l-61,35.2v45.3l61-35.2C78.5,36.9,78.5,21.8,78.5,6.7z"/>
	<path class="st4" d="M33.1,54.8l0.3,2.2l-10.2,7.8l-0.4-2.9c-0.2-1.5-0.1-2.7,0.3-3.6c0.4-0.9,1.6-2.2,3.5-4.1
		c1.5-1.5,2.4-2.5,2.7-3c0.3-0.5,0.3-1.2,0.1-2.3c-0.1-1-0.4-1.5-0.7-1.6c-0.3,0-1.1,0.4-2.2,1.2c-1.1,0.9-1.8,1.5-2.1,2
		c-0.3,0.5-0.3,1.3-0.2,2.3l0.1,0.6l-2.5,1.9l-0.1-0.6c-0.3-1.8-0.1-3.3,0.5-4.4c0.6-1.2,1.9-2.5,3.9-4c2-1.5,3.3-2.2,4.1-2.1
		c0.8,0.1,1.3,1,1.6,2.8c0.3,1.7,0.2,3-0.3,4c-0.4,1-1.6,2.4-3.5,4.2c-1.5,1.5-2.4,2.5-2.7,2.9c-0.2,0.4-0.3,1.1-0.1,2.1l0.1,0.4
		L33.1,54.8z"/>
	<path class="st4" d="M55.7,37.5l0.3,2.2l-10.2,7.8l-0.4-2.9c-0.2-1.5-0.1-2.7,0.3-3.6c0.4-0.9,1.6-2.2,3.5-4.1
		c1.5-1.5,2.4-2.5,2.7-3c0.3-0.5,0.3-1.2,0.1-2.3c-0.1-1-0.4-1.5-0.7-1.6c-0.3,0-1.1,0.4-2.2,1.2c-1.1,0.9-1.8,1.5-2.1,2
		c-0.3,0.5-0.3,1.3-0.2,2.3l0.1,0.6l-2.5,1.9l-0.1-0.6c-0.3-1.8-0.1-3.3,0.5-4.4c0.6-1.2,1.9-2.5,3.9-4c2-1.5,3.3-2.2,4.1-2.1
		c0.8,0.1,1.3,1,1.6,2.8c0.3,1.7,0.2,3-0.3,4c-0.4,1-1.6,2.4-3.5,4.2c-1.5,1.5-2.4,2.5-2.7,2.9C47.9,41.3,47.8,42,48,43l0.1,0.4
		L55.7,37.5z"/>
	<path class="st4" d="M43,45.2l-1.1,2.4c-0.1,0.2-0.3,0.4-0.5,0.4L39,47.3l-1.8,3.8c-0.1,0.2-0.3,0.4-0.5,0.4l-1.5-0.4
		c-0.1,0-0.2-0.3-0.1-0.5l1.7-3.8l-2.4-0.6c-0.1,0-0.2-0.3-0.1-0.5l1.1-2.3c0.1-0.2,0.3-0.4,0.5-0.4l2.4,0.6l1.8-3.8
		c0.1-0.2,0.3-0.4,0.5-0.4l1.5,0.4c0.1,0,0.2,0.3,0.1,0.5l-1.8,3.8l2.4,0.6C43.1,44.8,43.1,45,43,45.2z"/>
	<path class="st4" d="M57.5,34.7c-0.2,0.1-0.4,0.1-0.4-0.1l-0.3-1.9c0-0.2,0.1-0.5,0.3-0.6c4.6-3.5,3.8-2.9,8.4-6.4
		c0.2-0.1,0.4-0.1,0.4,0.1l0.3,1.9c0,0.2-0.1,0.5-0.3,0.6C61.3,31.8,62.1,31.2,57.5,34.7z"/>
	<path class="st4" d="M56.9,30.7c-0.2,0.1-0.4,0.1-0.4-0.1l-0.3-1.9c0-0.2,0.1-0.5,0.3-0.6c4.6-3.5,3.8-2.9,8.4-6.4
		c0.2-0.1,0.4-0.1,0.4,0.1l0.3,1.9c0,0.2-0.1,0.5-0.3,0.6C60.7,27.8,61.5,27.2,56.9,30.7z"/>
	<path class="st4" d="M30.9,74.3c-0.2,0.1-0.4,0.1-0.4-0.1l-0.3-1.9c0-0.2,0.1-0.5,0.3-0.6c4.6-3.5,3.8-2.9,8.4-6.4
		c0.2-0.1,0.4-0.1,0.4,0.1l0.3,1.9c0,0.2-0.1,0.5-0.3,0.6C34.7,71.5,35.5,70.9,30.9,74.3z"/>
	<path class="st4" d="M30.3,70.3c-0.2,0.1-0.4,0.1-0.4-0.1l-0.3-1.9c0-0.2,0.1-0.5,0.3-0.6c4.6-3.5,3.8-2.9,8.4-6.4
		c0.2-0.1,0.4-0.1,0.4,0.1l0.3,1.9c0,0.2-0.1,0.5-0.3,0.6C34.1,67.4,34.9,66.8,30.3,70.3z"/>
	<polygon class="st6" points="76.7,57.7 76.7,57.7 76.7,57.7 76.6,57.7 76.6,57.7 76.6,57.6 76.5,57.6 76.5,57.6 76.5,57.6 
		76.4,57.6 76.4,57.6 76.4,57.6 76.4,57.6 76.3,57.6 76.3,57.6 76.3,57.6 76.2,57.6 76.2,57.6 76.2,57.6 76.2,57.6 76.1,57.6 
		76.1,57.6 76.1,57.6 76.1,57.6 76,57.6 76,57.6 76,57.6 76,57.6 75.9,57.6 75.9,57.6 75.9,57.6 75.9,57.6 66.3,63.1 66.4,63.1 
		66.4,63.1 66.4,63.1 66.4,63.1 66.4,63.1 66.5,63.1 66.5,63.1 66.5,63.1 66.5,63.1 66.6,63.1 66.6,63.1 66.6,63.1 66.6,63.1 
		66.7,63.1 66.7,63.1 66.7,63.1 66.8,63.1 66.8,63.1 66.8,63.1 66.8,63.1 66.9,63.1 66.9,63.1 66.9,63.1 67,63.1 67,63.1 67,63.2 
		67,63.2 67.1,63.2 67.1,63.2 67.1,63.2 67.2,63.2 67.2,63.2 67.2,63.3 67.3,63.3 67.3,63.3 67.3,63.3 67.4,63.4 67.4,63.4 
		67.4,63.4 67.4,63.4 67.5,63.4 67.5,63.5 67.5,63.5 67.6,63.5 67.6,63.6 67.6,63.6 67.6,63.6 67.7,63.6 67.7,63.7 67.7,63.7 
		67.7,63.7 67.8,63.8 67.8,63.8 67.8,63.8 67.9,63.9 67.9,63.9 67.9,63.9 67.9,64 67.9,64 68,64 68,64.1 68,64.1 68,64.1 68.1,64.2 
		68.1,64.2 68.1,64.2 68.1,64.3 68.1,64.3 68.1,64.4 68.2,64.4 68.2,64.4 68.2,64.5 68.2,64.5 68.2,64.5 68.2,64.6 68.3,64.6 
		68.3,64.7 68.3,64.7 68.3,64.7 68.3,64.8 68.3,64.8 68.3,64.8 68.3,64.9 68.3,64.9 68.3,65 68.4,65 68.4,65 68.4,65.1 68.4,65.1 
		68.4,65.1 68.4,65.2 68.4,65.2 68.4,65.3 68.4,65.3 68.4,65.3 68.4,65.4 68.4,65.4 68.4,65.4 68.4,65.5 68.4,65.5 68.4,65.5 
		68.4,65.6 68.4,65.6 68.4,65.6 68.3,65.7 68.3,65.7 68.3,65.7 68.3,65.7 68.3,65.8 68.3,65.8 68.3,65.8 68.3,65.8 68.3,65.9 
		68.3,65.9 68.2,65.9 68.2,65.9 68.2,66 68.2,66 68.2,66 68.2,66 68.1,66 68.1,66 68.1,66.1 68.1,66.1 68.1,66.1 68.1,66.1 
		77.6,60.6 77.6,60.6 77.6,60.6 77.7,60.5 77.7,60.5 77.7,60.5 77.7,60.5 77.7,60.5 77.7,60.5 77.8,60.4 77.8,60.4 77.8,60.4 
		77.8,60.4 77.8,60.4 77.8,60.3 77.8,60.3 77.8,60.3 77.9,60.3 77.9,60.2 77.9,60.2 77.9,60.2 77.9,60.1 77.9,60.1 77.9,60.1 
		77.9,60.1 77.9,60 77.9,60 77.9,60 77.9,59.9 77.9,59.9 77.9,59.9 77.9,59.8 77.9,59.8 77.9,59.7 77.9,59.7 77.9,59.7 77.9,59.6 
		77.9,59.6 77.9,59.6 77.9,59.5 77.9,59.5 77.9,59.4 77.9,59.4 77.9,59.4 77.9,59.3 77.9,59.3 77.8,59.3 77.8,59.2 77.8,59.2 
		77.8,59.1 77.8,59.1 77.8,59.1 77.8,59 77.8,59 77.7,59 77.7,58.9 77.7,58.9 77.7,58.8 77.7,58.8 77.7,58.8 77.6,58.7 77.6,58.7 
		77.6,58.7 77.6,58.6 77.6,58.6 77.5,58.6 77.5,58.5 77.5,58.5 77.5,58.4 77.4,58.4 77.4,58.4 77.4,58.3 77.4,58.3 77.3,58.3 
		77.3,58.3 77.3,58.2 77.3,58.2 77.2,58.2 77.2,58.1 77.2,58.1 77.2,58.1 77.1,58 77.1,58 77.1,58 77.1,58 77,57.9 77,57.9 77,57.9 
		76.9,57.9 76.9,57.8 76.9,57.8 76.8,57.8 76.8,57.8 76.8,57.8 76.8,57.7 	"/>
	<path class="st7" d="M68,64.1c-0.2-0.4-0.5-0.7-0.9-0.9c-0.3-0.2-0.6-0.2-0.9-0.1c-0.2,0.1-0.4,0.4-0.4,0.8c0,0.4,0.1,0.8,0.4,1.2
		c0.2,0.4,0.5,0.7,0.9,0.9c0.3,0.2,0.6,0.2,0.9,0.1c0.2-0.1,0.4-0.4,0.4-0.8C68.4,64.9,68.2,64.5,68,64.1z"/>
	<polygon class="st8" points="35.5,82 30.2,78.9 20.7,84.4 26.1,87.5 	"/>
	<polygon class="st9" points="26.1,87.5 20.7,84.4 20.7,88.6 26.1,91.6 	"/>
	<polygon class="st10" points="35.5,86.2 35.5,82 26.1,87.5 26.1,91.6 	"/>
</g>
</svg>
