<?xml version="1.0" encoding="utf-8"?>
<!-- Generator: Adobe Illustrator 24.2.1, SVG Export Plug-In . SVG Version: 6.00 Build 0)  -->
<svg version="1.1" id="Layer_1" xmlns="http://www.w3.org/2000/svg" xmlns:xlink="http://www.w3.org/1999/xlink" x="0px" y="0px"
	 viewBox="0 0 100 100" style="enable-background:new 0 0 100 100;" xml:space="preserve">
<style type="text/css">
	.st0{fill:#A76531;}
	.st1{fill:#754823;}
	.st2{fill:#5B3416;}
</style>
<g id="surface1">
	<path class="st0" d="M83.3,41.7c-10-17.4-33.1-22.9-51.4-12.3C13.5,40,6.7,62.7,16.7,80.1c10,17.4,33.1,22.9,51.4,12.3
		S93.3,59.1,83.3,41.7z"/>
	<path class="st1" d="M39.8,48.1c8.1-4.7,25.8-6.4,24.1-16.7c-1.9-11.4-22.8-7.3-32.1-2C13.5,40.1,6.7,62.7,16.7,80.1
		c1.1,1.8,2.2,3.5,3.6,5.1C18.8,70.9,26,56.1,39.8,48.1z"/>
	<path class="st0" d="M54.7,4.5c-1.5,1.7-4.1,2.1-6,0.9c-3.3-2-7.5-0.5-8.8,3l-2,5.1c-0.6,1.5-1.9,2.7-3.6,3l-0.7,0.1
		c-4.6,0.9-7.3,5.8-5.5,10.2l3.9,9.8h0c0.5,1.4,1.7,2.7,3.5,3.7c5.6,3.3,15.5,2.9,22-0.9c3.5-2,5.3-4.6,5.4-7.1l0,0l3.3-22.5
		C67.2,3.3,59.1-0.5,54.7,4.5z"/>
	<path class="st2" d="M58.2,35C50.6,39.4,39,39.9,32.4,36c-0.3-0.2-0.6-0.4-0.8-0.5l0.5,1.2h0c0.5,1.4,1.7,2.7,3.5,3.7
		c5.6,3.3,15.5,2.9,22-0.9c3.5-2,5.3-4.6,5.4-7.1l0,0l0.3-1.7C62.1,32.2,60.5,33.7,58.2,35z"/>
	<path class="st2" d="M66.6,45.6c0.5-0.5,1.1-0.3,1.4,0.5l0.2,0.8c1.4-1.1,2.7-1.6,4-1.6c0.4,0,0.9,0.2,1.1,1c0.3,1.1,0,2.5-0.7,3.2
		c-0.2,0.2-0.5,0.4-0.8,0.4c-1,0.1-1.9,0.3-2.7,0.8l2,6.8c3.7-2.1,5.8-1.5,6.9,2.3c1.1,3.9,0,8.4-2.7,11.8l0.6,2.1
		c0.2,0.8,0,2-0.5,2.5s-1.2,0.3-1.4-0.5l-0.6-2.2c-1.7,1.4-3.5,2.1-5.3,1.9c-0.5,0-0.9-0.3-1.1-1.1c-0.3-1.1,0-2.5,0.7-3.2
		c0.3-0.3,0.6-0.4,0.8-0.4c1.4,0.1,2.6-0.1,3.9-1l-2-7c-3.6,2-5.7,1.6-6.8-2.4c-1.1-3.8,0-8.3,2.7-11.5l-0.2-0.7
		C65.8,47.3,66.1,46.2,66.6,45.6z M69.2,58.6l-1.8-6.2c-1.4,1.7-1.7,3.6-1.3,5.2C66.5,59,67.2,59.5,69.2,58.6z M72.3,61.7l1.9,6.4
		c1.3-1.7,1.8-3.6,1.3-5.3C75,61.2,74.3,60.8,72.3,61.7z"/>
</g>
</svg>
