<?xml version="1.0" encoding="utf-8"?>
<!-- Generator: Adobe Illustrator 24.2.1, SVG Export Plug-In . SVG Version: 6.00 Build 0)  -->
<svg version="1.1" id="Layer_1" xmlns="http://www.w3.org/2000/svg" xmlns:xlink="http://www.w3.org/1999/xlink" x="0px" y="0px"
	 viewBox="0 0 100 100" style="enable-background:new 0 0 100 100;" xml:space="preserve">
<style type="text/css">
	.st0{fill-rule:evenodd;clip-rule:evenodd;fill:#C5CCD1;}
	.st1{fill-rule:evenodd;clip-rule:evenodd;fill:#D2DADF;}
	.st2{fill-rule:evenodd;clip-rule:evenodd;fill:#687071;}
	.st3{fill-rule:evenodd;clip-rule:evenodd;fill:#F15F4C;}
	.st4{fill-rule:evenodd;clip-rule:evenodd;fill:#C0CBCB;}
	.st5{fill-rule:evenodd;clip-rule:evenodd;fill:#E6EAEA;}
	.st6{fill-rule:evenodd;clip-rule:evenodd;fill:#F47E6E;}
	.st7{fill-rule:evenodd;clip-rule:evenodd;fill:#D05444;}
	.st8{fill-rule:evenodd;clip-rule:evenodd;fill:#9B9C9C;}
	.st9{fill-rule:evenodd;clip-rule:evenodd;fill:#2D3F50;}
	.st10{fill-rule:evenodd;clip-rule:evenodd;fill:#3E576F;}
	.st11{fill-rule:evenodd;clip-rule:evenodd;fill:#597896;}
	.st12{fill-rule:evenodd;clip-rule:evenodd;fill:#4C6781;}
</style>
<g>
	<g>
		<polygon class="st0" points="20.1,82 4.4,73 38.6,53.3 54.3,62.3 		"/>
		<polygon class="st1" points="39.1,27.9 39.1,65.2 39,65.4 39,65.5 38.9,65.6 38.9,65.8 38.8,65.9 38.7,66 38.6,66.2 38.5,66.3 
			38.4,66.4 38.3,66.5 38.2,66.6 38,66.7 37.8,66.8 37.7,66.9 37.5,67 37.3,67.1 37.1,67.2 36.9,67.3 36.7,67.4 36.5,67.4 
			36.3,67.5 36.1,67.6 35.9,67.6 35.6,67.7 35.4,67.7 35.2,67.7 35,67.7 34.7,67.8 34.5,67.8 34.3,67.8 34,67.8 33.8,67.8 
			33.6,67.7 33.3,67.7 33.1,67.7 32.9,67.7 32.7,67.6 32.5,67.6 32.2,67.5 32,67.4 31.8,67.4 31.6,67.3 31.4,67.2 31.2,67.1 31,67 
			30.9,66.9 30.7,66.8 30.5,66.7 30.4,66.6 30.2,66.5 30.1,66.4 30,66.3 29.9,66.2 29.8,66 29.7,65.9 29.6,65.8 29.6,65.6 
			29.5,65.5 29.5,65.4 29.5,65.2 29.5,27.9 29.5,28 29.5,28.2 29.6,28.3 29.6,28.4 29.7,28.5 29.8,28.7 29.9,28.8 30,28.9 30.1,29 
			30.2,29.2 30.4,29.3 30.5,29.4 30.7,29.5 30.9,29.6 31,29.7 31.2,29.8 31.4,29.9 31.6,30 31.8,30 32,30.1 32.2,30.2 32.5,30.2 
			32.7,30.3 32.9,30.3 33.1,30.3 33.3,30.4 33.6,30.4 33.8,30.4 34,30.4 34.3,30.4 34.5,30.4 34.7,30.4 35,30.4 35.2,30.4 
			35.4,30.3 35.6,30.3 35.9,30.3 36.1,30.2 36.3,30.2 36.5,30.1 36.7,30 36.9,30 37.1,29.9 37.3,29.8 37.5,29.7 37.7,29.6 
			37.8,29.5 38,29.4 38.2,29.3 38.3,29.2 38.4,29 38.5,28.9 38.6,28.8 38.7,28.7 38.8,28.5 38.9,28.4 38.9,28.3 39,28.2 39,28 		"/>
		<path class="st0" d="M30.9,25.7c1.9-1.1,4.9-1.1,6.8,0c1.9,1.1,1.9,2.9,0,3.9c-1.9,1.1-4.9,1.1-6.8,0C29,28.5,29,26.7,30.9,25.7z"
			/>
		<path class="st2" d="M31.8,26.2c1.3-0.8,3.5-0.8,4.8,0c1.3,0.8,1.3,2,0,2.8c-1.3,0.8-3.5,0.8-4.8,0C30.5,28.3,30.5,27,31.8,26.2z"
			/>
		<polygon class="st3" points="39.1,31 39.1,34.7 39,34.8 39,34.9 38.9,35.1 38.9,35.2 38.8,35.3 38.7,35.4 38.6,35.6 38.5,35.7 
			38.4,35.8 38.3,35.9 38.2,36 38,36.2 37.8,36.3 37.7,36.4 37.5,36.5 37.3,36.6 37.1,36.6 36.9,36.7 36.7,36.8 36.5,36.9 
			36.3,36.9 36.1,37 35.9,37 35.6,37.1 35.4,37.1 35.2,37.1 35,37.2 34.7,37.2 34.5,37.2 34.3,37.2 34,37.2 33.8,37.2 33.6,37.2 
			33.3,37.1 33.1,37.1 32.9,37.1 32.7,37 32.5,37 32.2,36.9 32,36.9 31.8,36.8 31.6,36.7 31.4,36.6 31.2,36.6 31,36.5 30.9,36.4 
			30.7,36.3 30.5,36.2 30.4,36 30.2,35.9 30.1,35.8 30,35.7 29.9,35.6 29.8,35.4 29.7,35.3 29.6,35.2 29.6,35.1 29.5,34.9 
			29.5,34.8 29.5,34.7 29.5,31 29.5,31.1 29.5,31.3 29.6,31.4 29.6,31.5 29.7,31.7 29.8,31.8 29.9,31.9 30,32 30.1,32.2 30.2,32.3 
			30.4,32.4 30.5,32.5 30.7,32.6 30.9,32.7 31,32.8 31.2,32.9 31.4,33 31.6,33.1 31.8,33.1 32,33.2 32.2,33.3 32.5,33.3 32.7,33.4 
			32.9,33.4 33.1,33.5 33.3,33.5 33.6,33.5 33.8,33.5 34,33.5 34.3,33.5 34.5,33.5 34.7,33.5 35,33.5 35.2,33.5 35.4,33.5 
			35.6,33.4 35.9,33.4 36.1,33.3 36.3,33.3 36.5,33.2 36.7,33.1 36.9,33.1 37.1,33 37.3,32.9 37.5,32.8 37.7,32.7 37.8,32.6 
			38,32.5 38.2,32.4 38.3,32.3 38.4,32.2 38.5,32 38.6,31.9 38.7,31.8 38.8,31.7 38.9,31.5 38.9,31.4 39,31.3 39,31.1 		"/>
		<polygon class="st4" points="30.8,29.6 30.8,66.9 30.9,66.9 31,67 31.2,67.1 31.4,67.2 31.6,67.3 31.8,67.4 32,67.4 32.2,67.5 
			32.5,67.6 32.7,67.6 32.9,67.7 33.1,67.7 33.2,67.7 33.2,30.3 33.1,30.3 32.9,30.3 32.7,30.3 32.5,30.2 32.2,30.2 32,30.1 
			31.8,30 31.6,30 31.4,29.9 31.2,29.8 31,29.7 30.9,29.6 		"/>
		<polygon class="st5" points="38.4,66.4 38.4,29 38.4,29 38.3,29.2 38.2,29.3 38,29.4 37.8,29.5 37.7,29.6 37.5,29.7 37.3,29.8 
			37.1,29.9 36.9,30 36.7,30 36.5,30.1 36.3,30.2 36.2,30.2 36.2,67.5 36.3,67.5 36.5,67.4 36.7,67.4 36.9,67.3 37.1,67.2 
			37.3,67.1 37.5,67 37.7,66.9 37.8,66.8 38,66.7 38.2,66.6 38.3,66.5 38.4,66.4 		"/>
		<polygon class="st6" points="38.4,35.8 38.4,32.2 38.4,32.2 38.3,32.3 38.2,32.4 38,32.5 37.8,32.6 37.7,32.7 37.5,32.8 
			37.3,32.9 37.1,33 36.9,33.1 36.7,33.1 36.5,33.2 36.3,33.3 36.2,33.3 36.2,37 36.3,36.9 36.5,36.9 36.7,36.8 36.9,36.7 
			37.1,36.6 37.3,36.6 37.5,36.5 37.7,36.4 37.8,36.3 38,36.2 38.2,36 38.3,35.9 38.4,35.8 		"/>
		<polygon class="st7" points="30.8,32.7 30.8,36.3 30.9,36.4 31,36.5 31.2,36.6 31.4,36.6 31.6,36.7 31.8,36.8 32,36.9 32.2,36.9 
			32.5,37 32.7,37 32.9,37.1 33.1,37.1 33.2,37.1 33.2,33.5 33.1,33.5 32.9,33.4 32.7,33.4 32.5,33.3 32.2,33.3 32,33.2 31.8,33.1 
			31.6,33.1 31.4,33 31.2,32.9 31,32.8 30.9,32.7 		"/>
		<polygon class="st8" points="55,77.6 32.4,64.5 32.4,60 55.1,73.1 		"/>
		<polygon class="st5" points="55,77.6 55.1,73.1 95.6,49.7 95.6,54.3 		"/>
		<polygon class="st8" points="72.9,37.5 94,49.7 92,50.9 72.9,39.8 		"/>
		<polygon class="st5" points="35.9,61.2 33.9,60 72.9,37.5 72.9,39.8 		"/>
		<polygon class="st2" points="55,72.2 35.9,61.2 72.9,39.8 92,50.9 		"/>
		<path class="st0" d="M55.1,73.1L32.4,60l40.5-23.4l22.7,13.1L55.1,73.1L55.1,73.1z M55,72.2l39-22.5L72.9,37.5L33.9,60L55,72.2z"
			/>
		<polygon class="st8" points="73.3,49.3 69.3,47 69.3,44 73.3,46.3 		"/>
		<polygon class="st0" points="73.3,46.3 69.3,44 73.1,41.8 77.1,44.1 		"/>
		<polygon class="st5" points="73.3,46.3 77.1,44.1 77.1,47.1 73.3,49.3 		"/>
		<polygon class="st0" points="55.1,83.1 32.4,70 33.1,69.5 55,82.2 94.8,59.3 95.6,59.7 		"/>
		<polygon class="st9" points="55,82.2 33.1,69.5 33.2,65 55.1,77.6 		"/>
		<polygon class="st10" points="55,82.2 55.1,77.6 94.8,54.7 94.8,59.3 		"/>
		<polygon class="st8" points="55,98.9 32.4,85.8 32.4,70 55.1,83.1 		"/>
		<polygon class="st5" points="55,98.9 55.1,83.1 95.6,59.7 95.6,75.6 		"/>
		<polygon class="st8" points="65.5,53.7 61.5,51.4 61.5,48.5 65.5,50.8 		"/>
		<polygon class="st0" points="65.5,50.8 61.5,48.5 65.4,46.2 69.4,48.5 		"/>
		<polygon class="st5" points="65.5,50.8 69.4,48.5 69.4,51.5 65.5,53.7 		"/>
		<polygon class="st11" points="84.9,72.9 93.4,67.9 93.4,77.5 84.9,82.4 		"/>
		<polygon class="st9" points="84.3,72.6 92.9,67.6 93.4,67.9 84.9,72.9 		"/>
		<polygon class="st10" points="84.3,72.6 84.9,72.9 84.9,82.4 84.3,82.1 		"/>
		<polygon class="st9" points="85.2,73 93.1,68.4 93.1,77.3 85.1,81.9 		"/>
		<polygon class="st12" points="85.3,73.2 92.9,68.8 92.9,77.3 85.3,81.7 		"/>
		<path class="st9" d="M89,70.8l0.3-0.2c0,0,0,0,0,0.1v8.8L89,79.7V70.8z"/>
		<polygon class="st9" points="92.7,71 92.7,71.2 89.6,73 89.6,72.8 		"/>
		<polygon class="st10" points="89.6,72.9 92.6,71.2 92.7,71.2 89.6,73 		"/>
		<polygon class="st9" points="92.7,69.6 92.7,69.8 89.6,71.6 89.6,71.4 		"/>
		<polygon class="st10" points="89.6,71.5 92.6,69.8 92.7,69.8 89.6,71.6 		"/>
		<polygon class="st9" points="92.7,73.8 92.7,74.1 89.6,75.9 89.6,75.6 		"/>
		<polygon class="st10" points="89.6,75.7 92.6,74 92.7,74.1 89.6,75.9 		"/>
		<polygon class="st9" points="92.7,72.4 92.7,72.6 89.6,74.4 89.6,74.2 		"/>
		<polygon class="st10" points="89.6,74.3 92.6,72.6 92.7,72.6 89.6,74.4 		"/>
		<polygon class="st9" points="92.7,76.6 92.7,76.9 89.6,78.7 89.6,78.4 		"/>
		<polygon class="st10" points="89.6,78.5 92.6,76.8 92.7,76.9 89.6,78.7 		"/>
		<polygon class="st9" points="92.7,75.2 92.7,75.5 89.6,77.3 89.6,77 		"/>
		<polygon class="st10" points="89.6,77.1 92.6,75.4 92.7,75.5 89.6,77.3 		"/>
		<polygon class="st9" points="88.8,73.2 88.8,73.5 85.7,75.3 85.7,75 		"/>
		<polygon class="st10" points="85.7,75.1 88.7,73.4 88.8,73.5 85.7,75.3 		"/>
		<polygon class="st9" points="88.8,71.8 88.8,72.1 85.7,73.9 85.7,73.6 		"/>
		<polygon class="st10" points="85.7,73.7 88.7,72 88.8,72.1 85.7,73.9 		"/>
		<polygon class="st9" points="88.8,76.1 88.8,76.3 85.7,78.1 85.7,77.9 		"/>
		<polygon class="st10" points="85.7,78 88.7,76.2 88.8,76.3 85.7,78.1 		"/>
		<polygon class="st9" points="88.8,74.6 88.8,74.9 85.7,76.7 85.7,76.4 		"/>
		<polygon class="st10" points="85.7,76.6 88.7,74.8 88.8,74.9 85.7,76.7 		"/>
		<polygon class="st9" points="88.8,78.9 88.8,79.1 85.7,80.9 85.7,80.7 		"/>
		<polygon class="st10" points="85.7,80.8 88.7,79 88.8,79.1 85.7,80.9 		"/>
		<polygon class="st9" points="88.8,77.5 88.8,77.7 85.7,79.5 85.7,79.3 		"/>
		<polygon class="st10" points="85.7,79.4 88.7,77.6 88.8,77.7 85.7,79.5 		"/>
		<polygon class="st10" points="89.1,70.8 89.3,70.9 89.3,79.4 89.1,79.3 		"/>
		<polygon class="st8" points="88.7,76 88.6,75.9 88.6,75.2 88.7,75.3 		"/>
		<polygon class="st0" points="88.7,75.3 88.6,75.2 89.5,74.7 89.6,74.7 		"/>
		<polygon class="st5" points="88.7,75.3 89.6,74.7 89.6,75.4 88.7,76 		"/>
		<polygon class="st8" points="27.1,97 4.4,83.9 4.4,73 27.1,86.1 		"/>
		<polygon class="st5" points="27.1,96.9 27.1,86.1 39.4,79 39.4,89.9 		"/>
		<polygon class="st0" points="27.1,86.1 16.6,80 28.9,72.9 39.4,79 		"/>
		<polygon class="st11" points="72.6,80 81.1,75 81.1,84.6 72.6,89.5 		"/>
		<polygon class="st9" points="72,79.6 80.6,74.7 81.1,75 72.6,80 		"/>
		<polygon class="st10" points="72,79.6 72.6,80 72.6,89.5 72,89.2 		"/>
		<polygon class="st9" points="72.9,80.1 80.8,75.5 80.8,84.4 72.9,89 		"/>
		<polygon class="st12" points="73.1,80.3 80.7,75.9 80.7,84.4 73,88.8 		"/>
		<path class="st9" d="M76.7,77.9l0.3-0.2c0,0,0,0,0,0.1v8.8l-0.3,0.2V77.9z"/>
		<polygon class="st9" points="80.4,78.1 80.4,78.3 77.3,80.1 77.3,79.9 		"/>
		<polygon class="st10" points="77.3,80 80.3,78.2 80.4,78.3 77.3,80.1 		"/>
		<polygon class="st9" points="80.4,76.7 80.4,76.9 77.3,78.7 77.3,78.5 		"/>
		<polygon class="st10" points="77.3,78.6 80.3,76.8 80.4,76.9 77.3,78.7 		"/>
		<polygon class="st9" points="80.4,80.9 80.4,81.1 77.3,82.9 77.3,82.7 		"/>
		<polygon class="st10" points="77.3,82.8 80.3,81.1 80.4,81.1 77.3,82.9 		"/>
		<polygon class="st9" points="80.4,79.5 80.4,79.7 77.3,81.5 77.3,81.3 		"/>
		<polygon class="st10" points="77.3,81.4 80.3,79.6 80.4,79.7 77.3,81.5 		"/>
		<polygon class="st9" points="80.4,83.7 80.4,83.9 77.3,85.7 77.3,85.5 		"/>
		<polygon class="st10" points="77.3,85.6 80.3,83.9 80.4,83.9 77.3,85.7 		"/>
		<polygon class="st9" points="80.4,82.3 80.4,82.5 77.3,84.3 77.3,84.1 		"/>
		<polygon class="st10" points="77.3,84.2 80.3,82.5 80.4,82.5 77.3,84.3 		"/>
		<polygon class="st9" points="76.5,80.3 76.5,80.6 73.4,82.4 73.4,82.1 		"/>
		<polygon class="st10" points="73.4,82.2 76.4,80.5 76.5,80.6 73.4,82.4 		"/>
		<polygon class="st9" points="76.5,78.9 76.5,79.2 73.4,81 73.4,80.7 		"/>
		<polygon class="st10" points="73.4,80.8 76.4,79.1 76.5,79.2 73.4,81 		"/>
		<polygon class="st9" points="76.5,83.1 76.5,83.4 73.4,85.2 73.4,84.9 		"/>
		<polygon class="st10" points="73.4,85 76.4,83.3 76.5,83.4 73.4,85.2 		"/>
		<polygon class="st9" points="76.5,81.7 76.5,82 73.4,83.8 73.4,83.5 		"/>
		<polygon class="st10" points="73.4,83.6 76.4,81.9 76.5,82 73.4,83.8 		"/>
		<polygon class="st9" points="76.5,86 76.5,86.2 73.4,88 73.4,87.7 		"/>
		<polygon class="st10" points="73.4,87.9 76.4,86.1 76.5,86.2 73.4,88 		"/>
		<polygon class="st9" points="76.5,84.5 76.5,84.8 73.4,86.6 73.4,86.3 		"/>
		<polygon class="st10" points="73.4,86.4 76.4,84.7 76.5,84.8 73.4,86.6 		"/>
		<polygon class="st10" points="76.9,77.9 77,78 77,86.5 76.9,86.4 		"/>
		<polygon class="st8" points="76.4,83.1 76.3,83 76.3,82.3 76.4,82.3 		"/>
		<polygon class="st0" points="76.4,82.3 76.3,82.3 77.2,81.7 77.3,81.8 		"/>
		<polygon class="st5" points="76.4,82.3 77.3,81.8 77.3,82.5 76.4,83.1 		"/>
		<polygon class="st1" points="23.7,36.6 23.7,74 23.7,74.1 23.7,74.3 23.6,74.4 23.5,74.5 23.5,74.6 23.4,74.8 23.3,74.9 23.2,75 
			23.1,75.1 23,75.3 22.8,75.4 22.7,75.5 22.5,75.6 22.3,75.7 22.2,75.8 22,75.9 21.8,76 21.6,76 21.4,76.1 21.2,76.2 21,76.2 
			20.7,76.3 20.5,76.3 20.3,76.4 20.1,76.4 19.8,76.5 19.6,76.5 19.4,76.5 19.2,76.5 18.9,76.5 18.7,76.5 18.5,76.5 18.2,76.5 
			18,76.5 17.8,76.4 17.6,76.4 17.3,76.3 17.1,76.3 16.9,76.2 16.7,76.2 16.5,76.1 16.3,76 16.1,76 15.9,75.9 15.7,75.8 15.5,75.7 
			15.3,75.6 15.2,75.5 15,75.4 14.9,75.3 14.8,75.1 14.7,75 14.6,74.9 14.5,74.8 14.4,74.6 14.3,74.5 14.2,74.4 14.2,74.3 
			14.2,74.1 14.1,74 14.1,36.6 14.2,36.8 14.2,36.9 14.2,37 14.3,37.2 14.4,37.3 14.5,37.4 14.6,37.5 14.7,37.7 14.8,37.8 
			14.9,37.9 15,38 15.2,38.1 15.3,38.2 15.5,38.3 15.7,38.4 15.9,38.5 16.1,38.6 16.3,38.7 16.5,38.8 16.7,38.8 16.9,38.9 
			17.1,38.9 17.3,39 17.6,39 17.8,39.1 18,39.1 18.2,39.1 18.5,39.1 18.7,39.1 18.9,39.1 19.2,39.1 19.4,39.1 19.6,39.1 19.8,39.1 
			20.1,39.1 20.3,39 20.5,39 20.7,38.9 21,38.9 21.2,38.8 21.4,38.8 21.6,38.7 21.8,38.6 22,38.5 22.2,38.4 22.3,38.3 22.5,38.2 
			22.7,38.1 22.8,38 23,37.9 23.1,37.8 23.2,37.7 23.3,37.5 23.4,37.4 23.5,37.3 23.5,37.2 23.6,37 23.7,36.9 23.7,36.8 		"/>
		<path class="st0" d="M15.5,34.4c1.9-1.1,4.9-1.1,6.8,0c1.9,1.1,1.9,2.8,0,3.9c-1.9,1.1-4.9,1.1-6.8,0
			C13.6,37.2,13.6,35.5,15.5,34.4z"/>
		<path class="st2" d="M16.5,35c1.3-0.8,3.5-0.8,4.8,0c1.3,0.8,1.3,2,0,2.8c-1.3,0.8-3.5,0.8-4.8,0C15.2,37,15.2,35.7,16.5,35z"/>
		<polygon class="st3" points="23.7,39.8 23.7,43.4 23.7,43.5 23.7,43.7 23.6,43.8 23.5,43.9 23.5,44.1 23.4,44.2 23.3,44.3 
			23.2,44.4 23.1,44.5 23,44.7 22.8,44.8 22.7,44.9 22.5,45 22.3,45.1 22.2,45.2 22,45.3 21.8,45.4 21.6,45.5 21.4,45.5 21.2,45.6 
			21,45.7 20.7,45.7 20.5,45.8 20.3,45.8 20.1,45.8 19.8,45.9 19.6,45.9 19.4,45.9 19.2,45.9 18.9,45.9 18.7,45.9 18.5,45.9 
			18.2,45.9 18,45.9 17.8,45.8 17.6,45.8 17.3,45.8 17.1,45.7 16.9,45.7 16.7,45.6 16.5,45.5 16.3,45.5 16.1,45.4 15.9,45.3 
			15.7,45.2 15.5,45.1 15.3,45 15.2,44.9 15,44.8 14.9,44.7 14.8,44.5 14.7,44.4 14.6,44.3 14.5,44.2 14.4,44.1 14.3,43.9 
			14.2,43.8 14.2,43.7 14.2,43.5 14.1,43.4 14.1,39.8 14.2,39.9 14.2,40 14.2,40.1 14.3,40.3 14.4,40.4 14.5,40.5 14.6,40.7 
			14.7,40.8 14.8,40.9 14.9,41 15,41.1 15.2,41.2 15.3,41.3 15.5,41.5 15.7,41.6 15.9,41.6 16.1,41.7 16.3,41.8 16.5,41.9 16.7,42 
			16.9,42 17.1,42.1 17.3,42.1 17.6,42.2 17.8,42.2 18,42.2 18.2,42.2 18.5,42.3 18.7,42.3 18.9,42.3 19.2,42.3 19.4,42.3 
			19.6,42.2 19.8,42.2 20.1,42.2 20.3,42.2 20.5,42.1 20.7,42.1 21,42 21.2,42 21.4,41.9 21.6,41.8 21.8,41.7 22,41.6 22.2,41.6 
			22.3,41.5 22.5,41.3 22.7,41.2 22.8,41.1 23,41 23.1,40.9 23.2,40.8 23.3,40.7 23.4,40.5 23.5,40.4 23.5,40.3 23.6,40.1 23.7,40 
			23.7,39.9 		"/>
		<polygon class="st0" points="38,9.5 38.2,9.3 38.5,9.1 38.7,9 39,8.8 39.2,8.7 39.5,8.6 39.7,8.5 39.9,8.4 40.3,7.6 40.6,6.8 
			41,6.1 41.5,5.4 41.9,4.8 42.4,4.2 42.9,3.6 43.4,3.1 43.8,2.8 44.2,2.5 44.5,2.2 44.9,2 45.3,1.7 45.7,1.6 46.1,1.4 46.5,1.3 
			46.9,1.2 47.3,1.1 47.6,1.1 48,1.1 48.3,1.1 48.7,1.1 49,1.2 49.3,1.3 49.8,1.6 51.8,2.7 51.3,2.5 51,2.4 50.7,2.3 50.3,2.2 
			50,2.2 49.6,2.2 49.3,2.3 48.9,2.3 48.5,2.4 48.1,2.6 47.7,2.7 47.3,2.9 46.9,3.1 46.5,3.4 46.2,3.7 45.8,4 45.4,4.3 44.9,4.8 
			44.4,5.3 43.9,5.9 43.5,6.5 43,7.2 42.7,7.9 42.3,8.7 41.9,9.5 41.7,9.6 41.5,9.7 41.2,9.9 41,10 40.7,10.1 40.5,10.3 40.2,10.5 
			40,10.6 39.7,10.9 39.5,11.1 39.2,11.3 39,11.6 38.7,11.8 38.5,12.1 38.3,12.4 38.1,12.7 37.9,12.7 37.7,12.8 37.5,12.8 
			37.3,12.9 37.1,12.9 36.9,13 36.7,13.1 36.5,13.2 36.1,13.4 35.8,13.7 35.4,13.9 35.1,14.2 34.7,14.5 34.4,14.9 34.1,15.2 
			33.8,15.6 33.5,16 33.2,16.4 33,16.8 32.7,17.2 32.5,17.6 32.2,18.1 32.1,18.5 31.9,18.9 31.7,19.3 31.6,19.6 31.5,20 31.5,20.3 
			31.4,20.6 31.3,21 31.3,21.3 31.3,21.6 31.3,21.7 31.3,21.8 31.3,21.9 31.3,22.1 31.3,22.2 31.3,22.3 31.3,22.4 31.3,22.5 
			31.3,22.6 31.4,22.7 31.4,22.8 31.4,22.9 31.4,23 31.4,23 31.5,23.1 31.5,23.2 31.5,23.2 31.5,23.2 31.5,23.3 31.6,23.4 
			31.6,23.5 31.7,23.6 31.8,23.7 31.8,23.7 29.8,22.6 29.8,22.5 29.7,22.5 29.6,22.4 29.6,22.3 29.5,22.2 29.5,22.1 29.5,22.1 
			29.5,22.1 29.5,22 29.4,21.9 29.4,21.8 29.4,21.7 29.4,21.6 29.4,21.5 29.3,21.4 29.3,21.3 29.3,21.2 29.3,21.1 29.3,21 
			29.3,20.9 29.3,20.8 29.3,20.7 29.3,20.6 29.3,20.5 29.3,20.1 29.3,19.8 29.4,19.5 29.5,19.2 29.5,18.8 29.6,18.5 29.7,18.1 
			29.9,17.8 30,17.4 30.2,16.9 30.5,16.5 30.7,16.1 31,15.6 31.2,15.2 31.5,14.8 31.8,14.4 32.1,14.1 32.4,13.7 32.7,13.4 
			33.1,13.1 33.4,12.8 33.8,12.5 34.1,12.3 34.5,12.1 34.7,12 34.9,11.9 35.1,11.8 35.3,11.7 35.5,11.6 35.7,11.6 35.9,11.6 
			36.1,11.5 36.3,11.2 36.5,11 36.7,10.7 37,10.4 37.2,10.2 37.5,9.9 37.7,9.7 		"/>
		<path class="st5" d="M40,10.6c0.6-0.5,1.3-0.9,1.9-1.1c0.8-2.3,2.1-4,3.4-5.2c1-0.9,2.1-1.6,3.1-1.9c1-0.3,2-0.3,2.8,0.1
			c1.3,0.5,2.1,1.9,2.1,4.2c0,0.9-0.2,1.8-0.4,2.7c-0.3,0.9-0.6,1.9-1.1,2.8l0,0l0,0c-0.1,0.3-0.3,0.5-0.5,0.7
			c-0.2,0.2-0.4,0.4-0.6,0.5L32.9,23.6c-0.3,0.2-0.6,0.2-0.9,0.2c-0.3-0.1-0.4-0.3-0.5-0.6l0,0l0,0c-0.1-0.2-0.1-0.5-0.2-0.8
			c0-0.3,0-0.5,0-0.8c0-0.8,0.2-1.8,0.6-2.7c0.4-1.2,1.1-2.3,1.9-3.3c0.8-1,1.7-1.9,2.7-2.4c0.5-0.3,1.1-0.5,1.6-0.5
			C38.6,11.9,39.3,11.2,40,10.6z"/>
		<polygon class="st4" points="15.4,38.3 15.4,75.6 15.5,75.7 15.7,75.8 15.9,75.9 16.1,76 16.3,76 16.5,76.1 16.7,76.2 16.9,76.2 
			17.1,76.3 17.3,76.3 17.6,76.4 17.8,76.4 17.9,76.4 17.9,39.1 17.8,39.1 17.6,39 17.3,39 17.1,38.9 16.9,38.9 16.7,38.8 
			16.5,38.8 16.3,38.7 16.1,38.6 15.9,38.5 15.7,38.4 15.5,38.3 		"/>
		<polygon class="st5" points="23.1,75.1 23.1,37.8 23.1,37.8 23,37.9 22.8,38 22.7,38.1 22.5,38.2 22.3,38.3 22.2,38.4 22,38.5 
			21.8,38.6 21.6,38.7 21.4,38.8 21.2,38.8 21,38.9 20.8,38.9 20.8,76.3 21,76.2 21.2,76.2 21.4,76.1 21.6,76 21.8,76 22,75.9 
			22.2,75.8 22.3,75.7 22.5,75.6 22.7,75.5 22.8,75.4 23,75.3 23.1,75.1 		"/>
		<polygon class="st6" points="23.1,44.5 23.1,40.9 23.1,40.9 23,41 22.8,41.1 22.7,41.2 22.5,41.3 22.3,41.5 22.2,41.6 22,41.6 
			21.8,41.7 21.6,41.8 21.4,41.9 21.2,42 21,42 20.8,42 20.8,45.7 21,45.7 21.2,45.6 21.4,45.5 21.6,45.5 21.8,45.4 22,45.3 
			22.2,45.2 22.3,45.1 22.5,45 22.7,44.9 22.8,44.8 23,44.7 23.1,44.5 		"/>
		<polygon class="st7" points="15.4,41.4 15.4,45.1 15.5,45.1 15.7,45.2 15.9,45.3 16.1,45.4 16.3,45.5 16.5,45.5 16.7,45.6 
			16.9,45.7 17.1,45.7 17.3,45.8 17.6,45.8 17.8,45.8 17.9,45.8 17.9,42.2 17.8,42.2 17.6,42.2 17.3,42.1 17.1,42.1 16.9,42 
			16.7,42 16.5,41.9 16.3,41.8 16.1,41.7 15.9,41.6 15.7,41.6 15.5,41.5 		"/>
	</g>
</g>
</svg>
