<?xml version="1.0" encoding="utf-8"?>
<!-- Generator: Adobe Illustrator 24.2.1, SVG Export Plug-In . SVG Version: 6.00 Build 0)  -->
<svg version="1.1" id="Layer_1" xmlns="http://www.w3.org/2000/svg" xmlns:xlink="http://www.w3.org/1999/xlink" x="0px" y="0px"
	 viewBox="0 0 100 100" style="enable-background:new 0 0 100 100;" xml:space="preserve">
<style type="text/css">
	.st0{fill-rule:evenodd;clip-rule:evenodd;fill:#2D3F50;}
	.st1{fill-rule:evenodd;clip-rule:evenodd;fill:#3E576F;}
	.st2{fill-rule:evenodd;clip-rule:evenodd;fill:#9B9C9C;}
	.st3{fill-rule:evenodd;clip-rule:evenodd;fill:#E6EAEA;}
	.st4{fill-rule:evenodd;clip-rule:evenodd;fill:#687071;}
	.st5{fill-rule:evenodd;clip-rule:evenodd;fill:#C5CCD1;}
	.st6{fill-rule:evenodd;clip-rule:evenodd;fill:#989898;}
	.st7{fill-rule:evenodd;clip-rule:evenodd;fill:#676666;}
	.st8{fill-rule:evenodd;clip-rule:evenodd;fill:#F9C13B;}
	.st9{fill-rule:evenodd;clip-rule:evenodd;fill:#CF992A;}
	.st10{fill-rule:evenodd;clip-rule:evenodd;fill:#4C89C8;}
	.st11{fill-rule:evenodd;clip-rule:evenodd;fill:#DDE0E0;}
	.st12{fill-rule:evenodd;clip-rule:evenodd;fill:#E64D3C;}
	.st13{fill-rule:evenodd;clip-rule:evenodd;fill:#C03B2B;}
</style>
<g>
	<g>
		<polygon class="st0" points="99.3,56.8 57.9,32.9 0.7,65.9 42.1,89.8 		"/>
		<polygon class="st0" points="42.1,89.8 0.7,65.9 0.7,69.4 42.1,93.3 		"/>
		<polygon class="st1" points="42.1,93.3 99.3,60.3 99.3,56.8 42.1,89.8 		"/>
		<polygon class="st2" points="42,82.7 14.8,67.1 14.8,32.7 42,48.4 		"/>
		<polygon class="st3" points="42,82.7 42,48.4 87.1,22.4 87,56.8 		"/>
		<polygon class="st2" points="59.9,7.8 85.2,22.4 82.9,23.7 59.9,10.4 		"/>
		<polygon class="st3" points="19,34 16.7,32.7 59.9,7.8 59.9,10.4 		"/>
		<polygon class="st4" points="42,47.3 19,34 59.9,10.4 82.9,23.7 		"/>
		<path class="st5" d="M42,48.4L14.8,32.7l45.1-26l27.2,15.7L42,48.4L42,48.4z M42,47.3l43.3-25L59.9,7.8l-43.3,25L42,47.3z"/>
		<polygon class="st2" points="60.3,21.5 55.7,18.8 55.7,15.3 60.3,18 		"/>
		<polygon class="st5" points="60.3,18 55.7,15.3 60.1,12.7 64.8,15.4 		"/>
		<polygon class="st3" points="60.3,18 64.8,15.4 64.8,18.9 60.3,21.5 		"/>
		<polygon class="st2" points="51.3,26.7 46.7,24 46.7,20.5 51.3,23.2 		"/>
		<polygon class="st5" points="51.3,23.2 46.7,20.5 51.1,17.9 55.8,20.6 		"/>
		<polygon class="st3" points="51.3,23.2 55.8,20.6 55.8,24.1 51.3,26.7 		"/>
		<polygon class="st6" points="49.9,78.2 61.5,71.5 61.5,49.6 49.9,56.3 		"/>
		<polygon class="st7" points="51,77.5 60.4,72.1 60.4,51.7 51,57.1 		"/>
		<polygon class="st8" points="51,76.2 59.2,71.4 59.2,52.4 51,57.1 		"/>
		<polygon class="st9" points="68,61.6 68,61.6 68,61.6 67.9,61.6 67.9,61.6 68.7,62.1 68.7,62.1 68.7,62.1 68.8,62.1 68.8,62.1 
			82.6,54.1 82.7,54 82.7,54 82.7,54 82.7,54 82.8,53.9 82.8,53.9 82.8,53.9 82.8,53.8 82.8,40.8 82.8,40.7 82.8,40.7 82.8,40.7 
			82.7,40.7 82,40.2 82,40.3 82,40.3 82,40.3 82,40.3 82,53.4 82,53.4 82,53.4 82,53.5 82,53.5 82,53.6 81.9,53.6 81.9,53.6 
			81.9,53.6 		"/>
		<polygon class="st9" points="72.9,44.6 68.2,47.3 68.1,47.3 68,47.4 68,47.4 67.9,47.5 67.9,47.5 67.8,47.6 67.8,47.7 67.8,47.7 
			67.8,47.7 67.7,47.8 67.7,47.9 67.7,47.9 67.6,48 67.6,48.1 67.6,48.2 67.6,48.2 67.6,48.3 67.6,62.1 67.6,62.1 67.6,62.2 
			67.6,62.3 67.6,62.3 67.7,62.4 67.7,62.4 67.7,62.4 67.8,62.4 68.5,62.9 68.5,62.9 68.4,62.8 68.4,62.8 68.4,62.7 68.4,62.7 
			68.4,62.6 68.3,62.6 68.3,62.5 68.3,48.7 68.3,48.7 68.4,48.6 68.4,48.5 68.4,48.5 68.4,48.4 68.4,48.3 68.5,48.2 68.5,48.2 
			68.5,48.2 68.6,48.1 68.6,48 68.6,48 68.7,47.9 68.8,47.9 68.8,47.8 68.9,47.8 68.9,47.7 73.7,45 74.7,44.4 83,39.6 83,39.6 
			83.1,39.6 83.1,39.6 83.2,39.6 83.2,39.6 83.3,39.6 83.3,39.6 83.4,39.6 82.6,39.2 82.6,39.1 82.5,39.1 82.5,39.1 82.4,39.1 
			82.4,39.1 82.3,39.2 82.2,39.2 82.2,39.2 73.9,44 		"/>
		<path class="st10" d="M82.2,40.5v13c0,0.1-0.1,0.2-0.1,0.2l-13.3,7.7c-0.1,0-0.1,0-0.1-0.1v-13c0-0.1,0.1-0.2,0.1-0.2l13.3-7.7
			C82.1,40.4,82.2,40.4,82.2,40.5z"/>
		<path class="st8" d="M68.9,47.7c-0.2,0.1-0.3,0.2-0.4,0.4v0c-0.1,0.2-0.2,0.4-0.2,0.6v13.8c0,0.2,0.1,0.3,0.2,0.4
			c0.1,0.1,0.2,0.1,0.4,0c3.5-2,10.5-6.1,14-8.1c0.2-0.1,0.3-0.2,0.4-0.4v0c0.1-0.2,0.2-0.4,0.2-0.6V40c0-0.2-0.1-0.3-0.2-0.4
			c-0.1-0.1-0.2-0.1-0.4,0l-8.2,4.8L68.9,47.7L68.9,47.7z M82.6,40.7c0.1,0,0.1,0,0.1,0.1c0,8.6,0,3.1,0,13c0,0.1-0.1,0.2-0.1,0.2
			c-7.8,4.5-3.5,2-13.4,7.7c-0.1,0-0.1,0-0.1-0.1v-13c0-0.1,0.1-0.2,0.1-0.2C75.8,44.6,75.2,45,82.6,40.7z"/>
		<polygon class="st2" points="48.5,44.6 47.7,44.1 47.7,41.8 48.5,42.3 		"/>
		<polygon class="st5" points="48.5,42.3 47.7,41.8 48.6,41.2 49.5,41.7 		"/>
		<polygon class="st11" points="48.5,42.3 49.5,41.7 49.5,44.1 48.5,44.6 		"/>
		<polygon class="st2" points="79.6,26.6 78.7,26.1 78.7,23.8 79.6,24.3 		"/>
		<polygon class="st11" points="79.6,24.3 80.6,23.7 80.6,26.1 79.6,26.6 		"/>
		<polygon class="st2" points="47.2,43.1 45.4,42.1 45.4,31.9 47.2,32.9 		"/>
		<polygon class="st5" points="47.2,32.9 45.4,31.9 79.8,12 81.6,13 		"/>
		<polygon class="st3" points="47.2,32.9 81.6,13 81.6,23.2 47.2,43.1 		"/>
		<polygon class="st9" points="51.9,73.2 51.9,73.2 51.9,73.2 51.9,73.2 51.9,73.2 52.3,73.4 52.3,73.4 52.3,73.4 52.3,73.4 
			52.3,73.4 57.9,70.2 57.9,70.2 57.9,70.2 58,70.2 58,70.1 58,70.1 58,70.1 58,70.1 58,70.1 58,63.9 58,63.9 58,63.9 58,63.9 
			58,63.9 57.6,63.6 57.6,63.6 57.6,63.6 57.6,63.7 57.6,63.7 57.6,69.8 57.6,69.8 57.6,69.9 57.6,69.9 57.6,69.9 57.6,69.9 
			57.5,69.9 57.5,69.9 57.5,70 		"/>
		<path class="st10" d="M57.7,63.8v6.1c0,0,0,0.1-0.1,0.1l-5.3,3.1c0,0-0.1,0-0.1,0v-6.1c0,0,0-0.1,0.1-0.1L57.7,63.8
			C57.7,63.7,57.7,63.7,57.7,63.8z"/>
		<path class="st8" d="M52.4,66.6c-0.1,0-0.2,0.1-0.2,0.2v0c-0.1,0.1-0.1,0.2-0.1,0.3v6.5c0,0.1,0,0.2,0.1,0.2c0.1,0,0.1,0,0.2,0
			c1.9-1.1,3.8-2.2,5.7-3.3c0.1,0,0.2-0.1,0.2-0.2l0,0c0.1-0.1,0.1-0.2,0.1-0.3v-6.5c0-0.1,0-0.2-0.1-0.2c-0.1,0-0.1,0-0.2,0
			l-2.6,1.5L52.4,66.6L52.4,66.6z M57.9,63.9C58,63.8,58,63.9,57.9,63.9c0.1,4.6,0.1,0.8,0.1,6.2c0,0,0,0.1-0.1,0.1
			c-4.2,2.4,0,0-5.3,3.1c0,0-0.1,0-0.1,0v-6.1c0,0,0-0.1,0.1-0.1C56.1,64.9,53.9,66.2,57.9,63.9z"/>
		<polygon class="st9" points="51.9,64.1 51.9,64.1 51.9,64.1 51.9,64.1 51.9,64.1 52.3,64.4 52.3,64.4 52.3,64.4 52.3,64.4 
			52.3,64.4 57.9,61.1 57.9,61.1 57.9,61.1 58,61.1 58,61.1 58,61.1 58,61 58,61 58,61 58,54.9 58,54.8 58,54.8 58,54.8 58,54.8 
			57.6,54.6 57.6,54.6 57.6,54.6 57.6,54.6 57.6,54.6 57.6,60.8 57.6,60.8 57.6,60.8 57.6,60.8 57.6,60.8 57.6,60.9 57.5,60.9 
			57.5,60.9 57.5,60.9 		"/>
		<path class="st10" d="M57.7,54.7v6.1c0,0,0,0.1-0.1,0.1l-5.3,3.1c0,0-0.1,0-0.1,0v-6.1c0,0,0-0.1,0.1-0.1L57.7,54.7
			C57.7,54.7,57.7,54.7,57.7,54.7z"/>
		<path class="st8" d="M52.4,57.5c-0.1,0-0.2,0.1-0.2,0.2v0c-0.1,0.1-0.1,0.2-0.1,0.3v6.5c0,0.1,0,0.2,0.1,0.2c0.1,0,0.1,0,0.2,0
			c1.9-1.1,3.8-2.2,5.7-3.3c0.1,0,0.2-0.1,0.2-0.2l0,0c0.1-0.1,0.1-0.2,0.1-0.3v-6.5c0-0.1,0-0.2-0.1-0.2c-0.1,0-0.1,0-0.2,0
			l-2.6,1.5L52.4,57.5L52.4,57.5z M57.9,54.8C58,54.8,58,54.8,57.9,54.8C58,59.5,58,55.6,58,61c0,0,0,0.1-0.1,0.1
			c-4.2,2.4,0,0-5.3,3.1c0,0-0.1,0-0.1,0V58c0,0,0-0.1,0.1-0.1C56.1,55.9,53.9,57.1,57.9,54.8z"/>
		<g>
			<polygon class="st12" points="43.8,48.7 85.2,24.7 98.2,37.5 56.7,61.4 			"/>
			<polygon class="st13" points="43.8,48.7 56.7,61.4 43.8,53.2 			"/>
			<polygon class="st3" points="47.5,46.5 51.3,44.3 64.3,57.1 60.5,59.2 			"/>
			<polygon class="st3" points="55.1,42.2 58.8,40 71.8,52.7 68,54.9 			"/>
			<polygon class="st3" points="62.6,37.8 66.4,35.6 79.3,48.4 75.6,50.5 			"/>
			<polygon class="st3" points="70.1,33.4 73.9,31.3 86.9,44 83.1,46.2 			"/>
			<polygon class="st3" points="77.7,29.1 81.4,26.9 94.4,39.7 90.6,41.8 			"/>
		</g>
		<path class="st12" d="M51.9,36.5c0.4-0.3,0.8-0.6,1.3-0.9c0.1,0.4,0.2,0.7,0.5,0.7c0.2,0.1,0.6,0,0.9-0.2c0.4-0.2,0.7-0.5,0.9-0.8
			c0.2-0.3,0.3-0.6,0.3-0.9c0-0.2,0-0.3-0.1-0.3c-0.1-0.1-0.2-0.1-0.5,0c-0.2,0-0.5,0.1-1,0.3c-0.7,0.2-1.2,0.3-1.5,0.2
			c-0.4-0.2-0.6-0.5-0.6-1.1c0-0.4,0.1-0.7,0.3-1.2c0.2-0.4,0.5-0.8,0.8-1.2c0.3-0.4,0.8-0.7,1.3-1c0.8-0.5,1.4-0.6,1.8-0.5
			c0.4,0.2,0.6,0.5,0.6,1.2c-0.4,0.3-0.9,0.5-1.3,0.8c-0.1-0.3-0.2-0.5-0.4-0.6c-0.2-0.1-0.5,0-0.8,0.2c-0.4,0.2-0.7,0.5-0.9,0.8
			c-0.1,0.2-0.2,0.4-0.2,0.6c0,0.2,0.1,0.3,0.2,0.3c0.2,0.1,0.6,0,1.2-0.2c0.6-0.2,1.1-0.3,1.4-0.3c0.3,0,0.5,0.1,0.7,0.3
			c0.2,0.2,0.3,0.5,0.3,1c0,0.4-0.1,0.8-0.3,1.3c-0.2,0.5-0.5,0.9-0.9,1.3c-0.4,0.4-0.8,0.7-1.4,1.1c-0.8,0.5-1.4,0.6-1.9,0.5
			C52.3,37.7,52,37.2,51.9,36.5L51.9,36.5z M58.3,35.1c0-2.3,0-4.7,0-7c0.4-0.3,0.9-0.5,1.3-0.8c0,0.9,0,1.8,0,2.8
			c0.8-0.5,1.7-1,2.6-1.5c0-0.9,0-1.8,0-2.8c0.4-0.3,0.9-0.5,1.3-0.8c0,2.3,0,4.7,0,7c-0.4,0.3-0.9,0.5-1.3,0.8c0-1,0-2,0-3.1
			c-0.9,0.5-1.7,1-2.6,1.5c0,1,0,2,0,3.1C59.2,34.6,58.8,34.8,58.3,35.1L58.3,35.1z M64.6,28c0-0.7,0.1-1.4,0.3-2
			c0.1-0.4,0.3-0.9,0.6-1.3c0.3-0.4,0.5-0.8,0.8-1.1c0.4-0.4,0.9-0.8,1.4-1.1c1-0.6,1.7-0.7,2.3-0.4c0.6,0.3,0.9,1,0.9,2.2
			c0,1.1-0.3,2.2-0.9,3.2c-0.6,1-1.3,1.7-2.3,2.3c-1,0.6-1.7,0.7-2.3,0.4C64.9,29.8,64.6,29.1,64.6,28L64.6,28z M65.9,27.2
			c0,0.8,0.2,1.3,0.5,1.5c0.3,0.2,0.8,0.2,1.3-0.1c0.5-0.3,0.9-0.8,1.3-1.4c0.3-0.6,0.5-1.3,0.5-2.1c0-0.8-0.2-1.3-0.5-1.5
			c-0.3-0.2-0.8-0.2-1.3,0.2c-0.5,0.3-1,0.8-1.3,1.4C66.1,25.7,65.9,26.4,65.9,27.2L65.9,27.2z M71.9,27.2c0-2.3,0-4.7,0-7
			c0.7-0.4,1.4-0.8,2.1-1.2c0.8-0.5,1.3-0.7,1.6-0.8c0.4-0.1,0.7-0.1,0.9,0.2c0.2,0.2,0.4,0.6,0.4,1.1c0,0.4-0.1,0.8-0.2,1.2
			c-0.1,0.4-0.3,0.7-0.5,1c-0.2,0.3-0.4,0.5-0.7,0.7c-0.3,0.2-0.8,0.5-1.4,0.9c-0.3,0.2-0.6,0.3-0.8,0.5c0,0.9,0,1.8,0,2.6
			C72.8,26.7,72.3,27,71.9,27.2L71.9,27.2z M73.2,20.7c0,0.7,0,1.3,0,2c0.2-0.1,0.5-0.3,0.7-0.4c0.5-0.3,0.9-0.5,1-0.7
			c0.2-0.2,0.3-0.4,0.4-0.6c0.1-0.2,0.1-0.4,0.1-0.6c0-0.3-0.1-0.4-0.2-0.5c-0.1-0.1-0.3-0.1-0.5,0c-0.2,0.1-0.5,0.2-0.9,0.5
			C73.6,20.4,73.4,20.6,73.2,20.7z"/>
	</g>
</g>
</svg>
