<svg xmlns="http://www.w3.org/2000/svg" height="512pt" version="1.1" viewBox="0 -53 512 512" width="512pt">
<g id="surface1">
<path d="M 511.996094 102.046875 C 511.980469 98.140625 510.046875 94.246094 506.183594 92.015625 L 354.910156 4.675781 C 344.109375 -1.558594 330.800781 -1.558594 320 4.675781 L 5.816406 186.070312 C 1.820312 188.378906 -0.101562 192.46875 0.0234375 196.507812 L 0 196.519531 L 0 304.011719 L 0.0234375 304.023438 C 0.148438 307.8125 2.070312 311.546875 5.816406 313.710938 L 157.089844 401.046875 C 167.890625 407.28125 181.199219 407.28125 192 401.046875 L 506.183594 219.652344 C 510.074219 217.40625 512.011719 213.46875 511.996094 209.539062 L 512 209.539062 L 512 102.046875 Z M 511.996094 102.046875 " style=" stroke:none;fill-rule:nonzero;fill:rgb(20.392157%,29.411765%,9.019608%);fill-opacity:1;" />
<path d="M 5.816406 186.070312 L 320 4.675781 C 330.800781 -1.558594 344.109375 -1.558594 354.910156 4.675781 L 506.179688 92.015625 C 513.9375 96.492188 513.9375 107.691406 506.179688 112.167969 L 192 293.5625 C 181.199219 299.796875 167.890625 299.796875 157.089844 293.5625 L 5.816406 206.222656 C -1.9375 201.746094 -1.9375 190.550781 5.816406 186.070312 Z M 5.816406 186.070312 " style=" stroke:none;fill-rule:nonzero;fill:rgb(64.313725%,77.647059%,22.352941%);fill-opacity:1;" />
<path d="M 512 135.574219 L 192 320.324219 C 181.199219 326.5625 167.890625 326.5625 157.089844 320.324219 L 0 229.628906 L 0 256.585938 L 157.089844 347.28125 C 167.890625 353.519531 181.199219 353.519531 192 347.28125 L 512 162.53125 Z M 512 135.574219 " style=" stroke:none;fill-rule:nonzero;fill:rgb(44.313725%,54.117647%,15.686275%);fill-opacity:1;" />
<path d="M 5.816406 313.710938 L 157.089844 401.046875 C 167.890625 407.28125 181.199219 407.28125 192 401.046875 L 506.183594 219.652344 C 510.074219 217.40625 512.011719 213.472656 511.996094 209.539062 L 512 209.539062 L 512 189.546875 L 192 374.300781 C 181.199219 380.535156 167.890625 380.535156 157.089844 374.300781 L 0 283.605469 L 0 304.011719 L 0.0234375 304.027344 C 0.148438 307.8125 2.070312 311.546875 5.816406 313.710938 Z M 5.816406 313.710938 " style=" stroke:none;fill-rule:nonzero;fill:rgb(44.313725%,54.117647%,15.686275%);fill-opacity:1;" />
<path d="M 302.824219 170.976562 C 275.683594 186.644531 234.628906 188.347656 211.125 174.777344 C 187.621094 161.207031 190.570312 137.503906 217.710938 121.832031 C 244.847656 106.164062 285.902344 104.460938 309.40625 118.03125 C 332.910156 131.601562 329.964844 155.304688 302.824219 170.976562 Z M 302.824219 170.976562 " style=" stroke:none;fill-rule:nonzero;fill:rgb(100%,83.921569%,62.745098%);fill-opacity:1;" />
<path d="M 459.636719 92.015625 L 354.910156 31.550781 C 349.507812 28.433594 343.480469 26.871094 337.453125 26.871094 C 331.429688 26.871094 325.402344 28.433594 320 31.550781 L 52.363281 186.070312 C 44.605469 190.550781 44.605469 201.746094 52.363281 206.226562 L 157.089844 266.6875 C 162.492188 269.808594 168.519531 271.367188 174.546875 271.367188 C 180.574219 271.367188 186.601562 269.808594 192 266.6875 L 459.636719 112.167969 C 467.394531 107.691406 467.394531 96.492188 459.636719 92.015625 Z M 200.050781 236.261719 C 189.601562 230.226562 171.351562 230.984375 159.289062 237.949219 C 154.84375 240.515625 151.867188 243.566406 150.390625 246.695312 L 85.992188 209.515625 C 91.144531 208.625 96.140625 206.964844 100.371094 204.519531 C 112.4375 197.554688 113.746094 187.019531 103.296875 180.988281 C 100.785156 179.535156 97.8125 178.488281 94.589844 177.816406 L 307.714844 54.765625 C 308.863281 56.773438 310.769531 58.625 313.453125 60.175781 C 323.902344 66.207031 342.148438 65.449219 354.214844 58.484375 C 357.703125 56.472656 360.285156 54.15625 361.953125 51.742188 L 424.589844 87.90625 C 419.699219 88.824219 414.972656 90.441406 410.941406 92.769531 C 398.875 99.734375 397.566406 110.269531 408.011719 116.300781 C 410.980469 118.015625 414.59375 119.164062 418.5 119.792969 L 206.164062 242.386719 C 205.078125 240.101562 203.054688 237.992188 200.050781 236.261719 Z M 200.050781 236.261719 " style=" stroke:none;fill-rule:nonzero;fill:rgb(100%,83.921569%,62.745098%);fill-opacity:1;" />
</g>
</svg>