<?xml version="1.0" encoding="utf-8"?>
<!-- Generator: Adobe Illustrator 24.2.1, SVG Export Plug-In . SVG Version: 6.00 Build 0)  -->
<svg version="1.1" id="Layer_1" xmlns="http://www.w3.org/2000/svg" xmlns:xlink="http://www.w3.org/1999/xlink" x="0px" y="0px"
	 viewBox="0 0 100 100" style="enable-background:new 0 0 100 100;" xml:space="preserve">
<style type="text/css">
	.st0{fill-rule:evenodd;clip-rule:evenodd;fill:#EFB11E;}
	.st1{fill-rule:evenodd;clip-rule:evenodd;fill:#CF992A;}
	.st2{fill-rule:evenodd;clip-rule:evenodd;fill:#F9C13B;}
	.st3{fill-rule:evenodd;clip-rule:evenodd;fill:#70913E;}
	.st4{fill-rule:evenodd;clip-rule:evenodd;fill:#89B04D;}
	.st5{fill-rule:evenodd;clip-rule:evenodd;fill:#9BC856;}
	.st6{fill-rule:evenodd;clip-rule:evenodd;fill:#A92D23;}
	.st7{fill-rule:evenodd;clip-rule:evenodd;fill:#C03B2B;}
	.st8{fill-rule:evenodd;clip-rule:evenodd;fill:#E64D3C;}
</style>
<g>
	<g>
		<polygon class="st0" points="84,49.2 84,49.4 84,49.6 84.1,49.9 84.1,50.1 84.1,50.4 84.1,50.6 84.1,50.9 84.1,51.1 84.1,51.7 
			84.1,52.2 84,52.7 84,53.2 83.9,53.8 83.8,54.3 83.6,54.8 83.5,55.4 83.3,55.9 83.1,56.5 82.9,57 82.7,57.5 82.5,58.1 82.2,58.6 
			81.9,59.1 81.6,59.6 81.3,60.1 81,60.6 80.7,61.1 80.4,61.5 80,62 79.7,62.4 79.3,62.9 78.9,63.3 78.5,63.7 78.1,64.1 77.7,64.5 
			77.3,64.8 76.9,65.1 76.5,65.5 76,65.8 75.6,66 74.7,66.6 74.7,66.6 74.2,66.3 74.2,66.3 74.7,66.6 74.6,66.6 74.5,66.6 
			74.4,66.6 74.4,66.6 82.7,71.4 82.8,71.4 82.8,71.4 82.9,71.4 83,71.4 83.9,70.8 84.4,70.6 84.8,70.3 85.2,70 85.7,69.6 
			86.1,69.3 86.5,68.9 86.9,68.5 87.3,68.1 87.6,67.7 88,67.3 88.4,66.8 88.7,66.4 89,65.9 89.4,65.4 89.7,64.9 90,64.4 90.3,63.9 
			90.5,63.4 90.8,62.9 91,62.3 91.2,61.8 91.4,61.3 91.6,60.7 91.8,60.2 92,59.7 92.1,59.1 92.2,58.6 92.3,58.1 92.4,57.5 92.4,57 
			92.5,56.5 92.5,56 92.5,55.7 92.5,55.4 92.5,55.2 92.4,54.9 92.4,54.7 92.4,54.5 92.3,54.2 92.3,54 92.2,53.8 92.2,53.6 
			92.2,53.5 92.1,53.3 92.1,53.1 92,53 91.9,52.8 91.9,52.6 83.5,47.8 83.6,48 83.7,48.1 83.7,48.3 83.8,48.5 83.8,48.6 83.9,48.8 
			83.9,49 		"/>
		<polygon class="st1" points="70.1,66.6 63.8,75.3 62,77.8 70.3,82.6 72.1,80.2 78.4,71.4 78.4,71.4 78.4,71.4 78.4,71.4 
			78.4,71.4 78.4,71.4 78.4,71.4 78.4,71.4 78.4,71.4 82.5,65.6 74.2,60.8 70.1,66.5 70.1,66.6 70.1,66.6 70.1,66.6 70.1,66.6 
			70.1,66.6 70.1,66.6 70.1,66.6 		"/>
		<polygon class="st1" points="97.7,44.6 89.3,39.8 83.5,47.8 91.9,52.6 		"/>
		<path class="st2" d="M97.7,44.6l-5.8,8.1c0.2,0.4,0.3,0.9,0.4,1.3c0.1,0.6,0.2,1.3,0.2,2c0,2.7-1,5.8-2.5,8.4
			c-1.5,2.7-3.7,5-6,6.4L83,71.4c-0.3,0.1-0.5,0-0.5-0.3v0l0,0v-5.5l-4.1,5.7c0,0,0,0,0,0.1l-6.3,8.7l-1.8,2.5l12.2,2.9v-5.3
			c0-0.3,0.2-0.7,0.5-0.8l0,0l0.9-0.5c4.3-2.5,8.2-6.8,11-11.6c2.8-4.9,4.5-10.4,4.5-15.3c0-1.6-0.2-3-0.5-4.3
			C98.6,46.5,98.2,45.5,97.7,44.6z"/>
	</g>
	<g>
		<path class="st3" d="M25.7,33.7L25.7,33.7L25.7,33.7l0-0.1l0-0.1l0-0.1l-0.1,0l-8.3-4.8l0.1,0l0,0.1l0,0.1l0,0.1v0l0,0v5.5
			l8.3,4.8V33.7L25.7,33.7z M16.9,20.6L16.9,20.6l8.3,4.8l0,0l0.1-0.1l0.1-0.1l0.1-0.1l0.1-0.1l0.1-0.1l0-0.1l0-0.1l0-0.1v-5.3
			l-8.3-4.8v5.3l0,0.1l0,0.1l0,0.1l-0.1,0.1l-0.1,0.1l-0.1,0.1L16.9,20.6L16.9,20.6z"/>
		<polygon class="st4" points="38,22.2 29.7,17.4 17.5,14.5 25.8,19.3 		"/>
		<polygon class="st4" points="16.1,21.1 15.7,21.3 15.3,21.6 14.9,21.8 14.5,22.1 14.1,22.4 13.7,22.7 13.3,23 12.9,23.3 
			12.6,23.6 12.2,23.9 11.8,24.2 11.5,24.6 11.1,24.9 10.7,25.3 10.4,25.6 10,26 9.7,26.4 9.3,26.8 9,27.2 8.7,27.6 8.3,28 8,28.4 
			7.7,28.8 7.4,29.2 7.1,29.6 6.8,30.1 6.5,30.5 6.2,30.9 5.9,31.4 5.6,31.8 5.4,32.3 5.1,32.7 4.8,33.2 4.6,33.7 4.3,34.1 
			4.1,34.6 3.9,35.1 3.6,35.5 3.4,36 3.2,36.5 3,37 2.8,37.5 2.6,37.9 2.4,38.4 2.2,38.9 2.1,39.4 1.9,39.9 1.8,40.4 1.6,40.9 
			1.5,41.3 1.4,41.8 1.2,42.3 1.1,42.8 1,43.3 0.9,43.8 0.9,44.3 0.8,44.8 0.7,45.2 0.7,45.7 0.6,46.2 0.6,46.7 0.6,47.1 0.5,47.6 
			0.5,48.1 0.5,48.4 0.5,48.7 0.6,48.9 0.6,49.2 0.6,49.5 0.6,49.8 0.6,50.1 0.7,50.3 0.7,50.6 0.7,50.9 0.8,51.1 0.8,51.4 
			0.9,51.6 0.9,51.9 1,52.1 1.1,52.4 1.2,52.8 1.3,53.2 1.4,53.6 1.6,54 1.8,54.4 1.9,54.7 2.1,55.1 2.3,55.4 10.7,60.2 10.5,59.9 
			10.3,59.5 10.1,59.2 9.9,58.8 9.8,58.4 9.6,58 9.5,57.6 9.4,57.2 9.3,57 9.3,56.7 9.2,56.5 9.2,56.2 9.1,55.9 9.1,55.7 9,55.4 
			9,55.1 9,54.9 8.9,54.6 8.9,54.3 8.9,54 8.9,53.8 8.9,53.5 8.9,53.2 8.9,52.9 8.9,52.4 8.9,51.9 8.9,51.5 8.9,51 9,50.5 9,50 
			9.1,49.6 9.2,49.1 9.3,48.6 9.4,48.1 9.5,47.6 9.6,47.1 9.7,46.6 9.8,46.2 9.9,45.7 10.1,45.2 10.2,44.7 10.4,44.2 10.6,43.7 
			10.7,43.2 10.9,42.7 11.1,42.3 11.3,41.8 11.5,41.3 11.7,40.8 12,40.3 12.2,39.9 12.4,39.4 12.7,38.9 12.9,38.5 13.2,38 
			13.4,37.5 13.7,37.1 14,36.6 14.2,36.2 14.5,35.7 14.8,35.3 15.1,34.9 15.4,34.4 15.7,34 16,33.6 16.3,33.2 16.7,32.8 17,32.4 
			17.3,32 17.7,31.6 18,31.2 18.4,30.8 18.7,30.5 19.1,30.1 19.4,29.7 19.8,29.4 20.2,29.1 20.5,28.7 20.9,28.4 21.3,28.1 
			21.7,27.8 22,27.5 22.4,27.2 22.8,26.9 23.2,26.6 23.6,26.4 24,26.1 24.4,25.9 25.3,25.4 16.9,20.6 		"/>
		<path class="st5" d="M10.7,60.2l5.8-8.1c-0.2-0.4-0.3-0.9-0.4-1.3c-0.1-0.6-0.2-1.3-0.2-2c0-2.7,1-5.8,2.5-8.4
			c1.5-2.7,3.7-5,6-6.4l0.9-0.5c0.3-0.1,0.5,0,0.5,0.3v0l0,0v5.5l4.1-5.7c0,0,0,0,0-0.1l6.3-8.7l1.8-2.5l-12.2-2.9v5.3
			c0,0.3-0.2,0.7-0.5,0.8l0,0l-0.9,0.5c-4.3,2.5-8.2,6.8-11,11.6c-2.8,4.9-4.5,10.4-4.5,15.3c0,1.6,0.2,3,0.5,4.3
			C9.7,58.3,10.1,59.4,10.7,60.2z"/>
	</g>
	<g>
		<polygon class="st6" points="72.6,31.3 63.3,25.9 62.5,25.6 61.6,25.5 60.8,25.4 59.9,25.4 58.9,25.6 58,25.9 57,26.2 56,26.7 
			55,27.3 54,28 53.1,28.7 52.1,29.6 51.2,30.5 50.3,31.5 49.4,32.6 48.6,33.8 47.8,35 47.1,36.3 46.4,37.7 45.8,39.2 45.3,40.7 
			44.9,42.3 44.6,43.9 53.9,49.3 54.2,47.7 54.7,46.1 55.2,44.6 55.8,43.1 56.4,41.7 57.1,40.4 57.9,39.2 58.7,38 59.6,36.9 
			60.5,35.9 61.4,34.9 62.4,34.1 63.4,33.3 64.4,32.7 65.3,32.1 66.3,31.6 67.3,31.3 68.3,31 69.2,30.8 70.1,30.8 71,30.8 71.8,31 
					"/>
		<polygon class="st7" points="50.6,44.2 41.3,38.8 40.5,38.4 39.7,38.2 38.8,38.1 37.9,38.1 37,38.3 36,38.5 35.1,38.9 34.1,39.4 
			33.1,40 32.1,40.6 31.1,41.4 30.2,42.2 29.2,43.1 28.3,44.1 27.5,45.2 26.6,46.3 25.8,47.5 25.1,48.8 24.4,50.1 23.8,51.4 
			23.3,52.8 22.9,54.3 22.5,55.8 22.3,57.3 22.1,58.8 22,60.3 22.1,61.3 22.2,62.3 22.4,63.2 22.7,64 23.1,64.8 23.5,65.5 24,66.2 
			24.5,66.9 25.1,67.5 25.8,68.1 26.5,68.6 27.3,69.1 28,69.6 37.4,74.9 36.6,74.5 35.8,74 35.1,73.4 34.5,72.9 33.9,72.3 
			33.3,71.6 32.8,70.9 32.4,70.2 32,69.4 31.8,68.6 31.5,67.7 31.4,66.7 31.4,65.7 31.4,64.2 31.6,62.6 31.8,61.1 32.2,59.7 
			32.6,58.2 33.2,56.8 33.8,55.5 34.4,54.2 35.2,52.9 35.9,51.7 36.8,50.6 37.7,49.5 38.6,48.5 39.5,47.6 40.5,46.8 41.4,46 
			42.4,45.3 43.4,44.8 44.4,44.3 45.4,43.9 46.3,43.7 47.2,43.5 48.1,43.5 49,43.6 49.8,43.8 		"/>
		<path class="st8" d="M53.9,80c7.2-10.5,22.5-29.3,22.5-40.2c0-16.6-19.3-8.2-22.5,9.6c-3.2-14.1-22.5-0.2-22.5,16.4
			C31.4,76.7,46.6,77.8,53.9,80z"/>
	</g>
</g>
</svg>
