<?xml version="1.0" encoding="utf-8"?>
<!-- Generator: Adobe Illustrator 24.2.1, SVG Export Plug-In . SVG Version: 6.00 Build 0)  -->
<svg version="1.1" id="Layer_1" xmlns="http://www.w3.org/2000/svg" xmlns:xlink="http://www.w3.org/1999/xlink" x="0px" y="0px"
	 viewBox="0 0 100 100" style="enable-background:new 0 0 100 100;" xml:space="preserve">
<style type="text/css">
	.st0{fill:#384C22;}
	.st1{fill:#A4C639;}
	.st2{fill:#718A39;}
	.st3{fill:#FFD6A1;}
</style>
<g id="surface1">
	<path class="st0" d="M98.2,31c0-0.7-0.4-1.5-1.1-1.9L68.6,12.7c-2-1.2-4.5-1.2-6.6,0L2.9,46.8c-0.8,0.4-1.1,1.2-1.1,2l0,0V69l0,0
		c0,0.7,0.4,1.4,1.1,1.8l28.5,16.4c2,1.2,4.5,1.2,6.6,0l59.1-34.1c0.7-0.4,1.1-1.2,1.1-1.9h0L98.2,31L98.2,31z"/>
	<path class="st1" d="M2.9,46.8L62,12.7c2-1.2,4.5-1.2,6.6,0l28.5,16.4c1.5,0.8,1.5,2.9,0,3.8L38,67.1c-2,1.2-4.5,1.2-6.6,0
		L2.9,50.6C1.5,49.8,1.5,47.7,2.9,46.8z"/>
	<path class="st2" d="M98.2,37.3L38,72.1c-2,1.2-4.5,1.2-6.6,0L1.8,55v5.1l29.6,17.1c2,1.2,4.5,1.2,6.6,0l60.2-34.8V37.3z"/>
	<path class="st2" d="M2.9,70.9l28.5,16.4c2,1.2,4.5,1.2,6.6,0l59.1-34.1c0.7-0.4,1.1-1.2,1.1-1.9h0v-3.8L38,82.2
		c-2,1.2-4.5,1.2-6.6,0L1.8,65.2V69l0,0C1.9,69.7,2.2,70.4,2.9,70.9z"/>
	<path class="st3" d="M58.8,44c-5.1,2.9-12.8,3.3-17.2,0.7c-4.4-2.6-3.9-7,1.2-10c5.1-2.9,12.8-3.3,17.2-0.7
		C64.5,36.6,63.9,41.1,58.8,44z"/>
	<path class="st3" d="M88.3,29.1L68.6,17.8c-1-0.6-2.2-0.9-3.3-0.9c-1.1,0-2.3,0.3-3.3,0.9L11.7,46.8c-1.5,0.8-1.5,2.9,0,3.8
		L31.4,62c1,0.6,2.2,0.9,3.3,0.9s2.3-0.3,3.3-0.9l50.3-29.1C89.8,32.1,89.8,30,88.3,29.1z M39.5,56.3c-2-1.1-5.4-1-7.7,0.3
		c-0.8,0.5-1.4,1.1-1.7,1.6l-12.1-7c1-0.2,1.9-0.5,2.7-0.9c2.3-1.3,2.5-3.3,0.6-4.4c-0.5-0.3-1-0.5-1.6-0.6l40.1-23.1
		c0.2,0.4,0.6,0.7,1.1,1c2,1.1,5.4,1,7.7-0.3c0.7-0.4,1.1-0.8,1.5-1.3l11.8,6.8c-0.9,0.2-1.8,0.5-2.6,0.9c-2.3,1.3-2.5,3.3-0.6,4.4
		c0.6,0.3,1.2,0.5,2,0.7L40.6,57.4C40.4,57,40,56.6,39.5,56.3z"/>
</g>
</svg>
