<?xml version="1.0" encoding="utf-8"?>
<!-- Generator: Adobe Illustrator 24.2.1, SVG Export Plug-In . SVG Version: 6.00 Build 0)  -->
<svg version="1.1" id="Layer_1" xmlns="http://www.w3.org/2000/svg" xmlns:xlink="http://www.w3.org/1999/xlink" x="0px" y="0px"
	 viewBox="0 0 100 100" style="enable-background:new 0 0 100 100;" xml:space="preserve">
<style type="text/css">
	.st0{fill-rule:evenodd;clip-rule:evenodd;fill:#2D3F50;}
	.st1{fill-rule:evenodd;clip-rule:evenodd;fill:#42617E;}
	.st2{fill-rule:evenodd;clip-rule:evenodd;fill:#3E576F;}
	.st3{fill-rule:evenodd;clip-rule:evenodd;fill:#6995BF;}
	.st4{fill-rule:evenodd;clip-rule:evenodd;fill:#818181;}
	.st5{fill-rule:evenodd;clip-rule:evenodd;fill:#BBB9B8;}
	.st6{fill-rule:evenodd;clip-rule:evenodd;fill:#E6EAEA;}
	.st7{fill-rule:evenodd;clip-rule:evenodd;fill:#36495C;}
</style>
<g>
	<path class="st0" d="M91.4,39.5v11c0-1.2-0.3-2-0.7-1.8C63.6,64.4,49.4,72.6,22.3,88.2c-0.4,0.2-0.7,1.4-0.7,2.6v-11
		c0,1.2,0.3,2,0.7,1.8C49.4,66,63.6,57.8,90.7,42.2C91.1,42,91.4,40.8,91.4,39.5z"/>
	<path class="st1" d="M21.6,78.6c-0.4,0.2-0.7,0.8-0.7,1.3V96c0,3,2.1,4.2,4.7,2.7L87.5,63c2.6-1.5,4.7-5.2,4.7-8.2V38.7
		c0-0.5-0.3-0.6-0.7-0.4C66.4,52.8,47.9,63.5,21.6,78.6z"/>
	<path class="st2" d="M93.3,43.2V12.9c0-3-2.1-4.2-4.7-2.7L26.7,45.9C24.1,47.4,22,51,22,54v30.3c0,0.5,0.3,0.6,0.7,0.4L51.8,68
		v-1.6c0-1.2,0.8-2.6,1.8-3.1l8-4.6c1-0.6,1.8-0.1,1.8,1v1.6l29.1-16.8C93,44.2,93.3,43.7,93.3,43.2z"/>
	<polygon class="st3" points="63,58.5 61.8,57.8 61.9,57.9 62,58 62.1,58.1 62.2,58.3 62.3,58.4 62.3,58.6 62.3,58.8 62.4,59 
		62.4,60.6 63.5,61.3 63.5,59.6 63.5,59.4 63.4,59.3 63.4,59.1 63.3,58.9 63.3,58.8 63.2,58.7 63.1,58.6 	"/>
	<polygon class="st4" points="52.1,72.6 50.4,71.7 50.3,71.6 50.2,71.5 50.1,71.4 50,71.2 50,71.1 49.9,70.9 49.9,70.7 49.9,70.5 
		49.9,69.1 51,68.5 51.6,68.8 51.6,71.5 51.6,71.7 51.6,71.9 51.7,72 51.7,72.2 51.8,72.3 51.9,72.5 52,72.6 	"/>
	<g>
		<polygon class="st5" points="52.9,73.4 51.2,72.5 51.1,72.4 51,72.3 50.9,72.2 50.9,72 50.8,71.9 50.7,71.7 50.7,71.5 50.7,71.3 
			50.7,69.7 52.4,70.7 52.4,72.3 52.4,72.5 52.4,72.7 52.5,72.9 52.5,73 52.6,73.1 52.7,73.3 52.8,73.4 		"/>
		<polygon class="st5" points="52.4,70.7 50.7,69.7 50.7,67.3 52.4,68.3 		"/>
		<polygon class="st5" points="52.4,68.3 50.7,67.3 50.7,65.7 50.7,65.5 50.7,65.2 50.8,65 50.9,64.8 50.9,64.6 51,64.3 51.1,64.1 
			51.2,63.9 51.4,63.7 51.5,63.5 51.7,63.3 51.8,63.1 52,62.9 52.2,62.8 52.3,62.7 52.5,62.5 60.5,57.9 60.7,57.8 60.9,57.7 
			61.1,57.7 61.3,57.7 61.4,57.7 61.6,57.7 61.7,57.7 61.8,57.8 63.5,58.8 63.4,58.7 63.2,58.7 63.1,58.6 62.9,58.6 62.8,58.7 
			62.6,58.7 62.4,58.8 62.2,58.9 54.2,63.5 54,63.6 53.8,63.8 53.7,63.9 53.5,64.1 53.3,64.3 53.2,64.5 53.1,64.7 52.9,64.9 
			52.8,65.1 52.7,65.3 52.6,65.5 52.5,65.8 52.5,66 52.4,66.2 52.4,66.4 52.4,66.6 		"/>
	</g>
	<path class="st6" d="M64,63.9v1.6c0,1.2-0.8,2.6-1.8,3.1l-8,4.6c-1,0.6-1.8,0.1-1.8-1v-1.6v-2.4v-1.6c0-1.2,0.8-2.6,1.8-3.1l8-4.6
		c1-0.6,1.8-0.1,1.8,1v1.6V63.9z"/>
	<polygon class="st7" points="90.8,9.2 76.6,1 76.3,0.8 75.9,0.7 75.5,0.7 75.1,0.7 74.7,0.8 74.2,0.9 73.7,1.1 73.3,1.3 11.4,37 
		11.2,37.2 10.9,37.3 10.7,37.5 10.5,37.7 10.2,37.9 10,38.1 9.8,38.3 9.6,38.5 9.4,38.7 9.2,39 9,39.2 8.8,39.5 8.6,39.7 8.4,40 
		8.2,40.3 8.1,40.5 7.9,40.8 7.8,41.1 7.6,41.4 7.5,41.7 7.4,42 7.3,42.3 7.2,42.6 7.1,42.9 7,43.2 6.9,43.4 6.8,43.7 6.8,44 
		6.8,44.3 6.7,44.6 6.7,44.9 6.7,45.2 6.7,71.7 6.7,75.5 6.7,87.8 6.7,88.3 6.8,88.8 6.9,89.3 7.1,89.7 7.3,90 7.5,90.3 7.8,90.6 
		8.1,90.8 22.3,99 22,98.8 21.7,98.5 21.5,98.2 21.3,97.9 21.1,97.5 21,97 20.9,96.5 20.9,96 20.9,83.7 20.9,83.9 21,84 21,84.1 
		21.1,84.2 22.2,84.8 22.1,84.8 22.1,84.7 22,84.5 22,84.4 22,54 22,53.8 22,53.5 22.1,53.2 22.1,52.9 22.2,52.6 22.2,52.3 22.3,52 
		22.4,51.7 22.5,51.4 22.6,51.1 22.7,50.8 22.8,50.5 23,50.2 23.1,50 23.3,49.7 23.4,49.4 23.6,49.1 23.7,48.8 23.9,48.6 24.1,48.3 
		24.3,48.1 24.5,47.8 24.7,47.6 24.9,47.4 25.1,47.1 25.3,46.9 25.6,46.7 25.8,46.5 26,46.4 26.3,46.2 26.5,46 26.7,45.9 88.6,10.2 
		89.1,9.9 89.5,9.7 90,9.6 90.4,9.5 90.8,9.5 91.2,9.6 91.6,9.7 91.9,9.8 	"/>
	<g>
		<polygon class="st5" points="36.1,32.8 33.6,31.3 33.6,25.8 33.6,25.5 33.6,25.2 33.6,24.9 33.7,24.6 33.7,24.4 33.8,24.1 
			33.9,23.8 33.9,23.5 34,23.2 34.1,22.9 34.3,22.6 34.4,22.3 34.5,22 34.7,21.7 34.8,21.4 35,21.2 35.1,20.9 35.3,20.6 35.5,20.3 
			35.7,20.1 35.8,19.8 36,19.6 36.2,19.4 36.5,19.1 36.7,18.9 36.9,18.7 37.1,18.5 37.3,18.3 37.6,18.1 37.8,17.9 38,17.8 
			38.3,17.6 55.9,7.5 56.3,7.2 56.8,7 57.3,6.9 57.7,6.9 58.1,6.8 58.5,6.9 58.9,7 59.2,7.2 61.8,8.6 61.4,8.5 61.1,8.4 60.7,8.3 
			60.3,8.3 59.8,8.4 59.4,8.5 58.9,8.7 58.4,9 40.8,19.1 40.6,19.3 40.4,19.4 40.1,19.6 39.9,19.8 39.7,20 39.4,20.2 39.2,20.4 
			39,20.6 38.8,20.8 38.6,21.1 38.4,21.3 38.2,21.6 38,21.8 37.8,22.1 37.7,22.4 37.5,22.6 37.4,22.9 37.2,23.2 37.1,23.5 
			36.9,23.8 36.8,24.1 36.7,24.4 36.6,24.6 36.5,24.9 36.4,25.2 36.3,25.5 36.3,25.8 36.2,26.1 36.2,26.4 36.2,26.7 36.1,27 
			36.1,27.3 		"/>
		<polygon class="st5" points="59.8,19.1 57.3,17.6 57.3,12.6 57.3,12.4 57.3,12.2 57.2,12 57.1,11.9 57.1,11.7 57,11.6 56.9,11.5 
			56.8,11.4 59.3,12.9 59.4,13 59.5,13.1 59.6,13.2 59.7,13.3 59.8,13.5 59.8,13.7 59.8,13.8 59.8,14.1 		"/>
	</g>
	<path class="st6" d="M39.4,25.8v5.1l-3.3,1.9v-5.5c0-3,2.1-6.7,4.7-8.2L58.4,9c2.6-1.5,4.7-0.3,4.7,2.7v5.5l-3.3,1.9v-5.1
		c0-1.2-0.8-1.6-1.8-1l-16.8,9.7C40.3,23.3,39.4,24.7,39.4,25.8z"/>
	<polygon class="st0" points="8,40.6 7.9,40.8 7.8,41.1 7.6,41.4 7.5,41.7 7.4,42 7.3,42.3 7.2,42.6 7.1,42.9 7,43.2 6.9,43.4 
		6.8,43.7 6.8,44 6.8,44.3 6.7,44.6 6.7,44.9 6.7,45.2 6.7,71.7 6.7,75.5 6.7,87.8 6.7,88.3 6.8,88.8 6.9,89.3 7.1,89.7 7.3,90 
		7.5,90.3 7.8,90.6 8.1,90.8 22.3,99 22,98.8 21.7,98.5 21.5,98.2 21.3,97.9 21.1,97.5 21,97 20.9,96.5 20.9,96 20.9,83.7 
		20.9,83.9 21,84 21,84.1 21.1,84.2 22.2,84.8 22.1,84.8 22.1,84.7 22,84.5 22,84.4 22,54 22,53.8 22,53.5 22.1,53.2 22.1,52.9 
		22.2,52.6 22.2,52.3 22.3,52 22.4,51.7 22.5,51.4 22.6,51.1 22.7,50.8 22.8,50.5 23,50.2 23.1,50 23.3,49.7 23.4,49.5 	"/>
</g>
</svg>
