<?xml version="1.0" encoding="utf-8"?>
<!-- Generator: Adobe Illustrator 24.2.1, SVG Export Plug-In . SVG Version: 6.00 Build 0)  -->
<svg version="1.1" id="Layer_1" xmlns="http://www.w3.org/2000/svg" xmlns:xlink="http://www.w3.org/1999/xlink" x="0px" y="0px"
	 viewBox="0 0 100 100" style="enable-background:new 0 0 100 100;" xml:space="preserve">
<style type="text/css">
	.st0{fill-rule:evenodd;clip-rule:evenodd;fill:#C3A02E;}
	.st1{fill-rule:evenodd;clip-rule:evenodd;fill:#2D3F50;}
	.st2{fill-rule:evenodd;clip-rule:evenodd;fill:#425B74;}
	.st3{fill-rule:evenodd;clip-rule:evenodd;fill:#F9C13B;}
	.st4{fill-rule:evenodd;clip-rule:evenodd;fill:#F3CE47;}
	.st5{fill-rule:evenodd;clip-rule:evenodd;fill:#CF992A;}
	.st6{fill-rule:evenodd;clip-rule:evenodd;fill:#E6EAEA;}
	.st7{fill-rule:evenodd;clip-rule:evenodd;fill:#BDC3C7;}
	.st8{fill-rule:evenodd;clip-rule:evenodd;fill:#818181;}
	.st9{fill-rule:evenodd;clip-rule:evenodd;fill:#D1AF2B;}
	.st10{fill-rule:evenodd;clip-rule:evenodd;fill:#FFD950;}
</style>
<g>
	<g>
		<path class="st0" d="M74.1,9.8l-2.8-1.6l-0.2,0.9L71,10l-0.2,0.9l-0.2,1l-0.2,1l0,0.1c1.1,0.8,2,1.6,2.7,2.5l0.2-1l0.2-1l0.2-1
			l0.2-0.9l0.2-0.9L74.1,9.8z"/>
		<polygon class="st1" points="75.3,77.2 75.3,86.4 75.2,87 75.1,87.6 74.9,88.2 74.7,88.8 74.5,89.4 74.1,90 73.8,90.6 73.3,91.2 
			72.9,91.8 72.3,92.3 71.7,92.9 71.1,93.4 70.4,93.9 69.7,94.4 69,94.9 68.2,95.3 67.4,95.7 66.6,96.1 65.7,96.5 64.8,96.8 
			63.9,97.1 63,97.4 62,97.6 61,97.9 60.1,98.1 59,98.2 58,98.4 57,98.5 56,98.6 54.9,98.6 53.9,98.7 52.8,98.7 51.7,98.6 
			50.7,98.6 49.6,98.5 48.6,98.3 47.5,98.2 46.5,98 45.5,97.8 44.4,97.5 43.4,97.3 42.4,97 41.5,96.6 40.6,96.3 39.7,95.9 
			38.8,95.5 38.1,95 37.3,94.6 36.6,94.1 35.9,93.6 35.3,93.1 34.7,92.6 34.2,92.1 33.7,91.6 33.3,91 32.9,90.4 32.5,89.9 
			32.2,89.3 32,88.7 31.8,88.1 31.7,87.5 31.6,86.9 31.5,86.3 31.5,77.1 31.6,77.7 31.7,78.3 31.8,78.9 32,79.5 32.2,80.1 
			32.5,80.7 32.9,81.3 33.3,81.8 33.7,82.4 34.2,82.9 34.7,83.5 35.3,84 35.9,84.5 36.6,85 37.3,85.4 38.1,85.9 38.8,86.3 
			39.7,86.7 40.6,87.1 41.5,87.5 42.4,87.8 43.4,88.1 44.4,88.4 45.5,88.6 46.5,88.8 47.5,89 48.6,89.2 49.6,89.3 50.7,89.4 
			51.7,89.5 52.8,89.5 53.9,89.5 54.9,89.5 56,89.4 57,89.3 58,89.2 59,89.1 60.1,88.9 61,88.7 62,88.5 63,88.2 63.9,87.9 
			64.8,87.6 65.7,87.3 66.6,86.9 67.4,86.5 68.2,86.1 69,85.7 69.7,85.2 70.4,84.8 71.1,84.3 71.7,83.7 72.3,83.2 72.9,82.6 
			73.3,82 73.8,81.4 74.1,80.8 74.5,80.2 74.7,79.6 74.9,79 75.1,78.4 75.2,77.8 		"/>
		<path class="st2" d="M42.4,87.8c-10.5-3.5-14-11.2-8-17.3c6-6,19.4-8.1,29.9-4.6c10.5,3.5,14.1,11.2,8,17.3
			C66.3,89.2,52.9,91.3,42.4,87.8z"/>
		<path class="st3" d="M53.6,8.5c-5.6,0-11.1,1.2-15.3,3.7c-3.3,1.9-6.6,5.1-6.3,9.3c0.4,6.6,5.7,24.2,12.1,27.9
			c12.9,7.4-5.2,10.4,3.6,15.4c0,0,0,0,0,0c0.4,0.2,0.6,0.6,0.6,1l0,0.3c0,0.6-0.4,1-0.9,1.1c-3,0.8-5.7,2.1-7.5,3.8
			c-4.4,4.4-1.8,10,5.8,12.5c4.9,1.6,11,1.6,15.9,0c7.6-2.5,10.2-8.2,5.8-12.5c-1.8-1.8-4.4-3.1-7.5-3.8c-0.5-0.1-0.9-0.6-0.9-1.1
			l0-0.3c0-0.4,0.2-0.8,0.6-1c0,0,0,0,0,0c8.8-5.1-9.3-8,3.6-15.4c6.4-3.7,11.7-21.3,12.1-27.9c0.2-4.2-3-7.3-6.3-9.3
			C64.7,9.7,59.1,8.5,53.6,8.5z"/>
		<path class="st4" d="M59.5,84.2L59.5,84.2L59.5,84.2c0.7-0.2,1.3-0.5,2-0.6c7.6-2.5,10.2-8.1,5.8-12.5c-1.5-1.5-3.6-2.6-6-3.4l0,0
			l0,0l0,0l0,0l0,0l0,0l0,0l0,0l0,0l0,0l0,0l0,0l0,0l0,0l0,0l0,0l0,0c-0.4-0.1-0.7-0.2-1.1-0.3c-0.5-0.1-0.9-0.6-0.9-1.1v0v0v0
			l0-0.3c0-0.4,0.2-0.8,0.6-1c0,0,0,0,0,0c8.8-5.1-9.3-8,3.6-15.4c0.1-0.1,0.2-0.1,0.3-0.2c0.1-0.1,0.2-0.1,0.3-0.2
			c0.1-0.1,0.2-0.1,0.3-0.2c0.1-0.1,0.2-0.2,0.3-0.2c0.1-0.1,0.2-0.2,0.3-0.3c0.1-0.1,0.2-0.2,0.3-0.3c0.1-0.1,0.2-0.2,0.3-0.3
			c0.1-0.1,0.2-0.2,0.3-0.3c0.1-0.1,0.2-0.2,0.3-0.3c0.1-0.1,0.2-0.2,0.3-0.3c0.1-0.1,0.2-0.2,0.3-0.4c0.1-0.1,0.2-0.2,0.3-0.4
			c0.1-0.1,0.2-0.3,0.3-0.4c0.1-0.1,0.2-0.3,0.3-0.4c0.1-0.1,0.2-0.3,0.3-0.4c0.1-0.1,0.2-0.3,0.3-0.4c0.1-0.1,0.2-0.3,0.3-0.4
			c0.1-0.1,0.2-0.3,0.3-0.4c0.1-0.1,0.2-0.3,0.3-0.5c0.1-0.2,0.2-0.3,0.3-0.5c0.1-0.2,0.2-0.3,0.3-0.5s0.2-0.3,0.2-0.5
			c0.1-0.2,0.2-0.3,0.2-0.5c0.1-0.2,0.2-0.3,0.2-0.5c0.1-0.2,0.2-0.3,0.2-0.5c0.1-0.2,0.2-0.3,0.2-0.5c0.1-0.2,0.2-0.3,0.2-0.5
			c0.1-0.2,0.1-0.3,0.2-0.5c0.1-0.2,0.1-0.3,0.2-0.5l0.2-0.5c0.1-0.2,0.1-0.4,0.2-0.5c0.1-0.2,0.1-0.4,0.2-0.5
			c0.1-0.2,0.1-0.4,0.2-0.5l0.2-0.5l0,0l0.2-0.5l0.2-0.5l0,0c0.1-0.2,0.1-0.4,0.2-0.5l0.2-0.5l0,0l0.2-0.5l0.2-0.5l0.2-0.5l0.2-0.5
			l0,0l0.2-0.5l0.1-0.5l0.1-0.5c0-0.2,0.1-0.3,0.1-0.5l0.1-0.5l0.1-0.5l0.1-0.5l0.1-0.5l0.1-0.5l0.1-0.5l0,0l0.1-0.5l0,0l0.1-0.4v0
			l0.1-0.4l0,0c0-0.1,0.1-0.3,0.1-0.4l0,0L75,24l0,0c0-0.1,0-0.3,0.1-0.4l0,0l0.1-0.4l0,0c0-0.1,0-0.3,0.1-0.4l0,0
			c0-0.1,0-0.2,0-0.4v0c0-0.1,0-0.2,0-0.3v0c0-0.1,0-0.2,0-0.3c0-0.1,0-0.2,0-0.3v0l0-0.2l0,0l0-0.2l0,0c0-0.1,0-0.1,0-0.2l0,0
			c0-0.1,0-0.1,0-0.2l0,0l0-0.2l0,0c0-0.1,0-0.1,0-0.2l0,0c0-0.1,0-0.1,0-0.2l0,0c0-0.1,0-0.1,0-0.2v0c0-0.1,0-0.1,0-0.2l0,0l0-0.2
			l0,0l0-0.2c0-0.1,0-0.1,0-0.2l0,0l0-0.2l0,0L75,18.8l0,0l-0.1-0.2l0,0l-0.1-0.2l-0.1-0.2l0,0l-0.1-0.2l0,0L74.6,18l-0.1-0.2l0,0
			l-0.1-0.2c0-0.1-0.1-0.1-0.1-0.2l-0.1-0.2l-0.1-0.2L74.1,17l-0.1-0.2l0,0L74,16.7l-0.1-0.2l0,0l-0.1-0.2l0,0l-0.1-0.1l-0.1-0.1
			L73.4,16l-0.1-0.1l-0.1-0.1l-0.1-0.1L73,15.4l-0.1-0.1l-0.1-0.1L72.6,15l-0.1-0.1l-0.1-0.1l-0.1-0.1l-0.1-0.1l-0.1-0.1l-0.1-0.1
			l-0.1-0.1L71.5,14l-0.1-0.1l-0.1-0.1l-0.1-0.1l-0.1-0.1l-0.1-0.1l-0.2-0.1l-0.2-0.1L70.3,13l-0.2-0.1L70,12.8l-0.2-0.1l-0.2-0.1
			l-0.2-0.1l-0.2-0.1l-0.2-0.1l-0.2-0.1l-0.2-0.1L68.7,12l0,0l-0.2-0.1l0,0l-0.2-0.1l0,0l0,0l0,0l-0.2-0.1l0,0l0,0l0,0l0,0l0,0l0,0
			l0,0l0,0l0,0l0,0l0,0l0,0l0,0l0,0l0,0l0,0l0,0l0,0l0,0l0,0l0,0l0,0l0,0l0,0l0,0l0,0h0l0,0l0,0l0,0l0,0l0,0l0,0l0,0l0,0l0,0l0,0
			l0,0l0,0l0,0l0,0l0,0l0,0l0,0l0,0l0,0l0,0l0,0l0,0l0,0l0,0l0,0l0,0l0,0l0,0l0,0l0,0l0,0l0,0l0,0l0,0l0,0l0,0l0,0l0,0l-0.2-0.1h0
			l-0.2-0.1l0,0v0l0,0l-0.2-0.1h0l-0.2-0.1l0,0h0l0,0l0,0l-0.1,0l0,0l0,0l0,0l-0.1,0l0,0l0,0l0,0l0,0l-0.1-0.1l0,0l0,0l0,0l0,0l0,0
			l-0.1,0l-0.1,0l0,0l0,0l0,0l-0.1,0l0,0l0,0l0,0l0,0c-3.5-1.1-7.5-1.6-11.4-1.6c-1.2,0-2.5,0.1-3.7,0.2c4.7,0.4,9.1,1.6,12.7,3.5
			c3.6,1.9,7.1,5.1,6.8,9.2C70,28.4,69,45.6,62,49.1c-12.9,6.4,4.9,11.1-3.4,15.4c-0.4,0.2-0.6,0.6-0.6,1.1l0,1.9
			c0,0.5,0.3,1,0.8,1.1c2.7,0.9,5.4,1.8,6.2,3.7C66.5,75.8,65.4,81.9,59.5,84.2z"/>
		<path class="st5" d="M23.9,34.9l-2.8-1.6l0.3,1.1l0.3,1.1l0.3,1.2l0.3,1.2l0.3,1.2l0.3,1.2l1.8,6.8c0.5,1.7,1.7,3.8,2.7,5.3
			l0.6,0.8l0.7,0.7l0.7,0.7l0.8,0.6l2.8,1.6l-0.8-0.6l-0.7-0.7l-0.7-0.7L30.1,54l-0.6-0.9L29,52.2l-0.5-1l-0.5-1L27.6,49l-0.4-1.1
			l-1.9-7.2l-0.3-1.2l-0.3-1.2l-0.3-1.2L24.2,36L23.9,34.9z"/>
		<polygon class="st1" points="75.2,80 75.2,84.2 75.1,84.8 75,85.4 74.9,86 74.7,86.6 74.4,87.2 74.1,87.8 73.7,88.4 73.3,89 
			72.8,89.6 72.3,90.1 71.7,90.7 71,91.2 70.4,91.7 69.7,92.2 68.9,92.7 68.2,93.1 67.4,93.5 66.5,93.9 65.7,94.2 64.8,94.6 
			63.9,94.9 62.9,95.2 62,95.4 61,95.6 60,95.8 59,96 58,96.1 57,96.3 55.9,96.3 54.9,96.4 53.9,96.4 52.8,96.4 51.7,96.4 
			50.7,96.3 49.6,96.2 48.6,96.1 47.5,96 46.5,95.8 45.5,95.6 44.5,95.3 43.5,95.1 42.5,94.7 41.5,94.4 40.6,94 39.7,93.7 
			38.9,93.3 38.1,92.8 37.4,92.4 36.7,91.9 36,91.4 35.4,90.9 34.8,90.4 34.3,89.9 33.8,89.4 33.4,88.8 33,88.3 32.6,87.7 
			32.3,87.1 32.1,86.5 31.9,85.9 31.7,85.3 31.6,84.7 31.6,84.1 31.6,80 31.6,80.6 31.7,81.2 31.9,81.8 32.1,82.4 32.3,83 
			32.6,83.5 33,84.1 33.4,84.7 33.8,85.2 34.3,85.8 34.8,86.3 35.4,86.8 36,87.3 36.7,87.8 37.4,88.2 38.1,88.7 38.9,89.1 
			39.7,89.5 40.6,89.9 41.5,90.3 42.5,90.6 43.5,90.9 44.5,91.2 45.5,91.4 46.5,91.6 47.5,91.8 48.6,92 49.6,92.1 50.7,92.2 
			51.7,92.3 52.8,92.3 53.9,92.3 54.9,92.3 55.9,92.2 57,92.1 58,92 59,91.9 60,91.7 61,91.5 62,91.3 62.9,91 63.9,90.7 64.8,90.4 
			65.7,90.1 66.5,89.7 67.4,89.4 68.2,89 68.9,88.5 69.7,88.1 70.4,87.6 71,87.1 71.7,86.5 72.3,86 72.8,85.4 73.3,84.8 73.7,84.3 
			74.1,83.7 74.4,83.1 74.7,82.5 74.9,81.9 75,81.3 75.1,80.6 		"/>
		<polygon class="st6" points="61.5,95.5 61.5,91.4 62,91.3 62.9,91 63.9,90.7 64.8,90.4 65.7,90.1 66.5,89.7 67.4,89.4 68.2,89 
			68.9,88.5 69.7,88.1 70.4,87.6 71,87.1 71.7,86.5 72.3,86 72.8,85.4 73.3,84.8 73.7,84.3 74.1,83.7 74.4,83.1 74.6,82.7 
			74.6,82.7 74.6,86.7 74.4,87.2 74.1,87.8 73.7,88.4 73.3,89 72.8,89.6 72.3,90.1 71.7,90.7 71,91.2 70.4,91.7 69.7,92.2 
			68.9,92.7 68.2,93.1 67.4,93.5 66.5,93.9 65.7,94.2 64.8,94.6 63.9,94.9 62.9,95.2 62,95.4 		"/>
		<path class="st7" d="M74.6,82.7c-0.5,1.1-1.2,2.2-2.3,3.3c-2.6,2.6-6.6,4.5-11.2,5.5v-0.3c4.4-1,8.2-2.8,10.7-5.3
			c1.1-1.1,1.8-2.2,2.3-3.3L74.6,82.7z"/>
		<polygon class="st8" points="61.1,91.2 61.5,91.4 61.5,95.5 61.1,95.3 		"/>
		<path class="st9" d="M45.9,49.7c-2.2,1.4-3.5,2-7.2,2.6l-0.6,0.1l-0.5,0l-0.8-0.1L36,52.3l-0.7-0.2l-0.7-0.3l-0.7-0.3
			c3.3,3.1,8.2,3.8,13.5,0.5l0.9-0.4C47.7,50.9,46.9,50.3,45.9,49.7z"/>
		<path class="st3" d="M74.2,26.9c2.4-8.1,3.3-16.5,5-23.9L66,10.6c1,0.4,1.9,0.8,2.7,1.3c0.2,0.1,0.5,0.3,0.7,0.4l0.2,0.1l0,0h0
			l4.5-2.6c-0.3,1.7-0.6,3.6-1,5.7c1.2,1.4,1.8,3,2,4.5c0,0.4,0.1,0.8,0,1.2C75,22.6,74.7,24.6,74.2,26.9z"/>
		<path class="st5" d="M54.7,9c-5.5,0-10.9,1.2-15.1,3.6c-3.3,1.9-6.5,5.1-6.3,9.2c0.4,6.5,5.6,23.9,11.9,27.5
			c12.4,7.2-4.3,10.5,3,15.3c0.3,0.2,0.5,0.6,0.5,1l0,0.8c0,0.6-0.4,1-0.9,1.1c-2.1,0.5-6.4,1.7-8.2,5.2c-1.9,3.9,0.9,8.2,7.2,10.3
			c3.5,1.2,7.5,1.5,11.2,1c-9.8-1.3-16.1-6.9-15.2-10.6c1.1-4.4,6.7-3,8.3-7.4c0.5-1.3,0.1-1.3-0.9-2.4c-6.9-7.2,9.3-8.2-3.4-15.5
			c-6.4-3.7-6.4-19.9-6.8-26.4c-0.2-4.1,3-7.2,6.3-9.2c3.3-1.9,7.4-3.1,11.7-3.5C57,9.1,55.8,9,54.7,9z"/>
		<path class="st10" d="M68.8,11.9C60.3,7,46.5,7,38,11.9c-8.5,4.9-8.5,12.9,0,17.8c8.5,4.9,22.3,4.9,30.8,0
			C77.3,24.8,77.3,16.8,68.8,11.9z"/>
		<path class="st0" d="M64.9,14.2c-6.3-3.7-16.6-3.7-22.9,0c-6.3,3.7-6.3,9.6,0,13.3c6.3,3.7,16.6,3.7,23,0
			C71.2,23.7,71.2,17.8,64.9,14.2z"/>
		<path class="st10" d="M79.1,3l-2.8-1.6l-2.1,1.2l-2.1,1.2l-2.1,1.2l-2.1,1.2l-2.1,1.2c-3.4,2,1.4-0.8-2,1.2L62,9.6l-0.1,0.1
			c1.3,0.3,2.6,0.6,3.8,1c3.1-1.8-2,1.2,1.1-0.6l2.1-1.2l2.1-1.2L73,6.5L75,5.3l2.1-1.2L79.1,3L79.1,3z M34.2,25.7l-1,0.6l-3.9,2.2
			l-2.1,1.2l-2.1,1.2l-4.3,2.5l0.2-0.1l2.8,1.6l2.1-1.2l2.1-1.2l2.1-1.2l3.9-2.2l2-1.2C35.3,27.2,34.7,26.4,34.2,25.7z"/>
		<path class="st3" d="M23.9,34.9l1.5,5.8l1.9,7.2c2,7.7,6.2,12.7,16,9.2c2.5-1,3.6-1.4,6.3-2.8c0.2-0.4,0.3-0.7,0.2-1.1
			c-0.3-0.5-0.7-1.1-1.3-1.7c-4.5,2.3-6,2.6-7.9,2.6c-4.6-0.1-7.7-3.6-8.9-8.3l-1.7-6.3c-0.4-1.3-0.5-2.6-0.8-3.6l6.1-3.5l1.4-0.8
			c-0.4-1.1-0.7-2-0.8-3.5L23.9,34.9z"/>
	</g>
</g>
</svg>
