<?xml version="1.0" encoding="utf-8"?>
<!-- Generator: Adobe Illustrator 24.2.1, SVG Export Plug-In . SVG Version: 6.00 Build 0)  -->
<svg version="1.1" id="Layer_1" xmlns="http://www.w3.org/2000/svg" xmlns:xlink="http://www.w3.org/1999/xlink" x="0px" y="0px"
	 viewBox="0 0 100 100" style="enable-background:new 0 0 100 100;" xml:space="preserve">
<style type="text/css">
	.st0{fill-rule:evenodd;clip-rule:evenodd;fill:#2D3F50;}
	.st1{fill-rule:evenodd;clip-rule:evenodd;fill:#36495C;}
	.st2{fill-rule:evenodd;clip-rule:evenodd;fill:#849CC9;}
	.st3{fill-rule:evenodd;clip-rule:evenodd;fill:#3E576F;}
	.st4{fill-rule:evenodd;clip-rule:evenodd;fill:#5F5F6A;}
	.st5{fill-rule:evenodd;clip-rule:evenodd;fill:#737381;}
	.st6{fill-rule:evenodd;clip-rule:evenodd;fill:#808190;}
	.st7{fill-rule:evenodd;clip-rule:evenodd;fill:#A7AFB4;}
	.st8{fill-rule:evenodd;clip-rule:evenodd;fill:#E6EAEA;}
	.st9{fill-rule:evenodd;clip-rule:evenodd;fill:#686875;}
	.st10{fill-rule:evenodd;clip-rule:evenodd;fill:#B6CAE9;}
	.st11{fill-rule:evenodd;clip-rule:evenodd;fill:#CCCCCC;}
	.st12{fill-rule:evenodd;clip-rule:evenodd;fill:#E6E6E5;}
</style>
<g>
	<g>
		<g>
			<polygon class="st0" points="99.1,40.4 99.1,58.8 99,59.5 98.7,60.1 98.2,60.7 97.4,61.2 97.4,42.8 98.2,42.2 98.7,41.6 99,41 
							"/>
			<polygon class="st0" points="97.4,42.8 97.4,61.2 95.7,62.2 94.1,63.2 92.5,64.1 90.9,65 89.3,65.9 87.7,66.8 86.2,67.7 
				84.7,68.6 83.2,69.5 81.7,70.3 80.2,71.2 78.7,72.1 77.2,72.9 75.7,73.8 74.2,74.6 72.8,75.5 71.3,76.3 69.8,77.2 68.3,78 
				66.9,78.9 65.4,79.7 63.9,80.6 62.4,81.5 60.8,82.3 59.3,83.2 57.8,84.1 56.2,85 54.6,85.9 53,86.9 51.4,87.8 49.8,88.7 
				48.1,89.7 47.7,89.9 47.2,90.1 46.7,90.3 46.2,90.4 45.6,90.5 45.1,90.6 44.5,90.7 44,90.7 43.4,90.7 42.8,90.6 42.3,90.5 
				41.7,90.4 41.2,90.3 40.7,90.1 40.2,89.9 39.8,89.7 38.4,88.9 37.1,88.1 35.8,87.4 34.5,86.7 33.3,86 32.1,85.3 30.9,84.6 
				29.8,83.9 28.7,83.3 27.6,82.6 26.5,82 25.4,81.4 24.3,80.8 23.3,80.2 22.2,79.6 21.2,79 20.1,78.4 19.1,77.7 18,77.1 17,76.5 
				15.9,75.9 14.8,75.3 13.7,74.6 12.6,74 11.5,73.3 10.3,72.7 9.1,72 7.9,71.3 6.6,70.5 5.3,69.8 4,69 2.6,68.2 1.8,67.7 1.3,67.1 
				1,66.5 0.9,65.8 0.9,47.3 1,48 1.3,48.6 1.8,49.2 2.6,49.7 4,50.5 5.3,51.3 6.6,52 7.9,52.8 9.1,53.5 10.3,54.2 11.5,54.8 
				12.6,55.5 13.7,56.2 14.8,56.8 15.9,57.4 17,58 18,58.7 19.1,59.3 20.1,59.9 21.2,60.5 22.2,61.1 23.3,61.7 24.3,62.3 25.4,62.9 
				26.5,63.5 27.6,64.2 28.7,64.8 29.8,65.4 30.9,66.1 32.1,66.8 33.3,67.5 34.5,68.2 35.8,68.9 37.1,69.6 38.4,70.4 39.8,71.2 
				40.2,71.4 40.7,71.6 41.2,71.8 41.7,72 42.3,72.1 42.8,72.1 43.4,72.2 44,72.2 44.5,72.2 45.1,72.1 45.6,72.1 46.2,72 46.7,71.8 
				47.2,71.6 47.7,71.4 48.1,71.2 49.8,70.2 51.4,69.3 53,68.4 54.6,67.4 56.2,66.5 57.8,65.6 59.3,64.7 60.8,63.9 62.4,63 
				63.9,62.1 65.4,61.3 66.9,60.4 68.3,59.5 69.8,58.7 71.3,57.8 72.8,57 74.2,56.1 75.7,55.3 77.2,54.4 78.7,53.6 80.2,52.7 
				81.7,51.9 83.2,51 84.7,50.1 86.2,49.2 87.7,48.3 89.3,47.4 90.9,46.5 92.5,45.6 94.1,44.7 95.7,43.7 			"/>
		</g>
		<path class="st1" d="M51.9,16.5c2.3-1.3,6-1.3,8.3,0c15.1,8.7,22.1,12.8,37.2,21.5c2.3,1.3,2.3,3.5,0,4.8
			C79.5,53.1,66,60.9,48.1,71.2c-2.3,1.3-6,1.3-8.3,0C24.9,62.6,17.5,58.3,2.6,49.7c-2.3-1.3-2.3-3.5,0-4.8
			C10.9,40.1,33.4,27.2,51.9,16.5z"/>
		<path class="st2" d="M56.9,22.2c2.6,1.5,2.1,1.2,4.7,2.7c0.4,0.2,0.4,0.5,0,0.7L39.4,38.5c-0.4,0.2-0.9,0.2-1.3,0l-4.7-2.7
			c-0.4-0.2-0.4-0.5,0-0.7l22.3-12.9C56,22,56.6,22,56.9,22.2z"/>
		<polygon class="st3" points="97.4,61.2 95.7,62.2 94.1,63.2 92.5,64.1 90.9,65 89.3,65.9 87.7,66.8 86.2,67.7 84.7,68.6 
			83.2,69.5 81.7,70.3 80.2,71.2 78.7,72.1 77.2,72.9 75.7,73.8 74.2,74.6 72.8,75.5 71.3,76.3 69.8,77.2 68.3,78 66.9,78.9 
			65.4,79.7 63.9,80.6 62.4,81.5 60.8,82.3 59.3,83.2 57.8,84.1 56.2,85 54.6,85.9 53,86.9 51.4,87.8 49.8,88.7 48.1,89.7 
			47.7,89.9 47.2,90.1 46.7,90.3 46.2,90.4 45.6,90.5 45.1,90.6 44.5,90.7 44,90.7 44,72.2 44.5,72.2 45.1,72.1 45.6,72.1 46.2,72 
			46.7,71.8 47.2,71.6 47.7,71.4 48.1,71.2 49.8,70.2 51.4,69.3 53,68.4 54.6,67.4 56.2,66.5 57.8,65.6 59.3,64.7 60.8,63.9 
			62.4,63 63.9,62.1 65.4,61.3 66.9,60.4 68.3,59.5 69.8,58.7 71.3,57.8 72.8,57 74.2,56.1 75.7,55.3 77.2,54.4 78.7,53.6 
			80.2,52.7 81.7,51.9 83.2,51 84.7,50.1 86.2,49.2 87.7,48.3 89.3,47.4 90.9,46.5 92.5,45.6 94.1,44.7 95.7,43.7 97.4,42.8 
			98.2,42.2 98.7,41.6 99,41 99.1,40.4 99.1,58.8 99,59.5 98.7,60.1 98.2,60.7 		"/>
		<polygon class="st4" points="6.3,47 6.3,49.4 8.8,50.9 8.8,48.4 		"/>
		<polygon class="st5" points="8.8,48.4 8.8,50.9 28.3,39.6 28.3,37.2 		"/>
		<polygon class="st6" points="25.8,35.7 6.3,47 8.8,48.4 28.3,37.2 		"/>
		<g>
			<polygon class="st7" points="11.7,51.7 10.2,50.8 10.2,46.8 10.2,43 10.2,41.5 10.2,28.6 10.2,27.1 10.2,23.3 10.2,19.3 
				10.7,19.6 11.8,19 12.8,17.2 13.9,17.8 15,17.1 16.1,15.3 17.1,15.9 18.3,15.2 19.3,13.5 20.3,14 21.5,13.4 22.5,11.6 23.6,12.2 
				24.7,11.5 25.8,9.7 26.8,10.3 27.8,9.7 28,9.3 29.5,10.2 29.3,10.6 28.3,11.2 27.2,10.6 26.2,12.4 25,13 24,12.4 23,14.2 
				21.8,14.9 20.8,14.3 19.7,16.1 18.6,16.8 17.5,16.2 16.5,17.9 15.3,18.6 14.3,18 13.3,19.8 12.2,20.4 11.7,20.1 11.7,24.1 
				11.7,28 11.7,29.5 11.7,42.3 11.7,43.8 11.7,47.7 			"/>
			<polygon class="st8" points="29.5,17.7 29.5,19.2 29.5,32 29.5,33.5 29.5,37.4 29.5,41 29.3,40.9 28.3,41.5 27.2,43.3 26.2,42.7 
				25,43.4 24,45.1 23,44.5 21.8,45.2 20.8,47 19.7,46.4 18.6,47.1 17.5,48.9 16.5,48.3 15.3,49 14.3,50.7 13.3,50.1 12.2,50.8 
				11.7,51.7 11.7,47.7 11.7,43.8 11.7,42.3 11.7,29.5 11.7,28 11.7,24.1 11.7,20.1 12.2,20.4 13.3,19.8 14.3,18 15.3,18.6 
				16.5,17.9 17.5,16.2 18.6,16.8 19.7,16.1 20.8,14.3 21.8,14.9 23,14.2 24,12.4 25,13 26.2,12.4 27.2,10.6 28.3,11.2 29.3,10.6 
				29.5,10.2 29.5,13.8 			"/>
			<polygon class="st9" points="13.9,31.8 26.3,24.6 26.3,25.1 13.9,32.3 			"/>
			<polygon class="st9" points="13.9,34.9 27.4,27.1 27.4,27.7 13.9,35.5 			"/>
			<polygon class="st9" points="13.9,38.2 24.5,32 24.5,32.6 13.9,38.7 			"/>
			<polygon class="st9" points="13.9,45.6 19.2,42.5 19.2,43.1 13.9,46.1 			"/>
			<polygon class="st9" points="24.6,39.3 27.3,37.8 27.3,38.4 24.6,39.9 			"/>
			<polygon class="st9" points="13.9,22.5 17.9,20.1 17.9,20.7 13.9,23.1 			"/>
			<polygon class="st9" points="22.8,17.3 27.3,14.8 27.3,15.3 22.8,17.9 			"/>
			<polygon class="st9" points="13.9,25.3 21.4,20.9 21.4,21.5 13.9,25.9 			"/>
			<polygon class="st9" points="26,18.3 27.3,17.6 27.3,18.1 26,18.9 			"/>
		</g>
		<polygon class="st4" points="11.1,49.7 11.1,52.2 13.7,53.7 13.7,51.2 		"/>
		<polygon class="st5" points="13.7,51.2 13.7,53.7 33.2,42.4 33.2,39.9 		"/>
		<polygon class="st6" points="30.6,38.5 11.1,49.7 13.7,51.2 33.2,39.9 		"/>
		<path class="st10" d="M61.7,25.6L61.7,25.6L39.4,38.5c-0.4,0.2-0.9,0.2-1.3,0l-4.7-2.7l0,0l0,0l22.3-12.9c0.4-0.2,0.9-0.2,1.3,0
			C59.5,24.4,59.1,24.1,61.7,25.6L61.7,25.6z"/>
		<path class="st3" d="M58,27.3l2.2-1.3l0,0c0.2-0.1,0.2-0.3,0-0.5l-3.6-2.1l0,0c-0.2-0.1-0.6-0.1-0.8,0l-2.2,1.3l0,0
			c-0.2,0.1-0.2,0.3,0,0.5l3.6,2.1l0,0C57.4,27.5,57.8,27.5,58,27.3L58,27.3z M59,25.8l-1.4,0.8L54.8,25l1.4-0.8L59,25.8z"/>
		<g>
			<polygon class="st11" points="56.5,40 56.5,41.1 56.5,41.2 56.4,41.3 56.4,41.4 56.2,41.5 51,44.5 50.8,44.6 50.7,44.6 
				50.5,44.6 50.3,44.7 50.1,44.6 50,44.6 49.8,44.6 49.7,44.5 44.7,41.6 44.6,41.6 44.5,41.5 44.5,41.4 44.5,41.3 44.5,40.2 
				44.5,40.3 44.5,40.4 44.6,40.5 44.7,40.6 49.7,43.5 49.8,43.5 50,43.6 50.1,43.6 50.3,43.6 50.5,43.6 50.7,43.6 50.8,43.5 
				51,43.5 56.2,40.4 56.4,40.3 56.4,40.2 56.5,40.1 			"/>
			<polygon class="st11" points="87.6,39.7 87.6,40.8 87.6,40.9 87.5,41 87.5,41.1 87.3,41.2 82.1,44.2 81.9,44.3 81.8,44.3 
				81.6,44.4 81.4,44.4 81.2,44.4 81.1,44.3 80.9,44.3 80.8,44.2 75.8,41.4 75.7,41.3 75.6,41.2 75.6,41.1 75.6,41 75.6,39.9 
				75.6,40 75.6,40.1 75.7,40.2 75.8,40.3 80.8,43.2 80.9,43.2 81.1,43.3 81.2,43.3 81.4,43.3 81.6,43.3 81.8,43.3 81.9,43.2 
				82.1,43.2 87.3,40.1 87.5,40 87.5,39.9 87.6,39.8 			"/>
			<polygon class="st11" points="79.7,44.3 79.7,45.4 79.7,45.5 79.6,45.6 79.6,45.6 79.4,45.7 74.2,48.8 74,48.8 73.9,48.9 
				73.7,48.9 73.5,48.9 73.3,48.9 73.2,48.9 73,48.8 72.9,48.8 67.9,45.9 67.8,45.8 67.7,45.7 67.7,45.7 67.7,45.6 67.7,44.5 
				67.7,44.6 67.7,44.7 67.8,44.8 67.9,44.9 72.9,47.7 73,47.8 73.2,47.8 73.3,47.9 73.5,47.9 73.7,47.9 73.9,47.8 74,47.8 
				74.2,47.7 79.4,44.7 79.6,44.6 79.6,44.5 79.7,44.4 			"/>
			<polygon class="st11" points="71.8,48.9 71.8,49.9 71.8,50 71.7,50.1 71.7,50.2 71.5,50.3 66.3,53.3 66.1,53.4 66,53.5 
				65.8,53.5 65.6,53.5 65.4,53.5 65.3,53.5 65.1,53.4 65,53.3 60,50.5 59.9,50.4 59.8,50.3 59.8,50.2 59.8,50.1 59.8,49.1 
				59.8,49.2 59.8,49.3 59.9,49.4 60,49.4 65,52.3 65.1,52.4 65.3,52.4 65.4,52.4 65.6,52.4 65.8,52.4 66,52.4 66.1,52.4 66.3,52.3 
				71.5,49.2 71.7,49.2 71.7,49.1 71.8,49 			"/>
			<polygon class="st11" points="80,35.3 80,36.4 79.9,36.5 79.9,36.6 79.8,36.7 79.7,36.7 74.4,39.8 74.3,39.9 74.1,39.9 
				73.9,39.9 73.8,40 73.6,39.9 73.4,39.9 73.3,39.9 73.1,39.8 68.2,36.9 68.1,36.9 68,36.8 67.9,36.7 67.9,36.6 67.9,35.5 
				67.9,35.6 68,35.7 68.1,35.8 68.2,35.9 73.1,38.8 73.3,38.8 73.4,38.9 73.6,38.9 73.8,38.9 73.9,38.9 74.1,38.9 74.3,38.8 
				74.4,38.8 79.7,35.7 79.8,35.6 79.9,35.5 79.9,35.4 			"/>
			<polygon class="st11" points="72.1,39.9 72.1,40.9 72,41 72,41.1 71.9,41.2 71.8,41.3 66.5,44.4 66.4,44.4 66.2,44.5 66,44.5 
				65.9,44.5 65.7,44.5 65.5,44.5 65.4,44.4 65.2,44.4 60.3,41.5 60.2,41.4 60.1,41.3 60,41.2 60,41.1 60,40.1 60,40.2 60.1,40.3 
				60.2,40.4 60.3,40.5 65.2,43.3 65.4,43.4 65.5,43.4 65.7,43.5 65.9,43.5 66,43.5 66.2,43.4 66.4,43.4 66.5,43.3 71.8,40.3 
				71.9,40.2 72,40.1 72,40 			"/>
			<polygon class="st11" points="64.2,44.5 64.2,45.5 64.1,45.6 64.1,45.7 64,45.8 63.9,45.9 58.6,48.9 58.5,49 58.3,49 58.1,49.1 
				58,49.1 57.8,49.1 57.6,49 57.5,49 57.3,48.9 52.4,46.1 52.3,46 52.2,45.9 52.1,45.8 52.1,45.7 52.1,44.6 52.1,44.7 52.2,44.8 
				52.3,44.9 52.4,45 57.3,47.9 57.5,47.9 57.6,48 57.8,48 58,48 58.1,48 58.3,48 58.5,47.9 58.6,47.9 63.9,44.8 64,44.7 64.1,44.6 
				64.1,44.5 			"/>
			<polygon class="st11" points="72.3,30.9 72.3,32 72.3,32.1 72.2,32.2 72.2,32.2 72,32.3 66.8,35.4 66.6,35.5 66.5,35.5 
				66.3,35.5 66.1,35.5 65.9,35.5 65.8,35.5 65.6,35.5 65.5,35.4 60.5,32.5 60.4,32.4 60.3,32.4 60.3,32.3 60.3,32.2 60.3,31.1 
				60.3,31.2 60.3,31.3 60.4,31.4 60.5,31.5 65.5,34.3 65.6,34.4 65.8,34.5 65.9,34.5 66.1,34.5 66.3,34.5 66.5,34.4 66.6,34.4 
				66.8,34.3 72,31.3 72.2,31.2 72.2,31.1 72.3,31 			"/>
			<polygon class="st11" points="64.4,35.5 64.4,36.5 64.4,36.6 64.3,36.7 64.3,36.8 64.1,36.9 58.9,39.9 58.7,40 58.6,40.1 
				58.4,40.1 58.2,40.1 58,40.1 57.9,40.1 57.7,40 57.6,39.9 52.6,37.1 52.5,37 52.4,36.9 52.4,36.8 52.4,36.7 52.4,35.7 52.4,35.8 
				52.4,35.9 52.5,36 52.6,36 57.6,38.9 57.7,39 57.9,39 58,39 58.2,39.1 58.4,39 58.6,39 58.7,39 58.9,38.9 64.1,35.8 64.3,35.8 
				64.3,35.7 64.4,35.6 			"/>
		</g>
		<path class="st12" d="M44.7,39.9l5.3-3.1c0.4-0.2,0.9-0.2,1.3,0l5,2.9c0.4,0.2,0.4,0.5,0,0.7L51,43.5c-0.4,0.2-0.9,0.2-1.3,0
			l-5-2.9C44.4,40.4,44.4,40.1,44.7,39.9L44.7,39.9z M75.8,39.6l5.3-3.1c0.4-0.2,0.9-0.2,1.3,0l5,2.9c0.4,0.2,0.4,0.5,0,0.7
			l-5.3,3.1c-0.4,0.2-0.9,0.2-1.3,0l-5-2.9C75.5,40.1,75.5,39.8,75.8,39.6L75.8,39.6z M67.9,44.1c-0.4,0.2-0.4,0.5,0,0.7l5,2.9
			c0.4,0.2,0.9,0.2,1.3,0l5.3-3.1c0.4-0.2,0.4-0.5,0-0.7l-5-2.9c-0.4-0.2-0.9-0.2-1.3,0L67.9,44.1L67.9,44.1z M60,48.7l5.3-3.1
			c0.4-0.2,0.9-0.2,1.3,0l5,2.9c0.4,0.2,0.4,0.5,0,0.7l-5.3,3.1c-0.4,0.2-0.9,0.2-1.3,0l-5-2.9C59.7,49.2,59.7,48.9,60,48.7L60,48.7
			z M68.2,35.2c-0.4,0.2-0.4,0.5,0,0.7l5,2.9c0.4,0.2,0.9,0.2,1.3,0l5.3-3.1c0.4-0.2,0.4-0.5,0-0.7l-4.9-2.9c-0.4-0.2-0.9-0.2-1.3,0
			L68.2,35.2L68.2,35.2z M60.3,39.7l5.3-3.1c0.4-0.2,0.9-0.2,1.3,0l4.9,2.9c0.4,0.2,0.4,0.5,0,0.7l-5.3,3.1c-0.4,0.2-0.9,0.2-1.3,0
			l-5-2.9C59.9,40.3,59.9,39.9,60.3,39.7L60.3,39.7z M52.4,44.3c-0.4,0.2-0.4,0.5,0,0.7l5,2.9c0.4,0.2,0.9,0.2,1.3,0l5.3-3.1
			c0.4-0.2,0.4-0.5,0-0.7l-4.9-2.9c-0.4-0.2-0.9-0.2-1.3,0L52.4,44.3L52.4,44.3z M60.5,30.7l5.3-3.1c0.4-0.2,0.9-0.2,1.3,0l5,2.9
			c0.4,0.2,0.4,0.5,0,0.7l-5.3,3.1c-0.4,0.2-0.9,0.2-1.3,0l-5-2.9C60.2,31.3,60.2,30.9,60.5,30.7L60.5,30.7z M52.6,35.3
			c-0.4,0.2-0.4,0.5,0,0.7l5,2.9c0.4,0.2,0.9,0.2,1.3,0l5.3-3.1c0.4-0.2,0.4-0.5,0-0.7l-5-2.9c-0.4-0.2-0.9-0.2-1.3,0L52.6,35.3z"/>
	</g>
</g>
</svg>
