<?xml version="1.0" encoding="utf-8"?>
<!-- Generator: Adobe Illustrator 24.2.1, SVG Export Plug-In . SVG Version: 6.00 Build 0)  -->
<svg version="1.1" id="Layer_1" xmlns="http://www.w3.org/2000/svg" xmlns:xlink="http://www.w3.org/1999/xlink" x="0px" y="0px"
	 viewBox="0 0 100 100" style="enable-background:new 0 0 100 100;" xml:space="preserve">
<style type="text/css">
	.st0{fill-rule:evenodd;clip-rule:evenodd;fill:#9B9C9C;}
	.st1{fill-rule:evenodd;clip-rule:evenodd;fill:#BBB9B8;}
	.st2{fill-rule:evenodd;clip-rule:evenodd;fill:#E6EAEA;}
	.st3{fill-rule:evenodd;clip-rule:evenodd;fill:#943C3C;}
	.st4{fill-rule:evenodd;clip-rule:evenodd;fill:#E64D3C;}
</style>
<g>
	<g>
		<g>
			<polygon class="st0" points="26.5,76.8 24.3,75.5 24.3,75.4 24.2,75.3 24.1,75.2 24.1,75.1 24.1,75 24.1,74.8 24.1,74.7 
				24.2,74.5 24.2,74.4 24.3,74.2 28.3,66.5 28.4,66.5 28.4,66.4 28.4,66.4 28.5,66.3 28.5,66.3 28.5,66.2 28.6,66.2 28.6,66.1 
				30.8,67.4 30.8,67.4 30.7,67.5 30.7,67.5 30.6,67.6 30.6,67.6 30.6,67.7 30.6,67.7 30.5,67.8 26.5,75.5 26.4,75.6 26.3,75.8 
				26.3,76 26.3,76.1 26.3,76.2 26.3,76.4 26.3,76.5 26.4,76.6 26.4,76.7 			"/>
			<polygon class="st1" points="30.8,67.4 28.6,66.1 29,65.6 29.5,65 30.1,64.3 30.7,63.5 31.4,62.7 32.1,61.7 32.9,60.7 33.7,59.6 
				34.5,58.4 35.4,57.2 36.3,56 37.2,54.7 38.2,53.3 39.2,51.9 40.2,50.5 41.1,49 42.1,47.6 43.1,46.1 44.1,44.6 45.1,43.1 
				46.1,41.6 47.1,40.1 48,38.6 48.9,37.2 49.8,35.7 50.7,34.3 51.6,32.9 52.3,31.5 53.1,30.2 53.8,29 54.5,27.8 55.1,26.6 
				57.3,27.9 56.7,29 56,30.2 55.3,31.5 54.5,32.8 53.7,34.2 52.9,35.5 52,37 51.1,38.4 50.2,39.9 49.3,41.4 48.3,42.9 47.3,44.4 
				46.3,45.9 45.3,47.3 44.3,48.8 43.3,50.3 42.3,51.7 41.3,53.2 40.4,54.6 39.4,55.9 38.5,57.2 37.6,58.5 36.7,59.7 35.9,60.9 
				35.1,61.9 34.3,63 33.6,63.9 32.9,64.8 32.3,65.6 31.7,66.3 31.2,66.9 			"/>
		</g>
		<path class="st2" d="M55,41.1c-9.5,15.3-12,19-22.5,31.7c-0.1,0.1-0.2,0.2-0.3,0.3l-5.1,3.6c-0.3,0.2-0.7,0.2-0.8,0
			c-0.2-0.3-0.1-0.7,0.1-1.1l4-7.7c0.1-0.1,0.2-0.3,0.3-0.4c4.3-4.8,20.3-27.6,26.5-39.5C56.5,31.2,56.1,34.1,55,41.1z"/>
		<polygon class="st1" points="60.5,98.8 56.7,96.6 56.6,96.6 43,85.7 42.9,85.7 42.9,85.6 42.9,85.5 42.8,85.4 42.8,85.3 
			42.8,85.2 42.8,85.1 42.8,85 53.6,21.2 53.6,21 53.7,20.8 53.8,20.7 53.9,20.5 54,20.3 54.1,20.2 54.3,20.1 54.4,20 60.1,16.7 
			60.2,16.6 60.3,16.6 60.5,16.6 60.6,16.6 60.7,16.7 64.5,18.9 64.4,18.8 64.3,18.8 64.2,18.8 64,18.8 63.9,18.9 58.2,22.2 
			58.1,22.3 57.9,22.4 57.8,22.5 57.7,22.7 57.6,22.9 57.5,23 57.5,23.2 57.4,23.4 46.6,87.2 46.6,87.3 46.6,87.4 46.6,87.5 
			46.7,87.6 46.7,87.7 46.7,87.8 46.8,87.9 46.8,87.9 60.4,98.8 		"/>
		<polygon class="st3" points="60.5,98.8 56.7,96.6 56.6,96.6 53.9,94.4 55.4,94.8 60.4,98.8 		"/>
		<polygon class="st3" points="53.2,23.6 53.6,21.2 53.6,21 53.7,20.8 53.8,20.7 53.9,20.5 54,20.3 54.1,20.2 54.3,20.1 54.4,20 
			59.4,17.1 63.2,18.1 64.5,18.9 64.4,18.8 64.3,18.8 64.2,18.8 64,18.8 63.9,18.9 58.2,22.2 58.1,22.3 57.9,22.4 57.8,22.5 
			57.7,22.7 57.6,22.9 57.5,23 57.5,23.2 57.4,23.4 57.2,24.7 		"/>
		<polygon class="st3" points="49.3,46.6 51.2,35.2 55.2,36.3 53.3,47.7 		"/>
		<polygon class="st3" points="45.4,69.7 47.3,58.3 51.3,59.3 49.4,70.7 		"/>
		<polygon class="st3" points="48,89.7 43,85.7 42.9,85.7 42.9,85.6 42.9,85.5 42.8,85.4 42.8,85.3 42.8,85.2 42.8,85.1 42.8,85 
			43.5,81.2 47.5,82.3 46.6,87.2 46.6,87.3 46.6,87.4 46.6,87.5 46.7,87.6 46.7,87.7 46.7,87.8 46.8,87.9 46.8,87.9 49.6,90.2 		"/>
		<path class="st4" d="M64.7,19.2l11.2,51.1c0.1,0.3,0,0.6-0.2,0.9L61.7,98c-0.2,0.3-0.4,0.6-0.6,0.7c-0.3,0.1-0.5,0.1-0.6,0
			L46.8,87.9c-0.2-0.1-0.2-0.4-0.2-0.7l10.8-63.8c0.1-0.5,0.4-1,0.8-1.2l5.7-3.3C64.3,18.7,64.6,18.8,64.7,19.2z"/>
		<g>
			<path class="st2" d="M57.2,24.7l6.1-5.4l0.6-0.3c0.4-0.2,0.7-0.1,0.8,0.3l1.6,7.2l-11,9.8L57.2,24.7z"/>
			<polygon class="st2" points="51.4,59.2 69.9,42.8 68.1,34.6 53.3,47.7 			"/>
			<polygon class="st2" points="49.4,70.7 71.7,51 73.5,59.2 47.5,82.3 			"/>
			<path class="st2" d="M55.4,94.8l14.8-13.1l5.4-10.4c0.2-0.3,0.2-0.7,0.2-0.9l-0.6-2.9L49.6,90.2L55.4,94.8z"/>
		</g>
		<path class="st3" d="M47.5,12.3l-0.2-0.2l0-0.3l0.1-0.3l0.2-0.4l0.3-0.4l0.4-0.4L49,9.8l0.6-0.5l0.7-0.5L51,8.2l0.8-0.6l0.8-0.6
			l0.9-0.6l0.9-0.6l0.9-0.6l0.9-0.6l0.9-0.5l0.9-0.5l0.9-0.5L60,2.9l0.8-0.4l0.8-0.4l0.7-0.3l0.7-0.3l0.6-0.2l0.5-0.1l0.4-0.1l0.3,0
			l0.2,0.1l5.5,3.2l-0.2-0.1l-0.3,0l-0.4,0.1l-0.5,0.1l-0.6,0.2l-0.7,0.3l-0.7,0.3l-0.8,0.4L65.5,6l-0.9,0.4L63.7,7l-0.9,0.5L61.9,8
			l-0.9,0.6L60,9.1l-0.9,0.6l-0.9,0.6l-0.8,0.6l-0.8,0.6L55.8,12l-0.7,0.5L54.5,13L54,13.5l-0.4,0.4l-0.3,0.4l-0.2,0.4L52.8,15
			l0,0.3l0.2,0.2l0.1,0.1l0.1,0.1l0.1,0.1l0.1,0.1l0.1,0.2l0.1,0.2l0.1,0.2l0.1,0.2l0.2,0.2l0.2,0.2l0.2,0.2l0.2,0.2l0.2,0.2
			l0.2,0.2l0.2,0.3l0.2,0.3l0.2,0.3l0.2,0.3l0.2,0.3l0.2,0.3l0.2,0.3l0.2,0.3l0.2,0.3l0.2,0.3L57,21l0.2,0.3l0.2,0.3l0.2,0.3
			l0.2,0.2l0.1,0.2l0.1,0.2l0.1,0.2l0.1,0.1l0.1,0.1c-1.7,0.1-3-0.5-4-1.3c-1.1-0.9-1.8-2.5-2.6-3.7l-0.2-0.3l-0.2-0.3L51,17
			l-0.2-0.3l-0.2-0.3l-0.2-0.3l-0.2-0.3L50,15.7l-0.2-0.3l-0.2-0.3l-0.2-0.3l-0.2-0.2l-0.2-0.2l-0.2-0.2l-0.2-0.2l-0.2-0.2l-0.2-0.2
			l-0.1-0.2l-0.1-0.2L48,13l-0.1-0.2l-0.1-0.1l-0.1-0.1L47.5,12.3L47.5,12.3z"/>
		<path class="st4" d="M70.7,5.3c-0.5,1.2-1.8,5.8-3.7,9.4c-2.4,4.5-2.9,4.7-8.8,8.2c-0.8,0.5-4.4-6.2-5.1-7.3
			C50.6,13.7,73.1,0.7,70.7,5.3z"/>
	</g>
</g>
</svg>
