<?xml version="1.0" encoding="utf-8"?>
<!-- Generator: Adobe Illustrator 24.2.1, SVG Export Plug-In . SVG Version: 6.00 Build 0)  -->
<svg version="1.1" id="Layer_1" xmlns="http://www.w3.org/2000/svg" xmlns:xlink="http://www.w3.org/1999/xlink" x="0px" y="0px"
	 viewBox="0 0 100 100" style="enable-background:new 0 0 100 100;" xml:space="preserve">
<style type="text/css">
	.st0{fill-rule:evenodd;clip-rule:evenodd;fill:#9FD5F4;}
	.st1{fill-rule:evenodd;clip-rule:evenodd;fill:#46ABC7;}
	.st2{fill-rule:evenodd;clip-rule:evenodd;fill:#75BCE3;}
	.st3{fill-rule:evenodd;clip-rule:evenodd;fill:#2C3E50;}
	.st4{fill-rule:evenodd;clip-rule:evenodd;fill:#C33F2D;}
	.st5{fill-rule:evenodd;clip-rule:evenodd;fill:#F15F4C;}
	.st6{fill-rule:evenodd;clip-rule:evenodd;fill:#EF8172;}
	.st7{fill-rule:evenodd;clip-rule:evenodd;fill:#3E576F;}
	.st8{fill-rule:evenodd;clip-rule:evenodd;fill:#90B954;}
	.st9{fill-rule:evenodd;clip-rule:evenodd;fill:#9BC856;}
	.st10{fill-rule:evenodd;clip-rule:evenodd;fill:#B6D778;}
	.st11{fill-rule:evenodd;clip-rule:evenodd;fill:#547694;}
	.st12{fill-rule:evenodd;clip-rule:evenodd;fill:#DFB24B;}
	.st13{fill-rule:evenodd;clip-rule:evenodd;fill:#F9C13B;}
	.st14{fill-rule:evenodd;clip-rule:evenodd;fill:#FCD57B;}
</style>
<g>
	<g>
		<path class="st0" d="M50.8,90.7c20.4,0,36.9-16.5,36.9-36.9S71.2,16.9,50.8,16.9S13.9,33.4,13.9,53.8S30.4,90.7,50.8,90.7z"/>
		<circle class="st1" cx="50.8" cy="53.8" r="35.8"/>
		<path class="st2" d="M54.8,82.6c16.9,0,30.7-13.8,30.7-30.7c0-16.9-13.8-30.7-30.7-30.7S24.1,35,24.1,51.9
			C24.1,68.8,37.9,82.6,54.8,82.6z"/>
		<path class="st0" d="M78.3,35.3c-8.1-10.7-20.6-7.3-20.6,5.8c0,7.7,6.3,14,14,14C84.3,55.1,84,42.8,78.3,35.3z"/>
		<path class="st3" d="M82.5,34.8c5.2,3,8.9,6.5,11.1,10.3l0,0c1.6,2.8,2.4,5.7,2.4,8.7c0,2.9-0.8,5.8-2.4,8.6v0
			c-2.2,3.8-5.9,7.3-11.1,10.3l0,0c-8.8,5.1-20.3,7.6-31.7,7.6c-11.5,0-22.9-2.5-31.7-7.6v0c-5.2-3-8.9-6.5-11.1-10.3
			c-1.6-2.8-2.4-5.7-2.4-8.7c0-2.9,0.8-5.8,2.4-8.6v0c2.2-3.8,5.9-7.4,11.1-10.3l0.1-0.1c-0.8,1.3-1.5,2.8-2.2,4.2
			c-3.1,2.3-5.4,4.8-6.9,7.4l0,0c-1.4,2.4-2.1,5-2.1,7.5c0,2.5,0.7,5,2.1,7.5c2,3.5,5.4,6.7,10.2,9.5h0c8.4,4.9,19.5,7.3,30.5,7.3
			s22.1-2.4,30.5-7.3h0c4.8-2.8,8.2-6,10.2-9.5h0c1.4-2.4,2.1-4.9,2.1-7.5c0-2.5-0.7-5-2.1-7.5v0c-1.5-2.6-3.8-5.1-7-7.4
			c-0.6-1.5-1.4-2.9-2.2-4.2L82.5,34.8z"/>
		<path class="st4" d="M61.2,86.1c4.9,0,8.9-4,8.9-8.9c0-4.9-4-8.9-8.9-8.9c-4.9,0-8.9,4-8.9,8.9C52.4,82.2,56.3,86.1,61.2,86.1z"/>
		<path class="st5" d="M62.2,84.4c4.2,0,7.6-3.4,7.6-7.6c0-4.2-3.4-7.6-7.6-7.6c-4.2,0-7.6,3.4-7.6,7.6C54.6,81,58,84.4,62.2,84.4z"
			/>
		<path class="st6" d="M68,72.7c-2-2.6-5.1-1.8-5.1,1.4c0,1.9,1.6,3.5,3.5,3.5C69.5,77.6,69.4,74.6,68,72.7z"/>
		<path class="st7" d="M50.2,14.7c7.1-4.1,13.8-6.1,19.6-6.1c3.7,0,7.1,0.8,10,2.4c2.9,1.6,5.3,3.9,7,6.9c2.1,3.7,3.3,8.3,3.3,13.9
			c0,5.2-1,10.7-2.8,16.2c-0.3-1.6-0.6-3.2-1.1-4.8c1-3.9,1.5-7.8,1.5-11.5c0-5.2-1.1-9.4-3-12.7c-1.5-2.6-3.6-4.6-6.1-6
			c-2.5-1.4-5.5-2.1-8.8-2.1c-5.4,0-11.7,1.8-18.4,5.7v0C41,22.7,31.7,32.3,24.9,43c-6.8,10.7-11,22.5-11,32.7c0,5.2,1.1,9.4,3,12.7
			l0,0c1.5,2.6,3.6,4.7,6.1,6c2.5,1.4,5.5,2.1,8.8,2.1c5.4,0,11.7-1.8,18.4-5.7c0.1-0.1,0.2-0.1,0.3-0.2c0.1,0,0.2,0,0.3,0
			c1.5,0,3.1-0.1,4.5-0.3c-1.3,0.9-2.6,1.7-3.9,2.5C44.3,97,37.6,99,31.8,99c-3.7,0-7.1-0.8-10-2.4c-2.9-1.6-5.3-3.9-7-6.9v0
			c-2.1-3.7-3.3-8.3-3.3-13.9c0-10.7,4.3-23,11.3-34C29.9,30.7,39.5,20.8,50.2,14.7L50.2,14.7z"/>
		<path class="st8" d="M71.3,18.7c4.9,0,8.9-4,8.9-8.9c0-4.9-4-8.9-8.9-8.9c-4.9,0-8.9,4-8.9,8.9C62.4,14.8,66.4,18.7,71.3,18.7z"/>
		<path class="st9" d="M72.3,17c4.2,0,7.6-3.4,7.6-7.6s-3.4-7.6-7.6-7.6c-4.2,0-7.6,3.4-7.6,7.6S68.1,17,72.3,17z"/>
		<path class="st10" d="M78.1,5.3C76,2.7,73,3.5,73,6.8c0,1.9,1.6,3.5,3.5,3.5C79.6,10.2,79.5,7.2,78.1,5.3z"/>
		<path class="st11" d="M51.4,14.7c-7.1-4.1-13.8-6.1-19.6-6.1c-3.7,0-7.1,0.8-10,2.4c-2.9,1.6-5.3,3.9-7,6.9
			c-2.1,3.7-3.3,8.3-3.3,13.9c0,5.2,1,10.7,2.8,16.2c0.3-1.6,0.6-3.2,1.1-4.8c-1-3.9-1.5-7.8-1.5-11.5c0-5.2,1.1-9.4,3-12.7
			c1.5-2.6,3.6-4.6,6.1-6c2.5-1.4,5.5-2.1,8.8-2.1c5.4,0,11.7,1.8,18.4,5.7l0,0c10.4,6,19.7,15.6,26.5,26.3
			c6.8,10.7,11,22.5,11,32.7c0,5.2-1.1,9.4-3,12.7l0,0c-1.5,2.6-3.6,4.7-6.1,6c-2.5,1.4-5.5,2.1-8.8,2.1c-5.4,0-11.7-1.8-18.4-5.7
			c-0.1-0.1-0.2-0.1-0.3-0.2c-0.1,0-0.2,0-0.3,0c-1.5,0-3.1-0.1-4.5-0.3c1.3,0.9,2.6,1.7,3.9,2.5C57.3,97,64,99,69.8,99
			c3.7,0,7.1-0.8,10-2.4c2.9-1.6,5.3-3.9,7-6.9v0c2.1-3.7,3.3-8.3,3.3-13.9c0-10.7-4.3-23-11.3-34C71.8,30.7,62.1,20.8,51.4,14.7
			L51.4,14.7z"/>
		<path class="st12" d="M12.8,35.4c4.9,0,8.9-4,8.9-8.9c0-4.9-4-8.9-8.9-8.9c-4.9,0-8.9,4-8.9,8.9C4,31.4,7.9,35.4,12.8,35.4z"/>
		<path class="st13" d="M13.8,33.7c4.2,0,7.6-3.4,7.6-7.6c0-4.2-3.4-7.6-7.6-7.6c-4.2,0-7.6,3.4-7.6,7.6
			C6.2,30.3,9.6,33.7,13.8,33.7z"/>
		<path class="st14" d="M19.6,22c-2-2.6-5.1-1.8-5.1,1.4c0,1.9,1.6,3.5,3.5,3.5C21.1,26.9,21,23.8,19.6,22z"/>
	</g>
</g>
</svg>
