<?xml version="1.0" encoding="utf-8"?>
<!-- Generator: Adobe Illustrator 24.2.1, SVG Export Plug-In . SVG Version: 6.00 Build 0)  -->
<svg version="1.1" id="Layer_1" xmlns="http://www.w3.org/2000/svg" xmlns:xlink="http://www.w3.org/1999/xlink" x="0px" y="0px"
	 viewBox="0 0 100 100" style="enable-background:new 0 0 100 100;" xml:space="preserve">
<style type="text/css">
	.st0{fill:#36495C;}
	.st1{fill:url(#SVGID_1_);}
	.st2{fill:#2D3F50;}
	.st3{fill:url(#SVGID_2_);}
	.st4{fill:#E9E4F2;}
	.st5{fill:#E64D3C;}
	.st6{fill:#FAA53D;}
	.st7{fill:#A73A2D;}
	.st8{fill:url(#SVGID_3_);}
	.st9{fill:url(#SVGID_4_);}
	.st10{fill:#DFA962;}
	.st11{fill:#CC8241;}
</style>
<g>
	<path class="st0" d="M28.9,72.3l4.8-2.8l0,0c0.9-0.5,2-0.4,3.2,0.3c2.8,1.6,5,6,5,9.7c0,2.1-0.7,3.5-1.7,4.1l0,0l-4.6,2.7
		L28.9,72.3z"/>
	<path class="st0" d="M11.9,62.3l4.8-2.8l0,0c0.9-0.5,2-0.4,3.2,0.3c2.8,1.6,5,6,5,9.7c0,2.1-0.7,3.5-1.7,4.1l0,0l-4.6,2.7
		L11.9,62.3z"/>
	
		<linearGradient id="SVGID_1_" gradientUnits="userSpaceOnUse" x1="47.0904" y1="41.2696" x2="33.6935" y2="41.2696" gradientTransform="matrix(1 0 0 -1 0 102)">
		<stop  offset="0" style="stop-color:#E37A34"/>
		<stop  offset="1" style="stop-color:#FFC53A"/>
	</linearGradient>
	<path class="st1" d="M67.3,65.7V41.9l-10.4,3L8.8,39.3v23.8c0,0.7,0.4,1.5,1.1,1.9l28.1,16.5c1.4,0.8,3.2,0.8,4.6,0l23.8-13.9
		C67,67.2,67.3,66.5,67.3,65.7L67.3,65.7z"/>
	<path class="st2" d="M66.2,61.3L42.5,75.2c-1.4,0.8-3.2,0.8-4.6,0L9.8,58.8c-0.7-0.4-1.1-1.1-1.1-1.9v6.3c0,0.7,0.4,1.5,1.1,1.9
		l28.1,16.5c1.4,0.8,3.2,0.8,4.6,0l23.8-13.9c0.7-0.4,1.1-1.1,1.1-1.9v-6.3C67.3,60.2,67,60.9,66.2,61.3z"/>
	
		<linearGradient id="SVGID_2_" gradientUnits="userSpaceOnUse" x1="20.9386" y1="71.2532" x2="52.5383" y2="53.009" gradientTransform="matrix(1 0 0 -1 0 102)">
		<stop  offset="0" style="stop-color:#DFA962"/>
		<stop  offset="1" style="stop-color:#EBCCA1"/>
	</linearGradient>
	<path class="st3" d="M66.2,40l-1.1-0.6L57,44.2l-2.4-1.4l-1.8-10.6l-14.5-8.6c-1.4-0.8-3.2-0.8-4.6,0L9.8,37.5
		c-1.4,0.8-1.4,2.9,0,3.8l28.1,16.5c1.4,0.8,3.2,0.8,4.6,0l23.8-13.9C67.7,42.9,67.7,40.9,66.2,40L66.2,40z"/>
	<g>
		<path class="st0" d="M10.2,66.4c0-3.7,2.2-5.5,5-3.8c2.8,1.6,5,6,5,9.7c0,3.7-2.2,5.5-5,3.8C12.5,74.5,10.2,70.1,10.2,66.4z"/>
		<ellipse transform="matrix(0.9234 -0.3839 0.3839 0.9234 -25.4428 11.1762)" class="st4" cx="15.3" cy="69.3" rx="2.7" ry="4.8"/>
		<path class="st5" d="M13.7,68.4c0-1.2,0.7-1.7,1.6-1.2c0.9,0.5,1.6,1.9,1.6,3.1s-0.7,1.7-1.6,1.2C14.4,71,13.7,69.6,13.7,68.4z"/>
	</g>
	<g>
		<path class="st0" d="M27.3,76.3c0-3.7,2.2-5.5,5-3.8c2.8,1.6,5,6,5,9.7s-2.2,5.5-5,3.8C29.5,84.4,27.3,80.1,27.3,76.3z"/>
		<path class="st4" d="M29.2,77.5c0-2.3,1.4-3.4,3.1-2.4c1.7,1,3.1,3.7,3.1,6s-1.4,3.4-3.1,2.4C30.5,82.5,29.2,79.8,29.2,77.5
			L29.2,77.5z"/>
		<path class="st5" d="M30.7,78.3c0-1.2,0.7-1.7,1.6-1.2c0.9,0.5,1.6,1.9,1.6,3.1s-0.7,1.7-1.6,1.2C31.4,80.9,30.7,79.5,30.7,78.3z"
			/>
	</g>
	<path class="st6" d="M52.7,32.1l-14.5-8.6c-1.4-0.8-3.2-0.8-4.6,0L9.8,37.5c-1.4,0.8-1.4,2.9,0,3.8l13.6,8L52.7,32.1z"/>
	<path class="st5" d="M54.6,42.8L25.3,59.9l10.6,6.2v-9.6l2,1.2c1.4,0.8,3.2,0.8,4.6,0l18.8-11L54.6,42.8z"/>
	<path class="st2" d="M25.3,59.9l29.3-17.1l-1.8-10.7L23.5,49.3L25.3,59.9z"/>
	<path class="st6" d="M66.2,40l-1.1-0.6L35.9,56.5l2,1.2c1.4,0.8,3.2,0.8,4.6,0l23.8-13.9C67.7,42.9,67.7,40.9,66.2,40L66.2,40z"/>
	<g>
		<path class="st7" d="M40.1,58.7c-1.1,0-2-0.8-2.2-1.9l-5.1-30.1l-8-4.7L23,43.8c-0.1,1.2-1.2,2.2-2.4,2.1c-1.2-0.1-2.1-1.2-2-2.4
			l2-25.4c0.1-0.8,0.5-1.5,1.2-1.8c0.7-0.4,1.5-0.3,2.1,0l12,7c0.6,0.3,1,0.9,1.1,1.6L42.3,56c0.2,1.2-0.6,2.4-1.8,2.6
			C40.3,58.7,40.2,58.7,40.1,58.7L40.1,58.7z"/>
	</g>
	<g>
		<path class="st7" d="M63,45.3c-1.1,0-2-0.8-2.2-1.9l-5.1-30.1l-8-4.7l-1.7,21.8c-0.1,1.2-1.2,2.2-2.4,2.1c-1.2-0.1-2.1-1.2-2-2.4
			l2-25.4c0.1-0.8,0.5-1.5,1.2-1.8c0.7-0.4,1.5-0.3,2.1,0l12,7c0.6,0.3,1,0.9,1.1,1.6l5.3,31.1c0.2,1.2-0.6,2.4-1.8,2.6
			C63.2,45.3,63.1,45.3,63,45.3z"/>
	</g>
	<path class="st5" d="M58.8,10l-12-7c-0.7-0.4-1.5-0.4-2.2,0L21.7,16.3c-0.7,0.4-1.1,1.1-1.1,2c0,0.8,0.4,1.5,1.1,2l12,7
		c0.3,0.2,0.7,0.3,1.1,0.3c0.4,0,0.8-0.1,1.1-0.3l22.9-13.4c0.7-0.4,1.1-1.1,1.1-2C59.9,11.1,59.5,10.4,58.8,10L58.8,10z M41.8,18.6
		l-7.5-4.4l5-2.9l7.5,4.4L41.8,18.6z M34.8,22.7l-7.6-4.4l2.6-1.5l7.5,4.4L34.8,22.7z M51.2,13.1l-7.5-4.4l2-1.2l7.6,4.4L51.2,13.1z
		"/>
	<g>
		<g>
			<path class="st5" d="M43.4,38.7c-0.8,0-1.5-0.4-1.9-1.1c-0.6-1.1-0.2-2.5,0.8-3.1L63.6,22c1.1-0.6,2.4-0.2,3,0.8
				c0.6,1.1,0.2,2.5-0.8,3.1L44.5,38.4C44.2,38.6,43.8,38.7,43.4,38.7L43.4,38.7z"/>
		</g>
		<g>
			<path class="st5" d="M57,95.6c-0.4,0-0.8-0.1-1.1-0.3l-13.6-8c-0.7-0.4-1.1-1.1-1.1-2V27.3c0-1.2,1-2.3,2.2-2.3
				c1.2,0,2.2,1,2.2,2.3v56.8l12.5,7.3c1.1,0.6,1.4,2,0.8,3.1C58.5,95.2,57.8,95.6,57,95.6L57,95.6z"/>
		</g>
		<g>
			<path class="st5" d="M78.3,83.2c-0.4,0-0.8-0.1-1.1-0.3l-13.6-8c-0.7-0.4-1.1-1.1-1.1-2V14.9c0-1.2,1-2.3,2.2-2.3
				c1.2,0,2.2,1,2.2,2.3v56.8L79.5,79c1.1,0.6,1.4,2,0.8,3.1C79.9,82.8,79.1,83.2,78.3,83.2z"/>
		</g>
		<g>
			<path class="st5" d="M43.4,51.8c-0.8,0-1.5-0.4-1.9-1.1c-0.6-1.1-0.2-2.5,0.8-3.1l21.4-12.5c1.1-0.6,2.4-0.3,3,0.8
				c0.6,1.1,0.2,2.5-0.8,3.1L44.5,51.5C44.2,51.7,43.8,51.8,43.4,51.8L43.4,51.8z"/>
		</g>
		<g>
			<g>
				
					<linearGradient id="SVGID_3_" gradientUnits="userSpaceOnUse" x1="62.3558" y1="26.9986" x2="68.7848" y2="26.9986" gradientTransform="matrix(1 0 0 -1 0 102)">
					<stop  offset="0" style="stop-color:#CC8241"/>
					<stop  offset="1" style="stop-color:#DFA962"/>
				</linearGradient>
				<path class="st8" d="M91.2,82.2V52.6l-46.8,2v29.5c0,0.7,0.3,1.4,1,1.7L64,96.8c1.3,0.8,2.9,0.8,4.3,0l22-12.9
					C90.9,83.5,91.2,82.8,91.2,82.2L91.2,82.2z"/>
				
					<linearGradient id="SVGID_4_" gradientUnits="userSpaceOnUse" x1="54.8053" y1="55.8665" x2="78.8811" y2="41.9663" gradientTransform="matrix(1 0 0 -1 0 102)">
					<stop  offset="0" style="stop-color:#DFA962"/>
					<stop  offset="1" style="stop-color:#EBCCA1"/>
				</linearGradient>
				<path class="st9" d="M45.4,52.9l22-12.9c1.3-0.8,2.9-0.8,4.3,0l18.5,10.8c1.3,0.8,1.3,2.7,0,3.5l-22,12.9
					c-1.3,0.8-2.9,0.8-4.3,0L45.4,56.4C44.1,55.6,44.1,53.7,45.4,52.9z"/>
				<path class="st10" d="M52.6,48.8l23.6,13.8l6.3-3.7L58.8,45.1L52.6,48.8z"/>
				<g>
					<path class="st11" d="M56.3,46.6L80,60.4l-1.2,0.7L55.1,47.3L56.3,46.6z"/>
					<path class="st11" d="M76.2,62.6v5.2l6.3-3.7v-5.2L76.2,62.6z"/>
				</g>
			</g>
		</g>
	</g>
</g>
</svg>
