<?xml version="1.0" encoding="utf-8"?>
<!-- Generator: Adobe Illustrator 24.2.1, SVG Export Plug-In . SVG Version: 6.00 Build 0)  -->
<svg version="1.1" id="Layer_1" xmlns="http://www.w3.org/2000/svg" xmlns:xlink="http://www.w3.org/1999/xlink" x="0px" y="0px"
	 viewBox="0 0 100 100" style="enable-background:new 0 0 100 100;" xml:space="preserve">
<style type="text/css">
	.st0{fill-rule:evenodd;clip-rule:evenodd;fill:#30383B;}
	.st1{fill-rule:evenodd;clip-rule:evenodd;fill:#2D3F50;}
	.st2{fill-rule:evenodd;clip-rule:evenodd;fill:#23303C;}
	.st3{fill-rule:evenodd;clip-rule:evenodd;fill:#2A3945;}
	.st4{fill-rule:evenodd;clip-rule:evenodd;fill:#41576E;}
	.st5{fill-rule:evenodd;clip-rule:evenodd;fill:#818181;}
	.st6{fill-rule:evenodd;clip-rule:evenodd;fill:#E6EAEA;}
	.st7{fill-rule:evenodd;clip-rule:evenodd;fill:#9EB4BA;}
	.st8{fill-rule:evenodd;clip-rule:evenodd;fill:#C5CCD1;}
</style>
<g>
	<g>
		<polygon class="st0" points="80.3,91.5 79.1,91.2 78.5,89.4 78.9,88.8 79.3,88.2 79.7,87.6 80.1,87 80.4,86.4 80.8,85.7 81.1,85 
			81.4,84.4 81.7,83.7 82,82.9 82.2,82.2 82.5,81.5 82.7,80.7 82.9,80 83.1,79.2 83.2,78.5 83.4,77.6 83.5,76.8 83.6,75.9 
			83.7,75.1 83.8,74.3 83.8,73.4 83.8,72.6 83.8,71.8 83.8,71 83.7,70.2 83.6,69.4 83.5,68.6 83.3,67.8 83.2,67.1 83,66.3 
			82.7,65.6 81.5,61.9 82.8,60.4 84,60.7 82.7,62.1 84,65.8 84.2,66.6 84.4,67.3 84.6,68.1 84.7,68.8 84.9,69.6 84.9,70.4 85,71.2 
			85,72 85.1,72.9 85.1,73.7 85,74.5 85,75.4 84.9,76.2 84.8,77 84.6,77.9 84.5,78.7 84.3,79.5 84.1,80.2 83.9,81 83.7,81.7 
			83.5,82.5 83.2,83.2 82.9,83.9 82.7,84.6 82.3,85.3 82,86 81.7,86.6 81.3,87.3 80.9,87.9 80.5,88.5 80.1,89.1 79.7,89.6 		"/>
		<path class="st1" d="M85.3,64.4c1.5,4.3,1.6,9.5,0.5,14.6c-0.9,4.7-2.8,9.2-5.5,12.5l-0.6-1.8c2.3-2.9,3.9-6.9,4.8-10.9
			c0.9-4.4,0.8-9.1-0.5-12.9l-1.3-3.7l1.3-1.5L85.3,64.4z"/>
		<path class="st2" d="M77.7,98.6c3.7-0.5,6.3-4,5.7-7.7c-0.5-3.7-4-6.3-7.7-5.7c-3.7,0.5-6.3,4-5.7,7.7
			C70.6,96.6,74,99.1,77.7,98.6z"/>
		<path class="st3" d="M78.3,97.2c3.2-0.5,5.4-3.4,4.9-6.6c-0.5-3.2-3.4-5.4-6.6-4.9c-3.2,0.5-5.4,3.4-4.9,6.6
			C72.1,95.5,75.1,97.6,78.3,97.2z"/>
		<path class="st4" d="M81.4,87.7c-1.8-1.8-4.1-0.8-3.7,1.7c0.2,1.5,1.6,2.5,3,2.2C83.1,91.2,82.7,88.9,81.4,87.7z"/>
		<g>
			<g>
				<polygon class="st4" points="17.7,58.9 24.2,55.1 24.6,55 25.1,54.9 25.6,54.8 26.2,54.7 26.7,54.7 27.2,54.8 27.8,54.8 
					28.4,54.9 29,55.1 29.6,55.3 30.2,55.5 30.8,55.8 31.4,56.1 32.1,56.4 32.7,56.8 33.3,57.2 34,57.7 34.6,58.2 35.2,58.7 
					35.8,59.2 36.3,59.8 36.9,60.3 37.4,60.9 38,61.6 38.5,62.2 39,62.9 39.5,63.6 40,64.2 40.4,65 40.8,65.7 41.3,66.4 41.6,67.2 
					42,67.9 42.4,68.7 42.7,69.4 43,70.2 43.3,71 43.5,71.8 43.7,72.6 43.9,73.3 44.1,74.1 44.2,74.9 44.3,75.7 44.4,76.4 
					44.5,77.2 44.5,77.9 44.5,78.6 44.4,79.3 44.3,80 44.2,80.7 44.1,81.3 43.9,81.9 43.7,82.4 43.5,82.9 43.3,83.4 43,83.9 
					42.7,84.3 42.4,84.7 42,85.1 41.6,85.4 35.2,89.1 35.5,88.8 35.9,88.5 36.2,88.1 36.5,87.6 36.8,87.2 37,86.7 37.2,86.2 
					37.4,85.6 37.6,85 37.7,84.4 37.8,83.8 37.9,83.1 38,82.4 38,81.7 38,80.9 37.9,80.2 37.8,79.4 37.7,78.6 37.6,77.9 37.4,77.1 
					37.2,76.3 37,75.5 36.8,74.7 36.5,74 36.2,73.2 35.9,72.4 35.5,71.7 35.2,70.9 34.8,70.2 34.3,69.4 33.9,68.7 33.5,68 33,67.3 
					32.5,66.6 32,66 31.5,65.3 31,64.7 30.4,64.1 29.8,63.5 29.3,62.9 28.7,62.4 28.1,61.9 27.5,61.4 26.8,61 26.2,60.6 25.6,60.2 
					24.9,59.8 24.3,59.5 23.7,59.2 23.1,59 22.5,58.8 21.9,58.7 21.3,58.6 20.7,58.5 20.2,58.5 19.7,58.5 19.1,58.5 18.6,58.6 
					18.2,58.7 				"/>
				<path class="st5" d="M25.6,88.8c-6.9-4-12.4-13.6-12.4-21.5c0-7.9,5.6-11.1,12.4-7.2c6.9,4,12.4,13.6,12.4,21.5
					C38,89.6,32.4,92.8,25.6,88.8z"/>
			</g>
			<g>
				<polygon class="st6" points="62,31.7 69,27.7 69.5,27.5 70,27.4 70.6,27.3 71.1,27.3 71.7,27.3 72.3,27.3 72.9,27.4 73.5,27.5 
					74.2,27.6 74.8,27.8 75.5,28.1 76.1,28.4 76.8,28.7 77.5,29.1 78.2,29.5 78.9,30 79.5,30.4 80.2,31 80.8,31.5 81.5,32.1 
					82.1,32.7 82.7,33.3 83.3,34 83.9,34.6 84.4,35.3 85,36 85.5,36.8 86,37.5 86.5,38.3 86.9,39.1 87.4,39.9 87.8,40.7 88.2,41.5 
					88.6,42.3 88.9,43.1 89.3,44 89.5,44.8 89.8,45.6 90.1,46.5 90.3,47.3 90.4,48.1 90.6,49 90.7,49.8 90.8,50.6 90.8,51.4 
					90.9,52.2 90.8,53 90.8,53.8 90.7,54.5 90.6,55.2 90.4,55.9 90.3,56.5 90.1,57.1 89.8,57.6 89.5,58.2 89.3,58.7 88.9,59.1 
					88.6,59.6 88.2,59.9 87.8,60.3 80.8,64.3 81.2,64 81.6,63.6 81.9,63.2 82.3,62.7 82.5,62.2 82.8,61.7 83.1,61.1 83.3,60.5 
					83.4,59.9 83.6,59.2 83.7,58.5 83.8,57.8 83.9,57.1 83.9,56.3 83.9,55.5 83.8,54.7 83.7,53.8 83.6,53 83.4,52.2 83.3,51.3 
					83.1,50.5 82.8,49.7 82.5,48.8 82.3,48 81.9,47.2 81.6,46.3 81.2,45.5 80.8,44.7 80.4,43.9 80,43.1 79.5,42.3 79,41.6 
					78.5,40.8 78,40.1 77.4,39.4 76.9,38.7 76.3,38 75.7,37.3 75.1,36.7 74.5,36.1 73.8,35.5 73.2,35 72.5,34.5 71.9,34 71.2,33.5 
					70.5,33.1 69.8,32.7 69.1,32.4 68.5,32.1 67.8,31.9 67.2,31.7 66.5,31.5 65.9,31.4 65.3,31.3 64.7,31.3 64.1,31.3 63.6,31.4 
					63,31.4 62.5,31.6 				"/>
				<path class="st7" d="M70.5,64c-7.4-4.3-13.4-14.6-13.4-23.2c0-8.5,6-12,13.4-7.7c7.4,4.3,13.4,14.6,13.4,23.2
					C83.9,64.8,77.9,68.3,70.5,64z"/>
			</g>
			<polygon class="st6" points="14,59.5 21,55.4 21.5,55.2 22,55.1 22.6,55 23.1,55 23.7,55 24.3,55 24.9,55.1 25.5,55.2 26.2,55.4 
				26.8,55.6 27.5,55.8 28.1,56.1 28.8,56.4 29.5,56.8 30.2,57.2 30.9,57.7 31.5,58.2 32.2,58.7 32.8,59.2 33.5,59.8 34.1,60.4 
				34.7,61 35.3,61.7 35.9,62.3 36.4,63 37,63.7 37.5,64.5 38,65.2 38.5,66 38.9,66.8 39.4,67.6 39.8,68.4 40.2,69.2 40.6,70 
				40.9,70.8 41.3,71.7 41.5,72.5 41.8,73.3 42.1,74.2 42.3,75 42.4,75.9 42.6,76.7 42.7,77.5 42.8,78.3 42.8,79.2 42.9,80 
				42.8,80.7 42.8,81.5 42.7,82.2 42.6,82.9 42.4,83.6 42.3,84.2 42.1,84.8 41.8,85.4 41.5,85.9 41.3,86.4 40.9,86.8 40.6,87.3 
				40.2,87.7 39.8,88 32.8,92 33.2,91.7 33.6,91.3 33.9,90.9 34.3,90.4 34.6,89.9 34.8,89.4 35.1,88.8 35.3,88.2 35.4,87.6 
				35.6,86.9 35.7,86.3 35.8,85.5 35.9,84.8 35.9,84 35.9,83.2 35.8,82.4 35.7,81.6 35.6,80.7 35.4,79.9 35.3,79.1 35.1,78.2 
				34.8,77.4 34.6,76.5 34.3,75.7 33.9,74.9 33.6,74 33.2,73.2 32.8,72.4 32.4,71.6 32,70.8 31.5,70 31,69.3 30.5,68.5 30,67.8 
				29.4,67.1 28.9,66.4 28.3,65.7 27.7,65.1 27.1,64.4 26.5,63.8 25.8,63.3 25.2,62.7 24.5,62.2 23.9,61.7 23.2,61.3 22.5,60.8 
				21.8,60.5 21.1,60.1 20.5,59.8 19.8,59.6 19.2,59.4 18.5,59.2 17.9,59.1 17.3,59 16.7,59 16.1,59 15.6,59.1 15,59.2 14.5,59.3 
							"/>
			<path class="st7" d="M22.5,91.7C15.1,87.4,9.1,77.1,9.1,68.6c0-8.5,6-12,13.4-7.7c7.4,4.3,13.4,14.6,13.4,23.2
				C35.9,92.5,29.9,96,22.5,91.7z"/>
			<path class="st2" d="M65,16.7l-0.3-1l-0.3-0.9L64,14l-0.4-0.8l-0.5-0.8l-0.5-0.7L62.1,11l-0.2-0.2h0c4.9,1.1,8.3,5.5,8.8,12.5
				c0,0.6,0.1,6.5,0.1,7.2c0,0.9,0,1.8-0.1,2.7l0,0l0,0l-0.2-0.1c-1.9-1.1-3.6-1.7-5.2-1.8l0,0C66,28,65.8,20.2,65,16.7z"/>
			<path class="st2" d="M44.9,4.8l1.3-0.7l1.3-0.6l1.3-0.6l1.3-0.5l1.2-0.4l1.2-0.3l1.2-0.2l1.2-0.1L56,1.3l1.1,0l1.1,0.1l1,0.2
				l1,0.2l1,0.3l0.9,0.4L63,3l5.2,3l-0.9-0.5l-0.9-0.4l-1-0.3l-1-0.2l-1-0.2l-1.1-0.1l-1.1,0l-1.1,0.1l-1.2,0.1l-1.2,0.2l-1.2,0.3
				l-1.2,0.4L54,5.9l-1.3,0.6l-1.3,0.6l-1.3,0.7l-1.3,0.8l-1.3,0.9l-1.3,0.9l-1.3,1l-1.2,1l-1.2,1.1l-1.2,1.1l-1.2,1.2l-1.1,1.2
				L38,18.4l-1.1,1.3l-1,1.4l-1,1.4l-1,1.4L33,25.4l-0.9,1.5l-0.8,1.5l-0.8,1.5l-0.8,1.6L29,33.1l-0.7,1.6l-0.6,1.6l-0.6,1.6
				l-0.5,1.6L26.1,41l-0.4,1.6l-0.3,1.6l-0.3,1.6l-0.2,1.6L24.7,49l-0.1,6.7l0,1.5l0,0.4l0,0.4l0,0.4l0,0.4l0,0.4l0,0.4
				c-1.9-1.1-3.6-1.7-5.2-1.8l0-1.6l0-0.4l0-0.4l0-0.4l0-0.4l0-0.4l0-6.7l0.1-1.6l0.2-1.6l0.2-1.6l0.3-1.6l0.3-1.6l0.4-1.6l0.5-1.6
				l0.5-1.6l0.6-1.6l0.6-1.6l0.7-1.6l0.7-1.6l0.8-1.6l0.8-1.5l0.8-1.5l0.9-1.5l0.9-1.5l1-1.4l1-1.4l1-1.4l1.1-1.3l1.1-1.3l1.1-1.2
				l1.2-1.2l1.2-1.1l1.2-1.1l1.2-1l1.3-1l1.3-0.9l1.3-0.9L44.9,4.8z"/>
			<polygon class="st4" points="61.1,34.3 62.6,33.5 63,33.3 63.5,33.2 64,33.1 64.5,33.1 65,33.1 65.5,33.1 66.1,33.2 66.7,33.3 
				67.2,33.4 67.8,33.6 68.4,33.8 69,34.1 69.6,34.4 70.3,34.7 70.9,35.1 71.5,35.5 72.1,35.9 72.7,36.4 73.3,36.9 73.9,37.4 
				74.4,38 75,38.5 75.5,39.1 76,39.7 76.5,40.4 77,41 77.5,41.7 78,42.4 78.4,43 78.8,43.8 79.2,44.5 79.6,45.2 80,45.9 80.3,46.7 
				80.6,47.4 80.9,48.2 81.2,48.9 81.4,49.7 81.6,50.5 81.8,51.2 82,52 82.1,52.7 82.2,53.5 82.3,54.2 82.4,55 82.4,55.7 82.4,56.4 
				82.3,57.1 82.2,57.7 82.1,58.4 82,59 81.8,59.5 81.6,60.1 81.4,60.6 81.2,61.1 80.9,61.5 80.6,61.9 80.3,62.3 80,62.7 79.6,63 
				78.1,63.9 78.5,63.5 78.8,63.2 79.1,62.8 79.4,62.4 79.7,61.9 79.9,61.5 80.1,60.9 80.3,60.4 80.5,59.8 80.6,59.2 80.7,58.6 
				80.8,58 80.9,57.3 80.9,56.6 80.9,55.8 80.8,55.1 80.7,54.4 80.6,53.6 80.5,52.8 80.3,52.1 80.1,51.3 79.9,50.6 79.7,49.8 
				79.4,49.1 79.1,48.3 78.8,47.5 78.5,46.8 78.1,46.1 77.7,45.3 77.3,44.6 76.9,43.9 76.5,43.2 76,42.5 75.5,41.9 75,41.2 
				74.5,40.6 74,40 73.5,39.4 72.9,38.8 72.4,38.3 71.8,37.8 71.2,37.3 70.6,36.8 70,36.4 69.4,36 68.8,35.6 68.1,35.2 67.5,34.9 
				66.9,34.7 66.3,34.5 65.7,34.3 65.2,34.1 64.6,34 64,34 63.5,33.9 63,33.9 62.5,34 62,34.1 61.5,34.2 			"/>
			<path class="st2" d="M68.8,63.6c-6.7-3.9-12.1-13.2-12.1-21c0-7.7,5.4-10.9,12.1-7c6.7,3.9,12.1,13.3,12.1,21
				C80.9,64.3,75.4,67.4,68.8,63.6z"/>
			<path class="st3" d="M68.8,59.9c-4.9-2.8-8.9-9.8-8.9-15.5c0-5.7,4-8,8.9-5.2c4.9,2.8,8.9,9.8,8.9,15.5
				C77.7,60.4,73.7,62.7,68.8,59.9z"/>
			<polygon class="st4" points="61.7,39.1 61.9,39 61.5,39.6 61.1,40.2 60.8,41 60.6,41.9 60.4,42.8 60.4,43.9 60.4,44.4 60.4,44.9 
				60.5,45.5 60.6,46 60.7,46.6 60.8,47.2 60.9,47.7 61.1,48.3 61.3,48.8 61.5,49.4 61.7,50 61.9,50.5 62.2,51.1 62.4,51.6 
				62.7,52.1 63,52.7 63.3,53.2 63.6,53.7 64,54.2 64.3,54.7 64.7,55.2 65.1,55.6 65.4,56.1 65.8,56.5 66.2,56.9 66.7,57.3 
				67.1,57.7 67.5,58.1 68,58.4 68.4,58.7 68.9,59 69.3,59.3 70.2,59.8 71.1,60.2 72,60.4 72.8,60.5 73.6,60.5 74.3,60.5 75,60.3 
				75.6,60 76.2,59.6 76.3,59.5 76.2,59.6 75.6,60.1 75.1,60.5 74.4,60.8 73.7,61 73,61.1 72.2,61.1 71.4,61 70.6,60.7 69.7,60.4 
				68.8,59.9 68.3,59.6 67.8,59.3 67.4,59 67,58.6 66.5,58.3 66.1,57.9 65.7,57.5 65.3,57.1 64.9,56.6 64.5,56.2 64.1,55.7 
				63.8,55.2 63.4,54.8 63.1,54.2 62.7,53.7 62.4,53.2 62.1,52.7 61.9,52.2 61.6,51.6 61.3,51.1 61.1,50.5 60.9,50 60.7,49.4 
				60.5,48.8 60.4,48.3 60.2,47.7 60.1,47.2 60,46.6 59.9,46 59.9,45.5 59.8,45 59.8,44.4 59.9,43.4 60,42.4 60.2,41.6 60.5,40.8 
				60.9,40.1 61.3,39.5 			"/>
			<path class="st1" d="M50.1,7.8c14.1-8.1,25.5-1.5,25.5,14.7l0,6.2c0,0.6,0,1.1-0.1,1.7l-4.8,2.8c0.1-1,0.1-1.8,0.1-2.8
				c0-0.7,0-6.5-0.1-7.2c-0.9-11.7-9.8-16.2-20.7-10c-11,6.4-20,21.5-20.7,34.4c0,0.5,0,6.2,0,6.7c0,0.8,0,1.6,0.1,2.3l-0.4,0.3
				l-4.5,2.4c0-0.7-0.1-1.4-0.1-2.2c0-0.8,0-6.8,0.1-7.6C25.7,33.9,36.7,15.6,50.1,7.8z"/>
			<polygon class="st6" points="15.2,65.2 15.9,64.8 16.2,64.6 16.6,64.5 16.9,64.4 17.3,64.3 17.7,64.2 18,64.2 18.5,64.2 
				18.9,64.2 19.3,64.2 19.7,64.3 20.2,64.4 20.6,64.6 21.1,64.7 21.6,64.9 22,65.2 22.5,65.4 23,65.7 23.5,66.1 23.9,66.4 
				24.4,66.8 24.8,67.1 25.3,67.5 25.7,68 26.2,68.4 26.6,68.9 27,69.3 27.4,69.8 27.7,70.3 28.1,70.8 28.5,71.4 28.8,71.9 
				29.1,72.4 29.4,73 29.7,73.5 30,74.1 30.3,74.7 30.5,75.3 30.7,75.9 30.9,76.4 31.1,77 31.3,77.6 31.4,78.2 31.6,78.8 31.7,79.4 
				31.8,79.9 31.8,80.5 31.9,81.1 31.9,81.7 31.9,82.2 31.8,82.7 31.8,83.2 31.7,83.7 31.6,84.2 31.4,84.6 31.3,85 31.1,85.4 
				30.9,85.8 30.7,86.2 30.5,86.5 30.3,86.8 30,87 29.7,87.3 29.4,87.5 29.1,87.7 28.5,88.1 28.8,87.9 29.1,87.7 29.3,87.4 
				29.6,87.2 29.8,86.9 30.1,86.5 30.3,86.2 30.5,85.8 30.6,85.4 30.8,85 30.9,84.6 31,84.1 31.1,83.6 31.2,83.1 31.2,82.6 31.2,82 
				31.2,81.5 31.2,80.9 31.1,80.3 31,79.8 30.9,79.2 30.8,78.6 30.6,78 30.5,77.4 30.3,76.8 30.1,76.2 29.8,75.7 29.6,75.1 
				29.3,74.5 29.1,73.9 28.8,73.4 28.5,72.8 28.1,72.3 27.8,71.7 27.4,71.2 27.1,70.7 26.7,70.2 26.3,69.7 25.9,69.2 25.5,68.8 
				25.1,68.3 24.6,67.9 24.2,67.5 23.7,67.1 23.3,66.8 22.8,66.4 22.3,66.1 21.8,65.8 21.4,65.6 20.9,65.3 20.4,65.1 20,65 
				19.5,64.8 19.1,64.7 18.6,64.6 18.2,64.6 17.8,64.6 17.4,64.6 17,64.6 16.6,64.7 16.2,64.7 15.9,64.9 15.6,65 			"/>
			<path class="st8" d="M21.8,87.4c-5.2-3-9.4-10.2-9.4-16.2c0-6,4.2-8.4,9.4-5.4c5.2,3,9.4,10.2,9.4,16.2
				C31.2,88,27,90.4,21.8,87.4z"/>
		</g>
	</g>
</g>
</svg>
