<?xml version="1.0" encoding="utf-8"?>
<!-- Generator: Adobe Illustrator 24.2.1, SVG Export Plug-In . SVG Version: 6.00 Build 0)  -->
<svg version="1.1" id="Layer_1" xmlns="http://www.w3.org/2000/svg" xmlns:xlink="http://www.w3.org/1999/xlink" x="0px" y="0px"
	 viewBox="0 0 100 100" style="enable-background:new 0 0 100 100;" xml:space="preserve">
<style type="text/css">
	.st0{fill-rule:evenodd;clip-rule:evenodd;fill:#D24331;}
	.st1{fill-rule:evenodd;clip-rule:evenodd;fill:#C03B2B;}
	.st2{fill-rule:evenodd;clip-rule:evenodd;fill:#E64D3C;}
	.st3{fill-rule:evenodd;clip-rule:evenodd;fill:#BFC6C8;}
	.st4{fill-rule:evenodd;clip-rule:evenodd;fill:#A1AEB1;}
	.st5{fill-rule:evenodd;clip-rule:evenodd;fill:#E6EAEA;}
</style>
<g>
	<path class="st0" d="M39.5,63v24.6c0,14.1-28.6,14.2-28.6,0.1V63l0.1,0.4l0.1,0.4l0.1,0.4l0.2,0.4l0.2,0.4l0.2,0.4l0.3,0.4l0.3,0.4
		l0.3,0.4l0.4,0.3l0.4,0.3l0.4,0.3l0.5,0.3l0.5,0.3l0.5,0.3l0.6,0.3l0.6,0.3l0.6,0.2l0.6,0.2l0.6,0.2l0.6,0.2l0.6,0.2l0.7,0.1
		l0.7,0.1l0.7,0.1l0.7,0.1l0.7,0.1l0.7,0l0.7,0l0.7,0l0.7,0l0.7,0l0.7,0l0.7-0.1l0.7-0.1l0.7-0.1l0.7-0.1l0.7-0.1l0.6-0.2l0.6-0.2
		l0.6-0.2l0.6-0.2l0.6-0.2l0.6-0.3l0.6-0.3l0.5-0.3l0.5-0.3l0.5-0.3l0.4-0.3l0.4-0.3l0.4-0.4l0.3-0.4l0.3-0.4l0.3-0.4l0.2-0.4
		l0.2-0.4l0.2-0.4l0.1-0.4l0.1-0.4L39.5,63z"/>
	<path class="st1" d="M13.4,67.2l0.3,0.2l0.5,0.3l0.5,0.3l0.6,0.3l0.3,0.1v22.8c0,1.2-2.1,0.7-2.1-0.7V67.2z"/>
	<path class="st2" d="M14,67.6l0.1,0.1l0.5,0.3l0.6,0.3l0.3,0.1v22.8c0,0.3-0.2,0.5-0.4,0.6c-0.5-0.1-1.1-0.6-1.1-1.4V67.6z"/>
	<path class="st1" d="M20.4,69.7c0.1,0,0.2,0,0.3,0.1c0.2,0,0.4,0.1,0.6,0.1c0.2,0,0.4,0.1,0.6,0.1c0.2,0,0.4,0.1,0.6,0.1
		c0.1,0,0.2,0,0.3,0c0,7.5,0,15.4,0,22.9c0,1.4-2.5,1.3-2.5-0.3C20.4,85.1,20.4,77.4,20.4,69.7z"/>
	<path class="st2" d="M20.8,69.8l0.5,0.1c0.2,0,0.4,0.1,0.6,0.1c0.2,0,0.4,0.1,0.6,0.1c0.1,0,0.2,0,0.3,0c0,7.5,0,15.4,0,22.9
		c0,0.6-0.4,0.9-0.9,1c-0.6-0.1-1.2-0.5-1.2-1.3V69.8z"/>
	<path class="st1" d="M27.6,70.4l0.4,0l0.7-0.1l0.7-0.1l0.7-0.1l0.4-0.1v23.2c0,1.7-2.8,1.7-2.8,0V70.4z"/>
	<path class="st1" d="M34.4,67.8c0.1-0.1,0.2-0.1,0.3-0.2c0.1-0.1,0.3-0.2,0.4-0.2c0.1-0.1,0.3-0.2,0.4-0.2c0.1-0.1,0.3-0.2,0.4-0.2
		c0.1,2,0.1,4,0.2,6c0,5.9,0,11.7,0,17.6c0,1.1-1.8,1-1.8-0.1C34.4,82.8,34.4,75.3,34.4,67.8z"/>
	<path class="st2" d="M34.4,67.8c0.1-0.1,0.2-0.1,0.3-0.2c0.1-0.1,0.3-0.2,0.4-0.2l0.3-0.2l0.2,5.7c0,5.9,0,11.7,0,17.6
		c0,0.4-0.3,0.6-0.6,0.7c-0.4-0.1-0.7-0.4-0.7-0.8C34.4,82.8,34.4,75.3,34.4,67.8z"/>
	<path class="st2" d="M38.6,65.4l0.2-0.4l0.2-0.4l0.2-0.4l0.1-0.3v23.9c0,0.4-0.8,0.4-0.8-0.1V65.4z"/>
	<path class="st2" d="M27.6,70.4l0.4,0l0.7-0.1l0.7-0.1l0.7-0.1l0,0v23.1c0,0.8-0.6,1.2-1.2,1.2c-0.6-0.1-1.2-0.5-1.2-1.2V70.4z"/>
	<path class="st0" d="M13.9,50.4c6.3-3.6,16.5-3.6,22.9,0c6.3,3.6,6.3,9.6,0,13.2c-6.3,3.6-16.5,3.6-22.9,0
		C7.5,60,7.5,54.1,13.9,50.4z"/>
	<polygon class="st1" points="41.4,57.9 41.4,63.2 41.3,63.7 41.2,64.1 41,64.6 40.8,65 40.5,65.4 40.3,65.9 40,66.3 39.6,66.7 
		39.2,67.1 38.8,67.5 38.3,67.9 37.8,68.2 37.3,68.6 36.7,68.9 36.1,69.3 35.5,69.6 34.8,69.9 34.2,70.1 33.5,70.4 32.8,70.6 
		32.1,70.8 31.4,71 30.6,71.2 29.9,71.3 29.1,71.4 28.4,71.5 27.6,71.6 26.8,71.6 26.1,71.7 25.3,71.7 24.5,71.7 23.7,71.6 23,71.6 
		22.2,71.5 21.4,71.4 20.7,71.3 19.9,71.2 19.2,71 18.5,70.8 17.8,70.6 17.1,70.4 16.4,70.1 15.7,69.9 15.1,69.6 14.5,69.3 
		13.9,68.9 13.3,68.6 12.7,68.2 12.2,67.9 11.8,67.5 11.4,67.1 11,66.7 10.6,66.3 10.3,65.9 10,65.4 9.8,65 9.6,64.6 9.4,64.1 
		9.3,63.7 9.2,63.2 9.2,57.9 9.3,58.4 9.4,58.8 9.6,59.2 9.8,59.7 10,60.1 10.3,60.5 10.6,61 11,61.4 11.4,61.8 11.8,62.2 
		12.2,62.5 12.7,62.9 13.3,63.3 13.9,63.6 14.5,64 15.1,64.3 15.7,64.6 16.4,64.8 17.1,65.1 17.8,65.3 18.5,65.5 19.2,65.7 
		19.9,65.8 20.7,66 21.4,66.1 22.2,66.2 23,66.3 23.7,66.3 24.5,66.3 25.3,66.4 26.1,66.3 26.8,66.3 27.6,66.3 28.4,66.2 29.1,66.1 
		29.9,66 30.6,65.8 31.4,65.7 32.1,65.5 32.8,65.3 33.5,65.1 34.2,64.8 34.8,64.6 35.5,64.3 36.1,64 36.7,63.6 37.3,63.3 37.8,62.9 
		38.3,62.5 38.8,62.2 39.2,61.8 39.6,61.4 40,61 40.3,60.5 40.5,60.1 40.8,59.7 41,59.2 41.2,58.8 41.3,58.4 	"/>
	<path class="st3" d="M85.7,5.1l-4.9-2.9l-0.4-0.2L80.1,2l-0.4-0.1l-0.4-0.1l-0.4-0.1l-0.4-0.1L78,1.5l-0.4,0v16l0,0l0,0.1l0,0.1
		l0,0.1L77.5,18l-0.1,0.1l-0.1,0.1l-0.1,0.1l-0.1,0.1l-6.9,8.2v0l-0.1,0.1L70,27l-0.1,0.1l-0.1,0.1l-0.1,0.1l-0.1,0l-0.1,0l-0.1,0
		L62.6,27l-0.1,0l-0.1,0l-0.1,0l4.9,2.9l0.1,0l0.1,0l0.1,0l6.8,0.3l0.1,0l0.1,0l0.1,0l0.1-0.1l0.1-0.1l0.1-0.1l0.1-0.1l0.1-0.1l0,0
		l6.9-8.2l0.1-0.1l0.1-0.1l0.1-0.1l0.1-0.1l0.1-0.1l0-0.1l0-0.1l0-0.1l0,0v-16l0.4,0l0.4,0.1l0.4,0.1l0.4,0.1l0.4,0.1L85,4.8L85.4,5
		L85.7,5.1L85.7,5.1z M75.1,82.7v-10l0-0.2l0-0.2L75,72.2l-0.1-0.1l4.9,2.9l0.1,0.1l0.1,0.1l0,0.2l0,0.2v10l0,0.2l0,0.2l-0.1,0.2
		l-0.1,0.2l-0.1,0.2l-0.1,0.2l-0.2,0.2L79.2,87l-8.9,5.1l-0.2,0.1l-0.2,0l-0.1,0l-0.1,0l-4-2.3v1.5V93v1.6v1.6h0l0,0.4l0.1,0.4
		l0.1,0.3l0.1,0.3l0.1,0.3l0.2,0.2l0.2,0.2l0.2,0.2l-4.9-2.9l-0.2-0.2l-0.2-0.2l-0.2-0.2L61,94.6l-0.1-0.3L60.8,94l-0.1-0.4l0-0.4
		l0,0v-1.6v-1.6v-1.6V87v-1.6v-1.6v-1.6v-1.6v-1.6v-1.6v-1.6v-1.6V73v-1.6v-1.6v-1.6v-1.6v-1.6v-1.6v-1.6v-1.6V59v-1.6v-1.6v-1.6
		v-1.6v-1.6v-1.6v-1.6v-1.6v-1.6v-1.6v0l0,0l-2.2-1.3l-0.3-0.2l-0.3-0.2l-0.3-0.2l-0.3-0.2L57,40.9l-0.3-0.3l-0.3-0.3L56.2,40
		l-0.2-0.3l-0.2-0.3L55.5,39l-0.1-0.2l-0.1-0.2l-0.1-0.2l-0.1-0.2L55,38.1l-0.1-0.2l-0.1-0.2l-0.1-0.2l-0.1-0.2l-0.1-0.2l-0.1-0.2
		l-0.1-0.2l-0.1-0.2l-0.1-0.2l-0.1-0.2l-0.1-0.2l-0.1-0.2l-0.1-0.2l0-0.2l0-0.2l0-0.2l0-0.3l0-0.3l0-0.3l0-0.3l0-0.3l0-0.3l0-0.3
		l0-0.3l0-0.3l0-0.3l0-0.3v0h0l0-0.4l0-0.4l0-0.4l0-0.4l0-0.4l0-0.4l0-0.4l0-0.4l0-0.4l0.2-0.5L54,27.6l0.1-0.4l0.1-0.4l0.1-0.4
		l0.1-0.4l0.1-0.4l0.1-0.4l0.1-0.4l0.1-0.4l0.1-0.4l0.1-0.4l0.1-0.4l0.1-0.4l0.1-0.4l0.1-0.4l0.1-0.4l0.1-0.4l0.1-0.4l0.1-0.4
		l0.1-0.4l0.1-0.4l0.2-0.4l0.1-0.3l0.1-0.3l0.1-0.3l0.1-0.3l0.2-0.3l0.2-0.3l0.2-0.3l0.2-0.3l0.2-0.3l0.2-0.3l0.2-0.3l0.2-0.3
		l0.2-0.3l0.2-0.3l0.2-0.3l0.2-0.3l0.2-0.3l0.2-0.3l0.2-0.3l0.2-0.3l0.2-0.3l0.2-0.3l0.2-0.3l0.2-0.3l0.2-0.3l0.2-0.3l0.2-0.3
		l0.2-0.3l0.2-0.3l0.2-0.3l0.2-0.3l0.2-0.3l4.9,2.9l-0.2,0.3l-0.2,0.3l-0.2,0.3l-0.2,0.3l-0.2,0.3l-0.2,0.3l-0.2,0.3l-0.2,0.3
		l-0.2,0.3L64.9,16l-0.2,0.3l-0.2,0.3l-0.2,0.3l-0.2,0.3L64,17.5l-0.2,0.3l-0.2,0.3l-0.2,0.3l-0.2,0.3L63.1,19l-0.2,0.3l-0.2,0.3
		L62.6,20l-0.2,0.3l-0.2,0.3l-0.2,0.3l-0.2,0.3l-0.1,0.3l-0.1,0.3l-0.1,0.3l-0.1,0.3l-0.1,0.3l-0.2,0.4l-0.1,0.4l-0.1,0.4l-0.1,0.4
		l-0.1,0.4L60.4,25l-0.1,0.4l-0.1,0.4L60,26.1l-0.1,0.4l-0.1,0.4l-0.1,0.4l-0.1,0.4l-0.1,0.4l-0.1,0.4l-0.1,0.4L59.2,29l-0.1,0.4
		l-0.1,0.4L59,30.1L59,30.5l-0.1,0.4l-0.1,0.4l0,0.4l0,0.4l0,0.4l0,0.4l0,0.4l0,0.4l0,0.4l0,0.4l0,0.4h0v0l0,0.3l0,0.3l0,0.3l0,0.3
		l0,0.3l0,0.3l0,0.3l0,0.3l0,0.3l0,0.3l0,0.3l0,0.2l0,0.2l0,0.2l0.1,0.2l0.1,0.2l0.1,0.2l0.1,0.2l0.1,0.2l0.1,0.2l0.1,0.2l0.1,0.2
		l0.1,0.2l0.1,0.2l0.1,0.2l0.1,0.2l0.1,0.2l0.1,0.2l0.1,0.2l0.1,0.2l0.1,0.2l0.1,0.2l0.2,0.4l0.2,0.3l0.2,0.3l0.3,0.3l0.3,0.3
		l3.8,2.2l0.1,0.1l0.1,0.1l0,0.1l0,0.1l0,0.1l0,0.1l0,0v1.6v1.6v1.6v1.6V54v1.6v1.6v1.6v1.6v1.6v1.6v1.6v1.6v1.6v1.6v1.6v1.6v1.6
		v1.6v1.6V79v1.6v1.6v1.6v1.6v1.6v1.6v0.8l8.6-5l0.2-0.1l0.2-0.2l0.1-0.2l0.1-0.2l0.1-0.2l0.1-0.2l0-0.2L75.1,82.7L75.1,82.7z
		 M70.2,26.8l4.9,2.9L70.2,26.8L70.2,26.8z"/>
	<polygon class="st4" points="24.1,58.7 21.7,57.3 21.7,25.1 24.1,26.5 	"/>
	<polygon class="st4" points="21.5,25.3 19.1,23.9 20.6,6.1 23,7.5 	"/>
	<polygon class="st3" points="23,7.5 20.6,6.1 27.6,2 30,3.4 	"/>
	<polygon class="st5" points="24.1,58.7 24.1,26.5 21.5,25.3 23,7.5 30,3.4 31.5,19.5 28.9,23.7 28.9,36.1 28.9,55.9 	"/>
	<polygon class="st4" points="77,18.8 81.9,21.6 82.1,21.4 82.2,21.3 82.3,21.1 82.3,21 82.4,20.9 82.5,20.7 82.5,20.6 82.5,20.4 
		82.5,20.3 82.5,20.3 82.5,4.3 83,4.3 83.4,4.4 83.8,4.5 84.2,4.6 84.6,4.7 85,4.8 85.4,5 85.7,5.1 80.8,2.3 80.4,2.1 80.1,2 
		79.7,1.8 79.3,1.7 78.9,1.6 78.4,1.5 78,1.5 77.6,1.5 77.6,17.4 77.6,17.4 77.6,17.6 77.6,17.7 77.5,17.9 77.5,18 77.4,18.2 
		77.3,18.3 77.2,18.4 77.1,18.6 	"/>
	<path class="st4" d="M60.8,43.3L60.8,43.3L60.8,43.3l0,1.6v1.6v1.6v1.6v1.6v1.6v1.6v1.6v1.6V59v1.6v1.6v1.6v1.6v1.6v1.6v1.6v1.6V73
		v1.6v1.6v1.6v1.6v1.6v1.6v1.6v1.6V87v1.6v1.6v1.6v1.6l0,0l0,0.4l0.1,0.4l0.1,0.3l0.1,0.3l0.1,0.3l0.2,0.2l0.2,0.2l0.2,0.2l4.9,2.9
		l-0.2-0.2L66.3,98l-0.2-0.2L66,97.5l-0.1-0.3l-0.1-0.3l-0.1-0.4l0-0.4h0v-1.6V93v-1.6v-1.5v-0.8v-0.8v-1.6v-1.6v-1.6v-1.6v-1.6V79
		v-0.7v-0.9v-1.6v-1.6v-1.6v-1.6v-1.6v-1.6v-1.6v-1.6v-1.6v-1.6v-1.6v-1.6v-1.6v-1.6V54v-1.6v-1.6v-1.6v-1.6v-1.6l0,0l0-0.1l0-0.1
		l0-0.1l0-0.1l-0.1-0.1l-0.1-0.1l-2-0.8L60.8,43.3L60.8,43.3z M79.8,86.4L79.8,86.4l0.1-0.2L80,86l0-0.2l0-0.2v-10l0-0.2l0-0.2
		l-0.1-0.1L79.8,75l-4.9-2.9l0.1,0.1l0.1,0.1l0,0.2l0,0.2v10l0,0.2l0,0.2L75,83.3l-0.1,0.2l0,0L79.8,86.4z"/>
	<path class="st5" d="M83.5,37.7L83.5,37.7l0-1.6c0-0.5,0.3-1.1,0.7-1.4l0.1,0c2-2.9,3.6-6,4.8-9.3c1.1-3.2,1.8-6.4,1.8-9.5
		c0-3.7-1-6.7-2.6-8.6c-1.4-1.7-3.4-2.7-5.8-2.9v16l0,0c0,0.4-0.2,0.8-0.4,1.1l-6.9,8.2l0,0c-0.2,0.3-0.5,0.5-0.8,0.5l-6.8-0.3
		c-0.3,0-0.5-0.2-0.5-0.6l0-16c-2.3,2.8-4.3,6.1-5.8,9.5c-1.6,3.9-2.6,7.9-2.6,11.6l0,0v0c0,3.1,0.6,5.6,1.8,7.5
		c1.2,1.9,2.8,3.2,4.9,3.8c0.2,0,0.4,0.2,0.4,0.6l0,0c0,16.6,0,33.3,0,49.9h0c0,1.1,0.4,1.8,1,2.2c0.6,0.4,1.5,0.3,2.4-0.2l11.3-6.5
		c0.5-0.3,0.9-0.6,1.3-1c0.4-0.4,0.8-0.9,1.1-1.5c0.3-0.6,0.6-1.2,0.7-1.7c0.2-0.6,0.2-1.1,0.2-1.7C83.7,69.6,83.6,53.7,83.5,37.7
		L83.5,37.7z M79.2,87l-8.9,5.1c-0.5,0.3-0.9,0.1-0.9-0.5v-10c0-0.5,0.4-1.2,0.9-1.5l8.9-5.1c0.5-0.3,0.9,0,0.9,0.5v10
		C80.1,86.1,79.7,86.7,79.2,87z"/>
</g>
</svg>
