<?xml version="1.0" encoding="utf-8"?>
<!-- Generator: Adobe Illustrator 24.2.1, SVG Export Plug-In . SVG Version: 6.00 Build 0)  -->
<svg version="1.1" id="Layer_1" xmlns="http://www.w3.org/2000/svg" xmlns:xlink="http://www.w3.org/1999/xlink" x="0px" y="0px"
	 viewBox="0 0 100 100" style="enable-background:new 0 0 100 100;" xml:space="preserve">
<style type="text/css">
	.st0{fill-rule:evenodd;clip-rule:evenodd;fill:#CCCCCC;}
	.st1{fill-rule:evenodd;clip-rule:evenodd;fill:#687576;}
	.st2{fill-rule:evenodd;clip-rule:evenodd;fill:#30383B;}
	.st3{fill-rule:evenodd;clip-rule:evenodd;fill:#4F5B5F;}
	.st4{fill-rule:evenodd;clip-rule:evenodd;fill:#E6EAEA;}
	.st5{fill-rule:evenodd;clip-rule:evenodd;fill:#9B9C9C;}
	.st6{fill-rule:evenodd;clip-rule:evenodd;fill:#4C6781;}
	.st7{fill-rule:evenodd;clip-rule:evenodd;fill:#3E576F;}
	.st8{fill-rule:evenodd;clip-rule:evenodd;fill:#36495C;}
	.st9{fill-rule:evenodd;clip-rule:evenodd;fill:#2D3F50;}
	.st10{fill-rule:evenodd;clip-rule:evenodd;fill:#334657;}
	.st11{fill-rule:evenodd;clip-rule:evenodd;fill:#2A3A4A;}
	.st12{fill-rule:evenodd;clip-rule:evenodd;fill:#2B658D;}
	.st13{fill-rule:evenodd;clip-rule:evenodd;fill:#4C89C8;}
	.st14{fill-rule:evenodd;clip-rule:evenodd;fill:#2E7EB4;}
	.st15{fill-rule:evenodd;clip-rule:evenodd;fill:#EFB11E;}
	.st16{fill-rule:evenodd;clip-rule:evenodd;fill:#FFCC04;}
	.st17{fill-rule:evenodd;clip-rule:evenodd;fill:#C5CCD1;}
	.st18{fill-rule:evenodd;clip-rule:evenodd;fill:#BDBDBD;}
</style>
<g>
	<rect x="1066.8" y="397.8" transform="matrix(0.866 -0.5 0.5 0.866 -55.8743 587.0439)" class="st0" width="1.4" height="0"/>
	<polygon class="st1" points="1068.1,398.8 1068.1,398.8 1068.1,398.9 1068.1,398.9 1068.2,399 1068.2,399 1068.2,399.1 
		1068.3,399.1 1068.3,399.2 1068.3,399.2 1068.4,399.3 1068.4,399.3 1068.5,399.3 1068.5,399.4 1068.5,399.4 1068.6,399.4 
		1068.6,399.5 1068.7,399.5 1068.7,399.5 1068.8,399.5 1068.8,399.6 1068.8,399.6 1068.9,399.6 1068.9,399.6 1069,399.6 1069,399.6 
		1069,399.6 1069.1,399.6 1069.1,399.6 1069.2,399.6 1069.2,399.6 1069.2,399.6 1069.3,399.6 1069.3,399.6 1068.1,400.2 
		1068.1,400.3 1068,400.3 1068,400.3 1068,400.3 1067.9,400.3 1067.9,400.3 1067.8,400.3 1067.8,400.3 1067.8,400.3 1067.7,400.3 
		1067.7,400.3 1067.6,400.3 1067.6,400.3 1067.6,400.2 1067.5,400.2 1067.5,400.2 1067.4,400.2 1067.4,400.1 1067.3,400.1 
		1067.3,400.1 1067.3,400 1067.2,400 1067.2,400 1067.1,399.9 1067.1,399.9 1067.1,399.8 1067,399.8 1067,399.7 1067,399.7 
		1066.9,399.6 1066.9,399.6 1066.9,399.5 1066.8,399.5 1066.8,399.5 1066.8,399.4 1066.8,399.4 1066.7,399.3 1066.7,399.3 
		1066.7,399.2 1066.7,399.2 1066.7,399.1 1066.7,399.1 1066.6,399 1066.6,398.9 1066.6,398.9 1066.6,398.8 1066.6,398.8 
		1066.6,398.7 1066.6,398.7 1066.6,398.6 1066.6,398.6 1066.6,398.5 1066.6,398.5 1066.6,398.5 1066.6,398.4 1066.7,398.4 
		1066.7,398.3 1066.7,398.3 1066.7,398.3 1066.7,398.2 1066.8,398.2 1066.8,398.2 1066.8,398.2 1066.8,398.1 1066.9,398.1 
		1068.1,397.4 1068,397.5 1068,397.5 1068,397.5 1068,397.5 1067.9,397.5 1067.9,397.6 1067.9,397.6 1067.9,397.6 1067.9,397.7 
		1067.8,397.7 1067.8,397.8 1067.8,397.8 1067.8,397.8 1067.8,397.9 1067.8,397.9 1067.8,398 1067.8,398 1067.8,398.1 1067.8,398.1 
		1067.8,398.2 1067.8,398.3 1067.8,398.3 1067.9,398.4 1067.9,398.4 1067.9,398.5 1067.9,398.5 1067.9,398.6 1067.9,398.6 
		1068,398.7 1068,398.7 1068,398.8 	"/>
	<polygon class="st2" points="1069.8,397.8 1069.8,397.8 1069.7,397.8 1069.7,397.7 1069.6,397.6 1069.6,397.5 1069.5,397.4 
		1069.4,397.3 1069.4,397.2 1069.3,397.2 1069.2,397.1 1069.1,397 1069.1,397 1069,396.9 1068.9,396.8 1068.8,396.8 1068.8,396.7 
		1068.7,396.7 1068.6,396.6 1068.5,396.6 1068.4,396.6 1068.4,396.5 1068.3,396.5 1068.2,396.5 1068.1,396.5 1068.1,396.5 
		1068,396.5 1067.9,396.5 1067.9,396.5 1067.8,396.5 1067.7,396.5 1067.7,396.5 1067.6,396.5 1067.6,396.6 1066.4,397.3 
		1066.4,397.2 1066.5,397.2 1066.5,397.2 1066.6,397.2 1066.7,397.2 1066.7,397.2 1066.8,397.2 1066.9,397.2 1066.9,397.2 
		1067,397.2 1067.1,397.2 1067.2,397.2 1067.2,397.3 1067.3,397.3 1067.4,397.3 1067.5,397.4 1067.5,397.4 1067.6,397.5 
		1067.7,397.5 1067.8,397.6 1067.9,397.7 1067.9,397.7 1068,397.8 1068.1,397.9 1068.2,397.9 1068.2,398 1068.3,398.1 1068.3,398.2 
		1068.4,398.3 1068.5,398.4 1068.5,398.5 1068.6,398.5 1068.6,398.5 1068.6,398.6 1068.6,398.6 1068.7,398.7 1068.7,398.7 
		1068.7,398.8 1068.7,398.8 1068.8,398.9 1068.8,398.9 1068.8,399 1068.8,399 1068.8,399.1 1068.9,399.1 1068.9,399.2 1068.9,399.2 
		1068.9,399.3 1068.9,399.3 1068.9,399.4 1068.9,399.4 1069,399.5 1069,399.5 1069,399.6 1069,399.6 1069,399.7 1069,399.7 
		1069,399.8 1069,399.8 1069,399.9 1069,399.9 1069,400 1069,400 1069,400 1069,400.1 1069,400.2 1069,400.3 1069,400.4 1069,400.4 
		1069,400.5 1069,400.6 1068.9,400.7 1068.9,400.7 1068.9,400.8 1068.9,400.9 1068.8,400.9 1068.8,401 1068.7,401 1068.7,401 
		1068.6,401.1 1068.6,401.1 1069.8,400.4 1069.8,400.4 1069.9,400.3 1069.9,400.3 1070,400.3 1070,400.2 1070.1,400.2 1070.1,400.1 
		1070.1,400 1070.2,400 1070.2,399.9 1070.2,399.8 1070.2,399.7 1070.2,399.7 1070.2,399.6 1070.2,399.5 1070.2,399.4 1070.2,399.4 
		1070.2,399.3 1070.2,399.3 1070.2,399.2 1070.2,399.2 1070.2,399.1 1070.2,399.1 1070.2,399 1070.2,399 1070.2,398.9 1070.2,398.9 
		1070.2,398.8 1070.2,398.8 1070.2,398.7 1070.1,398.7 1070.1,398.6 1070.1,398.6 1070.1,398.5 1070.1,398.5 1070.1,398.4 
		1070,398.4 1070,398.3 1070,398.3 1070,398.2 1070,398.2 1069.9,398.1 1069.9,398.1 1069.9,398 1069.9,398 1069.8,397.9 
		1069.8,397.9 	"/>
	<path class="st3" d="M1068.6,398.5c-0.3-0.5-0.7-0.9-1.1-1.2c-0.4-0.3-0.8-0.3-1.1-0.1l0,0c-0.3,0.2-0.5,0.5-0.5,1
		c0,0.5,0.2,1.1,0.5,1.6c0.3,0.5,0.7,0.9,1.1,1.2c0.4,0.3,0.8,0.3,1.1,0.1c0.3-0.2,0.5-0.5,0.5-1
		C1069,399.6,1068.9,399,1068.6,398.5L1068.6,398.5L1068.6,398.5z M1068.1,398.8c0.2,0.3,0.3,0.6,0.3,0.9c0,0.3-0.1,0.5-0.3,0.6
		c-0.2,0.1-0.4,0.1-0.6-0.1c-0.2-0.1-0.5-0.4-0.6-0.6l0,0c-0.2-0.3-0.2-0.6-0.2-0.8c0-0.3,0.1-0.5,0.3-0.6v0
		c0.2-0.1,0.4-0.1,0.6,0.1C1067.7,398.3,1067.9,398.6,1068.1,398.8z"/>
	<path class="st4" d="M1068.1,398.8c-0.1-0.3-0.4-0.5-0.6-0.6c-0.2-0.1-0.4-0.1-0.6-0.1l0,0c-0.1,0.1-0.2,0.3-0.2,0.5
		c0,0.3,0.1,0.5,0.2,0.8l0,0c0.1,0.3,0.4,0.5,0.6,0.6c0.2,0.1,0.4,0.1,0.6,0.1c0.1-0.1,0.2-0.3,0.2-0.5S1068.2,399.1,1068.1,398.8z"
		/>
	<path class="st1" d="M1065.9,398C1065.9,398,1065.9,398,1065.9,398l-0.3,0.2l0,0l0,0l0,0l0,0l0-0.1l0-0.1l0-0.1l0-0.1l0-0.1l0-0.1
		l0-0.1l0-0.1l0-0.1l0-0.1l0-0.1l0-0.1l0.1-0.1l0.1,0l0.1,0l0.1,0l6.3-3.6l-0.1,0l-0.1,0l-0.1,0l-0.1,0.1l0,0.1l0,0.1l0,0.1l0,0.1
		l0,0.1l0,0.1l0,0.1l0,0.1l0,0.1l0,0.1l0,0.1l0,0.1l0,0l0,0l0,0l0,0l-3.4,2l0,0l0,0l0,0l-0.1,0l-0.1,0l-0.1,0l-0.1,0l-0.1,0l-0.1,0
		l-0.1,0l-0.1,0l-0.1,0l-0.1,0l-0.1,0l-0.1,0l-1.2,0.7l0,0C1066.1,397.4,1066,397.6,1065.9,398L1065.9,398z M1067.2,397.2
		L1067.2,397.2L1067.2,397.2L1067.2,397.2L1067.2,397.2z M1067.1,397.2L1067.1,397.2L1067.1,397.2L1067.1,397.2L1067.1,397.2z
		 M1067,397.2L1067,397.2L1067,397.2L1067,397.2L1067,397.2z M1066.9,397.2L1066.9,397.2L1066.9,397.2L1066.9,397.2L1066.9,397.2z
		 M1066.9,397.2L1066.9,397.2L1066.9,397.2L1066.9,397.2L1066.9,397.2z M1066.8,397.2L1066.8,397.2L1066.8,397.2L1066.8,397.2
		L1066.8,397.2z M1066.7,397.2L1066.7,397.2L1066.7,397.2L1066.7,397.2L1066.7,397.2z M1066.6,397.2L1066.6,397.2L1066.6,397.2
		L1066.6,397.2L1066.6,397.2z M1066.5,397.2L1066.5,397.2L1066.5,397.2L1066.5,397.2L1066.5,397.2z M1066.5,397.2L1066.5,397.2
		L1066.5,397.2L1066.5,397.2z"/>
	<path class="st5" d="M1064.5,394.7l9.1,5.3v2.9c-1.1-0.6-3.6-2.1-4.2-2.5c-0.1,0-0.1-0.1-0.1-0.2l0,0c0-0.6-0.2-1.2-0.5-1.8
		c-0.3-0.6-0.8-1.1-1.3-1.4c-0.5-0.3-1-0.3-1.3-0.1c-0.3,0.2-0.5,0.6-0.5,1.2c0,0.1-0.1,0.1-0.1,0.1v0l-0.2-0.1
		c-0.2-0.1-0.4-0.4-0.6-0.6c-0.1-0.3-0.2-0.5-0.2-0.8V394.7z"/>
	<path class="st1" d="M1064.5,394.7l6.3-3.6l9.2,5.3l-6.3,3.6C1070.8,398.3,1067.3,396.3,1064.5,394.7z"/>
	<polygon class="st2" points="1074.8,395.1 1074.8,395.3 1074.8,395.4 1074.8,395.5 1074.7,395.5 1074.7,395.6 1074.7,395.7 
		1074.6,395.8 1074.6,395.8 1074.5,395.9 1074.4,396 1074.4,396.1 1074.3,396.1 1074.2,396.2 1074.1,396.3 1074,396.3 1073.9,396.4 
		1073.8,396.4 1073.6,396.5 1073.5,396.5 1073.4,396.6 1073.3,396.6 1073.2,396.7 1073,396.7 1072.9,396.7 1072.8,396.7 
		1072.6,396.8 1072.5,396.8 1072.3,396.8 1072.2,396.8 1072.1,396.8 1071.9,396.8 1071.8,396.8 1071.7,396.8 1071.5,396.8 
		1071.4,396.8 1071.2,396.8 1071.1,396.7 1071,396.7 1070.8,396.7 1070.7,396.7 1070.6,396.6 1070.5,396.6 1070.3,396.5 
		1070.2,396.5 1070.1,396.4 1070,396.4 1069.9,396.3 1069.8,396.3 1069.7,396.2 1069.6,396.1 1069.5,396.1 1069.4,396 1069.4,395.9 
		1069.3,395.8 1069.2,395.8 1069.2,395.7 1069.2,395.6 1069.1,395.5 1069.1,395.5 1069.1,395.4 1069.1,395.3 1069.1,395.1 
		1069.1,395.2 1069.1,395.2 1069.1,395.3 1069.2,395.4 1069.2,395.5 1069.2,395.6 1069.3,395.6 1069.4,395.7 1069.4,395.8 
		1069.5,395.8 1069.6,395.9 1069.7,396 1069.8,396 1069.9,396.1 1070,396.2 1070.1,396.2 1070.2,396.3 1070.3,396.3 1070.5,396.4 
		1070.6,396.4 1070.7,396.4 1070.8,396.5 1071,396.5 1071.1,396.5 1071.2,396.5 1071.4,396.6 1071.5,396.6 1071.7,396.6 
		1071.8,396.6 1071.9,396.6 1072.1,396.6 1072.2,396.6 1072.3,396.6 1072.5,396.6 1072.6,396.5 1072.8,396.5 1072.9,396.5 
		1073,396.5 1073.2,396.4 1073.3,396.4 1073.4,396.4 1073.5,396.3 1073.6,396.3 1073.8,396.2 1073.9,396.2 1074,396.1 1074.1,396 
		1074.2,396 1074.3,395.9 1074.4,395.8 1074.4,395.8 1074.5,395.7 1074.6,395.6 1074.6,395.6 1074.7,395.5 1074.7,395.4 
		1074.7,395.3 1074.8,395.2 1074.8,395.2 	"/>
	<path class="st3" d="M1069.9,393.7c1.1-0.7,3-0.7,4.1,0c1.1,0.7,1.1,1.7,0,2.4c-1.1,0.7-3,0.7-4.1,0
		C1068.8,395.5,1068.8,394.4,1069.9,393.7z"/>
	<path class="st1" d="M1070.4,395.8c0.4,0.2,1,0.4,1.5,0.4c0.5,0,1.1-0.1,1.5-0.4c0.4-0.2,0.6-0.5,0.6-0.9c0-0.3-0.2-0.6-0.6-0.9
		c-0.4-0.2-1-0.4-1.5-0.4c-0.5,0-1.1,0.1-1.5,0.4c-0.4,0.2-0.6,0.5-0.6,0.9C1069.8,395.2,1070,395.5,1070.4,395.8L1070.4,395.8z
		 M1071.9,396.4c-0.6,0-1.3-0.1-1.8-0.4c-0.5-0.3-0.7-0.7-0.7-1c0-0.4,0.2-0.7,0.7-1c0.5-0.3,1.1-0.4,1.8-0.4s1.3,0.1,1.8,0.4
		c0.5,0.3,0.7,0.7,0.7,1c0,0.4-0.2,0.7-0.7,1C1073.2,396.2,1072.6,396.4,1071.9,396.4z"/>
	<g>
		<polygon class="st6" points="1063.4,387.9 1069.9,384.1 1070.3,384.3 1070.3,384.5 1071.3,385.1 1071.5,385 1071.8,385.2 
			1071.8,385.4 1072.8,386 1073,385.8 1073.3,386.1 1073.3,386.3 1074.3,386.8 1074.5,386.7 1074.9,386.9 1074.9,387.2 
			1075.8,387.7 1076,387.6 1076.4,387.8 1076.4,388 1077.4,388.6 1077.6,388.5 1077.9,388.7 1077.9,388.9 1078.9,389.5 
			1079.1,389.4 1079.5,389.6 1079.5,395.9 1072.9,399.6 1072.9,399.6 1072.5,399.4 1072.5,399.2 1071.6,398.6 1071.4,398.8 
			1071,398.5 1071,398.3 1070,397.8 1069.8,397.9 1069.5,397.7 1069.5,397.4 1068.5,396.9 1068.3,397 1067.9,396.8 1067.9,396.6 
			1067,396 1066.8,396.1 1066.4,395.9 1066.4,395.7 1065.4,395.1 1065.3,395.2 1064.9,395 1064.9,394.8 1063.9,394.2 1063.7,394.3 
			1063.4,394.1 		"/>
		<polygon class="st7" points="1072.9,393.4 1079.5,389.6 1079.5,395.9 1072.9,399.6 		"/>
		<polygon class="st7" points="1071.4,392.5 1077.9,388.7 1077.9,388.9 1071.6,392.6 1071.6,398.6 1071.4,398.8 		"/>
		<polygon class="st8" points="1071.6,392.6 1077.9,388.9 1078.9,389.5 1072.5,393.2 		"/>
		<polygon class="st9" points="1071.6,392.6 1072.5,393.2 1072.5,399.2 1071.6,398.6 		"/>
		<polygon class="st10" points="1071,392.3 1077.6,388.5 1077.9,388.7 1071.4,392.5 		"/>
		<polygon class="st11" points="1071,392.3 1071.4,392.5 1071.4,398.8 1071,398.5 		"/>
		<polygon class="st7" points="1069.8,391.6 1076.4,387.8 1076.4,388 1070,391.7 1070,397.8 1069.8,397.9 		"/>
		<polygon class="st8" points="1070,391.7 1076.4,388 1077.4,388.6 1071,392.3 		"/>
		<polygon class="st9" points="1070,391.7 1071,392.3 1071,398.3 1070,397.8 		"/>
		<polygon class="st10" points="1069.5,391.4 1076,387.6 1076.4,387.8 1069.8,391.6 		"/>
		<polygon class="st11" points="1069.5,391.4 1069.8,391.6 1069.8,397.9 1069.5,397.7 		"/>
		<polygon class="st7" points="1068.3,390.7 1074.9,386.9 1074.9,387.2 1068.5,390.8 1068.5,396.9 1068.3,397 		"/>
		<polygon class="st8" points="1068.5,390.8 1074.9,387.2 1075.8,387.7 1069.5,391.4 		"/>
		<polygon class="st9" points="1068.5,390.8 1069.5,391.4 1069.5,397.4 1068.5,396.9 		"/>
		<polygon class="st10" points="1068,390.5 1074.5,386.7 1074.9,386.9 1068.3,390.7 		"/>
		<polygon class="st11" points="1068,390.5 1068.3,390.7 1068.3,397 1067.9,396.8 		"/>
		<polygon class="st7" points="1066.8,389.8 1073.3,386.1 1073.3,386.3 1067,390 1067,396 1066.8,396.1 		"/>
		<polygon class="st8" points="1067,390 1073.3,386.3 1074.3,386.8 1068,390.5 		"/>
		<polygon class="st9" points="1067,390 1068,390.5 1067.9,396.6 1067,396 		"/>
		<polygon class="st10" points="1066.4,389.6 1073,385.8 1073.3,386.1 1066.8,389.8 		"/>
		<polygon class="st11" points="1066.4,389.6 1066.8,389.8 1066.8,396.1 1066.4,395.9 		"/>
		<polygon class="st7" points="1065.3,389 1071.8,385.2 1071.8,385.4 1065.5,389.1 1065.4,395.1 1065.3,395.2 		"/>
		<polygon class="st8" points="1065.5,389.1 1071.8,385.4 1072.8,386 1066.4,389.6 		"/>
		<polygon class="st9" points="1065.5,389.1 1066.4,389.6 1066.4,395.7 1065.4,395.1 		"/>
		<polygon class="st10" points="1064.9,388.7 1071.5,385 1071.8,385.2 1065.3,389 		"/>
		<polygon class="st11" points="1064.9,388.7 1065.3,389 1065.3,395.2 1064.9,395 		"/>
		<polygon class="st10" points="1072.5,393.2 1079.1,389.4 1079.5,389.6 1072.9,393.4 		"/>
		<polygon class="st11" points="1072.5,393.2 1072.9,393.4 1072.9,399.6 1072.5,399.4 		"/>
		<polygon class="st7" points="1063.7,388.1 1070.3,384.3 1070.3,384.5 1063.9,388.2 1063.9,394.2 1063.7,394.3 		"/>
		<polygon class="st8" points="1063.9,388.2 1070.3,384.5 1071.3,385.1 1064.9,388.7 		"/>
		<polygon class="st9" points="1063.9,388.2 1064.9,388.7 1064.9,394.8 1063.9,394.2 		"/>
		<polygon class="st10" points="1063.4,387.9 1069.9,384.1 1070.3,384.3 1063.7,388.1 		"/>
		<polygon class="st11" points="1063.4,387.9 1063.7,388.1 1063.7,394.3 1063.4,394.1 		"/>
		<polygon class="st9" points="1073.1,393.5 1079.3,389.9 1079.3,395.8 1073.1,399.3 		"/>
		<polygon class="st7" points="1073.2,393.6 1079.2,390.1 1079.2,395.7 1073.2,399.2 		"/>
	</g>
	<path class="st1" d="M1074.6,403.3l0.3-0.2c0,0,0,0,0,0.1L1074.6,403.3L1074.6,403.3L1074.6,403.3L1074.6,403.3L1074.6,403.3
		L1074.6,403.3z M1077.3,401.7l3.5-2l0,0l0,0l0,0l0,0L1077.3,401.7L1077.3,401.7L1077.3,401.7z"/>
	<g>
		
			<rect x="1075.7" y="402.9" transform="matrix(0.8661 -0.4998 0.4998 0.8661 -57.2931 591.9636)" class="st0" width="1.4" height="0"/>
		<polygon class="st1" points="1077,404 1077,404 1077,404 1077,404.1 1077.1,404.1 1077.1,404.2 1077.1,404.2 1077.2,404.3 
			1077.2,404.3 1077.3,404.4 1077.3,404.4 1077.3,404.5 1077.4,404.5 1077.4,404.5 1077.5,404.6 1077.5,404.6 1077.6,404.6 
			1077.6,404.6 1077.6,404.7 1077.7,404.7 1077.7,404.7 1077.8,404.7 1077.8,404.7 1077.9,404.7 1077.9,404.8 1077.9,404.8 
			1078,404.8 1078,404.8 1078,404.8 1078.1,404.8 1078.1,404.7 1078.1,404.7 1078.2,404.7 1078.2,404.7 1077,405.4 1077,405.4 
			1076.9,405.4 1076.9,405.4 1076.9,405.4 1076.8,405.5 1076.8,405.5 1076.8,405.5 1076.7,405.5 1076.7,405.5 1076.6,405.4 
			1076.6,405.4 1076.6,405.4 1076.5,405.4 1076.5,405.4 1076.4,405.4 1076.4,405.3 1076.3,405.3 1076.3,405.3 1076.3,405.3 
			1076.2,405.2 1076.2,405.2 1076.1,405.1 1076.1,405.1 1076.1,405.1 1076,405 1076,405 1075.9,404.9 1075.9,404.9 1075.9,404.8 
			1075.8,404.8 1075.8,404.7 1075.8,404.7 1075.8,404.7 1075.7,404.6 1075.7,404.6 1075.7,404.5 1075.7,404.5 1075.6,404.4 
			1075.6,404.4 1075.6,404.3 1075.6,404.3 1075.6,404.2 1075.6,404.2 1075.6,404.1 1075.5,404 1075.5,404 1075.5,403.9 
			1075.5,403.9 1075.5,403.8 1075.5,403.8 1075.5,403.7 1075.5,403.7 1075.5,403.6 1075.6,403.6 1075.6,403.6 1075.6,403.5 
			1075.6,403.5 1075.6,403.5 1075.6,403.4 1075.6,403.4 1075.7,403.4 1075.7,403.3 1075.7,403.3 1075.7,403.3 1075.8,403.3 
			1077,402.6 1077,402.6 1076.9,402.6 1076.9,402.6 1076.9,402.7 1076.9,402.7 1076.8,402.7 1076.8,402.8 1076.8,402.8 
			1076.8,402.8 1076.8,402.9 1076.8,402.9 1076.7,403 1076.7,403 1076.7,403 1076.7,403.1 1076.7,403.1 1076.7,403.2 1076.7,403.2 
			1076.7,403.3 1076.7,403.4 1076.8,403.4 1076.8,403.5 1076.8,403.5 1076.8,403.6 1076.8,403.6 1076.8,403.7 1076.8,403.7 
			1076.9,403.8 1076.9,403.8 1076.9,403.9 1076.9,403.9 		"/>
		<polygon class="st2" points="1078.7,403 1078.7,403 1078.7,402.9 1078.6,402.8 1078.5,402.7 1078.5,402.6 1078.4,402.6 
			1078.3,402.5 1078.3,402.4 1078.2,402.3 1078.1,402.2 1078.1,402.2 1078,402.1 1077.9,402 1077.8,402 1077.8,401.9 1077.7,401.9 
			1077.6,401.8 1077.5,401.8 1077.4,401.7 1077.4,401.7 1077.3,401.7 1077.2,401.7 1077.1,401.6 1077.1,401.6 1077,401.6 
			1076.9,401.6 1076.8,401.6 1076.8,401.6 1076.7,401.6 1076.7,401.6 1076.6,401.7 1076.5,401.7 1076.5,401.7 1075.3,402.4 
			1075.3,402.4 1075.4,402.4 1075.4,402.3 1075.5,402.3 1075.6,402.3 1075.6,402.3 1075.7,402.3 1075.8,402.3 1075.8,402.3 
			1075.9,402.3 1076,402.4 1076.1,402.4 1076.2,402.4 1076.2,402.4 1076.3,402.5 1076.4,402.5 1076.5,402.6 1076.6,402.6 
			1076.6,402.7 1076.7,402.7 1076.8,402.8 1076.9,402.9 1076.9,402.9 1077,403 1077.1,403.1 1077.1,403.2 1077.2,403.3 
			1077.3,403.3 1077.3,403.4 1077.4,403.5 1077.4,403.6 1077.5,403.7 1077.5,403.7 1077.5,403.7 1077.6,403.8 1077.6,403.8 
			1077.6,403.9 1077.6,403.9 1077.7,404 1077.7,404 1077.7,404.1 1077.7,404.1 1077.7,404.2 1077.8,404.2 1077.8,404.3 
			1077.8,404.3 1077.8,404.4 1077.8,404.4 1077.8,404.5 1077.9,404.5 1077.9,404.6 1077.9,404.6 1077.9,404.7 1077.9,404.7 
			1077.9,404.8 1077.9,404.8 1077.9,404.9 1077.9,404.9 1077.9,405 1078,405 1078,405.1 1078,405.1 1078,405.2 1078,405.2 
			1078,405.2 1078,405.3 1078,405.4 1077.9,405.5 1077.9,405.6 1077.9,405.7 1077.9,405.7 1077.9,405.8 1077.8,405.9 1077.8,405.9 
			1077.8,406 1077.7,406.1 1077.7,406.1 1077.7,406.2 1077.6,406.2 1077.6,406.2 1077.5,406.3 1078.7,405.6 1078.8,405.5 
			1078.8,405.5 1078.9,405.5 1078.9,405.4 1078.9,405.4 1079,405.3 1079,405.3 1079,405.2 1079.1,405.1 1079.1,405.1 1079.1,405 
			1079.1,404.9 1079.2,404.8 1079.2,404.7 1079.2,404.6 1079.2,404.6 1079.2,404.5 1079.2,404.5 1079.2,404.4 1079.2,404.4 
			1079.2,404.3 1079.2,404.3 1079.1,404.2 1079.1,404.2 1079.1,404.1 1079.1,404.1 1079.1,404 1079.1,404 1079.1,403.9 
			1079.1,403.9 1079.1,403.8 1079,403.8 1079,403.7 1079,403.7 1079,403.6 1079,403.6 1079,403.5 1078.9,403.5 1078.9,403.4 
			1078.9,403.4 1078.9,403.3 1078.9,403.3 1078.8,403.2 1078.8,403.2 1078.8,403.1 1078.8,403.1 1078.7,403 		"/>
		<path class="st3" d="M1077.5,403.7c-0.3-0.5-0.7-0.9-1.1-1.2c-0.4-0.3-0.8-0.3-1.1-0.1v0c-0.3,0.2-0.5,0.5-0.5,1
			c0,0.5,0.2,1.1,0.5,1.6c0.3,0.5,0.7,0.9,1.1,1.2c0.4,0.3,0.8,0.3,1.1,0.1c0.3-0.2,0.5-0.5,0.5-1
			C1078,404.7,1077.8,404.2,1077.5,403.7L1077.5,403.7L1077.5,403.7z M1077,404c0.2,0.3,0.3,0.6,0.3,0.9s-0.1,0.5-0.3,0.6
			c-0.2,0.1-0.4,0.1-0.6-0.1c-0.2-0.1-0.5-0.4-0.6-0.6l0,0c-0.2-0.3-0.2-0.6-0.2-0.8c0-0.3,0.1-0.5,0.3-0.6l0,0
			c0.2-0.1,0.4-0.1,0.6,0.1C1076.6,403.5,1076.8,403.7,1077,404z"/>
		<path class="st4" d="M1077,403.9c-0.1-0.3-0.4-0.5-0.6-0.6c-0.2-0.1-0.4-0.1-0.6-0.1l0,0c-0.1,0.1-0.2,0.3-0.2,0.5
			c0,0.3,0.1,0.5,0.2,0.8l0,0c0.1,0.3,0.4,0.5,0.6,0.6c0.2,0.1,0.4,0.1,0.6,0.1c0.1-0.1,0.2-0.3,0.2-0.5
			C1077.3,404.5,1077.2,404.2,1077,403.9z"/>
	</g>
	<path class="st4" d="M1066.4,398.7l0.4-0.2v0L1066.4,398.7L1066.4,398.7L1066.4,398.7z M1069.3,397.1l3.4-2v0L1069.3,397.1
		L1069.3,397.1z"/>
	<path class="st1" d="M1075.1,402.1l6.3-3.6l-0.1,0l-0.1,0l-0.1,0l-0.1,0.1l0,0.1l0,0.1l0,0.1l0,0.1l0,0.1l0,0.1l0,0.1l0,0.1l0,0.1
		l0,0.1l0,0.1l0,0.1l-3.5,2l0,0l-0.1,0l-0.1,0l-0.1,0l-0.1,0l-0.1,0l-0.1,0l-0.1,0l-0.1,0l-0.1,0l-0.1,0l-0.1,0l-0.1,0l-1.2,0.7v0
		c-0.2,0.1-0.4,0.4-0.4,0.7l-0.3,0.2l0-0.1l0-0.1l0-0.1l0-0.1l0-0.1l0-0.1l0-0.1l0-0.1l0-0.1l0-0.1l0-0.1l0-0.1l0.1-0.1l0.1,0
		L1075.1,402.1L1075.1,402.1z"/>
	<polygon class="st4" points="1078.9,405.8 1085.2,402.2 1085.2,402.2 1085.2,402.2 1085.2,402.2 1085.2,402.3 1078.9,405.9 
		1078.9,405.9 1078.9,405.9 1078.9,405.8 	"/>
	<path class="st4" d="M1074.4,403.4l0.4-0.2v0L1074.4,403.4L1074.4,403.4L1074.4,403.4z M1077.3,401.7l3.4-2v0L1077.3,401.7
		L1077.3,401.7z"/>
	<polygon class="st4" points="1077.8,397.6 1084.1,393.9 1084.2,394 1084.2,394 1084.2,394.1 1084.2,394.1 1084.3,394.1 
		1084.3,394.2 1084.3,394.2 1084.3,394.3 1084.3,394.3 1084.4,394.3 1084.4,394.4 1084.4,394.4 1084.4,394.5 1084.4,394.5 
		1084.4,394.6 1084.4,394.6 1085.2,398.1 1085.2,398.1 1085.2,398.1 1085.2,398.2 1085.2,398.2 1085.2,398.2 1085.2,398.2 
		1085.2,398.2 1085.2,398.2 1085.2,398.3 1085.2,398.3 1085.2,398.3 1085.2,398.3 1085.2,398.3 1085.2,398.3 1085.2,398.4 
		1085.2,398.4 1085.2,398.4 1085.2,402.2 1078.9,405.8 1078.9,402 1078.9,402 1078.9,402 1078.9,402 1078.9,402 1078.9,401.9 
		1078.9,401.9 1078.9,401.9 1078.9,401.9 1078.9,401.9 1078.9,401.9 1078.9,401.8 1078.9,401.8 1078.9,401.8 1078.9,401.8 
		1078.9,401.8 1078.9,401.8 1078.9,401.8 1078.1,398.2 1078.1,398.2 1078.1,398.1 1078.1,398.1 1078.1,398.1 1078.1,398 1078.1,398 
		1078,397.9 1078,397.9 1078,397.8 1078,397.8 1078,397.8 1077.9,397.7 1077.9,397.7 1077.9,397.6 1077.9,397.6 	"/>
	<path class="st5" d="M1073.7,400v-4.9c0-0.1,0.1-0.1,0.1-0.1l3.6,2.1c0.2,0.1,0.4,0.3,0.5,0.5h0c0.1,0.2,0.2,0.4,0.3,0.7l0.7,3.5
		l0,0c0,0,0,0.1,0,0.1c0,0,0,0.1,0,0.1v3.8c0,0.1-0.1,0.1-0.1,0.1l-0.4-0.3c-0.1,0-0.1-0.1-0.1-0.2c0-0.6-0.2-1.2-0.5-1.8l0,0
		c-0.3-0.6-0.8-1.1-1.3-1.3c-0.5-0.3-1-0.3-1.3-0.1c-0.3,0.2-0.5,0.6-0.5,1.2c0,0.1-0.1,0.1-0.1,0.1v0c-0.2-0.1-0.5-0.3-0.8-0.5V400
		z"/>
	<path class="st1" d="M1070.5,399l0.3-0.2l0,0l0,0l0,0l0,0l2.6,1.5l0,0l0,0l0,0l0,0l0,0l0,0l0,0l0,0c0,0.5,0,1.8,0,2.3l0.2,0.1
		l-0.5,0.3l0,0l0,0l0,0l0,0v-0.3c0-0.5,0-1.7,0-2.2l0,0l0,0l0,0l0,0l0,0l0,0l0,0l0,0L1070.5,399L1070.5,399L1070.5,399L1070.5,399
		L1070.5,399z"/>
	<path class="st3" d="M1073.4,402.9v0.3c0,0.1-0.1,0.1-0.1,0.1l-2.6-1.5c-0.1,0-0.1-0.1-0.1-0.2v-1.2v-1.2c0-0.1,0.1-0.1,0.1-0.1
		l2.6,1.5c0.1,0,0.1,0.1,0.1,0.2v0.3v0.2v1.4V402.9z"/>
	<path class="st12" d="M1074.7,396.4l2.3,1.3c0.1,0.1,0.2,0.2,0.3,0.3h0c0.1,0.1,0.1,0.3,0.2,0.4l0,0l0.6,2.9c0,0.1,0,0.2-0.1,0.1
		c0,0,0,0,0,0v0l-3.3-1.9c-0.1,0-0.1-0.1-0.1-0.2v-2.8C1074.6,396.4,1074.6,396.4,1074.7,396.4z"/>
	<polygon class="st13" points="1078.6,398 1084,394.9 1084.7,398.4 1079.3,401.5 	"/>
	<polygon class="st14" points="1079.1,400.3 1081.8,398.8 1082.3,397.9 1083.7,397.1 1084.5,397.3 1084.7,398.4 1079.3,401.5 	"/>
	<path class="st14" d="M1078,400.7l0.1,0.7c0,0.1,0,0.2-0.1,0.1c0,0,0,0,0,0v0l-3.3-1.9c-0.1,0-0.1-0.1-0.1-0.2v-0.5L1078,400.7z"/>
	<polygon class="st15" points="1084.2,401.5 1084,401.4 1084,401.4 1084,401.4 1084,401.3 1083.9,401.3 1083.9,401.3 1083.9,401.2 
		1083.9,401.2 1083.9,401.1 1083.9,401 1083.9,401 1083.9,400.9 1083.9,400.8 1084,400.8 1084,400.7 1084,400.6 1084,400.6 
		1084.1,400.5 1084.1,400.5 1084.2,400.4 1084.2,400.3 1084.3,400.3 1084.3,400.3 1084.4,400.2 1084.4,400.2 1084.5,400.1 
		1084.5,400.1 1084.6,400.1 1084.6,400.1 1084.7,400.1 1084.7,400.1 1084.8,400.1 1084.8,400.1 1084.9,400.2 1084.9,400.2 
		1084.8,400.2 1084.8,400.2 1084.7,400.2 1084.7,400.2 1084.6,400.2 1084.6,400.2 1084.5,400.2 1084.5,400.3 1084.4,400.3 
		1084.4,400.4 1084.3,400.4 1084.3,400.5 1084.2,400.5 1084.2,400.6 1084.2,400.6 1084.1,400.7 1084.1,400.8 1084.1,400.8 
		1084.1,400.9 1084,401 1084,401 1084,401.1 1084,401.2 1084,401.2 1084,401.3 1084,401.3 1084.1,401.4 1084.1,401.4 1084.1,401.4 
		1084.1,401.5 	"/>
	<path class="st16" d="M1084.5,401.5c-0.3,0.2-0.5,0-0.5-0.3c0-0.3,0.2-0.7,0.5-0.9c0.3-0.2,0.5,0,0.5,0.3
		C1085.1,400.9,1084.8,401.3,1084.5,401.5z"/>
	<polygon class="st17" points="1085.8,401.4 1085.2,401.1 1085.2,401.4 1078.9,405.1 1078.3,404.7 1078,404.9 1078.9,405.4 	"/>
	<polygon class="st5" points="1078.9,405.4 1078,404.9 1078,405.9 1078.9,406.4 	"/>
	<polygon class="st4" points="1085.8,402.5 1085.8,401.4 1078.9,405.4 1078.9,406.4 	"/>
	<path class="st5" d="M1082.9,400.5l0,1.5c0,0,0,0,0,0l-0.3,0.2l0-1.5L1082.9,400.5C1082.8,400.5,1082.8,400.5,1082.9,400.5z"/>
	<polygon class="st5" points="1081.9,402.6 1081.9,401.1 1082.3,400.8 1082.3,402.3 	"/>
	<polygon class="st5" points="1081.7,401.2 1081.7,402.7 1081.3,402.9 1081.3,401.4 	"/>
	<polygon class="st5" points="1083.1,401.9 1083.1,400.4 1083.5,400.1 1083.5,401.6 	"/>
	<polygon class="st5" points="1080.7,403.2 1080.7,401.7 1081.1,401.5 1081.1,403 	"/>
	<polygon class="st15" points="1079.5,404.2 1079.4,404.1 1079.3,404.1 1079.3,404.1 1079.3,404 1079.3,404 1079.2,403.9 
		1079.2,403.9 1079.2,403.8 1079.2,403.8 1079.2,403.7 1079.2,403.7 1079.2,403.6 1079.3,403.5 1079.3,403.5 1079.3,403.4 
		1079.3,403.3 1079.4,403.3 1079.4,403.2 1079.4,403.1 1079.5,403.1 1079.5,403 1079.6,403 1079.6,402.9 1079.7,402.9 1079.7,402.9 
		1079.8,402.8 1079.8,402.8 1079.9,402.8 1079.9,402.8 1080,402.8 1080,402.8 1080.1,402.8 1080.1,402.8 1080.2,402.9 1080.2,402.9 
		1080.2,402.9 1080.1,402.9 1080.1,402.9 1080,402.9 1080,402.9 1079.9,402.9 1079.9,402.9 1079.8,403 1079.8,403 1079.7,403.1 
		1079.7,403.1 1079.6,403.2 1079.6,403.2 1079.5,403.3 1079.5,403.3 1079.5,403.4 1079.4,403.5 1079.4,403.5 1079.4,403.6 
		1079.4,403.7 1079.3,403.7 1079.3,403.8 1079.3,403.9 1079.3,403.9 1079.3,404 1079.4,404 1079.4,404.1 1079.4,404.1 1079.4,404.1 
		1079.5,404.2 	"/>
	<path class="st16" d="M1079.9,404.2c-0.3,0.2-0.5,0-0.5-0.3c0-0.3,0.2-0.7,0.5-0.9c0.3-0.2,0.5,0,0.5,0.3
		C1080.4,403.6,1080.2,404,1079.9,404.2z"/>
	<polygon class="st1" points="1081.1,401.5 1080.7,401.7 1080.7,402.8 1081.1,403 	"/>
	<polygon class="st1" points="1081.7,401.2 1081.3,401.4 1081.3,402.5 1081.7,402.7 	"/>
	<polygon class="st1" points="1082.3,400.8 1081.9,401.1 1081.9,402.1 1082.3,402.3 	"/>
	<polygon class="st1" points="1082.9,400.5 1082.5,400.7 1082.5,401.8 1082.9,402 	"/>
	<polygon class="st1" points="1083.5,400.1 1083.1,400.4 1083.1,401.4 1083.5,401.6 	"/>
	<polygon class="st5" points="1070.9,400 1071,399.9 1071,399.9 1071,399.9 1071.1,399.9 1071.1,399.9 1071.1,399.9 1071.1,399.9 
		1071.1,399.8 1071.1,399.8 1071.1,399.8 1071.1,399.8 1071.1,399.7 1071.1,399.7 1071.1,399.7 1071,399.6 1071,399.6 1071,399.6 
		1071,399.6 1071,399.6 1071,399.5 1071,399.5 1070.9,399.5 1070.9,399.5 1070.9,399.5 1070.9,399.4 1070.9,399.4 1070.8,399.4 
		1070.8,399.4 1070.8,399.4 1070.8,399.4 1070.8,399.4 1070.7,399.4 1070.7,399.4 1070.6,399.5 1070.6,399.5 1070.7,399.5 
		1070.7,399.5 1070.7,399.5 1070.7,399.5 1070.7,399.5 1070.8,399.5 1070.8,399.5 1070.8,399.5 1070.8,399.5 1070.8,399.5 
		1070.9,399.6 1070.9,399.6 1070.9,399.6 1070.9,399.6 1070.9,399.7 1070.9,399.7 1070.9,399.7 1071,399.7 1071,399.8 1071,399.8 
		1071,399.8 1071,399.8 1071,399.9 1071,399.9 1071,399.9 1071,399.9 1071,400 1071,400 1070.9,400 1070.9,400 	"/>
	<path class="st1" d="M1070.8,400c0.1,0.1,0.2,0,0.2-0.1c0-0.1-0.1-0.3-0.2-0.4c-0.1-0.1-0.2,0-0.2,0.1
		C1070.6,399.8,1070.7,399.9,1070.8,400z"/>
	<polygon class="st17" points="1078.1,400.1 1077.9,400 1077.1,400.4 1077.3,400.6 	"/>
	<polygon class="st5" points="1077.3,400.6 1077.1,400.4 1077.1,401.9 1077.3,402.1 	"/>
	<polygon class="st4" points="1078.1,401.6 1078.1,400.1 1077.3,400.6 1077.3,402.1 	"/>
	<polygon class="st17" points="1078.5,401 1078.3,400.9 1078.1,401 1078.1,401.2 	"/>
	<polygon class="st4" points="1078.5,401.4 1078.5,401 1078.1,401.2 1078.1,401.6 	"/>
	<polygon class="st17" points="1085.9,395.7 1085.6,395.5 1084.8,396 1085.1,396.1 	"/>
	<polygon class="st5" points="1085.1,396.1 1084.8,396 1084.8,396.5 1085.1,397.6 1085.1,397.6 	"/>
	<polygon class="st4" points="1085.9,397.2 1085.9,395.7 1085.1,396.1 1085.1,397.6 	"/>
	<path class="st18" d="M1083.6,393.5L1083.6,393.5L1083.6,393.5l0.1,0.1l0,0l0,0l0,0l0,0l0,0l0,0l0,0l0,0l0,0l0,0l0,0l0,0l0,0
		l-6.3,3.6l0,0h0c0,0,0,0,0,0c0,0,0,0,0,0c0,0,0,0,0,0c0,0,0,0,0,0s0,0,0,0c0,0,0,0,0,0c0,0,0,0,0,0c0,0,0,0,0,0c0,0,0,0,0,0
		c0,0,0,0,0,0c0,0,0,0,0,0c0,0,0,0,0,0c0,0,0,0,0,0c0,0,0,0,0,0c0,0,0,0,0,0c0,0,0,0,0,0l-3.6-2.1c0,0,0,0-0.1,0l0,0l6.2-3.6l0,0
		l0,0l0,0l0,0L1083.6,393.5z"/>
	<polygon class="st1" points="1075.5,400.6 1074.5,400 1074.4,400.1 1075.4,400.7 	"/>
	<polygon class="st3" points="1075.4,400.7 1074.4,400.1 1074.4,400.3 1075.4,400.9 	"/>
	<polygon class="st1" points="1075.5,400.9 1075.5,400.6 1075.4,400.7 1075.4,400.9 	"/>
</g>
<g>
	<rect x="16.1" y="60.9" transform="matrix(0.866 -0.5 0.5 0.866 -27.9044 17.7183)" class="st0" width="6" height="0"/>
	<polygon class="st1" points="21.7,65.5 21.7,65.5 21.8,65.7 22,66 22.1,66.2 22.3,66.4 22.4,66.6 22.6,66.8 22.7,67 22.9,67.1 
		23.1,67.3 23.2,67.5 23.4,67.6 23.6,67.8 23.8,67.9 24,68.1 24.2,68.2 24.3,68.3 24.5,68.4 24.7,68.5 24.9,68.6 25.1,68.7 
		25.3,68.7 25.5,68.8 25.6,68.8 25.8,68.8 26,68.8 26.1,68.8 26.3,68.8 26.4,68.8 26.6,68.7 26.7,68.7 26.9,68.6 27,68.6 21.8,71.6 
		21.7,71.6 21.5,71.7 21.4,71.7 21.2,71.8 21.1,71.8 20.9,71.8 20.8,71.8 20.6,71.8 20.4,71.8 20.3,71.8 20.1,71.7 19.9,71.7 
		19.7,71.6 19.5,71.5 19.3,71.4 19.2,71.3 19,71.2 18.8,71.1 18.6,70.9 18.4,70.8 18.2,70.6 18,70.5 17.9,70.3 17.7,70.1 17.5,69.9 
		17.4,69.8 17.2,69.6 17.1,69.4 16.9,69.2 16.8,69 16.6,68.7 16.5,68.5 16.5,68.5 16.4,68.2 16.2,68 16.1,67.8 16,67.6 15.9,67.3 
		15.9,67.1 15.8,66.9 15.7,66.7 15.6,66.4 15.6,66.2 15.5,66 15.5,65.7 15.5,65.5 15.4,65.3 15.4,65.1 15.4,64.8 15.4,64.6 
		15.4,64.4 15.5,64.2 15.5,64 15.5,63.8 15.6,63.7 15.6,63.5 15.7,63.3 15.8,63.2 15.9,63 16,62.9 16.1,62.8 16.2,62.7 16.3,62.6 
		16.4,62.5 16.5,62.4 21.7,59.4 21.6,59.5 21.5,59.6 21.4,59.7 21.2,59.8 21.2,59.9 21.1,60.1 21,60.2 20.9,60.3 20.8,60.5 
		20.8,60.7 20.7,60.8 20.7,61 20.7,61.2 20.6,61.4 20.6,61.6 20.6,61.8 20.6,62.1 20.6,62.3 20.7,62.5 20.7,62.7 20.7,63 20.8,63.2 
		20.8,63.4 20.9,63.7 21,63.9 21,64.1 21.1,64.3 21.2,64.6 21.3,64.8 21.4,65 21.6,65.2 	"/>
	<polygon class="st2" points="29.1,61.2 29.1,61.2 28.9,60.8 28.7,60.4 28.4,60.1 28.1,59.7 27.9,59.3 27.6,59 27.3,58.6 27,58.3 
		26.7,58 26.4,57.7 26,57.4 25.7,57.1 25.4,56.8 25,56.6 24.7,56.4 24.3,56.2 24,56 23.6,55.8 23.3,55.7 23,55.5 22.6,55.4 
		22.3,55.3 22,55.3 21.7,55.2 21.4,55.2 21.1,55.2 20.8,55.3 20.5,55.3 20.3,55.4 20,55.5 19.8,55.6 19.5,55.7 14.4,58.7 14.6,58.6 
		14.8,58.5 15.1,58.4 15.4,58.3 15.6,58.3 15.9,58.2 16.2,58.2 16.5,58.2 16.8,58.3 17.1,58.3 17.5,58.4 17.8,58.5 18.1,58.6 
		18.5,58.8 18.8,59 19.2,59.2 19.5,59.4 19.8,59.6 20.2,59.8 20.5,60.1 20.8,60.4 21.2,60.7 21.5,61 21.8,61.3 22.1,61.6 22.4,62 
		22.7,62.3 22.9,62.7 23.2,63.1 23.5,63.4 23.7,63.8 23.9,64.2 24,64.2 24.1,64.4 24.2,64.6 24.3,64.8 24.4,65 24.5,65.2 24.6,65.4 
		24.7,65.7 24.8,65.9 24.9,66.1 25,66.3 25,66.5 25.1,66.7 25.2,66.9 25.3,67.1 25.3,67.3 25.4,67.6 25.5,67.8 25.5,68 25.6,68.2 
		25.6,68.4 25.7,68.6 25.7,68.8 25.8,69 25.8,69.3 25.8,69.5 25.9,69.7 25.9,69.9 25.9,70.1 25.9,70.3 25.9,70.5 25.9,70.7 
		25.9,70.9 25.9,71.3 25.9,71.7 25.9,72.1 25.8,72.4 25.7,72.7 25.6,73.1 25.5,73.4 25.4,73.7 25.3,73.9 25.1,74.2 25,74.4 
		24.8,74.6 24.6,74.8 24.4,75 24.2,75.2 24,75.3 29.1,72.3 29.4,72.2 29.6,72 29.8,71.8 30,71.6 30.1,71.4 30.3,71.2 30.5,70.9 
		30.6,70.7 30.7,70.4 30.8,70.1 30.9,69.7 31,69.4 31.1,69.1 31.1,68.7 31.1,68.3 31.1,67.9 31.1,67.7 31.1,67.5 31.1,67.3 
		31.1,67.1 31.1,66.9 31.1,66.7 31,66.5 31,66.3 31,66 30.9,65.8 30.9,65.6 30.8,65.4 30.8,65.2 30.7,65 30.7,64.8 30.6,64.6 
		30.5,64.3 30.5,64.1 30.4,63.9 30.3,63.7 30.2,63.5 30.1,63.3 30.1,63.1 30,62.9 29.9,62.7 29.8,62.4 29.7,62.2 29.6,62 29.5,61.8 
		29.4,61.6 29.3,61.4 	"/>
	<path class="st3" d="M23.9,64.2c-1.2-2.1-2.9-4-4.8-5.1c-1.9-1.1-3.6-1.2-4.8-0.5l0,0c-1.2,0.7-2,2.2-2,4.4c0,2.2,0.8,4.6,2,6.7
		c1.2,2.1,2.9,4,4.8,5.1c1.9,1.1,3.6,1.2,4.8,0.5c1.2-0.7,2-2.2,2-4.4S25.2,66.3,23.9,64.2L23.9,64.2L23.9,64.2z M21.8,65.5
		c0.7,1.2,1.1,2.5,1.1,3.7c0,1.2-0.4,2-1.1,2.4c-0.7,0.4-1.6,0.3-2.6-0.3c-1-0.6-2-1.6-2.6-2.8l0-0.1c-0.7-1.2-1.1-2.5-1.1-3.6
		c0-1.2,0.4-2,1.1-2.4v0c0.7-0.4,1.6-0.3,2.6,0.3C20.2,63.3,21.1,64.3,21.8,65.5z"/>
	<path class="st4" d="M21.8,65.3c-0.6-1.1-1.5-2.1-2.5-2.6c-1-0.6-1.9-0.6-2.5-0.2l0,0c-0.6,0.4-1,1.2-1,2.3c0,1.1,0.4,2.3,1,3.4
		l0,0.1c0.6,1.1,1.5,2.1,2.5,2.6c1,0.6,1.9,0.6,2.5,0.2c0.6-0.4,1-1.2,1-2.3C22.9,67.7,22.5,66.4,21.8,65.3z"/>
	<path class="st1" d="M12.5,61.7c0,0.1,0,0.2,0,0.3l-1.3,0.8l0.1-0.1l0.1-0.1l0-0.1l0-0.1l0-0.5l0-0.4l0.1-0.4l0.1-0.4l0.1-0.4
		l0.1-0.4l0.1-0.3l0.1-0.3l0.2-0.3l0.2-0.3l0.2-0.3l0.2-0.2l0.2-0.2l0.2-0.2l0.2-0.2l0.3-0.2l27.1-15.7l-0.3,0.2l-0.2,0.2L40,42.3
		l-0.2,0.2l-0.2,0.2L39.4,43l-0.2,0.3l-0.2,0.3l-0.1,0.3l-0.1,0.3l-0.1,0.4L38.6,45l-0.1,0.4l-0.1,0.4l0,0.4l0,0.5l0,0.1l0,0.1
		L38.3,47l-0.1,0.1l-14.9,8.6l-0.1,0l-0.2-0.1l-0.1,0l-0.3-0.1l-0.3-0.1L22,55.3l-0.3,0l-0.3,0l-0.3,0l-0.3,0l-0.3,0l-0.3,0.1
		L20,55.5l-0.2,0.1l-0.2,0.1l-5.2,3l0,0C13.4,59.2,12.7,60.3,12.5,61.7L12.5,61.7z M17.8,58.5L17.8,58.5L17.8,58.5L17.8,58.5
		L17.8,58.5z M17.5,58.4L17.5,58.4L17.5,58.4L17.5,58.4L17.5,58.4z M17.1,58.3L17.1,58.3L17.1,58.3L17.1,58.3L17.1,58.3z M16.8,58.3
		L16.8,58.3L16.8,58.3L16.8,58.3L16.8,58.3z M16.5,58.2L16.5,58.2L16.5,58.2L16.5,58.2L16.5,58.2z M16.2,58.2L16.2,58.2L16.2,58.2
		L16.2,58.2L16.2,58.2z M15.6,58.3L15.6,58.3L15.6,58.3L15.6,58.3L15.6,58.3z M15.4,58.3L15.4,58.3L15.4,58.3L15.4,58.3L15.4,58.3z
		 M15.1,58.4L15.1,58.4L15.1,58.4L15.1,58.4L15.1,58.4z M14.8,58.4L14.8,58.4L14.8,58.4L14.8,58.4z"/>
	<path class="st5" d="M6.4,47.7l39.4,22.7V83c-4.8-2.8-15.4-9-18.2-10.6c-0.3-0.2-0.6-0.6-0.6-1l0,0c0-2.5-0.9-5.2-2.3-7.7
		c-1.4-2.4-3.4-4.6-5.5-5.8c-2.2-1.2-4.1-1.4-5.5-0.6c-1.4,0.8-2.3,2.5-2.3,5c0,0.4-0.3,0.5-0.6,0.3v0l-0.8-0.5
		c-1-0.6-1.8-1.5-2.5-2.6c-0.6-1.1-1-2.3-1-3.4V47.7z"/>
	<path class="st1" d="M6.4,47.7L33.5,32l39.6,22.8L46,70.5C33.6,63.4,18.5,54.7,6.4,47.7z"/>
	<polygon class="st2" points="50.8,49.3 50.8,50.2 50.8,50.6 50.7,50.9 50.5,51.3 50.4,51.6 50.2,51.9 50,52.3 49.7,52.6 49.5,52.9 
		49.2,53.2 48.8,53.5 48.5,53.8 48.1,54.1 47.7,54.4 47.2,54.6 46.8,54.9 46.3,55.1 45.8,55.4 45.3,55.6 44.7,55.7 44.2,55.9 
		43.7,56.1 43.1,56.2 42.5,56.3 42,56.4 41.4,56.5 40.8,56.6 40.2,56.7 39.6,56.7 39,56.7 38.4,56.7 37.8,56.7 37.2,56.7 36.6,56.7 
		36,56.6 35.4,56.5 34.8,56.5 34.3,56.3 33.7,56.2 33.1,56.1 32.6,55.9 32.1,55.7 31.5,55.6 31,55.4 30.5,55.1 30,54.9 29.6,54.6 
		29.1,54.4 28.7,54.1 28.3,53.8 28,53.5 27.6,53.2 27.3,52.9 27.1,52.6 26.8,52.3 26.6,51.9 26.4,51.6 26.3,51.3 26.1,50.9 26,50.6 
		26,50.2 26,49.3 26,49.6 26.1,50 26.3,50.3 26.4,50.7 26.6,51 26.8,51.3 27.1,51.6 27.3,52 27.6,52.3 28,52.6 28.3,52.9 28.7,53.2 
		29.1,53.4 29.6,53.7 30,54 30.5,54.2 31,54.4 31.5,54.6 32.1,54.8 32.6,55 33.1,55.1 33.7,55.3 34.3,55.4 34.8,55.5 35.4,55.6 
		36,55.7 36.6,55.7 37.2,55.8 37.8,55.8 38.4,55.8 39,55.8 39.6,55.8 40.2,55.7 40.8,55.7 41.4,55.6 42,55.5 42.5,55.4 43.1,55.3 
		43.7,55.1 44.2,55 44.7,54.8 45.3,54.6 45.8,54.4 46.3,54.2 46.8,54 47.2,53.7 47.7,53.4 48.1,53.2 48.5,52.9 48.8,52.6 49.2,52.3 
		49.5,52 49.7,51.6 50,51.3 50.2,51 50.4,50.7 50.5,50.3 50.7,50 50.8,49.6 	"/>
	<path class="st3" d="M29.6,43.5c4.9-2.8,12.8-2.8,17.7,0c4.9,2.8,4.9,7.4,0,10.2c-4.9,2.8-12.8,2.8-17.7,0
		C24.7,50.9,24.7,46.3,29.6,43.5z"/>
	<path class="st1" d="M32,52.3c1.8,1,4.1,1.5,6.4,1.5c2.3,0,4.7-0.5,6.4-1.5c1.8-1,2.7-2.4,2.7-3.7c0-1.3-0.9-2.7-2.7-3.7
		c-1.8-1-4.1-1.5-6.4-1.5c-2.3,0-4.7,0.5-6.4,1.5c-1.8,1-2.7,2.4-2.7,3.7C29.3,49.9,30.2,51.3,32,52.3L32,52.3z M38.4,54.9
		c-2.8,0-5.6-0.6-7.7-1.8c-2.1-1.2-3.2-2.8-3.2-4.4c0-1.6,1.1-3.2,3.2-4.4c2.1-1.2,4.9-1.8,7.7-1.8s5.6,0.6,7.7,1.8
		c2.1,1.2,3.2,2.8,3.2,4.4c0,1.6-1.1,3.2-3.2,4.4C44,54.3,41.2,54.9,38.4,54.9z"/>
	<g>
		<polygon class="st6" points="1.5,18.2 29.8,1.8 31.3,2.8 31.3,3.7 35.5,6.2 36.4,5.7 37.9,6.6 37.9,7.5 42.1,10 43,9.5 44.5,10.4 
			44.5,11.4 48.7,13.8 49.5,13.3 51.1,14.2 51.1,15.2 55.3,17.6 56.1,17.1 57.7,18 57.7,19 61.9,21.4 62.7,20.9 64.3,21.8 
			64.3,22.8 68.5,25.2 69.3,24.7 70.9,25.6 70.8,52.6 42.6,69 42.6,69 41,68 41,67.1 36.8,64.7 36,65.2 34.4,64.2 34.4,63.3 
			30.2,60.9 29.4,61.3 27.8,60.4 27.8,59.5 23.6,57.1 22.8,57.5 21.2,56.6 21.2,55.7 17,53.3 16.2,53.7 14.6,52.8 14.6,51.9 
			10.4,49.4 9.6,49.9 8.1,49 8.1,48 3.9,45.6 3,46.1 1.5,45.2 		"/>
		<polygon class="st7" points="42.6,41.9 70.9,25.6 70.8,52.6 42.6,69 		"/>
		<polygon class="st7" points="36,38.1 64.3,21.8 64.3,22.8 36.8,38.6 36.8,64.7 36,65.2 		"/>
		<polygon class="st8" points="36.8,38.6 64.3,22.8 68.5,25.2 41,41 		"/>
		<polygon class="st9" points="36.8,38.6 41,41 41,67.1 36.8,64.7 		"/>
		<polygon class="st10" points="34.4,37.2 62.7,20.9 64.3,21.8 36,38.1 		"/>
		<polygon class="st11" points="34.4,37.2 36,38.1 36,65.2 34.4,64.2 		"/>
		<polygon class="st7" points="29.4,34.3 57.7,18 57.7,19 30.2,34.8 30.2,60.9 29.4,61.3 		"/>
		<polygon class="st8" points="30.2,34.8 57.7,19 61.9,21.4 34.4,37.2 		"/>
		<polygon class="st9" points="30.2,34.8 34.4,37.2 34.4,63.3 30.2,60.9 		"/>
		<polygon class="st10" points="27.8,33.4 56.1,17.1 57.7,18 29.4,34.3 		"/>
		<polygon class="st11" points="27.8,33.4 29.4,34.3 29.4,61.3 27.8,60.4 		"/>
		<polygon class="st7" points="22.8,30.5 51.1,14.2 51.1,15.2 23.7,31 23.6,57.1 22.8,57.5 		"/>
		<polygon class="st8" points="23.7,31 51.1,15.2 55.3,17.6 27.8,33.4 		"/>
		<polygon class="st9" points="23.7,31 27.8,33.4 27.8,59.5 23.6,57.1 		"/>
		<polygon class="st10" points="21.3,29.6 49.5,13.3 51.1,14.2 22.8,30.5 		"/>
		<polygon class="st11" points="21.3,29.6 22.8,30.5 22.8,57.5 21.2,56.6 		"/>
		<polygon class="st7" points="16.2,26.7 44.5,10.4 44.5,11.4 17.1,27.2 17,53.3 16.2,53.7 		"/>
		<polygon class="st8" points="17.1,27.2 44.5,11.4 48.7,13.8 21.2,29.6 		"/>
		<polygon class="st9" points="17.1,27.2 21.2,29.6 21.2,55.7 17,53.3 		"/>
		<polygon class="st10" points="14.7,25.8 43,9.5 44.5,10.4 16.2,26.7 		"/>
		<polygon class="st11" points="14.7,25.8 16.2,26.7 16.2,53.7 14.6,52.8 		"/>
		<polygon class="st7" points="9.6,22.9 37.9,6.6 37.9,7.5 10.5,23.4 10.4,49.4 9.6,49.9 		"/>
		<polygon class="st8" points="10.5,23.4 37.9,7.5 42.1,10 14.7,25.8 		"/>
		<polygon class="st9" points="10.5,23.4 14.7,25.8 14.6,51.9 10.4,49.4 		"/>
		<polygon class="st10" points="8.1,22 36.4,5.7 37.9,6.6 9.6,22.9 		"/>
		<polygon class="st11" points="8.1,22 9.6,22.9 9.6,49.9 8.1,49 		"/>
		<polygon class="st10" points="41,41 69.3,24.7 70.9,25.6 42.6,41.9 		"/>
		<polygon class="st11" points="41,41 42.6,41.9 42.6,69 41,68 		"/>
		<polygon class="st7" points="3.1,19.1 31.3,2.8 31.3,3.7 3.9,19.5 3.9,45.6 3,46.1 		"/>
		<polygon class="st8" points="3.9,19.5 31.3,3.7 35.5,6.2 8.1,22 		"/>
		<polygon class="st9" points="3.9,19.5 8.1,22 8.1,48 3.9,45.6 		"/>
		<polygon class="st10" points="1.5,18.2 29.8,1.8 31.3,2.8 3.1,19.1 		"/>
		<polygon class="st11" points="1.5,18.2 3.1,19.1 3,46.1 1.5,45.2 		"/>
		<polygon class="st9" points="43.4,42.4 70.1,27 70,52.2 43.4,67.6 		"/>
		<polygon class="st7" points="43.9,42.8 69.6,28 69.5,52.1 43.9,66.9 		"/>
	</g>
	<path class="st1" d="M49.8,84.7l1.2-0.7c0,0.1,0,0.2,0,0.3L49.6,85l0.1-0.1l0.1-0.1l0-0.1L49.8,84.7L49.8,84.7z M61.6,77.8L76.9,69
		l0,0.1l0,0.1l-0.1,0.1l-0.1,0.1l-14.8,8.5l-0.1-0.1L61.6,77.8z"/>
	<g>
		<rect x="54.6" y="83.1" transform="matrix(0.8661 -0.4998 0.4998 0.8661 -33.845 39.9045)" class="st0" width="6" height="0"/>
		<polygon class="st1" points="60.1,87.7 60.2,87.7 60.3,87.9 60.4,88.2 60.6,88.4 60.7,88.6 60.9,88.8 61,89 61.2,89.2 61.4,89.3 
			61.5,89.5 61.7,89.7 61.9,89.8 62.1,90 62.2,90.1 62.4,90.3 62.6,90.4 62.8,90.5 63,90.6 63.2,90.7 63.4,90.8 63.6,90.9 
			63.7,90.9 63.9,91 64.1,91 64.3,91 64.4,91 64.6,91 64.7,91 64.9,91 65,90.9 65.2,90.9 65.3,90.8 65.4,90.8 60.3,93.8 60.1,93.8 
			60,93.9 59.8,93.9 59.7,94 59.5,94 59.4,94 59.2,94 59.1,94 58.9,94 58.7,94 58.5,93.9 58.4,93.9 58.2,93.8 58,93.7 57.8,93.6 
			57.6,93.5 57.4,93.4 57.2,93.3 57,93.1 56.9,93 56.7,92.8 56.5,92.7 56.3,92.5 56.2,92.3 56,92.2 55.8,92 55.7,91.8 55.5,91.6 
			55.4,91.4 55.2,91.2 55.1,90.9 55,90.7 54.9,90.7 54.8,90.4 54.7,90.2 54.6,90 54.5,89.8 54.4,89.5 54.3,89.3 54.2,89.1 
			54.2,88.9 54.1,88.6 54,88.4 54,88.2 54,87.9 53.9,87.7 53.9,87.5 53.9,87.3 53.9,87 53.9,86.8 53.9,86.6 53.9,86.4 54,86.2 
			54,86 54,85.9 54.1,85.7 54.2,85.5 54.2,85.4 54.3,85.3 54.4,85.1 54.5,85 54.6,84.9 54.7,84.8 54.8,84.7 55,84.6 60.2,81.6 
			60,81.7 59.9,81.8 59.8,81.9 59.7,82 59.6,82.1 59.5,82.3 59.4,82.4 59.4,82.5 59.3,82.7 59.2,82.9 59.2,83 59.1,83.2 59.1,83.4 
			59.1,83.6 59.1,83.8 59.1,84 59.1,84.3 59.1,84.5 59.1,84.7 59.1,84.9 59.2,85.2 59.2,85.4 59.3,85.6 59.4,85.9 59.4,86.1 
			59.5,86.3 59.6,86.5 59.7,86.8 59.8,87 59.9,87.2 60,87.4 		"/>
		<polygon class="st2" points="67.6,83.4 67.6,83.4 67.4,83 67.1,82.6 66.9,82.3 66.6,81.9 66.3,81.5 66,81.2 65.7,80.8 65.4,80.5 
			65.1,80.2 64.8,79.9 64.5,79.6 64.2,79.3 63.8,79 63.5,78.8 63.2,78.6 62.8,78.4 62.5,78.2 62.1,78 61.8,77.9 61.4,77.7 
			61.1,77.6 60.8,77.5 60.5,77.5 60.2,77.5 59.9,77.4 59.6,77.4 59.3,77.5 59,77.5 58.7,77.6 58.5,77.7 58.2,77.8 58,77.9 
			52.8,80.9 53,80.8 53.3,80.7 53.6,80.6 53.8,80.5 54.1,80.5 54.4,80.4 54.7,80.4 55,80.4 55.3,80.5 55.6,80.5 55.9,80.6 
			56.2,80.7 56.6,80.9 56.9,81 57.3,81.2 57.6,81.4 58,81.6 58.3,81.8 58.6,82 59,82.3 59.3,82.6 59.6,82.9 59.9,83.2 60.3,83.5 
			60.6,83.8 60.8,84.2 61.1,84.5 61.4,84.9 61.7,85.3 61.9,85.6 62.2,86 62.4,86.4 62.4,86.4 62.5,86.6 62.6,86.8 62.7,87 
			62.8,87.2 62.9,87.4 63,87.6 63.1,87.9 63.2,88.1 63.3,88.3 63.4,88.5 63.5,88.7 63.6,88.9 63.7,89.1 63.7,89.3 63.8,89.5 
			63.9,89.8 63.9,90 64,90.2 64,90.4 64.1,90.6 64.1,90.8 64.2,91 64.2,91.2 64.3,91.5 64.3,91.7 64.3,91.9 64.3,92.1 64.4,92.3 
			64.4,92.5 64.4,92.7 64.4,92.9 64.4,93.1 64.4,93.5 64.4,93.9 64.3,94.3 64.3,94.6 64.2,94.9 64.1,95.3 64,95.6 63.9,95.9 
			63.7,96.1 63.6,96.4 63.4,96.6 63.2,96.8 63,97 62.8,97.2 62.6,97.4 62.4,97.5 67.6,94.5 67.8,94.4 68,94.2 68.2,94 68.4,93.8 
			68.6,93.6 68.8,93.4 68.9,93.1 69.1,92.9 69.2,92.6 69.3,92.3 69.4,92 69.5,91.6 69.5,91.3 69.6,90.9 69.6,90.5 69.6,90.1 
			69.6,89.9 69.6,89.7 69.6,89.5 69.6,89.3 69.5,89.1 69.5,88.9 69.5,88.7 69.5,88.5 69.4,88.2 69.4,88 69.3,87.8 69.3,87.6 
			69.2,87.4 69.2,87.2 69.1,87 69.1,86.8 69,86.5 68.9,86.3 68.8,86.1 68.8,85.9 68.7,85.7 68.6,85.5 68.5,85.3 68.4,85.1 
			68.3,84.9 68.2,84.7 68.1,84.4 68,84.2 67.9,84 67.8,83.8 67.7,83.6 		"/>
		<path class="st3" d="M62.4,86.4c-1.2-2.1-2.9-4-4.8-5.1c-1.9-1.1-3.6-1.2-4.8-0.5v0c-1.2,0.7-2,2.2-2,4.4c0,2.2,0.8,4.6,2,6.7
			c1.2,2.1,2.9,4,4.8,5.1c1.9,1.1,3.6,1.2,4.8,0.5c1.2-0.7,2-2.2,2-4.4C64.4,91,63.6,88.6,62.4,86.4L62.4,86.4L62.4,86.4z
			 M60.3,87.7c0.7,1.2,1.1,2.5,1.1,3.7c0,1.2-0.4,2-1.1,2.4c-0.7,0.4-1.6,0.3-2.6-0.3c-1-0.6-2-1.6-2.6-2.8l0-0.1
			c-0.7-1.2-1.1-2.5-1.1-3.6c0-1.2,0.4-2,1.1-2.4l0,0c0.7-0.4,1.6-0.3,2.6,0.3C58.6,85.5,59.6,86.5,60.3,87.7z"/>
		<path class="st4" d="M60.3,87.5c-0.6-1.1-1.5-2.1-2.5-2.6c-1-0.6-1.9-0.6-2.5-0.2l0,0c-0.6,0.4-1,1.2-1,2.3c0,1.1,0.4,2.3,1,3.4
			l0,0.1c0.6,1.1,1.5,2.1,2.5,2.6c1,0.6,1.9,0.6,2.5,0.2c0.6-0.4,1-1.2,1-2.3C61.3,89.9,60.9,88.6,60.3,87.5z"/>
	</g>
	<path class="st4" d="M14.6,65l1.8-1v0L14.6,65L14.6,65L14.6,65z"/>
	<path class="st1" d="M52.1,79.6l27.1-15.7l-0.3,0.2l-0.2,0.2l-0.2,0.2l-0.2,0.2L78,65l-0.2,0.3l-0.2,0.3l-0.2,0.3l-0.1,0.3
		l-0.1,0.3l-0.1,0.4L77,67.3L77,67.7l-0.1,0.4l0,0.4l0,0.5l-15.2,8.8l-0.2-0.1l-0.3-0.1l-0.3-0.1l-0.3-0.1l-0.3,0l-0.3,0l-0.3,0
		l-0.3,0l-0.3,0l-0.3,0.1l-0.3,0.1l-0.2,0.1L58,77.9l-5.2,3v0c-1,0.6-1.6,1.6-1.9,3.1l-1.2,0.7l0-0.5l0-0.4l0-0.4l0.1-0.4l0.1-0.4
		l0.1-0.4l0.1-0.4l0.1-0.3l0.2-0.3l0.2-0.3l0.2-0.3l0.2-0.2l0.2-0.2l0.2-0.2l0.2-0.2L52.1,79.6z"/>
	<polygon class="st4" points="68.5,95.5 95.6,79.8 95.6,80 95.6,80.1 95.5,80.1 95.5,80.2 68.3,95.9 68.4,95.8 68.5,95.7 68.5,95.6 
			"/>
	<path class="st4" d="M49.2,85l1.7-1v0L49.2,85L49.2,85L49.2,85z M61.6,77.8l14.7-8.5v0L61.6,77.8L61.6,77.8z"/>
	<polygon class="st4" points="63.9,60 91,44.4 91.1,44.5 91.2,44.7 91.3,44.9 91.4,45 91.5,45.2 91.6,45.4 91.7,45.6 91.8,45.7 
		91.9,45.9 91.9,46.1 92,46.3 92.1,46.5 92.1,46.7 92.2,46.8 92.2,47 92.3,47.2 95.5,62.4 95.5,62.4 95.5,62.5 95.5,62.6 95.5,62.7 
		95.6,62.7 95.6,62.8 95.6,62.9 95.6,62.9 95.6,63 95.6,63.1 95.6,63.1 95.6,63.2 95.6,63.3 95.6,63.4 95.6,63.4 95.6,63.5 
		95.6,63.6 95.6,79.8 68.5,95.5 68.5,79.2 68.5,79.2 68.5,79.1 68.5,79 68.5,78.9 68.5,78.9 68.5,78.8 68.5,78.7 68.5,78.7 
		68.5,78.6 68.5,78.5 68.4,78.5 68.4,78.4 68.4,78.3 68.4,78.2 68.4,78.2 68.4,78.1 68.4,78.1 65.1,62.9 65.1,62.7 65.1,62.5 
		65,62.3 64.9,62.1 64.9,61.9 64.8,61.8 64.7,61.6 64.7,61.4 64.6,61.2 64.5,61 64.4,60.9 64.3,60.7 64.2,60.5 64.1,60.3 64,60.2 	
		"/>
	<path class="st5" d="M45.8,70.4v-21c0-0.4,0.3-0.5,0.6-0.3L61.8,58c0.8,0.5,1.5,1.2,2.1,2h0c0.6,0.9,1,1.9,1.2,2.9l3.2,15.2l0,0
		c0,0.2,0.1,0.4,0.1,0.6c0,0.2,0,0.4,0,0.6v16.3c0,0.4-0.3,0.5-0.6,0.3L66,94.7c-0.3-0.2-0.6-0.6-0.6-1c0-2.5-0.9-5.3-2.3-7.7l0,0
		c-1.4-2.4-3.4-4.6-5.5-5.8c-2.2-1.3-4.1-1.4-5.6-0.5c-1.4,0.8-2.3,2.6-2.3,5.1c0,0.4-0.3,0.5-0.6,0.3v0c-0.9-0.5-2.1-1.2-3.4-2
		V70.4z"/>
	<path class="st1" d="M32.2,66.3l1.3-0.8l0.1,0l0.1,0l0.1,0l0.1,0.1l11.4,6.6l0.1,0.1l0.1,0.1l0.1,0.1l0.1,0.1l0.1,0.1l0.1,0.1
		l0,0.1l0,0.1c0,2.3,0,7.6,0,10l0.7,0.4l-2.2,1.3l0.1-0.1l0.1-0.1l0-0.1l0-0.1v-1.2c0-2.1,0-7.2,0-9.3l0-0.1l0-0.1l-0.1-0.1
		l-0.1-0.1l-0.1-0.1l-0.1-0.1L44.1,73L44,72.9l-11.4-6.6l-0.1-0.1l-0.1,0L32.2,66.3L32.2,66.3z"/>
	<path class="st3" d="M44.6,83.2v1.2c0,0.4-0.3,0.5-0.6,0.3l-11.4-6.6c-0.3-0.2-0.6-0.6-0.6-1v-5.4v-5.2c0-0.4,0.3-0.5,0.6-0.3
		L44,72.9c0.3,0.2,0.6,0.6,0.6,1v1.2v0.9v6.2V83.2z"/>
	<path class="st12" d="M50.4,55.2l10,5.8c0.5,0.3,0.9,0.7,1.2,1.2h0c0.3,0.5,0.6,1.1,0.7,1.7l0,0L65,76.3c0.1,0.4-0.1,0.7-0.4,0.6
		c-0.1,0-0.1,0-0.2-0.1v0l-14.1-8.1c-0.3-0.2-0.6-0.6-0.6-1V55.5C49.8,55.2,50.1,55,50.4,55.2z"/>
	<polygon class="st13" points="67.1,61.7 90.2,48.4 93.5,63.6 70.3,76.9 	"/>
	<polygon class="st14" points="69.3,72 80.9,65.4 83.1,61.5 89.2,58 92.5,58.9 93.5,63.6 70.3,76.9 	"/>
	<path class="st14" d="M64.4,73.4l0.6,3c0.1,0.4-0.1,0.7-0.4,0.6c-0.1,0-0.1,0-0.2-0.1v0l-14.1-8.1c-0.3-0.2-0.6-0.6-0.6-1v-2.1
		L64.4,73.4z"/>
	<polygon class="st15" points="91.1,77 90.6,76.7 90.5,76.6 90.3,76.4 90.2,76.3 90.1,76.1 90,75.9 90,75.7 90,75.5 89.9,75.2 
		90,74.9 90,74.6 90,74.4 90.1,74.1 90.2,73.8 90.3,73.5 90.5,73.2 90.6,73 90.8,72.7 90.9,72.4 91.1,72.2 91.3,72 91.5,71.8 
		91.8,71.6 92,71.4 92.2,71.3 92.4,71.1 92.7,71 92.9,71 93.1,71 93.3,70.9 93.5,71 93.7,71 93.8,71.1 94.4,71.4 94.2,71.3 94,71.3 
		93.8,71.3 93.6,71.3 93.4,71.3 93.2,71.4 93,71.4 92.7,71.6 92.5,71.7 92.3,71.9 92.1,72.1 91.9,72.3 91.7,72.5 91.5,72.7 91.3,73 
		91.1,73.3 91,73.5 90.9,73.8 90.8,74.1 90.7,74.4 90.6,74.7 90.5,74.9 90.5,75.2 90.5,75.5 90.5,75.8 90.5,76 90.6,76.2 90.7,76.4 
		90.8,76.6 90.9,76.7 91,76.9 	"/>
	<path class="st16" d="M92.7,76.8c-1.3,0.7-2.3,0.1-2.3-1.3c0-1.5,1-3.2,2.3-3.9c1.3-0.7,2.3-0.1,2.3,1.3C95,74.3,94,76.1,92.7,76.8
		z"/>
	<polygon class="st17" points="98.2,76.7 95.6,75.2 95.6,76.6 68.5,92.3 65.9,90.8 64.6,91.5 68.6,93.8 	"/>
	<polygon class="st5" points="68.6,93.8 64.6,91.5 64.6,95.8 68.6,98.2 	"/>
	<polygon class="st4" points="98.2,81.1 98.2,76.7 68.6,93.8 68.6,98.2 	"/>
	<path class="st5" d="M85.5,72.7l0,6.3c0,0.1-0.1,0.2-0.1,0.2L83.9,80l0-6.5l1.5-0.8C85.4,72.7,85.4,72.7,85.5,72.7z"/>
	<polygon class="st5" points="81.3,81.5 81.3,75 82.9,74.1 82.9,80.6 	"/>
	<polygon class="st5" points="80.3,75.6 80.3,82.1 78.7,83 78.7,76.5 	"/>
	<polygon class="st5" points="86.5,78.5 86.5,72 88.1,71.1 88.1,77.6 	"/>
	<polygon class="st5" points="76.2,84.4 76.2,78 77.8,77 77.8,83.5 	"/>
	<polygon class="st15" points="71,88.6 70.4,88.3 70.3,88.2 70.2,88 70,87.9 70,87.7 69.9,87.5 69.8,87.3 69.8,87.1 69.8,86.8 
		69.8,86.5 69.8,86.2 69.9,86 70,85.7 70,85.4 70.2,85.1 70.3,84.8 70.4,84.6 70.6,84.3 70.8,84 71,83.8 71.2,83.6 71.4,83.4 
		71.6,83.2 71.8,83 72,82.9 72.3,82.7 72.5,82.6 72.7,82.6 72.9,82.6 73.1,82.5 73.3,82.6 73.5,82.6 73.7,82.7 74.2,83 74,82.9 
		73.9,82.9 73.7,82.9 73.5,82.9 73.3,82.9 73,83 72.8,83 72.6,83.2 72.4,83.3 72.1,83.5 71.9,83.7 71.7,83.9 71.5,84.1 71.3,84.3 
		71.1,84.6 71,84.9 70.8,85.1 70.7,85.4 70.6,85.7 70.5,86 70.4,86.3 70.4,86.5 70.3,86.8 70.3,87.1 70.3,87.4 70.4,87.6 70.4,87.8 
		70.5,88 70.6,88.2 70.7,88.3 70.8,88.5 	"/>
	<path class="st16" d="M72.6,88.4c-1.3,0.7-2.3,0.1-2.3-1.3c0-1.4,1-3.2,2.3-3.9c1.3-0.7,2.3-0.1,2.3,1.3
		C74.9,85.9,73.8,87.7,72.6,88.4z"/>
	<polygon class="st1" points="77.8,77 76.2,78 76.2,82.6 77.8,83.5 	"/>
	<polygon class="st1" points="80.3,75.6 78.7,76.5 78.7,81.2 80.3,82.1 	"/>
	<polygon class="st1" points="82.9,74.1 81.3,75 81.3,79.7 82.9,80.6 	"/>
	<polygon class="st1" points="85.5,72.6 83.9,73.5 83.9,78.2 85.5,79.1 	"/>
	<polygon class="st1" points="88.1,71.1 86.5,72 86.5,76.7 88.1,77.6 	"/>
	<polygon class="st5" points="34,70.5 34.5,70.3 34.5,70.2 34.6,70.2 34.6,70.1 34.7,70 34.7,70 34.7,69.9 34.7,69.8 34.7,69.7 
		34.7,69.6 34.7,69.4 34.7,69.3 34.7,69.2 34.6,69.1 34.6,69 34.5,68.9 34.5,68.8 34.4,68.7 34.3,68.6 34.3,68.5 34.2,68.4 
		34.1,68.3 34,68.2 33.9,68.1 33.8,68.1 33.7,68 33.6,68 33.6,68 33.5,68 33.4,68 33.3,68 33.2,68 33.2,68 32.7,68.3 32.8,68.2 
		32.9,68.2 33,68.2 33,68.2 33.1,68.2 33.2,68.2 33.3,68.3 33.4,68.3 33.5,68.4 33.6,68.5 33.7,68.5 33.8,68.6 33.8,68.7 33.9,68.8 
		34,68.9 34,69 34.1,69.1 34.2,69.2 34.2,69.3 34.2,69.5 34.3,69.6 34.3,69.7 34.3,69.8 34.3,69.9 34.3,70 34.3,70.1 34.3,70.2 
		34.2,70.3 34.2,70.4 34.2,70.4 34.1,70.5 	"/>
	<path class="st1" d="M33.4,70.5c0.5,0.3,0.9,0.1,0.9-0.5c0-0.6-0.4-1.3-0.9-1.6c-0.5-0.3-0.9-0.1-0.9,0.5S32.9,70.2,33.4,70.5z"/>
	<polygon class="st17" points="65.1,71 64,70.4 60.6,72.4 61.7,73 	"/>
	<polygon class="st5" points="61.7,73 60.6,72.4 60.6,78.9 61.7,79.5 	"/>
	<polygon class="st4" points="65.1,77.5 65.1,71 61.7,73 61.7,79.5 	"/>
	<polygon class="st17" points="66.9,74.9 65.8,74.2 65.1,74.6 65.1,75.9 	"/>
	<polygon class="st4" points="66.9,76.5 66.9,74.9 65.1,75.9 65.1,77.5 	"/>
	<polygon class="st17" points="98.5,51.8 97.4,51.1 94,53.1 95.1,53.7 	"/>
	<polygon class="st5" points="95.1,53.7 94,53.1 94,55.3 95,60.2 95.1,60.2 	"/>
	<polygon class="st4" points="98.5,58.2 98.5,51.8 95.1,53.7 95.1,60.2 	"/>
	<path class="st18" d="M88.9,42.3l0.1,0.1l0.1,0.1l0.1,0.1l0.1,0.1l0.1,0.1l0.1,0.1l0.1,0.1l0.1,0.1l0.1,0.1l0.1,0.1l0.1,0.1
		l0.1,0.1l0.1,0.1l0.1,0.2l0.1,0.2l0.1,0.2L63.9,60l0,0h0c0-0.1-0.1-0.1-0.1-0.2c0-0.1-0.1-0.1-0.1-0.2c0-0.1-0.1-0.1-0.1-0.2
		c0-0.1-0.1-0.1-0.1-0.1c0,0-0.1-0.1-0.1-0.1c0,0-0.1-0.1-0.1-0.1c0,0-0.1-0.1-0.1-0.1c0,0-0.1-0.1-0.1-0.1c0,0-0.1-0.1-0.1-0.1
		c0,0-0.1-0.1-0.1-0.1c0,0-0.1-0.1-0.1-0.1c0,0-0.1-0.1-0.1-0.1c0,0-0.1-0.1-0.1-0.1c0,0-0.1-0.1-0.1-0.1c0,0-0.1-0.1-0.1-0.1
		c0,0-0.1-0.1-0.1-0.1l-15.4-8.9c-0.1,0-0.2-0.1-0.2-0.1l0.1-0.1l26.9-15.5l0.1,0l0.1,0l0.1,0l0.1,0.1L88.9,42.3z"/>
	<polygon class="st1" points="53.8,73.1 49.4,70.6 48.9,70.9 53.3,73.4 	"/>
	<polygon class="st3" points="53.3,73.4 48.9,70.9 48.9,71.9 53.3,74.5 	"/>
	<polygon class="st1" points="53.8,74.2 53.8,73.1 53.3,73.4 53.3,74.5 	"/>
</g>
</svg>
