<?xml version="1.0" encoding="utf-8"?>
<!-- Generator: Adobe Illustrator 24.2.1, SVG Export Plug-In . SVG Version: 6.00 Build 0)  -->
<svg version="1.1" id="Layer_1" xmlns="http://www.w3.org/2000/svg" xmlns:xlink="http://www.w3.org/1999/xlink" x="0px" y="0px"
	 viewBox="0 0 100 100" style="enable-background:new 0 0 100 100;" xml:space="preserve">
<style type="text/css">
	.st0{fill-rule:evenodd;clip-rule:evenodd;fill:#2B658D;}
	.st1{fill-rule:evenodd;clip-rule:evenodd;fill:#FFE0A6;}
	.st2{fill-rule:evenodd;clip-rule:evenodd;fill:#4C89C8;}
	.st3{fill-rule:evenodd;clip-rule:evenodd;fill:#5E7D86;}
	.st4{fill-rule:evenodd;clip-rule:evenodd;fill:#899EA4;}
	.st5{fill-rule:evenodd;clip-rule:evenodd;fill:#C2AC79;}
</style>
<g>
	<g>
		<polygon class="st0" points="25.7,75.2 25.1,75.6 24.5,76 23.8,76.4 23.2,76.9 22.6,77.4 22.1,78 21.5,78.5 20.9,79.1 20.4,79.7 
			19.8,80.3 19.3,81 18.8,81.6 18.3,82.3 17.9,83 17.4,83.7 17,84.4 16.6,85.1 16.2,85.8 15.9,86.5 15.6,87.2 15.3,87.9 15,88.6 
			14.7,89.3 14.5,90 14.3,90.7 14.1,91.4 13.9,92.1 13.7,92.8 13.6,93.5 13.5,94.2 13.4,94.9 13.4,95.6 18.7,98.7 18.7,98 
			18.8,97.3 18.9,96.6 19,95.9 19.2,95.2 19.4,94.5 19.6,93.8 19.8,93 20,92.3 20.3,91.6 20.6,90.9 20.9,90.2 21.2,89.5 21.5,88.8 
			21.9,88.2 22.3,87.5 22.7,86.8 23.1,86.1 23.6,85.4 24.1,84.7 24.6,84 25.1,83.4 25.7,82.8 26.2,82.2 26.8,81.6 27.3,81 
			27.9,80.5 28.5,80 29.1,79.5 29.8,79.1 30.4,78.6 31,78.2 31,78.2 31.7,77.9 32.3,77.6 32.9,77.3 33.5,77.1 34.1,76.9 34.7,76.8 
			35.3,76.7 35.8,76.6 36.4,76.6 36.9,76.6 37.4,76.6 37.9,76.7 38.4,76.8 38.9,77 39.3,77.1 39.8,77.4 34.5,74.3 34.1,74.1 
			33.6,73.9 33.1,73.8 32.7,73.6 32.2,73.6 31.6,73.5 31.1,73.5 30.6,73.5 30,73.6 29.4,73.7 28.8,73.9 28.2,74 27.6,74.3 27,74.5 
			26.4,74.8 25.7,75.2 		"/>
		<rect x="76.8" y="42.3" transform="matrix(0.5001 -0.866 0.866 0.5001 -0.8639 89.1266)" class="st1" width="0" height="6.1"/>
		<rect x="71.6" y="48.7" transform="matrix(0.5 -0.866 0.866 0.5 -9.0114 87.899)" class="st2" width="0" height="6.1"/>
		<path class="st0" d="M60.2,59.5l-0.4,0.7l-0.4,0.7l-0.3,0.7l-0.3,0.7l-0.3,0.7l-0.3,0.7L58,64.3L57.7,65l-0.2,0.7l-0.2,0.7
			l-0.2,0.7L57,67.9l-0.1,0.7l-0.1,0.7L56.7,70l-0.1,0.7l5.3,3.1L62,73l0.1-0.7l0.1-0.7l0.1-0.7l0.2-0.7l0.2-0.7l0.2-0.7l0.2-0.7
			l0.2-0.7l0.3-0.7l0.3-0.7l0.3-0.7l0.3-0.7l0.3-0.7l0.4-0.7l0.4-0.7l0.4-0.7l0.4-0.7l0.5-0.7l0.5-0.7l0.5-0.7l0.5-0.6l0.5-0.6
			l0.5-0.6l0.6-0.6l0.6-0.6l0.6-0.5l0.6-0.5l0.6-0.5l0.6-0.4l0.6-0.4l0.6-0.4L69,50.2l-0.6,0.4L67.7,51l-0.6,0.4L66.5,52l-0.6,0.5
			L65.3,53l-0.6,0.6l-0.6,0.6l-0.5,0.6l-0.5,0.6L62.6,56l-0.5,0.7l-0.5,0.7L61.1,58l-0.4,0.7L60.2,59.5L60.2,59.5z M83,52.4
			l-0.4-0.2L82.1,52l-0.5-0.2l-0.5-0.1l-0.5-0.1l-0.5,0l-0.5,0l-0.5,0l-0.6,0.1l-0.6,0.1l-0.6,0.1l-0.6,0.2l-0.6,0.2l-0.6,0.3
			l-0.6,0.3l-0.6,0.3L69,50.2l0.6-0.3l0.6-0.3l0.6-0.3l0.6-0.2l0.6-0.2l0.6-0.1l0.6-0.1l0.6-0.1l0.5,0l0.5,0l0.5,0l0.5,0.1l0.5,0.1
			l0.5,0.2l0.4,0.2l0.4,0.2L83,52.4z"/>
		<path class="st3" d="M49.7,39.4l0-0.2l0-0.2l0.1-0.2l0.1-0.2l0.1-0.2l0.1-0.2l0.1-0.1l0.2-0.1l0.2-0.1l0.1,0l0.1,0l0.1,0l0.9,0.5
			l-0.1,0l-0.1,0l-0.1,0l-0.2,0.1l-0.2,0.1l-0.1,0.1L51,39l-0.1,0.2l-0.1,0.2l-0.1,0.2l0,0.2l0,0.2v5.9L50.3,46l-0.3,0.2l-0.3,0.2
			l-0.3,0.2l-0.3,0.2L49,47.2l-0.3,0.3l-0.2,0.3L48.3,48L48,48.3l-0.2,0.3l-0.2,0.3l-0.2,0.3l-0.2,0.3L47,49.8l-0.2,0.3l-0.2,0.4
			l-0.2,0.4l-0.2,0.4L46,51.7l-0.2,0.4l-0.2,0.4l-0.1,0.4l-0.1,0.4l-0.1,0.4l-0.1,0.4l-0.1,0.4L45,55L45,55.4l0,0.4l0,0.4l0,0.4
			l0,0.6l0.1,0.6l0.1,0.5l0.1,0.5l0.2,0.4l0.2,0.4l0.2,0.4l0.3,0.3l-4,6.9L42,67.4L42,67.5l0,0.2l0,0.2l0,0.2l0,0.1l0.1,0.1l0.1,0.1
			l-0.9-0.5l-0.1-0.1L41,67.7l0-0.1l0-0.2l0-0.2l0-0.2l0.1-0.2l0.1-0.2l4-6.9l-0.3-0.3L44.7,59l-0.2-0.4l-0.2-0.4l-0.1-0.5L44,57.2
			L44,56.6l0-0.6l0-0.4l0-0.4l0-0.4l0.1-0.4l0.1-0.4l0.1-0.4l0.1-0.4l0.1-0.4l0.1-0.4l0.1-0.4l0.2-0.4l0.2-0.4l0.2-0.4l0.2-0.4
			l0.2-0.4l0.2-0.4l0.2-0.3l0.2-0.3l0.2-0.3l0.2-0.3l0.2-0.3l0.2-0.3l0.2-0.3l0.2-0.3l0.2-0.3l0.3-0.3l0.3-0.3l0.3-0.2l0.3-0.2
			l0.3-0.2l0.3-0.2l0.3-0.2V39.4L49.7,39.4z M55.4,49.4l0,0.3l0,0.3l0,0.3l0,0.3l-0.1,0.3l-0.1,0.3l-0.1,0.3L55,51.9l-0.1,0.3
			l-0.1,0.3l-0.1,0.3l-0.1,0.3l-0.1,0.3l-0.1,0.3L54.1,54L54,54.3l-0.4,0.6l-0.4,0.6L52.8,56l-0.4,0.5l-0.5,0.5l-0.5,0.4l-0.5,0.4
			L50.4,58l-0.5,0.3l-0.5,0.2L49,58.6l-0.5,0.1l-0.4,0l-0.4,0l-0.4-0.1l-0.4-0.2l0.9,0.5l0,0l0.4,0.2l0.4,0.1l0.4,0.1l0.4,0l0.5-0.1
			l0.5-0.1l0.5-0.2l0.5-0.3l0.5-0.3l0.5-0.4l0.5-0.4l0.5-0.5l0.4-0.5l0.4-0.5l0.4-0.6l0.4-0.6l0.2-0.3l0.2-0.3l0.1-0.3l0.1-0.3
			l0.1-0.3l0.1-0.3l0.1-0.3l0.1-0.3l0.1-0.3l0.1-0.3l0.1-0.3l0.1-0.3l0-0.3l0-0.3l0-0.3l0-0.3l0-0.6l-0.1-0.5l-0.1-0.5L56,47.9
			l-0.2-0.4l-0.2-0.3l-0.3-0.3l-0.3-0.2L54,46.2l0.3,0.2l0.3,0.3l0.2,0.3l0.2,0.4l0.2,0.4l0.1,0.5l0.1,0.5L55.4,49.4L55.4,49.4z
			 M46.9,58.4L46.9,58.4L46.9,58.4L46.9,58.4z M59.8,58.2l-0.9-0.5l-4-2.4l0.9,0.5L59.8,58.2L59.8,58.2z M52.1,44.9l0.5-0.2l0.5-0.2
			l0.5-0.1l0.5,0l0.5,0l0.4,0.1l0.4,0.1l0.4,0.2L55,44.3l-0.4-0.2L54.2,44l-0.4-0.1l-0.5,0l-0.5,0L52.3,44l-0.5,0.2l-0.6,0.2
			L52.1,44.9z"/>
		<path class="st4" d="M50.6,39.9c0-0.5,0.3-1.1,0.8-1.3c0.4-0.2,0.8,0,0.8,0.4v5.9c1.5-0.7,2.8-0.6,3.8-0.1l0,0
			c1.2,0.7,1.9,2.1,1.9,4.2c0,1.6-0.4,3.3-1.1,4.9l4.1,2.4c0.3,0.2,0.3,0.7,0,1.2c-0.3,0.5-0.8,0.8-1.1,0.6l-4-2.4
			c-1.2,1.9-2.7,3.5-4.4,4.5c-1.6,0.9-3.1,1.1-4.2,0.6l-3.9,6.8c-0.3,0.5-0.8,0.8-1.1,0.6c-0.3-0.2-0.3-0.7,0-1.2l4-6.9
			c-0.8-0.8-1.2-2-1.2-3.7c0-2.1,0.7-4.4,1.9-6.4c1-1.7,2.3-3.3,3.8-4.4V39.9L50.6,39.9z M47.7,58.8L47.7,58.8
			C47.7,58.8,47.7,58.8,47.7,58.8c0.1,0.1,0.1,0.1,0.2,0.1l0,0c0.9,0.5,2.1,0.4,3.5-0.4c1.4-0.8,2.6-2.2,3.5-3.7
			c0.9-1.6,1.5-3.3,1.5-4.9c0-1.6-0.6-2.7-1.5-3.2c-0.9-0.5-2.1-0.4-3.5,0.4l0,0c-1.4,0.8-2.6,2.2-3.5,3.7c-0.9,1.6-1.5,3.3-1.5,4.9
			C46.4,57.2,46.9,58.2,47.7,58.8z"/>
		<polygon class="st5" points="79.4,34.9 74.1,31.9 73.9,31.8 73.6,31.7 73.3,31.6 73,31.5 72.7,31.4 72.4,31.4 72.1,31.4 
			71.8,31.4 71.5,31.5 71.1,31.5 70.8,31.6 70.4,31.7 70.1,31.9 69.7,32 69.3,32.2 69,32.4 68.6,32.6 68.2,32.9 67.9,33.1 
			67.5,33.4 67.2,33.7 66.8,34 66.5,34.4 66.1,34.7 65.8,35.1 65.5,35.4 65.2,35.8 64.9,36.2 64.6,36.6 64.3,37 64.1,37.4 
			63.8,37.8 63.6,38.3 63.4,38.7 63.1,39.2 62.9,39.6 62.7,40 62.6,40.5 62.4,41 62.3,41.4 62.1,41.9 62,42.3 61.9,42.8 61.8,43.2 
			61.8,43.7 61.7,44.1 61.7,44.6 61.7,45 61.7,45.4 61.7,45.9 61.8,46.2 61.8,46.6 61.9,47 62,47.3 62.1,47.7 62.3,48 62.4,48.2 
			62.6,48.5 62.7,48.8 62.9,49 63.1,49.2 63.4,49.4 63.6,49.6 63.8,49.7 69.1,52.8 68.9,52.6 68.6,52.5 68.4,52.3 68.2,52.1 
			68,51.8 67.9,51.6 67.7,51.3 67.5,51 67.4,50.7 67.3,50.4 67.2,50 67.1,49.7 67.1,49.3 67,48.9 67,48.5 67,48.1 67,47.6 67,47.2 
			67.1,46.7 67.1,46.3 67.2,45.8 67.3,45.4 67.4,44.9 67.5,44.5 67.7,44 67.9,43.6 68,43.1 68.2,42.7 68.4,42.2 68.6,41.8 
			68.9,41.3 69.1,40.9 69.4,40.5 69.6,40.1 69.9,39.6 70.2,39.2 70.5,38.9 70.8,38.5 71.1,38.1 71.4,37.8 71.8,37.4 72.1,37.1 
			72.4,36.8 72.8,36.5 73.1,36.2 73.5,35.9 73.9,35.7 74.3,35.5 74.6,35.3 75,35.1 75.4,34.9 75.7,34.8 76.1,34.7 76.4,34.6 
			76.8,34.5 77.1,34.5 77.4,34.5 77.7,34.5 78,34.5 78.3,34.5 78.6,34.6 78.9,34.7 79.2,34.8 		"/>
		<polygon class="st5" points="36.2,59.9 30.9,56.9 30.6,56.7 30.4,56.6 30.1,56.5 29.8,56.5 29.5,56.4 29.2,56.4 28.9,56.4 
			28.6,56.4 28.2,56.4 27.9,56.5 27.6,56.6 27.2,56.7 26.8,56.8 26.5,57 26.1,57.2 25.7,57.4 25.4,57.6 25,57.8 24.6,58.1 
			24.3,58.4 23.9,58.7 23.6,59 23.2,59.3 22.9,59.7 22.6,60 22.3,60.4 22,60.8 21.7,61.2 21.4,61.6 21.1,62 20.8,62.4 20.6,62.8 
			20.3,63.2 20.1,63.7 19.9,64.1 19.7,64.6 19.5,65 19.3,65.5 19.2,65.9 19,66.4 18.9,66.8 18.8,67.3 18.7,67.7 18.6,68.2 
			18.5,68.7 18.5,69.1 18.5,69.5 18.5,70 18.5,70.4 18.5,70.8 18.5,71.2 18.6,71.6 18.7,72 18.8,72.3 18.9,72.6 19,72.9 19.2,73.2 
			19.3,73.5 19.5,73.7 19.7,74 19.9,74.2 20.1,74.4 20.3,74.5 20.6,74.7 25.9,77.7 25.6,77.6 25.4,77.4 25.2,77.2 25,77 24.8,76.8 
			24.6,76.5 24.5,76.3 24.3,76 24.2,75.7 24.1,75.3 24,75 23.9,74.6 23.8,74.3 23.8,73.9 23.7,73.5 23.7,73 23.7,72.6 23.8,72.2 
			23.8,71.7 23.9,71.3 24,70.8 24.1,70.3 24.2,69.9 24.3,69.4 24.5,69 24.6,68.5 24.8,68.1 25,67.6 25.2,67.2 25.4,66.7 25.6,66.3 
			25.9,65.9 26.1,65.4 26.4,65 26.7,64.6 26.9,64.2 27.2,63.8 27.5,63.4 27.9,63.1 28.2,62.7 28.5,62.4 28.9,62.1 29.2,61.7 
			29.6,61.4 29.9,61.2 30.3,60.9 30.6,60.7 31,60.4 31.4,60.2 31.8,60 32.1,59.9 32.5,59.7 32.8,59.6 33.2,59.6 33.5,59.5 
			33.9,59.4 34.2,59.4 34.5,59.4 34.8,59.5 35.1,59.5 35.4,59.6 35.6,59.7 35.9,59.8 		"/>
		<g>
			<path class="st0" d="M52.6,23.2l-5.3-3.1l-0.6,0.4l-0.6,0.4l-0.6,0.4l-0.6,0.5l-0.6,0.5l-0.6,0.5l-0.6,0.6L42.5,24L42,24.6
				l-0.5,0.6l-0.5,0.6l-0.5,0.7l-0.5,0.7l-0.5,0.7L39,28.6l-0.4,0.7L38.2,30l-0.4,0.7l-0.3,0.7l-0.3,0.7l-0.3,0.7l-0.3,0.7l-0.3,0.7
				l-0.2,0.7l-0.2,0.7l-0.2,0.7l-0.2,0.7l-0.2,0.7l-0.1,0.7l-0.1,0.7l-0.1,0.7L35,40.6l5.3,3.1l0.1-0.7l0.1-0.7l0.1-0.7l0.1-0.7
				l0.2-0.7l0.2-0.7l0.2-0.7l0.2-0.7l0.2-0.7l0.3-0.7l0.3-0.7l0.3-0.7l0.3-0.7l0.3-0.7l0.4-0.7l0.4-0.7l0.4-0.7l0.4-0.7l0.5-0.7
				l0.5-0.7l0.5-0.7l0.5-0.6l0.5-0.6l0.5-0.6l0.6-0.6l0.6-0.6l0.6-0.5l0.6-0.5l0.6-0.5l0.6-0.4l0.6-0.4L52.6,23.2L52.6,23.2z
				 M61.4,22.3L61,22.1l-0.5-0.2L60,21.7l-0.5-0.1l-0.5-0.1l-0.5,0l-0.5,0l-0.5,0l-0.6,0.1l-0.6,0.1l-0.6,0.1L55.1,22l-0.6,0.2
				l-0.6,0.3l-0.6,0.3l-0.6,0.3l-5.3-3.1l0.6-0.3l0.6-0.3l0.6-0.3l0.6-0.2l0.6-0.2l0.6-0.1l0.6-0.1l0.6-0.1l0.5,0l0.5,0l0.5,0
				l0.5,0.1l0.5,0.1l0.5,0.2l0.4,0.2l0.4,0.2L61.4,22.3z"/>
			<path class="st5" d="M57.8,4.8l-5.3-3.1l-0.3-0.1L52,1.5l-0.3-0.1l-0.3-0.1l-0.3,0l-0.3,0l-0.3,0l-0.3,0l-0.3,0l-0.3,0.1
				l-0.3,0.1l-0.4,0.1l-0.4,0.1l-0.4,0.2l-0.4,0.2l-0.4,0.2L47,2.5l-0.4,0.2L46.2,3l-0.4,0.3l-0.4,0.3l-0.3,0.3l-0.3,0.3l-0.3,0.3
				L44.2,5l-0.3,0.4l-0.3,0.4l-0.3,0.4L43,6.5l-0.3,0.4l-0.3,0.4l-0.3,0.4L42,8.2l-0.2,0.4L41.5,9l-0.2,0.4l-0.2,0.5l-0.2,0.5
				l-0.2,0.5l-0.1,0.5l-0.1,0.5l-0.1,0.5l-0.1,0.5l-0.1,0.5l-0.1,0.4l0,0.4l0,0.4l0,0.4l0,0.4l0,0.4l0,0.4l0.1,0.4l0.1,0.4l0.1,0.3
				l0.1,0.3l0.1,0.3l0.1,0.3l0.2,0.3l0.2,0.3l0.2,0.2l0.2,0.2l0.2,0.2l0.2,0.2l0.2,0.2l5.3,3.1l-0.2-0.2L47,22.4l-0.2-0.2l-0.2-0.2
				l-0.2-0.2l-0.2-0.3l-0.2-0.3l-0.1-0.3l-0.1-0.3l-0.1-0.3l-0.1-0.3l-0.1-0.4l-0.1-0.4l0-0.4l0-0.4l0-0.4l0-0.4l0-0.4l0-0.4
				l0.1-0.4l0.1-0.5l0.1-0.5l0.1-0.5l0.1-0.5l0.1-0.5l0.2-0.5l0.2-0.5l0.2-0.4l0.2-0.4l0.2-0.4l0.2-0.4l0.2-0.4l0.3-0.4L48,9.9
				l0.3-0.4l0.3-0.4l0.3-0.4l0.3-0.4L49.5,8l0.3-0.4l0.3-0.3L50.5,7l0.3-0.3l0.4-0.3l0.4-0.3l0.4-0.3l0.4-0.2l0.4-0.2L53,5.2L53.4,5
				l0.4-0.2l0.4-0.1l0.4-0.1l0.3-0.1l0.3-0.1l0.3,0l0.3,0l0.3,0l0.3,0l0.3,0L57,4.5l0.3,0.1l0.3,0.1L57.8,4.8L57.8,4.8z M52.6,23.2
				L52.6,23.2l-5.3-3l0,0L52.6,23.2z"/>
		</g>
		<path class="st2" d="M61.4,22.3c-2.2-1.3-5.3-1.1-8.8,0.9l0,0c-3.4,2-6.5,5.4-8.7,9.2c-2.1,3.6-3.4,7.5-3.6,11.2L65,29.4
			C64.8,25.9,63.4,23.5,61.4,22.3z"/>
		<path class="st2" d="M83,52.4c-2.2-1.3-5.3-1.1-8.8,0.9l0,0c-3.4,2-6.5,5.4-8.7,9.2c-2.1,3.6-3.4,7.5-3.6,11.2l24.7-14.3
			C86.4,56,85.1,53.6,83,52.4z"/>
		<path class="st2" d="M39.8,77.4c-2.2-1.3-5.3-1.1-8.8,0.9l0,0c-3.4,2-6.5,5.4-8.7,9.2c-2.1,3.6-3.4,7.5-3.6,11.2l24.7-14.3
			C43.2,81,41.8,78.6,39.8,77.4z"/>
		<path class="st1" d="M52.6,22.2L52.6,22.2c2-1.2,3.8-3.2,5.1-5.4h0c1.3-2.3,2.1-4.9,2.1-7.2c0-2.3-0.8-4-2.1-4.7
			c-1.3-0.8-3.1-0.6-5.1,0.5c-2,1.2-3.8,3.2-5.1,5.4c-1.3,2.3-2.1,4.9-2.1,7.2c0,2.3,0.8,4,2.1,4.7C48.8,23.4,50.6,23.3,52.6,22.2z"
			/>
		<path class="st1" d="M79.4,34.9c-1.3-0.8-3.1-0.7-5.1,0.5c-2,1.2-3.8,3.2-5.1,5.4c-1.3,2.3-2.1,4.9-2.1,7.2s0.8,4,2.1,4.7
			c1.3,0.8,3.1,0.7,5.1-0.5l0,0c2-1.2,3.8-3.2,5.1-5.4l0,0c1.3-2.3,2.1-4.9,2.1-7.2C81.5,37.3,80.7,35.7,79.4,34.9z"/>
		<path class="st1" d="M36.2,59.9c-1.3-0.8-3.1-0.7-5.1,0.5c-2,1.2-3.8,3.2-5.1,5.4c-1.3,2.3-2.1,4.9-2.1,7.2c0,2.3,0.8,4,2.1,4.7
			c1.3,0.8,3.1,0.7,5.1-0.5l0,0c2-1.2,3.8-3.2,5.1-5.4v0c1.3-2.3,2.1-4.9,2.1-7.2C38.3,62.3,37.5,60.7,36.2,59.9z"/>
	</g>
</g>
</svg>
