<?xml version="1.0" encoding="utf-8"?>
<!-- Generator: Adobe Illustrator 24.2.1, SVG Export Plug-In . SVG Version: 6.00 Build 0)  -->
<svg version="1.1" id="Layer_1" xmlns="http://www.w3.org/2000/svg" xmlns:xlink="http://www.w3.org/1999/xlink" x="0px" y="0px"
	 viewBox="0 0 100 100" style="enable-background:new 0 0 100 100;" xml:space="preserve">
<style type="text/css">
	.st0{fill:#ABB7B7;}
	.st1{fill:#E9E8E9;}
	.st2{fill:#239D58;}
	.st3{fill:#A4C639;}
	.st4{fill:#DBA827;}
	.st5{fill:#FDD800;}
	.st6{fill:#B52B2A;}
	.st7{fill:#E74D3D;}
</style>
<path class="st0" d="M81.6,7.3l-10.4-6l0,0c-1.3-0.8-3-0.7-4.9,0.4l-1.1,0.6c-4.1,2.4-7.4,8.7-7.4,14.1v43.8c0,3.1,1.1,5.2,2.8,6.1
	l0,0l10.3,6c1.3,0.8,3,0.8,5-0.3l1.1-0.6c4.1-2.4,7.4-8.7,7.4-14.1V13.4C84.3,10.3,83.3,8.2,81.6,7.3z"/>
<path class="st1" d="M77,71.3L75.9,72c-4.1,2.4-7.4-0.1-7.4-5.6V22.6c0-5.4,3.3-11.7,7.4-14.1L77,7.8c4.1-2.4,7.4,0.1,7.4,5.6v43.8
	C84.3,62.7,81,69,77,71.3z"/>
<path class="st2" d="M85.4,17L81,14.5v0c-1.3-0.8-2.9-0.7-4.8,0.4c-4,2.3-7.2,8.5-7.2,13.8c0,3,1,5,2.6,5.9L76,37l0,0
	c1.3,0.7,2.9,0.7,4.7-0.4c4-2.3,7.2-8.5,7.2-13.8C87.9,19.9,86.9,17.9,85.4,17z"/>
<path class="st3" d="M87.9,22.9c0,5.3-3.2,11.5-7.2,13.8c-4,2.3-7.2-0.1-7.2-5.5c0-5.3,3.2-11.5,7.2-13.8
	C84.7,15.1,87.9,17.6,87.9,22.9z"/>
<path class="st0" d="M58.8,20.5l-10.4-6l0,0c-1.3-0.8-3-0.7-4.9,0.4l-1.1,0.6c-4.1,2.4-7.4,8.7-7.4,14.1v43.8c0,3.1,1.1,5.2,2.8,6.1
	l0,0l10.3,6c1.3,0.8,3,0.8,5-0.3l1.1-0.6c4.1-2.4,7.4-8.7,7.4-14.1V26.6C61.5,23.5,60.4,21.4,58.8,20.5z"/>
<path class="st1" d="M54.1,84.5L53,85.1c-4.1,2.4-7.4-0.1-7.4-5.6V35.7c0-5.4,3.3-11.7,7.4-14.1l1.1-0.6c4.1-2.4,7.4,0.1,7.4,5.6
	v43.8C61.5,75.9,58.2,82.2,54.1,84.5z"/>
<path class="st4" d="M62.5,54.5L62.5,54.5l-4.4-2.5c-1.3-0.8-2.9-0.7-4.8,0.4c-4,2.3-7.2,8.5-7.2,13.8c0,3,1,5,2.6,5.9l4.4,2.5
	c1.3,0.7,2.9,0.7,4.7-0.4c4-2.3,7.2-8.5,7.2-13.8C65.1,57.4,64.1,55.3,62.5,54.5z"/>
<path class="st5" d="M65.1,60.3c0,5.3-3.2,11.5-7.2,13.8c-4,2.3-7.2-0.1-7.2-5.5s3.2-11.5,7.2-13.8C61.8,52.6,65.1,55,65.1,60.3z"/>
<path class="st0" d="M35.9,33.7l-10.4-6l0,0c-1.3-0.8-3-0.7-4.9,0.4l-1.1,0.6c-4.1,2.4-7.4,8.7-7.4,14.1v43.8c0,3.1,1.1,5.2,2.8,6.1
	v0l10.3,6c1.3,0.8,3,0.8,5-0.3l1.1-0.6c4.1-2.4,7.4-8.7,7.4-14.1V39.8C38.6,36.7,37.5,34.6,35.9,33.7z"/>
<path class="st1" d="M31.2,97.7l-1.1,0.6c-4.1,2.4-7.4-0.1-7.4-5.6V48.9c0-5.4,3.3-11.7,7.4-14.1l1.1-0.6c4.1-2.4,7.4,0.1,7.4,5.6
	v43.8C38.6,89,35.3,95.4,31.2,97.7z"/>
<path class="st6" d="M39.6,46L39.6,46l-4.4-2.5l0,0c-1.3-0.8-2.9-0.7-4.8,0.4c-4,2.3-7.2,8.5-7.2,13.8c0,3,1,5,2.6,5.9l4.4,2.5v0
	c1.3,0.7,2.9,0.7,4.7-0.4c4-2.3,7.2-8.5,7.2-13.8C42.2,48.9,41.2,46.9,39.6,46z"/>
<path class="st7" d="M42.2,51.9c0,5.3-3.2,11.5-7.2,13.8c-4,2.3-7.2-0.1-7.2-5.5c0-5.3,3.2-11.5,7.2-13.8
	C38.9,44.1,42.2,46.6,42.2,51.9z"/>
</svg>
