<?xml version="1.0" encoding="utf-8"?>
<!-- Generator: Adobe Illustrator 24.2.1, SVG Export Plug-In . SVG Version: 6.00 Build 0)  -->
<svg version="1.1" id="Layer_1" xmlns="http://www.w3.org/2000/svg" xmlns:xlink="http://www.w3.org/1999/xlink" x="0px" y="0px"
	 viewBox="0 0 100 100" style="enable-background:new 0 0 100 100;" xml:space="preserve">
<style type="text/css">
	.st0{fill:#455FA1;}
	.st1{fill:#304D8A;}
	.st2{fill:#2A3E7C;}
	.st3{fill:#242E62;}
	.st4{fill:#EFF5FC;}
	.st5{fill:#FCAF17;}
	.st6{fill:#F89422;}
	.st7{fill:#C3DDF4;}
	.st8{fill:#EE8422;}
	.st9{fill:#75C9F1;}
	.st10{fill:#5EC1D8;}
	.st11{fill:#26A6A6;}
	.st12{fill:#59BAEA;}
	.st13{fill:#2299D5;}
</style>
<g>
	<rect x="34.7" y="73.3" class="st0" width="20.3" height="8.7"/>
	<rect x="34.7" y="73.3" class="st1" width="3.7" height="8.7"/>
	<path class="st2" d="M64.5,86.5c0,0.5-0.4,0.9-0.9,0.9H26.1c-0.5,0-0.9-0.4-0.9-0.9v-3.8c0-0.5,0.4-0.9,0.9-0.9h37.4
		c0.5,0,0.9,0.4,0.9,0.9L64.5,86.5L64.5,86.5z"/>
	<path class="st3" d="M28.9,86.5v-3.8c0-0.5,0.4-0.9,0.9-0.9h-3.7c-0.5,0-0.9,0.4-0.9,0.9v3.8c0,0.5,0.4,0.9,0.9,0.9h3.7
		C29.4,87.4,28.9,87,28.9,86.5z"/>
	<path class="st2" d="M1.9,71.6c0,1,0.8,1.9,1.9,1.9h56.4V60.9H1.9V71.6z"/>
	<path class="st3" d="M5.6,71.6V60.9H1.9v10.7c0,1,0.8,1.9,1.9,1.9h3.7C6.4,73.5,5.6,72.6,5.6,71.6z"/>
	<path class="st0" d="M60.2,55.8c0-0.4,0.3-0.8,0.8-0.8h26.9V14.4c0-1.1-0.9-2.1-2.1-2.1H3.9c-1.1,0-2.1,0.9-2.1,2.1v46.7h58.3v-5.3
		H60.2z"/>
	<path class="st4" d="M60.2,55.8c0-0.4,0.3-0.8,0.8-0.8h22.8V17.4c0-0.5-0.4-0.9-0.9-0.9h-76c-0.5,0-0.9,0.4-0.9,0.9V56
		c0,0.5,0.4,0.9,0.9,0.9h53.2L60.2,55.8L60.2,55.8z"/>
	<circle class="st0" cx="44.9" cy="67.3" r="2.6"/>
	<path class="st5" d="M80.1,40.7c0,0.5-0.4,0.9-0.9,0.9H49.4c-0.5,0-0.9-0.4-0.9-0.9V27c0-0.5,0.4-0.9,0.9-0.9h29.8
		c0.5,0,0.9,0.4,0.9,0.9V40.7L80.1,40.7z"/>
	<path class="st6" d="M52.2,40.7V27c0-0.5,0.4-0.9,0.9-0.9h-3.7c-0.5,0-0.9,0.4-0.9,0.9v13.7c0,0.5,0.4,0.9,0.9,0.9h3.7
		C52.6,41.6,52.2,41.2,52.2,40.7z"/>
	<g>
		<path class="st7" d="M58.1,47H50c-0.8,0-1.4-0.6-1.4-1.4s0.6-1.4,1.4-1.4h8.1c0.8,0,1.4,0.6,1.4,1.4S58.9,47,58.1,47z"/>
		<path class="st7" d="M58.1,51.3H50c-0.8,0-1.4-0.6-1.4-1.4s0.6-1.4,1.4-1.4h8.1c0.8,0,1.4,0.6,1.4,1.4S58.9,51.3,58.1,51.3z"/>
		<path class="st7" d="M67.9,47h-6c-0.8,0-1.4-0.6-1.4-1.4s0.6-1.4,1.4-1.4h6c0.8,0,1.4,0.6,1.4,1.4S68.7,47,67.9,47z"/>
		<path class="st7" d="M67.9,51.3h-6c-0.8,0-1.4-0.6-1.4-1.4s0.6-1.4,1.4-1.4h6c0.8,0,1.4,0.6,1.4,1.4S68.7,51.3,67.9,51.3z"/>
		<path class="st7" d="M79.3,47h-7.7c-0.8,0-1.4-0.6-1.4-1.4s0.6-1.4,1.4-1.4h7.7c0.8,0,1.4,0.6,1.4,1.4S80.1,47,79.3,47z"/>
		<path class="st7" d="M79.3,51.3h-7.7c-0.8,0-1.4-0.6-1.4-1.4s0.6-1.4,1.4-1.4h7.7c0.8,0,1.4,0.6,1.4,1.4S80.1,51.3,79.3,51.3z"/>
	</g>
	<g>
		<path class="st8" d="M69.4,22.8c0,0.5-0.4,0.9-0.9,0.9h-2.1c-0.5,0-0.9-0.4-0.9-0.9v-2.1c0-0.5,0.4-0.9,0.9-0.9h2.1
			c0.5,0,0.9,0.4,0.9,0.9V22.8z"/>
		<path class="st8" d="M74.7,22.8c0,0.5-0.4,0.9-0.9,0.9h-2.1c-0.5,0-0.9-0.4-0.9-0.9v-2.1c0-0.5,0.4-0.9,0.9-0.9h2.1
			c0.5,0,0.9,0.4,0.9,0.9V22.8z"/>
		<path class="st8" d="M80,22.8c0,0.5-0.4,0.9-0.9,0.9H77c-0.5,0-0.9-0.4-0.9-0.9v-2.1c0-0.5,0.4-0.9,0.9-0.9h2
			c0.5,0,0.9,0.4,0.9,0.9L80,22.8L80,22.8z"/>
	</g>
	<g>
		<path class="st9" d="M37.8,50.2h-1.7c-0.8,0-1.4-0.6-1.4-1.4c0-0.8,0.6-1.4,1.4-1.4h1.7c0.8,0,1.4,0.6,1.4,1.4
			C39.2,49.6,38.5,50.2,37.8,50.2z"/>
		<path class="st9" d="M31.4,50.2h-1.7c-0.8,0-1.4-0.6-1.4-1.4c0-0.8,0.6-1.4,1.4-1.4h1.7c0.8,0,1.4,0.6,1.4,1.4
			C32.8,49.6,32.1,50.2,31.4,50.2z"/>
		<path class="st9" d="M25,50.2h-1.7c-0.8,0-1.4-0.6-1.4-1.4c0-0.8,0.6-1.4,1.4-1.4H25c0.8,0,1.4,0.6,1.4,1.4
			C26.4,49.6,25.8,50.2,25,50.2z"/>
		<path class="st9" d="M18.6,50.2h-1.7c-0.8,0-1.4-0.6-1.4-1.4c0-0.8,0.6-1.4,1.4-1.4h1.7c0.8,0,1.4,0.6,1.4,1.4
			C20,49.6,19.4,50.2,18.6,50.2z"/>
		<path class="st9" d="M43.3,44.4c-0.8,0-1.4-0.6-1.4-1.4v-1.7c0-0.8,0.6-1.4,1.4-1.4c0.8,0,1.4,0.6,1.4,1.4V43
			C44.7,43.7,44,44.4,43.3,44.4z"/>
		<path class="st9" d="M43.3,38c-0.8,0-1.4-0.6-1.4-1.4v-1.7c0-0.8,0.6-1.4,1.4-1.4c0.8,0,1.4,0.6,1.4,1.4v1.7
			C44.7,37.4,44,38,43.3,38z"/>
		<path class="st9" d="M43.3,31.6c-0.8,0-1.4-0.6-1.4-1.4v-1.7c0-0.8,0.6-1.4,1.4-1.4c0.8,0,1.4,0.6,1.4,1.4v1.7
			C44.7,31,44,31.6,43.3,31.6z"/>
		<path class="st9" d="M11.3,44.4c-0.8,0-1.4-0.6-1.4-1.4v-1.7c0-0.8,0.6-1.4,1.4-1.4s1.4,0.6,1.4,1.4V43
			C12.7,43.7,12.1,44.4,11.3,44.4z"/>
		<path class="st9" d="M11.3,38c-0.8,0-1.4-0.6-1.4-1.4v-1.7c0-0.8,0.6-1.4,1.4-1.4s1.4,0.6,1.4,1.4v1.7C12.7,37.4,12.1,38,11.3,38z
			"/>
		<path class="st9" d="M11.3,31.6c-0.8,0-1.4-0.6-1.4-1.4v-1.7c0-0.8,0.6-1.4,1.4-1.4s1.4,0.6,1.4,1.4v1.7
			C12.7,31,12.1,31.6,11.3,31.6z"/>
		<path class="st9" d="M37.8,24.6h-1.7c-0.8,0-1.4-0.6-1.4-1.4s0.6-1.4,1.4-1.4h1.7c0.8,0,1.4,0.6,1.4,1.4S38.5,24.6,37.8,24.6z"/>
		<path class="st9" d="M31.4,24.6h-1.7c-0.8,0-1.4-0.6-1.4-1.4s0.6-1.4,1.4-1.4h1.7c0.8,0,1.4,0.6,1.4,1.4S32.1,24.6,31.4,24.6z"/>
		<path class="st9" d="M25,24.6h-1.7c-0.8,0-1.4-0.6-1.4-1.4s0.6-1.4,1.4-1.4H25c0.8,0,1.4,0.6,1.4,1.4S25.8,24.6,25,24.6z"/>
		<path class="st9" d="M18.6,24.6h-1.7c-0.8,0-1.4-0.6-1.4-1.4s0.6-1.4,1.4-1.4h1.7c0.8,0,1.4,0.6,1.4,1.4S19.4,24.6,18.6,24.6z"/>
	</g>
	<path class="st10" d="M39.5,44.1c0,0.5-0.4,0.9-0.9,0.9H16c-0.5,0-0.9-0.4-0.9-0.9V27.9c0-0.5,0.4-0.9,0.9-0.9h22.6
		c0.5,0,0.9,0.4,0.9,0.9V44.1z"/>
	<path class="st11" d="M18.8,44.1V27.9c0-0.5,0.4-0.9,0.9-0.9H16c-0.5,0-0.9,0.4-0.9,0.9v16.2c0,0.5,0.4,0.9,0.9,0.9h3.7
		C19.2,45,18.8,44.6,18.8,44.1z"/>
	<g>
		<path class="st12" d="M45.9,24.6c0,0.5-0.4,0.9-0.9,0.9h-4c-0.5,0-0.9-0.4-0.9-0.9v-3.9c0-0.5,0.4-0.9,0.9-0.9h4
			c0.5,0,0.9,0.4,0.9,0.9V24.6z"/>
		<path class="st12" d="M14.7,25c0,0.5-0.4,0.9-0.9,0.9h-4c-0.5,0-0.9-0.4-0.9-0.9v-4c0-0.5,0.4-0.9,0.9-0.9h3.9
			c0.5,0,0.9,0.4,0.9,0.9L14.7,25L14.7,25z"/>
		<path class="st12" d="M45.9,50.9c0,0.5-0.4,0.9-0.9,0.9h-4c-0.5,0-0.9-0.4-0.9-0.9V47c0-0.5,0.4-0.9,0.9-0.9h4
			c0.5,0,0.9,0.4,0.9,0.9V50.9z"/>
		<path class="st12" d="M14.7,50.9c0,0.5-0.4,0.9-0.9,0.9h-4c-0.5,0-0.9-0.4-0.9-0.9V47c0-0.5,0.4-0.9,0.9-0.9h3.9
			c0.5,0,0.9,0.4,0.9,0.9L14.7,50.9L14.7,50.9z"/>
	</g>
	<g>
		<path class="st13" d="M42.1,24.6v-3.9c0-0.5,0.4-0.9,0.9-0.9h-2c-0.5,0-0.9,0.4-0.9,0.9v3.9c0,0.5,0.4,0.9,0.9,0.9h2.1
			C42.6,25.6,42.1,25.1,42.1,24.6z"/>
		<path class="st13" d="M10.9,25v-4c0-0.5,0.4-0.9,0.9-0.9h-2c-0.5,0-0.9,0.4-0.9,0.9v4c0,0.5,0.4,0.9,0.9,0.9h2.1
			C11.4,25.9,10.9,25.5,10.9,25z"/>
		<path class="st13" d="M42.1,50.9V47c0-0.5,0.4-0.9,0.9-0.9h-2c-0.5,0-0.9,0.4-0.9,0.9v3.9c0,0.5,0.4,0.9,0.9,0.9h2.1
			C42.6,51.9,42.1,51.4,42.1,50.9z"/>
		<path class="st13" d="M10.9,50.9V47c0-0.5,0.4-0.9,0.9-0.9h-2c-0.5,0-0.9,0.4-0.9,0.9v3.9c0,0.5,0.4,0.9,0.9,0.9h2.1
			C11.4,51.9,10.9,51.4,10.9,50.9z"/>
	</g>
	<path class="st10" d="M83.7,70.8C83.7,70.7,83.7,70.7,83.7,70.8L83.7,70.8L83.7,70.8l8,2.8V55.8c0-0.5-0.4-0.9-0.9-0.9H60.9
		c-0.5,0-0.9,0.4-0.9,0.9v21.6c0,0.5,0.4,0.9,0.9,0.9h25.6L83.7,70.8z"/>
	<path class="st11" d="M63.7,77.4V55.8c0-0.5,0.4-0.9,0.9-0.9h-3.7c-0.5,0-0.9,0.4-0.9,0.9v21.6c0,0.5,0.4,0.9,0.9,0.9h3.7
		C64.2,78.3,63.7,77.9,63.7,77.4z"/>
	<path class="st2" d="M83.9,70.5c-0.3-0.1-0.5,0-0.4,0.4l5,13.5c0.1,0.3,0.4,0.4,0.6,0.1l2.6-2.6c0.2-0.2,0.6-0.2,0.8,0l3,3
		c0.2,0.2,0.6,0.2,0.8,0l1.4-1.4c0.2-0.2,0.2-0.6,0-0.8l-3-3c-0.2-0.2-0.2-0.6,0-0.8l2.6-2.6c0.2-0.2,0.2-0.5-0.1-0.6L83.9,70.5z"/>
</g>
</svg>
