<?xml version="1.0" encoding="utf-8"?>
<!-- Generator: Adobe Illustrator 24.2.1, SVG Export Plug-In . SVG Version: 6.00 Build 0)  -->
<svg version="1.1" id="Layer_1" xmlns="http://www.w3.org/2000/svg" xmlns:xlink="http://www.w3.org/1999/xlink" x="0px" y="0px"
	 viewBox="0 0 100 100" style="enable-background:new 0 0 100 100;" xml:space="preserve">
<style type="text/css">
	.st0{fill-rule:evenodd;clip-rule:evenodd;fill:#D1DDF1;}
	.st1{fill-rule:evenodd;clip-rule:evenodd;fill:#B6CAE9;}
	.st2{fill-rule:evenodd;clip-rule:evenodd;fill:#28AE60;}
	.st3{fill-rule:evenodd;clip-rule:evenodd;fill:#8DA4D0;}
	.st4{fill-rule:evenodd;clip-rule:evenodd;fill:#0D8943;}
	.st5{fill-rule:evenodd;clip-rule:evenodd;fill:#E6EAEA;}
</style>
<g>
	<g>
		<path class="st0" d="M84.1,15.9c-4.5-4.5-9.8-8-15.7-10.5C62.8,3.1,56.5,1.8,50,1.8c-6.5,0-12.8,1.3-18.5,3.6
			c-5.9,2.4-11.2,6-15.7,10.5c-4.5,4.5-8,9.8-10.5,15.7C3,37.3,1.7,43.5,1.7,50c0,6.5,1.3,12.8,3.7,18.5c2.4,5.9,6,11.2,10.5,15.7
			c4.5,4.5,9.8,8,15.7,10.5c5.7,2.4,11.9,3.7,18.5,3.7c6.5,0,12.8-1.3,18.5-3.7c5.9-2.4,11.2-6,15.7-10.5c4.5-4.5,8-9.8,10.5-15.7
			c2.4-5.7,3.7-11.9,3.7-18.5c0-6.5-1.3-12.8-3.7-18.5C92.2,25.7,88.6,20.4,84.1,15.9z"/>
		<g>
			<path class="st1" d="M81.1,18.9c-4.1-4.1-8.9-7.3-14.3-9.6C61.7,7.2,56,6,50,6c-6,0-11.7,1.2-16.8,3.3
				c-5.4,2.2-10.2,5.5-14.3,9.6c-4.1,4.1-7.3,8.9-9.6,14.3C7.1,38.4,5.9,44.1,5.9,50c0,6,1.2,11.7,3.3,16.9
				c2.2,5.4,5.5,10.2,9.6,14.3c4.1,4.1,8.9,7.3,14.3,9.6c5.2,2.1,10.9,3.3,16.8,3.3c6,0,11.7-1.2,16.8-3.3
				c5.4-2.2,10.2-5.5,14.3-9.6s7.3-8.9,9.6-14.3C92.9,61.7,94,56,94,50c0-6-1.2-11.7-3.3-16.8C88.5,27.8,85.2,23,81.1,18.9z"/>
			<path class="st2" d="M83.5,21.4c1.6,1.9,5.7,7.9,7.4,12.2c2.2,5.4,3.2,11.2,3.2,16.9C94,56.3,92.8,62,90.5,67.4
				c-2.2,5.2-5.4,10-9.7,14.2c-4.3,4.2-9.2,7.3-14.4,9.4c-2.2,0.9,4-6.4,0.2-10.4c-3.8-4-20,0.6-19.5-7.6c0.5-8.3,4.1-8.2,6-12.5
				c1.9-4.3,4.2-0.8,12.3-3.6c8.1-2.8,18.8-2.4,22.4-6c3.5-3.7-13.4,0.7-16.5-0.1c-3.1-0.8-3.7-4.5-6-4.4c-2.2,0.1-1,4.2-3.5,4.9
				c-2.5,0.8-9.2,1.9-9.6-0.9c-1.6-10.9,6.9-7.5,7.4-8.1c2.2-2.6-2.6-4.6,0.4-8.3c3-3.6,6-4.3,7.6-6.8c1.6-2.5-3.7-4.5-1.3-6.5
				C68.5,18.7,81.8,19.4,83.5,21.4z"/>
		</g>
		<path class="st2" d="M47,6.1c-10.3,0.7-20.4,5-28.2,12.8c-4.2,4.2-7.4,9.1-9.6,14.3c-4.5,10.8-4.5,23,0,33.8
			c1.8,4.3,4.3,8.4,7.5,12.1c0.2,0.3,0.5,0.4,0.9,0.4c0.4,0,0.7-0.1,0.9-0.4c2.9-3.4,11.4-5.7,12-10.2c0.4-3.3-5.1-4.6-6.5-7.6
			c-1.6-3.4-0.3-7.9-2.5-11.1c-2.2-3.2-10.6-3.5-12.8-6.7c-1.2-1.8-0.3-4.4,0.3-6.4c0.3-0.9,1.4-1.4,2.3-1.6c1.3-0.3,2.7,0,4,0
			c0.1,0,12.6-1.9,16.4-3.5c3.8-1.7,1.7-3.9,3.4-4.5c1.7-0.7,4.3,4.4,6.9,2.2c2.6-2.2,4.6-13.1,5.6-15.6c0.9-2.5,4.4-0.1,5.3,0.5
			c0.9,0.5-1.6,5.4-0.4,6.3c1.2,0.9,6-2.2,6.7-2.8c3.7-3.6,2.7-7,0.7-8.6C57.9,7.6,51.6,9.8,48,6.4C47.7,6.2,47.4,6,47,6.1z"/>
		<path class="st3" d="M66,9c-5-1.9-10.4-3-16-3c-6,0-11.7,1.2-16.8,3.3c-5.4,2.2-10.2,5.5-14.3,9.6c-4.1,4.1-7.3,8.9-9.6,14.3
			C7.1,38.4,5.9,44.1,5.9,50c0,6,1.2,11.7,3.3,16.9c2.2,5.4,5.5,10.2,9.6,14.3c4.1,4.1,8.9,7.3,14.3,9.6c5.2,2.1,10.9,3.3,16.8,3.3
			c6,0,11.7-1.2,16.8-3.3c5.4-2.2,10.2-5.5,14.3-9.6c1.2-1.2,2.3-2.4,3.4-3.8C77.2,84.6,67.2,89,56.1,89
			c-22.4,0-40.6-18.2-40.6-40.6C15.5,26,33.7,7.8,56.1,7.8C59.5,7.8,62.8,8.2,66,9z"/>
		<path class="st4" d="M47,6.1c-10.3,0.7-20.4,5-28.2,12.8c-4.2,4.2-7.4,9.1-9.6,14.3c-4.5,10.8-4.5,23,0,33.8
			c1.8,4.3,4.3,8.4,7.5,12.1c0.2,0.3,0.5,0.4,0.9,0.4c0.4,0,0.7-0.1,0.9-0.4c1.4-1.6,4-3,6.5-4.4c-6-7.1-9.6-16.3-9.6-26.3
			c0-0.5,0-1,0-1.5c-2.7-0.9-5.5-1.8-6.7-3.4c-1.2-1.8-0.3-4.4,0.3-6.4c0.3-0.9,1.4-1.4,2.3-1.6c1.3-0.3,2.7,0,4,0
			c0,0,0.9-0.1,2.3-0.4c5-14.4,17.9-25.2,33.5-27C50,7.8,48.9,7.3,48,6.4C47.7,6.2,47.4,6,47,6.1z"/>
		<path class="st4" d="M84.6,77.3c-1.2,1.5-2.4,2.9-3.8,4.2c-4.3,4.2-9.2,7.3-14.4,9.4c-1.1,0.4-0.1-1.2,0.7-3.5
			C73.8,85.6,79.8,82,84.6,77.3z"/>
		<path class="st5" d="M50.5,97.7c8.5-0.1,16.5-2.4,23.3-6.4c-7,2.9-15.2,4.4-23.4,4.5C50.5,96.5,50.5,97.2,50.5,97.7L50.5,97.7z
			 M97.7,49.9c0-6.9-2.7-13.4-7.2-18.9c-0.3,1.1-0.7,2.2-1.3,3.3c-1.8,3.6-5.1,6.9-9.9,9.8c4.1,7.7,6.8,15.8,7.5,23.3
			c3.1-2.1,5.5-4.5,7.3-7c2.3-3.2,3.5-6.6,3.6-10.1L97.7,49.9L97.7,49.9L97.7,49.9z M89.5,30c-0.3,1.3-0.7,2.6-1.3,3.8
			c-1.7,3.4-4.9,6.6-9.4,9.3c-0.8-1.5-1.7-2.9-2.6-4.4C70,28.9,61.5,20.1,52.1,14.2c12.3,0.4,23.5,4.3,31.6,10.5
			C85.9,26.3,87.8,28.1,89.5,30L89.5,30z M47.9,14.2c-12.3,0.4-23.5,4.3-31.6,10.5c-2.1,1.6-4.1,3.4-5.8,5.3
			c0.3,1.3,0.7,2.6,1.3,3.8c1.7,3.4,4.8,6.5,9.3,9.3c0.8-1.5,1.7-2.9,2.6-4.3C30,29,38.4,20.1,47.9,14.2L47.9,14.2z M9.6,31.1
			c0.3,1.1,0.7,2.2,1.3,3.3c1.8,3.6,5.1,6.9,9.8,9.7c-4.1,7.7-6.8,15.8-7.5,23.3c-2.8-2-5.1-4.1-6.8-6.4c-2.4-3.1-3.7-6.4-3.9-9.7
			c0-0.3,0-0.6,0-0.8v0v0l0,0l0-0.4C2.3,43,5,36.6,9.6,31.1L9.6,31.1z M3.9,37.9c1.3-2.9,3.1-5.7,5.4-8.2c-0.2-1.5-0.2-2.9,0-4.4
			C6.9,29.1,5.1,33.4,3.9,37.9L3.9,37.9z M10.3,28.5c-0.2-1.9,0.1-3.9,0.8-5.8l-0.1-0.1c1.6-2.3,3.4-4.4,5.4-6.4
			c2.1-2.1,4.5-4.1,7-5.8c2.6-1.4,5.8-2,9.3-1.9c4.6,0.2,9.8,1.6,15.3,4.5c-12.6,0.4-24,4.4-32.3,10.7
			C13.6,25.3,11.9,26.9,10.3,28.5L10.3,28.5z M52.1,13.1c12.6,0.4,24,4.4,32.3,10.7c1.9,1.5,3.7,3,5.3,4.7c0.2-1.9-0.1-3.9-0.8-5.8
			l0.1-0.1c-1.6-2.3-3.4-4.4-5.4-6.4c-1.1-1.1-2.4-2.2-3.6-3.3l0,0l-0.2-0.1c-0.8-0.7-1.7-1.3-2.6-1.9c-2.8-1.7-6.2-2.5-10.1-2.4
			C62.8,8.8,57.6,10.2,52.1,13.1L52.1,13.1z M90.7,29.7c0.2-1.5,0.2-2.9,0-4.4c2.4,3.9,4.2,8.1,5.3,12.6
			C94.8,34.9,92.9,32.2,90.7,29.7L90.7,29.7z M98.8,49.8l0,0.2l0,0l0,0.1h0c0,0.1,0,0.2,0,0.3C98.7,61.6,94.9,71.8,88.5,80
			c-1,1.6-2.3,3.2-3.9,4.6c-0.6,0.6-1.3,1.1-2,1.7C73.9,94.1,62.5,98.8,50,98.8c-12.5,0-23.9-4.7-32.6-12.5c-0.7-0.6-1.4-1.1-2-1.7
			c-1.6-1.5-2.9-3-3.9-4.6C5.1,71.8,1.3,61.5,1.2,50.4v0v0l0-0.2l0,0V50c0-13.5,5.5-25.7,14.3-34.5c1.1-1.1,2.3-2.2,3.6-3.3l0,0
			c1.1-1.1,2.3-2,3.7-2.7C30.5,4.3,39.9,1.2,50,1.2c10.4,0,20.1,3.3,28,8.8c0.9,0.6,1.8,1.2,2.6,2c1.4,1.1,2.6,2.3,3.9,3.5
			C93.3,24.3,98.7,36.4,98.8,49.8L98.8,49.8z M15.6,83c-0.1-0.2-0.2-0.5-0.4-0.7c-1.5-3.1-2.3-7-2.3-11.4c0-0.7,0-1.4,0.1-2.2
			c-3.2-2.2-5.7-4.5-7.6-7c-1-1.3-1.8-2.6-2.4-4c1.3,8,4.6,15.4,9.4,21.5l0,0l0.1,0.1C13.4,80.6,14.5,81.8,15.6,83L15.6,83z
			 M50.5,12.7c0-3.4,0-5.8,0-7.5c0-1.3,0-2.2,0-2.8c7.9,0.1,15.2,2.1,21.7,5.5c-1.6-0.3-3.3-0.4-5-0.4C62.2,7.7,56.5,9.3,50.5,12.7
			L50.5,12.7z M49.3,14.6l0,1c0,10.1,0,22.5,0,34.3v0.2c-9.8-0.1-19.6-2.3-27.2-6.5c0.8-1.4,1.6-2.9,2.5-4.3
			C31,29.4,39.7,20.4,49.3,14.6L49.3,14.6z M21.6,44.6c-4.2,7.8-6.8,15.9-7.4,23.5c0.6,0.4,1.3,0.8,2,1.2c9.2,5.3,21.1,8,33.1,8.1
			c0-8.1,0-17.2,0-26.1C39.3,51.2,29.3,49,21.6,44.6L21.6,44.6z M14.1,69.4c0,0.5,0,1,0,1.4c0,4.3,0.8,8,2.1,10.9
			c0.8,1.7,1.8,3.3,3.1,4.5c0.8,0.5,1.6,1,2.4,1.5c7.6,4.4,17.6,6.7,27.6,6.7c0-2.2,0-5.6,0-10.2l0-5.8c-12.2-0.1-24.4-2.8-33.7-8.2
			C15.1,70,14.6,69.7,14.1,69.4L14.1,69.4z M80.3,86.6c-0.7,0.4-1.3,0.9-2.1,1.3c-7.7,4.4-17.7,6.7-27.7,6.7c0-2.3,0-5.6,0-10.2
			l0-5.8c12.3-0.1,24.5-2.8,33.9-8.2c0.5-0.3,0.9-0.6,1.4-0.8c0,0.5,0,0.9,0,1.3c0,4.3-0.8,8-2.1,10.9
			C82.8,83.6,81.6,85.2,80.3,86.6L80.3,86.6z M49.4,95.7c-8.2-0.1-16.3-1.6-23.3-4.5c6.9,4,14.8,6.3,23.3,6.4
			C49.4,97.2,49.4,96.5,49.4,95.7L49.4,95.7z M87.6,79.3c-1.1,1.4-2.2,2.7-3.4,3.9c0.2-0.3,0.3-0.7,0.5-1c1.5-3.1,2.3-7,2.3-11.4
			c0-0.7,0-1.4-0.1-2.1c3.5-2.3,6.2-4.9,8.1-7.6c0.8-1.1,1.5-2.3,2-3.4c-1.3,8-4.6,15.4-9.4,21.5l0,0L87.6,79.3L87.6,79.3z
			 M78.4,44.7c4.2,7.8,6.8,16,7.3,23.5c-0.6,0.4-1.2,0.8-1.9,1.2c-9.2,5.3-21.3,8-33.4,8.1c0-7.6,0-16.7,0-26.1
			C60.5,51.2,70.6,49,78.4,44.7L78.4,44.7z M50.4,50.2c9.9-0.1,19.8-2.2,27.4-6.5c-0.8-1.5-1.7-2.9-2.6-4.3
			c-6.4-10-15.1-19-24.8-24.8l0,1.1c0,8.9,0,21.4,0,34.3V50.2L50.4,50.2z M49.4,12.6c0-3.4,0-5.8,0-7.4c0-1.3,0-2.2,0-2.8
			c-7.8,0.1-15.1,2-21.5,5.4c1.5-0.3,3.1-0.4,4.8-0.3C37.6,7.6,43.3,9.3,49.4,12.6z"/>
	</g>
</g>
</svg>
