<?xml version="1.0" encoding="utf-8"?>
<!-- Generator: Adobe Illustrator 24.2.1, SVG Export Plug-In . SVG Version: 6.00 Build 0)  -->
<svg version="1.1" id="Layer_1" xmlns="http://www.w3.org/2000/svg" xmlns:xlink="http://www.w3.org/1999/xlink" x="0px" y="0px"
	 viewBox="0 0 100 100" style="enable-background:new 0 0 100 100;" xml:space="preserve">
<style type="text/css">
	.st0{fill:#E8A661;}
	.st1{fill:#E59544;}
	.st2{fill:#417194;}
	.st3{fill:#385E7E;}
</style>
<g>
	<path class="st0" d="M62.1,7.2l-3,4H40.6l-2.6-4V1.5C38,0.7,38.6,0,39.5,0h21.2c0.8,0,1.5,0.7,1.5,1.5L62.1,7.2z"/>
	<path class="st1" d="M60.6,0h-4.4c0.8,0,1.5,0.7,1.5,1.5v9.6l4.4-4V1.5C62.1,0.7,61.5,0,60.6,0z"/>
	<path class="st0" d="M60.6,100H39.5c-0.8,0-1.5-0.7-1.5-1.5v-5.6l3.2-4h17.9l3,4v5.6C62.1,99.3,61.5,100,60.6,100z"/>
	<path class="st1" d="M57.8,88.8v9.6c0,0.8-0.7,1.5-1.5,1.5h4.4c0.8,0,1.5-0.7,1.5-1.5v-5.6L57.8,88.8z"/>
	<path class="st2" d="M77.9,92.8H22.2c-3,0-5.3-2.7-4.8-5.7l11-75.7c0.4-2.4,2.4-4.3,4.8-4.3H67c2.4,0,4.5,1.8,4.8,4.3l11,75.7
		C83.2,90.1,80.9,92.8,77.9,92.8L77.9,92.8z"/>
	<g>
		<g>
			<path class="st3" d="M73.8,40.8c-14.9,0-27-4.9-34.8-9.2c-9.1-5-14.2-10.2-14.4-10.4c-0.6-0.6-0.6-1.5,0-2.1
				c0.6-0.6,1.5-0.6,2.1,0c0.1,0.1,5.1,5.1,13.8,9.9c8,4.4,20.9,9.5,36.6,8.7c0.8,0,1.5,0.6,1.6,1.4c0,0.8-0.6,1.5-1.4,1.6
				C76.1,40.8,74.9,40.8,73.8,40.8L73.8,40.8z"/>
		</g>
		<g>
			<path class="st3" d="M74.9,51.5c-14.9,0-27.7-4.9-36-9.2c-9.7-5-15.4-10.1-15.7-10.4c-0.6-0.6-0.7-1.5-0.1-2.1
				c0.5-0.6,1.5-0.7,2.1-0.1c0.1,0.1,5.8,5.2,15.1,10c8.6,4.4,22.2,9.5,37.9,8.7c0.8,0,1.5,0.6,1.6,1.4c0,0.8-0.6,1.5-1.4,1.6
				C77.3,51.5,76.1,51.5,74.9,51.5z"/>
		</g>
		<g>
			<path class="st3" d="M76.5,62.2c-15,0-28.6-4.9-37.6-9.1c-10.5-5-17-10.1-17.3-10.3c-0.6-0.5-0.8-1.5-0.3-2.1
				c0.5-0.7,1.4-0.8,2.1-0.3c0.1,0.1,6.6,5.2,16.8,10c9.4,4.4,23.9,9.6,39.7,8.7c0,0,0.1,0,0.1,0c0.8,0,1.4,0.6,1.5,1.4
				c0,0.8-0.6,1.5-1.4,1.6C78.9,62.1,77.7,62.2,76.5,62.2L76.5,62.2z"/>
		</g>
		<g>
			<path class="st3" d="M28.9,24.6c-0.6,0-1.1-0.3-1.4-0.9c-0.3-0.8,0-1.7,0.8-2c4.5-2,7.9-5.3,10.3-9.7c1.8-3.3,2.3-6.1,2.3-6.1
				c0.1-0.8,0.9-1.4,1.7-1.2c0.8,0.1,1.4,0.9,1.2,1.7C43.8,6.9,41.7,19,29.5,24.5C29.3,24.6,29.1,24.6,28.9,24.6L28.9,24.6z"/>
		</g>
		<g>
			<path class="st3" d="M36.9,30.2c-0.6,0-1.1-0.4-1.4-0.9c-0.3-0.8,0-1.6,0.8-2c0,0,2.8-1.2,6.2-4.4c3.2-3,7.6-8.4,10.6-17.2
				c0.3-0.8,1.1-1.2,1.9-0.9c0.8,0.3,1.2,1.1,0.9,1.9c-6.3,18.1-18,23.2-18.5,23.4C37.2,30.1,37.1,30.2,36.9,30.2L36.9,30.2z"/>
		</g>
		<g>
			<path class="st3" d="M46.5,35.2c-0.5,0-1.1-0.3-1.3-0.8c-0.4-0.7-0.1-1.7,0.7-2c0.1,0,3.6-1.8,7.9-5.9c4-3.8,9.5-10.4,13.1-20.4
				c0.3-0.8,1.1-1.2,1.9-0.9c0.8,0.3,1.2,1.2,0.9,1.9C65.8,17.6,60,24.6,55.7,28.7c-4.6,4.4-8.4,6.3-8.5,6.3
				C47,35.1,46.7,35.2,46.5,35.2L46.5,35.2z"/>
		</g>
		<g>
			<path class="st3" d="M59.1,39c-0.6,0-1.1-0.3-1.3-0.9c-0.3-0.8,0-1.7,0.7-2c0.1-0.1,10-4.8,15.1-12.6c0.4-0.7,1.4-0.9,2-0.4
				c0.7,0.5,0.9,1.4,0.4,2.1c-5.5,8.6-15.9,13.5-16.3,13.7C59.5,38.9,59.3,39,59.1,39L59.1,39z"/>
		</g>
		<g>
			<path class="st3" d="M20.8,57.8c-0.7,0-1.4-0.5-1.5-1.3c-0.1-0.8,0.5-1.6,1.3-1.7c6.6-0.9,9.5-7.9,9.5-7.9
				c0.3-0.8,1.2-1.1,1.9-0.8c0.8,0.3,1.1,1.2,0.8,2c-0.1,0.4-3.6,8.6-11.8,9.8C20.9,57.8,20.9,57.8,20.8,57.8z"/>
		</g>
		<g>
			<path class="st3" d="M18.7,72.3c-0.6,0-1.1-0.3-1.4-0.9c-0.3-0.8,0-1.7,0.8-2c7.4-3.2,12.2-8.1,14.8-11.7c2.9-3.9,4-7.1,4-7.1
				c0.3-0.8,1.1-1.2,1.9-0.9c0.8,0.3,1.2,1.1,0.9,1.9c-0.2,0.6-5,14-20.5,20.6C19.1,72.3,18.9,72.3,18.7,72.3L18.7,72.3z"/>
		</g>
		<g>
			<path class="st3" d="M17,85.8c-0.6,0-1.2-0.4-1.4-1.1c-0.2-0.8,0.2-1.6,1-1.9c11.8-3.6,18.9-11.2,22.8-16.9
				c4.2-6.2,5.7-11.6,5.7-11.6c0.2-0.8,1-1.3,1.8-1.1c0.8,0.2,1.3,1,1,1.9c-0.1,0.2-1.6,5.9-6.2,12.6C37.6,73.8,30,81.9,17.4,85.7
				C17.2,85.8,17.1,85.8,17,85.8L17,85.8z"/>
		</g>
		<g>
			<path class="st3" d="M27.8,95.2c-0.5,0-0.9-0.2-1.2-0.6c-0.5-0.7-0.3-1.6,0.3-2.1c7.2-5.3,17-13.8,22.6-24.5
				c3.3-6.4,3.5-10.6,3.5-10.6c0-0.8,0.7-1.5,1.5-1.4c0.8,0,1.4,0.7,1.4,1.6c0,0.2-0.2,4.8-3.8,11.7c-5.8,11.3-16,20.3-23.6,25.7
				C28.4,95.1,28.1,95.2,27.8,95.2L27.8,95.2z"/>
		</g>
		<g>
			<path class="st3" d="M81.8,74.9c-0.1,0-0.2,0-0.3,0c-4.2-0.9-9.7-3.1-12.4-8.4c-1.6-3.3-1.4-6.2-1.4-6.3c0.1-0.8,0.8-1.4,1.6-1.4
				c0.8,0.1,1.4,0.8,1.3,1.6c0,0.4-0.6,9,11.4,11.5c0.8,0.2,1.3,1,1.1,1.8C83.1,74.5,82.5,74.9,81.8,74.9L81.8,74.9z"/>
		</g>
		<g>
			<path class="st3" d="M84,88.6c-0.1,0-0.1,0-0.2,0c-12.9-1.4-20.8-8.4-25.2-14c-4.7-6.1-6.4-11.8-6.5-12c-0.2-0.8,0.2-1.6,1-1.9
				c0.8-0.2,1.6,0.2,1.8,1c0,0.1,1.7,5.5,6.1,11.1c5.9,7.5,13.6,11.8,23.1,12.8c0.8,0.1,1.4,0.8,1.3,1.7
				C85.3,88.1,84.7,88.6,84,88.6L84,88.6z"/>
		</g>
		<g>
			<path class="st3" d="M67.1,95c-0.2,0-0.4-0.1-0.7-0.2c-15.3-7.8-21-18.1-21.2-18.5c-0.4-0.7-0.1-1.6,0.6-2c0.7-0.4,1.6-0.1,2,0.6
				c0,0,1.4,2.5,4.5,5.9c2.9,3.1,7.9,7.6,15.5,11.4c0.7,0.4,1,1.3,0.7,2C68.2,94.6,67.7,95,67.1,95z"/>
		</g>
		<g>
			<path class="st3" d="M68.7,74.9c-0.2,0-0.5-0.1-0.7-0.2c-4.2-2.3-5.6-7.3-5.7-7.5c-0.2-0.8,0.2-1.6,1-1.9c0.8-0.2,1.6,0.2,1.8,1
				c0,0.1,1.2,4,4.2,5.6c0.7,0.4,1,1.3,0.6,2C69.8,74.6,69.3,74.9,68.7,74.9L68.7,74.9z"/>
		</g>
		<g>
			<path class="st3" d="M60.5,30.2c-0.5,0-1.1-0.3-1.3-0.8c-0.4-0.7-0.1-1.7,0.7-2c3.3-1.6,5.1-4.9,5.2-5c0.4-0.7,1.3-1,2-0.6
				c0.7,0.4,1,1.3,0.6,2c-0.1,0.2-2.3,4.1-6.5,6.2C60.9,30.1,60.7,30.2,60.5,30.2z"/>
		</g>
	</g>
</g>
</svg>
